M48
; DRILL file {KiCad 8.0.7+1} date 2025-02-19T14:48:13+0100
; FORMAT={-:-/ absolute / inch / decimal}
; #@! TF.CreationDate,2025-02-19T14:48:13+01:00
; #@! TF.GenerationSoftware,Kicad,Pcbnew,8.0.7+1
; #@! TF.FileFunction,Plated,1,2,PTH
FMAT,2
INCH
; #@! TA.AperFunction,Plated,PTH,ViaDrill
T1C0.0236
; #@! TA.AperFunction,Plated,PTH,ComponentDrill
T2C0.0350
; #@! TA.AperFunction,Plated,PTH,ComponentDrill
T3C0.0394
%
G90
G05
T1
X4.5079Y-3.1496
X4.5079Y-3.5433
X4.5079Y-3.937
X4.5079Y-4.3307
X4.5079Y-4.7244
X4.6917Y-4.1094
X4.7835Y-2.874
X4.7835Y-5.2362
X4.8843Y-4.087
X5.1024Y-4.3622
X5.1378Y-2.874
X5.1378Y-3.3465
X5.1378Y-5.2362
X5.2079Y-3.9913
X5.2079Y-4.1957
X5.2165Y-3.622
X5.2596Y-4.1939
X5.263Y-3.9902
X5.3161Y-3.9929
X5.3161Y-4.1933
X5.3327Y-3.8453
X5.3689Y-3.9929
X5.4134Y-4.3713
X5.4295Y-3.9906
X5.4295Y-4.0571
X5.524Y-3.772
X5.635Y-4.0295
X5.635Y-4.0811
X5.65Y-4.2547
X5.6831Y-3.7717
X5.7512Y-3.9787
X5.7512Y-4.0472
X5.8898Y-3.7323
X5.8898Y-4.126
X5.9252Y-2.874
X5.9252Y-3.3465
X5.9252Y-5.2362
X6.0039Y-4.5276
X6.0504Y-4.3791
X6.1516Y-4.4685
X6.2402Y-3.9764
X6.2402Y-4.2028
X6.2795Y-2.874
X6.2795Y-3.9189
X6.2795Y-5.2362
X6.3264Y-4.5693
X6.3496Y-4.3941
X6.3598Y-4.2114
T2
X5.0882Y-3.5343
X5.0882Y-3.6343
X5.0882Y-3.7343
X5.0882Y-3.8343
X5.0882Y-3.9343
X5.0882Y-4.0343
X5.0882Y-4.1343
X5.0882Y-4.2343
X5.9882Y-3.5343
X5.9882Y-3.6343
X5.9882Y-3.7343
X5.9882Y-3.8343
X5.9882Y-3.9343
X5.9882Y-4.0343
X5.9882Y-4.1343
X5.9882Y-4.2343
T3
X4.7431Y-3.7872
X4.7431Y-3.8872
X4.7431Y-3.9872
X4.8431Y-3.7872
X4.8431Y-3.8872
X4.8431Y-3.9872
X6.4418Y-3.0866
X6.4418Y-3.1866
X6.4418Y-3.2866
X6.4418Y-3.3866
X6.4418Y-3.4866
X6.4418Y-3.5866
X6.4418Y-3.6866
X6.4418Y-3.7866
X6.4418Y-3.8866
X6.4418Y-3.9866
X6.4418Y-4.0866
X6.4418Y-4.1866
X6.4418Y-4.2866
X6.4418Y-4.3866
X6.4418Y-4.4866
X6.4418Y-4.5866
X6.4418Y-4.6866
X6.4418Y-4.7866
X6.4418Y-4.8866
X6.4418Y-4.9866
X6.5418Y-3.0866
X6.5418Y-3.1866
X6.5418Y-3.2866
X6.5418Y-3.3866
X6.5418Y-3.4866
X6.5418Y-3.5866
X6.5418Y-3.6866
X6.5418Y-3.7866
X6.5418Y-3.8866
X6.5418Y-3.9866
X6.5418Y-4.0866
X6.5418Y-4.1866
X6.5418Y-4.2866
X6.5418Y-4.3866
X6.5418Y-4.4866
X6.5418Y-4.5866
X6.5418Y-4.6866
X6.5418Y-4.7866
X6.5418Y-4.8866
X6.5418Y-4.9866
M30
