%TF.GenerationSoftware,KiCad,Pcbnew,8.0.7+1*%
%TF.CreationDate,2025-02-19T14:48:18+01:00*%
%TF.ProjectId,ts15-rpi-shield,74733135-2d72-4706-992d-736869656c64,rev?*%
%TF.SameCoordinates,Original*%
%TF.FileFunction,Soldermask,Bot*%
%TF.FilePolarity,Negative*%
%FSLAX46Y46*%
G04 Gerber Fmt 4.6, Leading zero omitted, Abs format (unit mm)*
G04 Created by KiCad (PCBNEW 8.0.7+1) date 2025-02-19 14:48:18*
%MOMM*%
%LPD*%
G01*
G04 APERTURE LIST*
%ADD10C,0.150000*%
%ADD11R,1.700000X1.700000*%
%ADD12O,1.700000X1.700000*%
%ADD13R,1.676400X1.676400*%
%ADD14C,1.524000*%
%ADD15R,1.524000X1.524000*%
%ADD16C,6.000000*%
%ADD17C,1.700000*%
G04 APERTURE END LIST*
D10*
X144499998Y-131808628D02*
X143642856Y-131808628D01*
X144071427Y-133308628D02*
X144071427Y-131808628D01*
X143214284Y-133237200D02*
X142999999Y-133308628D01*
X142999999Y-133308628D02*
X142642856Y-133308628D01*
X142642856Y-133308628D02*
X142499999Y-133237200D01*
X142499999Y-133237200D02*
X142428570Y-133165771D01*
X142428570Y-133165771D02*
X142357141Y-133022914D01*
X142357141Y-133022914D02*
X142357141Y-132880057D01*
X142357141Y-132880057D02*
X142428570Y-132737200D01*
X142428570Y-132737200D02*
X142499999Y-132665771D01*
X142499999Y-132665771D02*
X142642856Y-132594342D01*
X142642856Y-132594342D02*
X142928570Y-132522914D01*
X142928570Y-132522914D02*
X143071427Y-132451485D01*
X143071427Y-132451485D02*
X143142856Y-132380057D01*
X143142856Y-132380057D02*
X143214284Y-132237200D01*
X143214284Y-132237200D02*
X143214284Y-132094342D01*
X143214284Y-132094342D02*
X143142856Y-131951485D01*
X143142856Y-131951485D02*
X143071427Y-131880057D01*
X143071427Y-131880057D02*
X142928570Y-131808628D01*
X142928570Y-131808628D02*
X142571427Y-131808628D01*
X142571427Y-131808628D02*
X142357141Y-131880057D01*
X140928570Y-133308628D02*
X141785713Y-133308628D01*
X141357142Y-133308628D02*
X141357142Y-131808628D01*
X141357142Y-131808628D02*
X141499999Y-132022914D01*
X141499999Y-132022914D02*
X141642856Y-132165771D01*
X141642856Y-132165771D02*
X141785713Y-132237200D01*
X139571428Y-131808628D02*
X140285714Y-131808628D01*
X140285714Y-131808628D02*
X140357142Y-132522914D01*
X140357142Y-132522914D02*
X140285714Y-132451485D01*
X140285714Y-132451485D02*
X140142857Y-132380057D01*
X140142857Y-132380057D02*
X139785714Y-132380057D01*
X139785714Y-132380057D02*
X139642857Y-132451485D01*
X139642857Y-132451485D02*
X139571428Y-132522914D01*
X139571428Y-132522914D02*
X139499999Y-132665771D01*
X139499999Y-132665771D02*
X139499999Y-133022914D01*
X139499999Y-133022914D02*
X139571428Y-133165771D01*
X139571428Y-133165771D02*
X139642857Y-133237200D01*
X139642857Y-133237200D02*
X139785714Y-133308628D01*
X139785714Y-133308628D02*
X140142857Y-133308628D01*
X140142857Y-133308628D02*
X140285714Y-133237200D01*
X140285714Y-133237200D02*
X140357142Y-133165771D01*
X138571428Y-131808628D02*
X138428571Y-131808628D01*
X138428571Y-131808628D02*
X138285714Y-131880057D01*
X138285714Y-131880057D02*
X138214286Y-131951485D01*
X138214286Y-131951485D02*
X138142857Y-132094342D01*
X138142857Y-132094342D02*
X138071428Y-132380057D01*
X138071428Y-132380057D02*
X138071428Y-132737200D01*
X138071428Y-132737200D02*
X138142857Y-133022914D01*
X138142857Y-133022914D02*
X138214286Y-133165771D01*
X138214286Y-133165771D02*
X138285714Y-133237200D01*
X138285714Y-133237200D02*
X138428571Y-133308628D01*
X138428571Y-133308628D02*
X138571428Y-133308628D01*
X138571428Y-133308628D02*
X138714286Y-133237200D01*
X138714286Y-133237200D02*
X138785714Y-133165771D01*
X138785714Y-133165771D02*
X138857143Y-133022914D01*
X138857143Y-133022914D02*
X138928571Y-132737200D01*
X138928571Y-132737200D02*
X138928571Y-132380057D01*
X138928571Y-132380057D02*
X138857143Y-132094342D01*
X138857143Y-132094342D02*
X138785714Y-131951485D01*
X138785714Y-131951485D02*
X138714286Y-131880057D01*
X138714286Y-131880057D02*
X138571428Y-131808628D01*
X136642857Y-133308628D02*
X137500000Y-133308628D01*
X137071429Y-133308628D02*
X137071429Y-131808628D01*
X137071429Y-131808628D02*
X137214286Y-132022914D01*
X137214286Y-132022914D02*
X137357143Y-132165771D01*
X137357143Y-132165771D02*
X137500000Y-132237200D01*
D11*
%TO.C,J2*%
X120475000Y-96195000D03*
D12*
X123015000Y-96195000D03*
X120475000Y-98735000D03*
X123015000Y-98735000D03*
X120475000Y-101275000D03*
X123015000Y-101275000D03*
%TD*%
D13*
%TO.C,CON1*%
X129240000Y-89770000D03*
D14*
X129240000Y-92310000D03*
X129240000Y-94850000D03*
X129240000Y-97390000D03*
X129240000Y-99930000D03*
X129240000Y-102470000D03*
X129240000Y-105010000D03*
X129240000Y-107550000D03*
X152100000Y-107550000D03*
X152100000Y-105010000D03*
X152100000Y-102470000D03*
X152100000Y-99930000D03*
X152100000Y-97390000D03*
X152100000Y-94850000D03*
X152100000Y-92310000D03*
D15*
X152100000Y-89770000D03*
%TD*%
D16*
%TO.C,J1*%
X165000000Y-73500000D03*
X116000000Y-73500000D03*
X165000000Y-131500000D03*
X116000000Y-131500000D03*
D17*
X163622000Y-78400000D03*
D12*
X166162000Y-78400000D03*
X163622000Y-80940000D03*
X166162000Y-80940000D03*
X163622000Y-83480000D03*
D11*
X166162000Y-83480000D03*
D12*
X163622000Y-86020000D03*
X166162000Y-86020000D03*
D11*
X163622000Y-88560000D03*
D12*
X166162000Y-88560000D03*
X163622000Y-91100000D03*
X166162000Y-91100000D03*
X163622000Y-93640000D03*
D11*
X166162000Y-93640000D03*
D12*
X163622000Y-96180000D03*
X166162000Y-96180000D03*
X163622000Y-98720000D03*
X166162000Y-98720000D03*
X163622000Y-101260000D03*
D11*
X166162000Y-101260000D03*
D12*
X163622000Y-103800000D03*
X166162000Y-103800000D03*
X163622000Y-106340000D03*
X166162000Y-106340000D03*
D11*
X163622000Y-108880000D03*
D12*
X166162000Y-108880000D03*
X163622000Y-111420000D03*
X166162000Y-111420000D03*
X163622000Y-113960000D03*
D11*
X166162000Y-113960000D03*
D12*
X163622000Y-116500000D03*
X166162000Y-116500000D03*
X163622000Y-119040000D03*
D11*
X166162000Y-119040000D03*
D12*
X163622000Y-121580000D03*
X166162000Y-121580000D03*
X163622000Y-124120000D03*
X166162000Y-124120000D03*
D11*
X163622000Y-126660000D03*
D12*
X166162000Y-126660000D03*
%TD*%
M02*
