%TF.GenerationSoftware,KiCad,Pcbnew,8.0.7+1*%
%TF.CreationDate,2025-02-19T14:48:12+01:00*%
%TF.ProjectId,ts15-rpi-shield,74733135-2d72-4706-992d-736869656c64,rev?*%
%TF.SameCoordinates,Original*%
%TF.FileFunction,Drillmap*%
%TF.FilePolarity,Positive*%
%FSLAX45Y45*%
G04 Gerber Fmt 4.5, Leading zero omitted, Abs format (unit mm)*
G04 Created by KiCad (PCBNEW 8.0.7+1) date 2025-02-19 14:48:12*
%MOMM*%
%LPD*%
G01*
G04 APERTURE LIST*
%ADD10C,0.100000*%
%ADD11C,0.200000*%
%ADD12C,0.275000*%
G04 APERTURE END LIST*
D10*
X11250000Y-7300000D02*
X11250000Y-13200000D01*
X13100000Y-7000000D02*
X11550000Y-7000000D01*
X13150000Y-11400000D02*
X11650000Y-11400000D01*
X13150000Y-11600000D02*
X11650000Y-11600000D01*
X13200000Y-7100000D02*
X13200000Y-7400000D01*
X14800000Y-7500000D02*
X13300000Y-7500000D01*
X14900000Y-7100000D02*
X14900000Y-7400000D01*
X16550000Y-7000000D02*
X15000000Y-7000000D01*
X16550000Y-13500000D02*
X11550000Y-13500000D01*
X16850000Y-7300000D02*
X16850000Y-13200000D01*
X11250000Y-7300000D02*
G75*
G02*
X11550000Y-7000000I300000J0D01*
G01*
X11550000Y-13500000D02*
G75*
G02*
X11250000Y-13200000I0J300000D01*
G01*
X11650000Y-11600000D02*
G75*
G02*
X11650000Y-11400000I0J100000D01*
G01*
X13100000Y-7000000D02*
G75*
G02*
X13200000Y-7100000I0J-100000D01*
G01*
X13150000Y-11400000D02*
G75*
G02*
X13150000Y-11600000I0J-100000D01*
G01*
X13300000Y-7500000D02*
G75*
G02*
X13200000Y-7400000I0J100000D01*
G01*
X14900000Y-7100000D02*
G75*
G02*
X15000000Y-7000000I100000J0D01*
G01*
X14900000Y-7400000D02*
G75*
G02*
X14800000Y-7500000I-100000J0D01*
G01*
X16550000Y-7000000D02*
G75*
G02*
X16850000Y-7300000I0J-300000D01*
G01*
X16850000Y-13200000D02*
G75*
G02*
X16550000Y-13500000I-300000J0D01*
G01*
D11*
D12*
X11462500Y-7212500D02*
X11737500Y-7487500D01*
X11737500Y-7212500D02*
X11462500Y-7487500D01*
X11462500Y-13012500D02*
X11737500Y-13287500D01*
X11737500Y-13012500D02*
X11462500Y-13287500D01*
X16362500Y-7212500D02*
X16637500Y-7487500D01*
X16637500Y-7212500D02*
X16362500Y-7487500D01*
X16362500Y-13012500D02*
X16637500Y-13287500D01*
X16637500Y-13012500D02*
X16362500Y-13287500D01*
D11*
X11505777Y-13816484D02*
X11505777Y-13616484D01*
X11505777Y-13616484D02*
X11553396Y-13616484D01*
X11553396Y-13616484D02*
X11581967Y-13626008D01*
X11581967Y-13626008D02*
X11601015Y-13645055D01*
X11601015Y-13645055D02*
X11610539Y-13664103D01*
X11610539Y-13664103D02*
X11620062Y-13702198D01*
X11620062Y-13702198D02*
X11620062Y-13730769D01*
X11620062Y-13730769D02*
X11610539Y-13768865D01*
X11610539Y-13768865D02*
X11601015Y-13787912D01*
X11601015Y-13787912D02*
X11581967Y-13806960D01*
X11581967Y-13806960D02*
X11553396Y-13816484D01*
X11553396Y-13816484D02*
X11505777Y-13816484D01*
X11705777Y-13816484D02*
X11705777Y-13683150D01*
X11705777Y-13721246D02*
X11715301Y-13702198D01*
X11715301Y-13702198D02*
X11724824Y-13692674D01*
X11724824Y-13692674D02*
X11743872Y-13683150D01*
X11743872Y-13683150D02*
X11762920Y-13683150D01*
X11829586Y-13816484D02*
X11829586Y-13683150D01*
X11829586Y-13616484D02*
X11820062Y-13626008D01*
X11820062Y-13626008D02*
X11829586Y-13635531D01*
X11829586Y-13635531D02*
X11839110Y-13626008D01*
X11839110Y-13626008D02*
X11829586Y-13616484D01*
X11829586Y-13616484D02*
X11829586Y-13635531D01*
X11953396Y-13816484D02*
X11934348Y-13806960D01*
X11934348Y-13806960D02*
X11924824Y-13787912D01*
X11924824Y-13787912D02*
X11924824Y-13616484D01*
X12058158Y-13816484D02*
X12039110Y-13806960D01*
X12039110Y-13806960D02*
X12029586Y-13787912D01*
X12029586Y-13787912D02*
X12029586Y-13616484D01*
X12286729Y-13816484D02*
X12286729Y-13616484D01*
X12286729Y-13616484D02*
X12353396Y-13759341D01*
X12353396Y-13759341D02*
X12420062Y-13616484D01*
X12420062Y-13616484D02*
X12420062Y-13816484D01*
X12601015Y-13816484D02*
X12601015Y-13711722D01*
X12601015Y-13711722D02*
X12591491Y-13692674D01*
X12591491Y-13692674D02*
X12572443Y-13683150D01*
X12572443Y-13683150D02*
X12534348Y-13683150D01*
X12534348Y-13683150D02*
X12515301Y-13692674D01*
X12601015Y-13806960D02*
X12581967Y-13816484D01*
X12581967Y-13816484D02*
X12534348Y-13816484D01*
X12534348Y-13816484D02*
X12515301Y-13806960D01*
X12515301Y-13806960D02*
X12505777Y-13787912D01*
X12505777Y-13787912D02*
X12505777Y-13768865D01*
X12505777Y-13768865D02*
X12515301Y-13749817D01*
X12515301Y-13749817D02*
X12534348Y-13740293D01*
X12534348Y-13740293D02*
X12581967Y-13740293D01*
X12581967Y-13740293D02*
X12601015Y-13730769D01*
X12696253Y-13683150D02*
X12696253Y-13883150D01*
X12696253Y-13692674D02*
X12715301Y-13683150D01*
X12715301Y-13683150D02*
X12753396Y-13683150D01*
X12753396Y-13683150D02*
X12772443Y-13692674D01*
X12772443Y-13692674D02*
X12781967Y-13702198D01*
X12781967Y-13702198D02*
X12791491Y-13721246D01*
X12791491Y-13721246D02*
X12791491Y-13778388D01*
X12791491Y-13778388D02*
X12781967Y-13797436D01*
X12781967Y-13797436D02*
X12772443Y-13806960D01*
X12772443Y-13806960D02*
X12753396Y-13816484D01*
X12753396Y-13816484D02*
X12715301Y-13816484D01*
X12715301Y-13816484D02*
X12696253Y-13806960D01*
X12877205Y-13797436D02*
X12886729Y-13806960D01*
X12886729Y-13806960D02*
X12877205Y-13816484D01*
X12877205Y-13816484D02*
X12867682Y-13806960D01*
X12867682Y-13806960D02*
X12877205Y-13797436D01*
X12877205Y-13797436D02*
X12877205Y-13816484D01*
X12877205Y-13692674D02*
X12886729Y-13702198D01*
X12886729Y-13702198D02*
X12877205Y-13711722D01*
X12877205Y-13711722D02*
X12867682Y-13702198D01*
X12867682Y-13702198D02*
X12877205Y-13692674D01*
X12877205Y-13692674D02*
X12877205Y-13711722D01*
X11045000Y-14045000D02*
X11245000Y-14245000D01*
X11245000Y-14045000D02*
X11045000Y-14245000D01*
X11496253Y-14055531D02*
X11505777Y-14046008D01*
X11505777Y-14046008D02*
X11524824Y-14036484D01*
X11524824Y-14036484D02*
X11572443Y-14036484D01*
X11572443Y-14036484D02*
X11591491Y-14046008D01*
X11591491Y-14046008D02*
X11601015Y-14055531D01*
X11601015Y-14055531D02*
X11610539Y-14074579D01*
X11610539Y-14074579D02*
X11610539Y-14093627D01*
X11610539Y-14093627D02*
X11601015Y-14122198D01*
X11601015Y-14122198D02*
X11486729Y-14236484D01*
X11486729Y-14236484D02*
X11610539Y-14236484D01*
X11696253Y-14217436D02*
X11705777Y-14226960D01*
X11705777Y-14226960D02*
X11696253Y-14236484D01*
X11696253Y-14236484D02*
X11686729Y-14226960D01*
X11686729Y-14226960D02*
X11696253Y-14217436D01*
X11696253Y-14217436D02*
X11696253Y-14236484D01*
X11772443Y-14036484D02*
X11905777Y-14036484D01*
X11905777Y-14036484D02*
X11820062Y-14236484D01*
X12077205Y-14036484D02*
X11981967Y-14036484D01*
X11981967Y-14036484D02*
X11972443Y-14131722D01*
X11972443Y-14131722D02*
X11981967Y-14122198D01*
X11981967Y-14122198D02*
X12001015Y-14112674D01*
X12001015Y-14112674D02*
X12048634Y-14112674D01*
X12048634Y-14112674D02*
X12067682Y-14122198D01*
X12067682Y-14122198D02*
X12077205Y-14131722D01*
X12077205Y-14131722D02*
X12086729Y-14150769D01*
X12086729Y-14150769D02*
X12086729Y-14198388D01*
X12086729Y-14198388D02*
X12077205Y-14217436D01*
X12077205Y-14217436D02*
X12067682Y-14226960D01*
X12067682Y-14226960D02*
X12048634Y-14236484D01*
X12048634Y-14236484D02*
X12001015Y-14236484D01*
X12001015Y-14236484D02*
X11981967Y-14226960D01*
X11981967Y-14226960D02*
X11972443Y-14217436D01*
X12210539Y-14036484D02*
X12229586Y-14036484D01*
X12229586Y-14036484D02*
X12248634Y-14046008D01*
X12248634Y-14046008D02*
X12258158Y-14055531D01*
X12258158Y-14055531D02*
X12267682Y-14074579D01*
X12267682Y-14074579D02*
X12277205Y-14112674D01*
X12277205Y-14112674D02*
X12277205Y-14160293D01*
X12277205Y-14160293D02*
X12267682Y-14198388D01*
X12267682Y-14198388D02*
X12258158Y-14217436D01*
X12258158Y-14217436D02*
X12248634Y-14226960D01*
X12248634Y-14226960D02*
X12229586Y-14236484D01*
X12229586Y-14236484D02*
X12210539Y-14236484D01*
X12210539Y-14236484D02*
X12191491Y-14226960D01*
X12191491Y-14226960D02*
X12181967Y-14217436D01*
X12181967Y-14217436D02*
X12172443Y-14198388D01*
X12172443Y-14198388D02*
X12162920Y-14160293D01*
X12162920Y-14160293D02*
X12162920Y-14112674D01*
X12162920Y-14112674D02*
X12172443Y-14074579D01*
X12172443Y-14074579D02*
X12181967Y-14055531D01*
X12181967Y-14055531D02*
X12191491Y-14046008D01*
X12191491Y-14046008D02*
X12210539Y-14036484D01*
X12362920Y-14236484D02*
X12362920Y-14103150D01*
X12362920Y-14122198D02*
X12372443Y-14112674D01*
X12372443Y-14112674D02*
X12391491Y-14103150D01*
X12391491Y-14103150D02*
X12420063Y-14103150D01*
X12420063Y-14103150D02*
X12439110Y-14112674D01*
X12439110Y-14112674D02*
X12448634Y-14131722D01*
X12448634Y-14131722D02*
X12448634Y-14236484D01*
X12448634Y-14131722D02*
X12458158Y-14112674D01*
X12458158Y-14112674D02*
X12477205Y-14103150D01*
X12477205Y-14103150D02*
X12505777Y-14103150D01*
X12505777Y-14103150D02*
X12524824Y-14112674D01*
X12524824Y-14112674D02*
X12534348Y-14131722D01*
X12534348Y-14131722D02*
X12534348Y-14236484D01*
X12629586Y-14236484D02*
X12629586Y-14103150D01*
X12629586Y-14122198D02*
X12639110Y-14112674D01*
X12639110Y-14112674D02*
X12658158Y-14103150D01*
X12658158Y-14103150D02*
X12686729Y-14103150D01*
X12686729Y-14103150D02*
X12705777Y-14112674D01*
X12705777Y-14112674D02*
X12715301Y-14131722D01*
X12715301Y-14131722D02*
X12715301Y-14236484D01*
X12715301Y-14131722D02*
X12724824Y-14112674D01*
X12724824Y-14112674D02*
X12743872Y-14103150D01*
X12743872Y-14103150D02*
X12772443Y-14103150D01*
X12772443Y-14103150D02*
X12791491Y-14112674D01*
X12791491Y-14112674D02*
X12801015Y-14131722D01*
X12801015Y-14131722D02*
X12801015Y-14236484D01*
X13191491Y-14026960D02*
X13020063Y-14284103D01*
X13448634Y-14036484D02*
X13467682Y-14036484D01*
X13467682Y-14036484D02*
X13486729Y-14046008D01*
X13486729Y-14046008D02*
X13496253Y-14055531D01*
X13496253Y-14055531D02*
X13505777Y-14074579D01*
X13505777Y-14074579D02*
X13515301Y-14112674D01*
X13515301Y-14112674D02*
X13515301Y-14160293D01*
X13515301Y-14160293D02*
X13505777Y-14198388D01*
X13505777Y-14198388D02*
X13496253Y-14217436D01*
X13496253Y-14217436D02*
X13486729Y-14226960D01*
X13486729Y-14226960D02*
X13467682Y-14236484D01*
X13467682Y-14236484D02*
X13448634Y-14236484D01*
X13448634Y-14236484D02*
X13429586Y-14226960D01*
X13429586Y-14226960D02*
X13420063Y-14217436D01*
X13420063Y-14217436D02*
X13410539Y-14198388D01*
X13410539Y-14198388D02*
X13401015Y-14160293D01*
X13401015Y-14160293D02*
X13401015Y-14112674D01*
X13401015Y-14112674D02*
X13410539Y-14074579D01*
X13410539Y-14074579D02*
X13420063Y-14055531D01*
X13420063Y-14055531D02*
X13429586Y-14046008D01*
X13429586Y-14046008D02*
X13448634Y-14036484D01*
X13601015Y-14217436D02*
X13610539Y-14226960D01*
X13610539Y-14226960D02*
X13601015Y-14236484D01*
X13601015Y-14236484D02*
X13591491Y-14226960D01*
X13591491Y-14226960D02*
X13601015Y-14217436D01*
X13601015Y-14217436D02*
X13601015Y-14236484D01*
X13801015Y-14236484D02*
X13686729Y-14236484D01*
X13743872Y-14236484D02*
X13743872Y-14036484D01*
X13743872Y-14036484D02*
X13724825Y-14065055D01*
X13724825Y-14065055D02*
X13705777Y-14084103D01*
X13705777Y-14084103D02*
X13686729Y-14093627D01*
X13924825Y-14036484D02*
X13943872Y-14036484D01*
X13943872Y-14036484D02*
X13962920Y-14046008D01*
X13962920Y-14046008D02*
X13972444Y-14055531D01*
X13972444Y-14055531D02*
X13981967Y-14074579D01*
X13981967Y-14074579D02*
X13991491Y-14112674D01*
X13991491Y-14112674D02*
X13991491Y-14160293D01*
X13991491Y-14160293D02*
X13981967Y-14198388D01*
X13981967Y-14198388D02*
X13972444Y-14217436D01*
X13972444Y-14217436D02*
X13962920Y-14226960D01*
X13962920Y-14226960D02*
X13943872Y-14236484D01*
X13943872Y-14236484D02*
X13924825Y-14236484D01*
X13924825Y-14236484D02*
X13905777Y-14226960D01*
X13905777Y-14226960D02*
X13896253Y-14217436D01*
X13896253Y-14217436D02*
X13886729Y-14198388D01*
X13886729Y-14198388D02*
X13877206Y-14160293D01*
X13877206Y-14160293D02*
X13877206Y-14112674D01*
X13877206Y-14112674D02*
X13886729Y-14074579D01*
X13886729Y-14074579D02*
X13896253Y-14055531D01*
X13896253Y-14055531D02*
X13905777Y-14046008D01*
X13905777Y-14046008D02*
X13924825Y-14036484D01*
X14105777Y-14122198D02*
X14086729Y-14112674D01*
X14086729Y-14112674D02*
X14077206Y-14103150D01*
X14077206Y-14103150D02*
X14067682Y-14084103D01*
X14067682Y-14084103D02*
X14067682Y-14074579D01*
X14067682Y-14074579D02*
X14077206Y-14055531D01*
X14077206Y-14055531D02*
X14086729Y-14046008D01*
X14086729Y-14046008D02*
X14105777Y-14036484D01*
X14105777Y-14036484D02*
X14143872Y-14036484D01*
X14143872Y-14036484D02*
X14162920Y-14046008D01*
X14162920Y-14046008D02*
X14172444Y-14055531D01*
X14172444Y-14055531D02*
X14181967Y-14074579D01*
X14181967Y-14074579D02*
X14181967Y-14084103D01*
X14181967Y-14084103D02*
X14172444Y-14103150D01*
X14172444Y-14103150D02*
X14162920Y-14112674D01*
X14162920Y-14112674D02*
X14143872Y-14122198D01*
X14143872Y-14122198D02*
X14105777Y-14122198D01*
X14105777Y-14122198D02*
X14086729Y-14131722D01*
X14086729Y-14131722D02*
X14077206Y-14141246D01*
X14077206Y-14141246D02*
X14067682Y-14160293D01*
X14067682Y-14160293D02*
X14067682Y-14198388D01*
X14067682Y-14198388D02*
X14077206Y-14217436D01*
X14077206Y-14217436D02*
X14086729Y-14226960D01*
X14086729Y-14226960D02*
X14105777Y-14236484D01*
X14105777Y-14236484D02*
X14143872Y-14236484D01*
X14143872Y-14236484D02*
X14162920Y-14226960D01*
X14162920Y-14226960D02*
X14172444Y-14217436D01*
X14172444Y-14217436D02*
X14181967Y-14198388D01*
X14181967Y-14198388D02*
X14181967Y-14160293D01*
X14181967Y-14160293D02*
X14172444Y-14141246D01*
X14172444Y-14141246D02*
X14162920Y-14131722D01*
X14162920Y-14131722D02*
X14143872Y-14122198D01*
X14248634Y-14036484D02*
X14372444Y-14036484D01*
X14372444Y-14036484D02*
X14305777Y-14112674D01*
X14305777Y-14112674D02*
X14334348Y-14112674D01*
X14334348Y-14112674D02*
X14353396Y-14122198D01*
X14353396Y-14122198D02*
X14362920Y-14131722D01*
X14362920Y-14131722D02*
X14372444Y-14150769D01*
X14372444Y-14150769D02*
X14372444Y-14198388D01*
X14372444Y-14198388D02*
X14362920Y-14217436D01*
X14362920Y-14217436D02*
X14353396Y-14226960D01*
X14353396Y-14226960D02*
X14334348Y-14236484D01*
X14334348Y-14236484D02*
X14277206Y-14236484D01*
X14277206Y-14236484D02*
X14258158Y-14226960D01*
X14258158Y-14226960D02*
X14248634Y-14217436D01*
X14448634Y-14036484D02*
X14448634Y-14074579D01*
X14524825Y-14036484D02*
X14524825Y-14074579D01*
X14820063Y-14312674D02*
X14810539Y-14303150D01*
X14810539Y-14303150D02*
X14791491Y-14274579D01*
X14791491Y-14274579D02*
X14781968Y-14255531D01*
X14781968Y-14255531D02*
X14772444Y-14226960D01*
X14772444Y-14226960D02*
X14762920Y-14179341D01*
X14762920Y-14179341D02*
X14762920Y-14141246D01*
X14762920Y-14141246D02*
X14772444Y-14093627D01*
X14772444Y-14093627D02*
X14781968Y-14065055D01*
X14781968Y-14065055D02*
X14791491Y-14046008D01*
X14791491Y-14046008D02*
X14810539Y-14017436D01*
X14810539Y-14017436D02*
X14820063Y-14007912D01*
X14981968Y-14103150D02*
X14981968Y-14236484D01*
X14934348Y-14026960D02*
X14886729Y-14169817D01*
X14886729Y-14169817D02*
X15010539Y-14169817D01*
X15239110Y-14236484D02*
X15239110Y-14036484D01*
X15324825Y-14236484D02*
X15324825Y-14131722D01*
X15324825Y-14131722D02*
X15315301Y-14112674D01*
X15315301Y-14112674D02*
X15296253Y-14103150D01*
X15296253Y-14103150D02*
X15267682Y-14103150D01*
X15267682Y-14103150D02*
X15248634Y-14112674D01*
X15248634Y-14112674D02*
X15239110Y-14122198D01*
X15448634Y-14236484D02*
X15429587Y-14226960D01*
X15429587Y-14226960D02*
X15420063Y-14217436D01*
X15420063Y-14217436D02*
X15410539Y-14198388D01*
X15410539Y-14198388D02*
X15410539Y-14141246D01*
X15410539Y-14141246D02*
X15420063Y-14122198D01*
X15420063Y-14122198D02*
X15429587Y-14112674D01*
X15429587Y-14112674D02*
X15448634Y-14103150D01*
X15448634Y-14103150D02*
X15477206Y-14103150D01*
X15477206Y-14103150D02*
X15496253Y-14112674D01*
X15496253Y-14112674D02*
X15505777Y-14122198D01*
X15505777Y-14122198D02*
X15515301Y-14141246D01*
X15515301Y-14141246D02*
X15515301Y-14198388D01*
X15515301Y-14198388D02*
X15505777Y-14217436D01*
X15505777Y-14217436D02*
X15496253Y-14226960D01*
X15496253Y-14226960D02*
X15477206Y-14236484D01*
X15477206Y-14236484D02*
X15448634Y-14236484D01*
X15629587Y-14236484D02*
X15610539Y-14226960D01*
X15610539Y-14226960D02*
X15601015Y-14207912D01*
X15601015Y-14207912D02*
X15601015Y-14036484D01*
X15781968Y-14226960D02*
X15762920Y-14236484D01*
X15762920Y-14236484D02*
X15724825Y-14236484D01*
X15724825Y-14236484D02*
X15705777Y-14226960D01*
X15705777Y-14226960D02*
X15696253Y-14207912D01*
X15696253Y-14207912D02*
X15696253Y-14131722D01*
X15696253Y-14131722D02*
X15705777Y-14112674D01*
X15705777Y-14112674D02*
X15724825Y-14103150D01*
X15724825Y-14103150D02*
X15762920Y-14103150D01*
X15762920Y-14103150D02*
X15781968Y-14112674D01*
X15781968Y-14112674D02*
X15791491Y-14131722D01*
X15791491Y-14131722D02*
X15791491Y-14150769D01*
X15791491Y-14150769D02*
X15696253Y-14169817D01*
X15867682Y-14226960D02*
X15886730Y-14236484D01*
X15886730Y-14236484D02*
X15924825Y-14236484D01*
X15924825Y-14236484D02*
X15943872Y-14226960D01*
X15943872Y-14226960D02*
X15953396Y-14207912D01*
X15953396Y-14207912D02*
X15953396Y-14198388D01*
X15953396Y-14198388D02*
X15943872Y-14179341D01*
X15943872Y-14179341D02*
X15924825Y-14169817D01*
X15924825Y-14169817D02*
X15896253Y-14169817D01*
X15896253Y-14169817D02*
X15877206Y-14160293D01*
X15877206Y-14160293D02*
X15867682Y-14141246D01*
X15867682Y-14141246D02*
X15867682Y-14131722D01*
X15867682Y-14131722D02*
X15877206Y-14112674D01*
X15877206Y-14112674D02*
X15896253Y-14103150D01*
X15896253Y-14103150D02*
X15924825Y-14103150D01*
X15924825Y-14103150D02*
X15943872Y-14112674D01*
X16020063Y-14312674D02*
X16029587Y-14303150D01*
X16029587Y-14303150D02*
X16048634Y-14274579D01*
X16048634Y-14274579D02*
X16058158Y-14255531D01*
X16058158Y-14255531D02*
X16067682Y-14226960D01*
X16067682Y-14226960D02*
X16077206Y-14179341D01*
X16077206Y-14179341D02*
X16077206Y-14141246D01*
X16077206Y-14141246D02*
X16067682Y-14093627D01*
X16067682Y-14093627D02*
X16058158Y-14065055D01*
X16058158Y-14065055D02*
X16048634Y-14046008D01*
X16048634Y-14046008D02*
X16029587Y-14017436D01*
X16029587Y-14017436D02*
X16020063Y-14007912D01*
X16381968Y-14312674D02*
X16372444Y-14303150D01*
X16372444Y-14303150D02*
X16353396Y-14274579D01*
X16353396Y-14274579D02*
X16343872Y-14255531D01*
X16343872Y-14255531D02*
X16334349Y-14226960D01*
X16334349Y-14226960D02*
X16324825Y-14179341D01*
X16324825Y-14179341D02*
X16324825Y-14141246D01*
X16324825Y-14141246D02*
X16334349Y-14093627D01*
X16334349Y-14093627D02*
X16343872Y-14065055D01*
X16343872Y-14065055D02*
X16353396Y-14046008D01*
X16353396Y-14046008D02*
X16372444Y-14017436D01*
X16372444Y-14017436D02*
X16381968Y-14007912D01*
X16458158Y-14103150D02*
X16458158Y-14236484D01*
X16458158Y-14122198D02*
X16467682Y-14112674D01*
X16467682Y-14112674D02*
X16486730Y-14103150D01*
X16486730Y-14103150D02*
X16515301Y-14103150D01*
X16515301Y-14103150D02*
X16534349Y-14112674D01*
X16534349Y-14112674D02*
X16543872Y-14131722D01*
X16543872Y-14131722D02*
X16543872Y-14236484D01*
X16667682Y-14236484D02*
X16648634Y-14226960D01*
X16648634Y-14226960D02*
X16639111Y-14217436D01*
X16639111Y-14217436D02*
X16629587Y-14198388D01*
X16629587Y-14198388D02*
X16629587Y-14141246D01*
X16629587Y-14141246D02*
X16639111Y-14122198D01*
X16639111Y-14122198D02*
X16648634Y-14112674D01*
X16648634Y-14112674D02*
X16667682Y-14103150D01*
X16667682Y-14103150D02*
X16696253Y-14103150D01*
X16696253Y-14103150D02*
X16715301Y-14112674D01*
X16715301Y-14112674D02*
X16724825Y-14122198D01*
X16724825Y-14122198D02*
X16734349Y-14141246D01*
X16734349Y-14141246D02*
X16734349Y-14198388D01*
X16734349Y-14198388D02*
X16724825Y-14217436D01*
X16724825Y-14217436D02*
X16715301Y-14226960D01*
X16715301Y-14226960D02*
X16696253Y-14236484D01*
X16696253Y-14236484D02*
X16667682Y-14236484D01*
X16791492Y-14103150D02*
X16867682Y-14103150D01*
X16820063Y-14036484D02*
X16820063Y-14207912D01*
X16820063Y-14207912D02*
X16829587Y-14226960D01*
X16829587Y-14226960D02*
X16848634Y-14236484D01*
X16848634Y-14236484D02*
X16867682Y-14236484D01*
X17086730Y-14103150D02*
X17086730Y-14303150D01*
X17086730Y-14112674D02*
X17105777Y-14103150D01*
X17105777Y-14103150D02*
X17143873Y-14103150D01*
X17143873Y-14103150D02*
X17162920Y-14112674D01*
X17162920Y-14112674D02*
X17172444Y-14122198D01*
X17172444Y-14122198D02*
X17181968Y-14141246D01*
X17181968Y-14141246D02*
X17181968Y-14198388D01*
X17181968Y-14198388D02*
X17172444Y-14217436D01*
X17172444Y-14217436D02*
X17162920Y-14226960D01*
X17162920Y-14226960D02*
X17143873Y-14236484D01*
X17143873Y-14236484D02*
X17105777Y-14236484D01*
X17105777Y-14236484D02*
X17086730Y-14226960D01*
X17296254Y-14236484D02*
X17277206Y-14226960D01*
X17277206Y-14226960D02*
X17267682Y-14207912D01*
X17267682Y-14207912D02*
X17267682Y-14036484D01*
X17458158Y-14236484D02*
X17458158Y-14131722D01*
X17458158Y-14131722D02*
X17448635Y-14112674D01*
X17448635Y-14112674D02*
X17429587Y-14103150D01*
X17429587Y-14103150D02*
X17391492Y-14103150D01*
X17391492Y-14103150D02*
X17372444Y-14112674D01*
X17458158Y-14226960D02*
X17439111Y-14236484D01*
X17439111Y-14236484D02*
X17391492Y-14236484D01*
X17391492Y-14236484D02*
X17372444Y-14226960D01*
X17372444Y-14226960D02*
X17362920Y-14207912D01*
X17362920Y-14207912D02*
X17362920Y-14188865D01*
X17362920Y-14188865D02*
X17372444Y-14169817D01*
X17372444Y-14169817D02*
X17391492Y-14160293D01*
X17391492Y-14160293D02*
X17439111Y-14160293D01*
X17439111Y-14160293D02*
X17458158Y-14150769D01*
X17524825Y-14103150D02*
X17601015Y-14103150D01*
X17553396Y-14036484D02*
X17553396Y-14207912D01*
X17553396Y-14207912D02*
X17562920Y-14226960D01*
X17562920Y-14226960D02*
X17581968Y-14236484D01*
X17581968Y-14236484D02*
X17601015Y-14236484D01*
X17743873Y-14226960D02*
X17724825Y-14236484D01*
X17724825Y-14236484D02*
X17686730Y-14236484D01*
X17686730Y-14236484D02*
X17667682Y-14226960D01*
X17667682Y-14226960D02*
X17658158Y-14207912D01*
X17658158Y-14207912D02*
X17658158Y-14131722D01*
X17658158Y-14131722D02*
X17667682Y-14112674D01*
X17667682Y-14112674D02*
X17686730Y-14103150D01*
X17686730Y-14103150D02*
X17724825Y-14103150D01*
X17724825Y-14103150D02*
X17743873Y-14112674D01*
X17743873Y-14112674D02*
X17753396Y-14131722D01*
X17753396Y-14131722D02*
X17753396Y-14150769D01*
X17753396Y-14150769D02*
X17658158Y-14169817D01*
X17924825Y-14236484D02*
X17924825Y-14036484D01*
X17924825Y-14226960D02*
X17905777Y-14236484D01*
X17905777Y-14236484D02*
X17867682Y-14236484D01*
X17867682Y-14236484D02*
X17848635Y-14226960D01*
X17848635Y-14226960D02*
X17839111Y-14217436D01*
X17839111Y-14217436D02*
X17829587Y-14198388D01*
X17829587Y-14198388D02*
X17829587Y-14141246D01*
X17829587Y-14141246D02*
X17839111Y-14122198D01*
X17839111Y-14122198D02*
X17848635Y-14112674D01*
X17848635Y-14112674D02*
X17867682Y-14103150D01*
X17867682Y-14103150D02*
X17905777Y-14103150D01*
X17905777Y-14103150D02*
X17924825Y-14112674D01*
X18001016Y-14312674D02*
X18010539Y-14303150D01*
X18010539Y-14303150D02*
X18029587Y-14274579D01*
X18029587Y-14274579D02*
X18039111Y-14255531D01*
X18039111Y-14255531D02*
X18048635Y-14226960D01*
X18048635Y-14226960D02*
X18058158Y-14179341D01*
X18058158Y-14179341D02*
X18058158Y-14141246D01*
X18058158Y-14141246D02*
X18048635Y-14093627D01*
X18048635Y-14093627D02*
X18039111Y-14065055D01*
X18039111Y-14065055D02*
X18029587Y-14046008D01*
X18029587Y-14046008D02*
X18010539Y-14017436D01*
X18010539Y-14017436D02*
X18001016Y-14007912D01*
M02*
