%TF.GenerationSoftware,KiCad,Pcbnew,8.0.7+1*%
%TF.CreationDate,2025-02-19T14:48:18+01:00*%
%TF.ProjectId,ts15-rpi-shield,74733135-2d72-4706-992d-736869656c64,rev?*%
%TF.SameCoordinates,Original*%
%TF.FileFunction,Soldermask,Top*%
%TF.FilePolarity,Negative*%
%FSLAX46Y46*%
G04 Gerber Fmt 4.6, Leading zero omitted, Abs format (unit mm)*
G04 Created by KiCad (PCBNEW 8.0.7+1) date 2025-02-19 14:48:18*
%MOMM*%
%LPD*%
G01*
G04 APERTURE LIST*
G04 Aperture macros list*
%AMRoundRect*
0 Rectangle with rounded corners*
0 $1 Rounding radius*
0 $2 $3 $4 $5 $6 $7 $8 $9 X,Y pos of 4 corners*
0 Add a 4 corners polygon primitive as box body*
4,1,4,$2,$3,$4,$5,$6,$7,$8,$9,$2,$3,0*
0 Add four circle primitives for the rounded corners*
1,1,$1+$1,$2,$3*
1,1,$1+$1,$4,$5*
1,1,$1+$1,$6,$7*
1,1,$1+$1,$8,$9*
0 Add four rect primitives between the rounded corners*
20,1,$1+$1,$2,$3,$4,$5,0*
20,1,$1+$1,$4,$5,$6,$7,0*
20,1,$1+$1,$6,$7,$8,$9,0*
20,1,$1+$1,$8,$9,$2,$3,0*%
%AMFreePoly0*
4,1,19,0.500000,-0.750000,0.000000,-0.750000,0.000000,-0.744911,-0.071157,-0.744911,-0.207708,-0.704816,-0.327430,-0.627875,-0.420627,-0.520320,-0.479746,-0.390866,-0.500000,-0.250000,-0.500000,0.250000,-0.479746,0.390866,-0.420627,0.520320,-0.327430,0.627875,-0.207708,0.704816,-0.071157,0.744911,0.000000,0.744911,0.000000,0.750000,0.500000,0.750000,0.500000,-0.750000,0.500000,-0.750000,
$1*%
%AMFreePoly1*
4,1,19,0.000000,0.744911,0.071157,0.744911,0.207708,0.704816,0.327430,0.627875,0.420627,0.520320,0.479746,0.390866,0.500000,0.250000,0.500000,-0.250000,0.479746,-0.390866,0.420627,-0.520320,0.327430,-0.627875,0.207708,-0.704816,0.071157,-0.744911,0.000000,-0.744911,0.000000,-0.750000,-0.500000,-0.750000,-0.500000,0.750000,0.000000,0.750000,0.000000,0.744911,0.000000,0.744911,
$1*%
%AMFreePoly2*
4,1,14,0.314644,0.085355,0.385355,0.014644,0.400000,-0.020711,0.400000,-0.050000,0.385355,-0.085355,0.350000,-0.100000,-0.350000,-0.100000,-0.385355,-0.085355,-0.400000,-0.050000,-0.400000,0.050000,-0.385355,0.085355,-0.350000,0.100000,0.279289,0.100000,0.314644,0.085355,0.314644,0.085355,$1*%
%AMFreePoly3*
4,1,14,0.385355,0.085355,0.400000,0.050000,0.400000,0.020711,0.385355,-0.014644,0.314644,-0.085355,0.279289,-0.100000,-0.350000,-0.100000,-0.385355,-0.085355,-0.400000,-0.050000,-0.400000,0.050000,-0.385355,0.085355,-0.350000,0.100000,0.350000,0.100000,0.385355,0.085355,0.385355,0.085355,$1*%
%AMFreePoly4*
4,1,14,0.085355,0.385355,0.100000,0.350000,0.100000,-0.350000,0.085355,-0.385355,0.050000,-0.400000,-0.050000,-0.400000,-0.085355,-0.385355,-0.100000,-0.350000,-0.100000,0.279289,-0.085355,0.314644,-0.014644,0.385355,0.020711,0.400000,0.050000,0.400000,0.085355,0.385355,0.085355,0.385355,$1*%
%AMFreePoly5*
4,1,14,0.014644,0.385355,0.085355,0.314644,0.100000,0.279289,0.100000,-0.350000,0.085355,-0.385355,0.050000,-0.400000,-0.050000,-0.400000,-0.085355,-0.385355,-0.100000,-0.350000,-0.100000,0.350000,-0.085355,0.385355,-0.050000,0.400000,-0.020711,0.400000,0.014644,0.385355,0.014644,0.385355,$1*%
%AMFreePoly6*
4,1,14,0.385355,0.085355,0.400000,0.050000,0.400000,-0.050000,0.385355,-0.085355,0.350000,-0.100000,-0.279289,-0.100000,-0.314644,-0.085355,-0.385355,-0.014644,-0.400000,0.020711,-0.400000,0.050000,-0.385355,0.085355,-0.350000,0.100000,0.350000,0.100000,0.385355,0.085355,0.385355,0.085355,$1*%
%AMFreePoly7*
4,1,14,0.385355,0.085355,0.400000,0.050000,0.400000,-0.050000,0.385355,-0.085355,0.350000,-0.100000,-0.350000,-0.100000,-0.385355,-0.085355,-0.400000,-0.050000,-0.400000,-0.020711,-0.385355,0.014644,-0.314644,0.085355,-0.279289,0.100000,0.350000,0.100000,0.385355,0.085355,0.385355,0.085355,$1*%
%AMFreePoly8*
4,1,14,0.085355,0.385355,0.100000,0.350000,0.100000,-0.279289,0.085355,-0.314644,0.014644,-0.385355,-0.020711,-0.400000,-0.050000,-0.400000,-0.085355,-0.385355,-0.100000,-0.350000,-0.100000,0.350000,-0.085355,0.385355,-0.050000,0.400000,0.050000,0.400000,0.085355,0.385355,0.085355,0.385355,$1*%
%AMFreePoly9*
4,1,14,0.085355,0.385355,0.100000,0.350000,0.100000,-0.350000,0.085355,-0.385355,0.050000,-0.400000,0.020711,-0.400000,-0.014644,-0.385355,-0.085355,-0.314644,-0.100000,-0.279289,-0.100000,0.350000,-0.085355,0.385355,-0.050000,0.400000,0.050000,0.400000,0.085355,0.385355,0.085355,0.385355,$1*%
G04 Aperture macros list end*
%ADD10C,0.150000*%
%ADD11C,0.000000*%
%ADD12R,1.700000X1.700000*%
%ADD13O,1.700000X1.700000*%
%ADD14RoundRect,0.250000X0.475000X-0.337500X0.475000X0.337500X-0.475000X0.337500X-0.475000X-0.337500X0*%
%ADD15RoundRect,0.250000X0.337500X0.475000X-0.337500X0.475000X-0.337500X-0.475000X0.337500X-0.475000X0*%
%ADD16R,1.676400X1.676400*%
%ADD17C,1.524000*%
%ADD18R,1.524000X1.524000*%
%ADD19RoundRect,0.250000X-0.350000X-0.450000X0.350000X-0.450000X0.350000X0.450000X-0.350000X0.450000X0*%
%ADD20C,1.000000*%
%ADD21C,6.000000*%
%ADD22C,1.700000*%
%ADD23RoundRect,0.243750X-0.243750X-0.456250X0.243750X-0.456250X0.243750X0.456250X-0.243750X0.456250X0*%
%ADD24FreePoly0,270.000000*%
%ADD25FreePoly1,270.000000*%
%ADD26FreePoly2,0.000000*%
%ADD27RoundRect,0.050000X-0.350000X-0.050000X0.350000X-0.050000X0.350000X0.050000X-0.350000X0.050000X0*%
%ADD28FreePoly3,0.000000*%
%ADD29FreePoly4,0.000000*%
%ADD30RoundRect,0.050000X-0.050000X-0.350000X0.050000X-0.350000X0.050000X0.350000X-0.050000X0.350000X0*%
%ADD31FreePoly5,0.000000*%
%ADD32FreePoly6,0.000000*%
%ADD33FreePoly7,0.000000*%
%ADD34FreePoly8,0.000000*%
%ADD35FreePoly9,0.000000*%
%ADD36R,2.650000X2.650000*%
G04 APERTURE END LIST*
D10*
X136500001Y-131808628D02*
X137357144Y-131808628D01*
X136928572Y-133308628D02*
X136928572Y-131808628D01*
X137785715Y-133237200D02*
X138000001Y-133308628D01*
X138000001Y-133308628D02*
X138357143Y-133308628D01*
X138357143Y-133308628D02*
X138500001Y-133237200D01*
X138500001Y-133237200D02*
X138571429Y-133165771D01*
X138571429Y-133165771D02*
X138642858Y-133022914D01*
X138642858Y-133022914D02*
X138642858Y-132880057D01*
X138642858Y-132880057D02*
X138571429Y-132737200D01*
X138571429Y-132737200D02*
X138500001Y-132665771D01*
X138500001Y-132665771D02*
X138357143Y-132594342D01*
X138357143Y-132594342D02*
X138071429Y-132522914D01*
X138071429Y-132522914D02*
X137928572Y-132451485D01*
X137928572Y-132451485D02*
X137857143Y-132380057D01*
X137857143Y-132380057D02*
X137785715Y-132237200D01*
X137785715Y-132237200D02*
X137785715Y-132094342D01*
X137785715Y-132094342D02*
X137857143Y-131951485D01*
X137857143Y-131951485D02*
X137928572Y-131880057D01*
X137928572Y-131880057D02*
X138071429Y-131808628D01*
X138071429Y-131808628D02*
X138428572Y-131808628D01*
X138428572Y-131808628D02*
X138642858Y-131880057D01*
X140071429Y-133308628D02*
X139214286Y-133308628D01*
X139642857Y-133308628D02*
X139642857Y-131808628D01*
X139642857Y-131808628D02*
X139500000Y-132022914D01*
X139500000Y-132022914D02*
X139357143Y-132165771D01*
X139357143Y-132165771D02*
X139214286Y-132237200D01*
X141428571Y-131808628D02*
X140714285Y-131808628D01*
X140714285Y-131808628D02*
X140642857Y-132522914D01*
X140642857Y-132522914D02*
X140714285Y-132451485D01*
X140714285Y-132451485D02*
X140857143Y-132380057D01*
X140857143Y-132380057D02*
X141214285Y-132380057D01*
X141214285Y-132380057D02*
X141357143Y-132451485D01*
X141357143Y-132451485D02*
X141428571Y-132522914D01*
X141428571Y-132522914D02*
X141500000Y-132665771D01*
X141500000Y-132665771D02*
X141500000Y-133022914D01*
X141500000Y-133022914D02*
X141428571Y-133165771D01*
X141428571Y-133165771D02*
X141357143Y-133237200D01*
X141357143Y-133237200D02*
X141214285Y-133308628D01*
X141214285Y-133308628D02*
X140857143Y-133308628D01*
X140857143Y-133308628D02*
X140714285Y-133237200D01*
X140714285Y-133237200D02*
X140642857Y-133165771D01*
X142428571Y-131808628D02*
X142571428Y-131808628D01*
X142571428Y-131808628D02*
X142714285Y-131880057D01*
X142714285Y-131880057D02*
X142785714Y-131951485D01*
X142785714Y-131951485D02*
X142857142Y-132094342D01*
X142857142Y-132094342D02*
X142928571Y-132380057D01*
X142928571Y-132380057D02*
X142928571Y-132737200D01*
X142928571Y-132737200D02*
X142857142Y-133022914D01*
X142857142Y-133022914D02*
X142785714Y-133165771D01*
X142785714Y-133165771D02*
X142714285Y-133237200D01*
X142714285Y-133237200D02*
X142571428Y-133308628D01*
X142571428Y-133308628D02*
X142428571Y-133308628D01*
X142428571Y-133308628D02*
X142285714Y-133237200D01*
X142285714Y-133237200D02*
X142214285Y-133165771D01*
X142214285Y-133165771D02*
X142142856Y-133022914D01*
X142142856Y-133022914D02*
X142071428Y-132737200D01*
X142071428Y-132737200D02*
X142071428Y-132380057D01*
X142071428Y-132380057D02*
X142142856Y-132094342D01*
X142142856Y-132094342D02*
X142214285Y-131951485D01*
X142214285Y-131951485D02*
X142285714Y-131880057D01*
X142285714Y-131880057D02*
X142428571Y-131808628D01*
X144357142Y-133308628D02*
X143499999Y-133308628D01*
X143928570Y-133308628D02*
X143928570Y-131808628D01*
X143928570Y-131808628D02*
X143785713Y-132022914D01*
X143785713Y-132022914D02*
X143642856Y-132165771D01*
X143642856Y-132165771D02*
X143499999Y-132237200D01*
D11*
%TO.C,JP1*%
G36*
X158200000Y-89930000D02*
G01*
X157500000Y-89930000D01*
X157500000Y-89730000D01*
X158200000Y-89730000D01*
X158200000Y-89930000D01*
G37*
%TD*%
D12*
%TO.C,J2*%
X120475000Y-96195000D03*
D13*
X123015000Y-96195000D03*
X120475000Y-98735000D03*
X123015000Y-98735000D03*
X120475000Y-101275000D03*
X123015000Y-101275000D03*
%TD*%
D14*
%TO.C,C3*%
X146100000Y-99837500D03*
X146100000Y-97762500D03*
%TD*%
%TO.C,C2*%
X136800000Y-97637500D03*
X136800000Y-95562500D03*
%TD*%
D15*
%TO.C,C1*%
X141925000Y-103600000D03*
X139850000Y-103600000D03*
%TD*%
D16*
%TO.C,CON1*%
X129240000Y-89770000D03*
D17*
X129240000Y-92310000D03*
X129240000Y-94850000D03*
X129240000Y-97390000D03*
X129240000Y-99930000D03*
X129240000Y-102470000D03*
X129240000Y-105010000D03*
X129240000Y-107550000D03*
X152100000Y-107550000D03*
X152100000Y-105010000D03*
X152100000Y-102470000D03*
X152100000Y-99930000D03*
X152100000Y-97390000D03*
X152100000Y-94850000D03*
X152100000Y-92310000D03*
D18*
X152100000Y-89770000D03*
%TD*%
D19*
%TO.C,R3*%
X120750000Y-105750000D03*
X122750000Y-105750000D03*
%TD*%
%TO.C,R1*%
X157500000Y-117250000D03*
X159500000Y-117250000D03*
%TD*%
D20*
%TO.C,FID1*%
X157500000Y-131500000D03*
%TD*%
D21*
%TO.C,J1*%
X165000000Y-73500000D03*
X116000000Y-73500000D03*
X165000000Y-131500000D03*
X116000000Y-131500000D03*
D22*
X163622000Y-78400000D03*
D13*
X166162000Y-78400000D03*
X163622000Y-80940000D03*
X166162000Y-80940000D03*
X163622000Y-83480000D03*
D12*
X166162000Y-83480000D03*
D13*
X163622000Y-86020000D03*
X166162000Y-86020000D03*
D12*
X163622000Y-88560000D03*
D13*
X166162000Y-88560000D03*
X163622000Y-91100000D03*
X166162000Y-91100000D03*
X163622000Y-93640000D03*
D12*
X166162000Y-93640000D03*
D13*
X163622000Y-96180000D03*
X166162000Y-96180000D03*
X163622000Y-98720000D03*
X166162000Y-98720000D03*
X163622000Y-101260000D03*
D12*
X166162000Y-101260000D03*
D13*
X163622000Y-103800000D03*
X166162000Y-103800000D03*
X163622000Y-106340000D03*
X166162000Y-106340000D03*
D12*
X163622000Y-108880000D03*
D13*
X166162000Y-108880000D03*
X163622000Y-111420000D03*
X166162000Y-111420000D03*
X163622000Y-113960000D03*
D12*
X166162000Y-113960000D03*
D13*
X163622000Y-116500000D03*
X166162000Y-116500000D03*
X163622000Y-119040000D03*
D12*
X166162000Y-119040000D03*
D13*
X163622000Y-121580000D03*
X166162000Y-121580000D03*
X163622000Y-124120000D03*
X166162000Y-124120000D03*
D12*
X163622000Y-126660000D03*
D13*
X166162000Y-126660000D03*
%TD*%
D23*
%TO.C,D1*%
X139562500Y-117250000D03*
X141437500Y-117250000D03*
%TD*%
D19*
%TO.C,R2*%
X157500000Y-113500000D03*
X159500000Y-113500000D03*
%TD*%
D24*
%TO.C,JP1*%
X157850000Y-89230000D03*
D25*
X157850000Y-90430000D03*
%TD*%
D26*
%TO.C,IC1*%
X139150000Y-97650000D03*
D27*
X139150000Y-98050000D03*
X139150000Y-98450000D03*
X139150000Y-98850000D03*
X139150000Y-99250000D03*
X139150000Y-99650000D03*
X139150000Y-100050000D03*
D28*
X139150000Y-100450000D03*
D29*
X139700000Y-101000000D03*
D30*
X140100000Y-101000000D03*
X140500000Y-101000000D03*
X140900000Y-101000000D03*
X141300000Y-101000000D03*
X141700000Y-101000000D03*
X142100000Y-101000000D03*
D31*
X142500000Y-101000000D03*
D32*
X143050000Y-100450000D03*
D27*
X143050000Y-100050000D03*
X143050000Y-99650000D03*
X143050000Y-99250000D03*
X143050000Y-98850000D03*
X143050000Y-98450000D03*
X143050000Y-98050000D03*
D33*
X143050000Y-97650000D03*
D34*
X142500000Y-97100000D03*
D30*
X142100000Y-97100000D03*
X141700000Y-97100000D03*
X141300000Y-97100000D03*
X140900000Y-97100000D03*
X140500000Y-97100000D03*
X140100000Y-97100000D03*
D35*
X139700000Y-97100000D03*
D36*
X141100000Y-99050000D03*
%TD*%
M02*
