%TF.GenerationSoftware,KiCad,Pcbnew,8.0.7+1*%
%TF.CreationDate,2025-02-19T14:48:17+01:00*%
%TF.ProjectId,ts15-rpi-shield,74733135-2d72-4706-992d-736869656c64,rev?*%
%TF.SameCoordinates,Original*%
%TF.FileFunction,Copper,L1,Top*%
%TF.FilePolarity,Positive*%
%FSLAX46Y46*%
G04 Gerber Fmt 4.6, Leading zero omitted, Abs format (unit mm)*
G04 Created by KiCad (PCBNEW 8.0.7+1) date 2025-02-19 14:48:17*
%MOMM*%
%LPD*%
G01*
G04 APERTURE LIST*
G04 Aperture macros list*
%AMRoundRect*
0 Rectangle with rounded corners*
0 $1 Rounding radius*
0 $2 $3 $4 $5 $6 $7 $8 $9 X,Y pos of 4 corners*
0 Add a 4 corners polygon primitive as box body*
4,1,4,$2,$3,$4,$5,$6,$7,$8,$9,$2,$3,0*
0 Add four circle primitives for the rounded corners*
1,1,$1+$1,$2,$3*
1,1,$1+$1,$4,$5*
1,1,$1+$1,$6,$7*
1,1,$1+$1,$8,$9*
0 Add four rect primitives between the rounded corners*
20,1,$1+$1,$2,$3,$4,$5,0*
20,1,$1+$1,$4,$5,$6,$7,0*
20,1,$1+$1,$6,$7,$8,$9,0*
20,1,$1+$1,$8,$9,$2,$3,0*%
%AMFreePoly0*
4,1,19,0.500000,-0.750000,0.000000,-0.750000,0.000000,-0.744911,-0.071157,-0.744911,-0.207708,-0.704816,-0.327430,-0.627875,-0.420627,-0.520320,-0.479746,-0.390866,-0.500000,-0.250000,-0.500000,0.250000,-0.479746,0.390866,-0.420627,0.520320,-0.327430,0.627875,-0.207708,0.704816,-0.071157,0.744911,0.000000,0.744911,0.000000,0.750000,0.500000,0.750000,0.500000,-0.750000,0.500000,-0.750000,
$1*%
%AMFreePoly1*
4,1,19,0.000000,0.744911,0.071157,0.744911,0.207708,0.704816,0.327430,0.627875,0.420627,0.520320,0.479746,0.390866,0.500000,0.250000,0.500000,-0.250000,0.479746,-0.390866,0.420627,-0.520320,0.327430,-0.627875,0.207708,-0.704816,0.071157,-0.744911,0.000000,-0.744911,0.000000,-0.750000,-0.500000,-0.750000,-0.500000,0.750000,0.000000,0.750000,0.000000,0.744911,0.000000,0.744911,
$1*%
%AMFreePoly2*
4,1,14,0.314644,0.085355,0.385355,0.014644,0.400000,-0.020711,0.400000,-0.050000,0.385355,-0.085355,0.350000,-0.100000,-0.350000,-0.100000,-0.385355,-0.085355,-0.400000,-0.050000,-0.400000,0.050000,-0.385355,0.085355,-0.350000,0.100000,0.279289,0.100000,0.314644,0.085355,0.314644,0.085355,$1*%
%AMFreePoly3*
4,1,14,0.385355,0.085355,0.400000,0.050000,0.400000,0.020711,0.385355,-0.014644,0.314644,-0.085355,0.279289,-0.100000,-0.350000,-0.100000,-0.385355,-0.085355,-0.400000,-0.050000,-0.400000,0.050000,-0.385355,0.085355,-0.350000,0.100000,0.350000,0.100000,0.385355,0.085355,0.385355,0.085355,$1*%
%AMFreePoly4*
4,1,14,0.085355,0.385355,0.100000,0.350000,0.100000,-0.350000,0.085355,-0.385355,0.050000,-0.400000,-0.050000,-0.400000,-0.085355,-0.385355,-0.100000,-0.350000,-0.100000,0.279289,-0.085355,0.314644,-0.014644,0.385355,0.020711,0.400000,0.050000,0.400000,0.085355,0.385355,0.085355,0.385355,$1*%
%AMFreePoly5*
4,1,14,0.014644,0.385355,0.085355,0.314644,0.100000,0.279289,0.100000,-0.350000,0.085355,-0.385355,0.050000,-0.400000,-0.050000,-0.400000,-0.085355,-0.385355,-0.100000,-0.350000,-0.100000,0.350000,-0.085355,0.385355,-0.050000,0.400000,-0.020711,0.400000,0.014644,0.385355,0.014644,0.385355,$1*%
%AMFreePoly6*
4,1,14,0.385355,0.085355,0.400000,0.050000,0.400000,-0.050000,0.385355,-0.085355,0.350000,-0.100000,-0.279289,-0.100000,-0.314644,-0.085355,-0.385355,-0.014644,-0.400000,0.020711,-0.400000,0.050000,-0.385355,0.085355,-0.350000,0.100000,0.350000,0.100000,0.385355,0.085355,0.385355,0.085355,$1*%
%AMFreePoly7*
4,1,14,0.385355,0.085355,0.400000,0.050000,0.400000,-0.050000,0.385355,-0.085355,0.350000,-0.100000,-0.350000,-0.100000,-0.385355,-0.085355,-0.400000,-0.050000,-0.400000,-0.020711,-0.385355,0.014644,-0.314644,0.085355,-0.279289,0.100000,0.350000,0.100000,0.385355,0.085355,0.385355,0.085355,$1*%
%AMFreePoly8*
4,1,14,0.085355,0.385355,0.100000,0.350000,0.100000,-0.279289,0.085355,-0.314644,0.014644,-0.385355,-0.020711,-0.400000,-0.050000,-0.400000,-0.085355,-0.385355,-0.100000,-0.350000,-0.100000,0.350000,-0.085355,0.385355,-0.050000,0.400000,0.050000,0.400000,0.085355,0.385355,0.085355,0.385355,$1*%
%AMFreePoly9*
4,1,14,0.085355,0.385355,0.100000,0.350000,0.100000,-0.350000,0.085355,-0.385355,0.050000,-0.400000,0.020711,-0.400000,-0.014644,-0.385355,-0.085355,-0.314644,-0.100000,-0.279289,-0.100000,0.350000,-0.085355,0.385355,-0.050000,0.400000,0.050000,0.400000,0.085355,0.385355,0.085355,0.385355,$1*%
G04 Aperture macros list end*
%ADD10C,0.200000*%
%TA.AperFunction,NonConductor*%
%ADD11C,0.200000*%
%TD*%
%TA.AperFunction,EtchedComponent*%
%ADD12C,0.000000*%
%TD*%
%TA.AperFunction,ComponentPad*%
%ADD13R,1.700000X1.700000*%
%TD*%
%TA.AperFunction,ComponentPad*%
%ADD14O,1.700000X1.700000*%
%TD*%
%TA.AperFunction,SMDPad,CuDef*%
%ADD15RoundRect,0.250000X0.475000X-0.337500X0.475000X0.337500X-0.475000X0.337500X-0.475000X-0.337500X0*%
%TD*%
%TA.AperFunction,SMDPad,CuDef*%
%ADD16RoundRect,0.250000X0.337500X0.475000X-0.337500X0.475000X-0.337500X-0.475000X0.337500X-0.475000X0*%
%TD*%
%TA.AperFunction,ComponentPad*%
%ADD17R,1.676400X1.676400*%
%TD*%
%TA.AperFunction,ComponentPad*%
%ADD18C,1.524000*%
%TD*%
%TA.AperFunction,ComponentPad*%
%ADD19R,1.524000X1.524000*%
%TD*%
%TA.AperFunction,SMDPad,CuDef*%
%ADD20RoundRect,0.250000X-0.350000X-0.450000X0.350000X-0.450000X0.350000X0.450000X-0.350000X0.450000X0*%
%TD*%
%TA.AperFunction,SMDPad,CuDef*%
%ADD21C,0.500000*%
%TD*%
%TA.AperFunction,ComponentPad*%
%ADD22C,1.700000*%
%TD*%
%TA.AperFunction,SMDPad,CuDef*%
%ADD23RoundRect,0.243750X-0.243750X-0.456250X0.243750X-0.456250X0.243750X0.456250X-0.243750X0.456250X0*%
%TD*%
%TA.AperFunction,SMDPad,CuDef*%
%ADD24FreePoly0,270.000000*%
%TD*%
%TA.AperFunction,SMDPad,CuDef*%
%ADD25FreePoly1,270.000000*%
%TD*%
%TA.AperFunction,SMDPad,CuDef*%
%ADD26FreePoly2,0.000000*%
%TD*%
%TA.AperFunction,SMDPad,CuDef*%
%ADD27RoundRect,0.050000X-0.350000X-0.050000X0.350000X-0.050000X0.350000X0.050000X-0.350000X0.050000X0*%
%TD*%
%TA.AperFunction,SMDPad,CuDef*%
%ADD28FreePoly3,0.000000*%
%TD*%
%TA.AperFunction,SMDPad,CuDef*%
%ADD29FreePoly4,0.000000*%
%TD*%
%TA.AperFunction,SMDPad,CuDef*%
%ADD30RoundRect,0.050000X-0.050000X-0.350000X0.050000X-0.350000X0.050000X0.350000X-0.050000X0.350000X0*%
%TD*%
%TA.AperFunction,SMDPad,CuDef*%
%ADD31FreePoly5,0.000000*%
%TD*%
%TA.AperFunction,SMDPad,CuDef*%
%ADD32FreePoly6,0.000000*%
%TD*%
%TA.AperFunction,SMDPad,CuDef*%
%ADD33FreePoly7,0.000000*%
%TD*%
%TA.AperFunction,SMDPad,CuDef*%
%ADD34FreePoly8,0.000000*%
%TD*%
%TA.AperFunction,SMDPad,CuDef*%
%ADD35FreePoly9,0.000000*%
%TD*%
%TA.AperFunction,HeatsinkPad*%
%ADD36R,2.650000X2.650000*%
%TD*%
%TA.AperFunction,ViaPad*%
%ADD37C,1.000000*%
%TD*%
%TA.AperFunction,Conductor*%
%ADD38C,0.300000*%
%TD*%
%TA.AperFunction,Conductor*%
%ADD39C,0.500000*%
%TD*%
%TA.AperFunction,Conductor*%
%ADD40C,0.200000*%
%TD*%
%TA.AperFunction,Conductor*%
%ADD41C,0.800000*%
%TD*%
G04 APERTURE END LIST*
D10*
D11*
X152226816Y-71867219D02*
X152798244Y-71867219D01*
X152512530Y-72867219D02*
X152512530Y-71867219D01*
X153322054Y-71867219D02*
X153512530Y-71867219D01*
X153512530Y-71867219D02*
X153607768Y-71914838D01*
X153607768Y-71914838D02*
X153703006Y-72010076D01*
X153703006Y-72010076D02*
X153750625Y-72200552D01*
X153750625Y-72200552D02*
X153750625Y-72533885D01*
X153750625Y-72533885D02*
X153703006Y-72724361D01*
X153703006Y-72724361D02*
X153607768Y-72819600D01*
X153607768Y-72819600D02*
X153512530Y-72867219D01*
X153512530Y-72867219D02*
X153322054Y-72867219D01*
X153322054Y-72867219D02*
X153226816Y-72819600D01*
X153226816Y-72819600D02*
X153131578Y-72724361D01*
X153131578Y-72724361D02*
X153083959Y-72533885D01*
X153083959Y-72533885D02*
X153083959Y-72200552D01*
X153083959Y-72200552D02*
X153131578Y-72010076D01*
X153131578Y-72010076D02*
X153226816Y-71914838D01*
X153226816Y-71914838D02*
X153322054Y-71867219D01*
X154179197Y-72867219D02*
X154179197Y-71867219D01*
X154179197Y-71867219D02*
X154560149Y-71867219D01*
X154560149Y-71867219D02*
X154655387Y-71914838D01*
X154655387Y-71914838D02*
X154703006Y-71962457D01*
X154703006Y-71962457D02*
X154750625Y-72057695D01*
X154750625Y-72057695D02*
X154750625Y-72200552D01*
X154750625Y-72200552D02*
X154703006Y-72295790D01*
X154703006Y-72295790D02*
X154655387Y-72343409D01*
X154655387Y-72343409D02*
X154560149Y-72391028D01*
X154560149Y-72391028D02*
X154179197Y-72391028D01*
D12*
%TA.AperFunction,EtchedComponent*%
%TO.C,JP1*%
G36*
X157950000Y-90080000D02*
G01*
X157750000Y-90080000D01*
X157750000Y-89580000D01*
X157950000Y-89580000D01*
X157950000Y-90080000D01*
G37*
%TD.AperFunction*%
%TD*%
D13*
%TO.P,J2,1,Pin_1*%
%TO.N,/SPI_CE0*%
X120475000Y-96195000D03*
D14*
%TO.P,J2,2,Pin_2*%
%TO.N,/SPI_CS*%
X123015000Y-96195000D03*
%TO.P,J2,3,Pin_3*%
%TO.N,/SPI_CE1*%
X120475000Y-98735000D03*
%TO.P,J2,4,Pin_4*%
%TO.N,/SPI_CS*%
X123015000Y-98735000D03*
%TO.P,J2,5,Pin_5*%
%TO.N,/GPIO25*%
X120475000Y-101275000D03*
%TO.P,J2,6,Pin_6*%
%TO.N,/SPI_CS*%
X123015000Y-101275000D03*
%TD*%
D15*
%TO.P,C3,1*%
%TO.N,GND*%
X146100000Y-99837500D03*
%TO.P,C3,2*%
%TO.N,VCC*%
X146100000Y-97762500D03*
%TD*%
%TO.P,C2,1*%
%TO.N,GND*%
X136800000Y-97637500D03*
%TO.P,C2,2*%
%TO.N,VCC*%
X136800000Y-95562500D03*
%TD*%
D16*
%TO.P,C1,1*%
%TO.N,GND*%
X141925000Y-103600000D03*
%TO.P,C1,2*%
%TO.N,VCC*%
X139850000Y-103600000D03*
%TD*%
D17*
%TO.P,CON1,P1,AN*%
%TO.N,unconnected-(CON1-AN-PadP1)*%
X129240000Y-89770000D03*
D18*
%TO.P,CON1,P2,RST*%
%TO.N,unconnected-(CON1-RST-PadP2)*%
X129240000Y-92310000D03*
%TO.P,CON1,P3,CS*%
%TO.N,/SPI_CS*%
X129240000Y-94850000D03*
%TO.P,CON1,P4,SCK*%
%TO.N,/SPI_SCK*%
X129240000Y-97390000D03*
%TO.P,CON1,P5,MISO*%
%TO.N,/SPI_MISO*%
X129240000Y-99930000D03*
%TO.P,CON1,P6,MOSI*%
%TO.N,/SPI_MOSI*%
X129240000Y-102470000D03*
%TO.P,CON1,P7,3V3*%
%TO.N,VCC*%
X129240000Y-105010000D03*
%TO.P,CON1,P8,GND1*%
%TO.N,GND*%
X129240000Y-107550000D03*
%TO.P,CON1,P9,GND2*%
X152100000Y-107550000D03*
%TO.P,CON1,P10,5V*%
%TO.N,unconnected-(CON1-5V-PadP10)*%
X152100000Y-105010000D03*
%TO.P,CON1,P11,SDA*%
%TO.N,unconnected-(CON1-SDA-PadP11)*%
X152100000Y-102470000D03*
%TO.P,CON1,P12,SCL*%
%TO.N,unconnected-(CON1-SCL-PadP12)*%
X152100000Y-99930000D03*
%TO.P,CON1,P13,RX*%
%TO.N,unconnected-(CON1-RX-PadP13)*%
X152100000Y-97390000D03*
%TO.P,CON1,P14,TX*%
%TO.N,unconnected-(CON1-TX-PadP14)*%
X152100000Y-94850000D03*
%TO.P,CON1,P15,INT*%
%TO.N,/GPO*%
X152100000Y-92310000D03*
D19*
%TO.P,CON1,P16,PWM*%
%TO.N,unconnected-(CON1-PWM-PadP16)*%
X152100000Y-89770000D03*
%TD*%
D20*
%TO.P,R3,1*%
%TO.N,/SPI_CS*%
X120750000Y-105750000D03*
%TO.P,R3,2*%
%TO.N,VCC*%
X122750000Y-105750000D03*
%TD*%
%TO.P,R1,1*%
%TO.N,Net-(D1-A)*%
X157500000Y-117250000D03*
%TO.P,R1,2*%
%TO.N,VCC*%
X159500000Y-117250000D03*
%TD*%
D21*
%TO.P,FID1,*%
%TO.N,*%
X157500000Y-131500000D03*
%TD*%
D22*
%TO.P,J1,1,Pin_1*%
%TO.N,Net-(J1-Pin_1)*%
X163622000Y-78400000D03*
D14*
%TO.P,J1,2,Pin_2*%
%TO.N,+5V*%
X166162000Y-78400000D03*
%TO.P,J1,3,Pin_3*%
%TO.N,unconnected-(J1-Pin_3-Pad3)*%
X163622000Y-80940000D03*
%TO.P,J1,4,Pin_4*%
%TO.N,+5V*%
X166162000Y-80940000D03*
%TO.P,J1,5,Pin_5*%
%TO.N,unconnected-(J1-Pin_5-Pad5)*%
X163622000Y-83480000D03*
D13*
%TO.P,J1,6,Pin_6*%
%TO.N,GND*%
X166162000Y-83480000D03*
D14*
%TO.P,J1,7,Pin_7*%
%TO.N,unconnected-(J1-Pin_7-Pad7)*%
X163622000Y-86020000D03*
%TO.P,J1,8,Pin_8*%
%TO.N,unconnected-(J1-Pin_8-Pad8)*%
X166162000Y-86020000D03*
D13*
%TO.P,J1,9,Pin_9*%
%TO.N,GND*%
X163622000Y-88560000D03*
D14*
%TO.P,J1,10,Pin_10*%
%TO.N,unconnected-(J1-Pin_10-Pad10)*%
X166162000Y-88560000D03*
%TO.P,J1,11,Pin_11*%
%TO.N,unconnected-(J1-Pin_11-Pad11)*%
X163622000Y-91100000D03*
%TO.P,J1,12,Pin_12*%
%TO.N,unconnected-(J1-Pin_12-Pad12)*%
X166162000Y-91100000D03*
%TO.P,J1,13,Pin_13*%
%TO.N,unconnected-(J1-Pin_13-Pad13)*%
X163622000Y-93640000D03*
D13*
%TO.P,J1,14,Pin_14*%
%TO.N,GND*%
X166162000Y-93640000D03*
D14*
%TO.P,J1,15,Pin_15*%
%TO.N,unconnected-(J1-Pin_15-Pad15)*%
X163622000Y-96180000D03*
%TO.P,J1,16,Pin_16*%
%TO.N,unconnected-(J1-Pin_16-Pad16)*%
X166162000Y-96180000D03*
%TO.P,J1,17,Pin_17*%
%TO.N,Net-(J1-Pin_1)*%
X163622000Y-98720000D03*
%TO.P,J1,18,Pin_18*%
%TO.N,unconnected-(J1-Pin_18-Pad18)*%
X166162000Y-98720000D03*
%TO.P,J1,19,Pin_19*%
%TO.N,/SPI_MOSI*%
X163622000Y-101260000D03*
D13*
%TO.P,J1,20,Pin_20*%
%TO.N,GND*%
X166162000Y-101260000D03*
D14*
%TO.P,J1,21,Pin_21*%
%TO.N,/SPI_MISO*%
X163622000Y-103800000D03*
%TO.P,J1,22,Pin_22*%
%TO.N,/GPIO25*%
X166162000Y-103800000D03*
%TO.P,J1,23,Pin_23*%
%TO.N,/SPI_SCK*%
X163622000Y-106340000D03*
%TO.P,J1,24,Pin_24*%
%TO.N,/SPI_CE0*%
X166162000Y-106340000D03*
D13*
%TO.P,J1,25,Pin_25*%
%TO.N,GND*%
X163622000Y-108880000D03*
D14*
%TO.P,J1,26,Pin_26*%
%TO.N,/SPI_CE1*%
X166162000Y-108880000D03*
%TO.P,J1,27,Pin_27*%
%TO.N,unconnected-(J1-Pin_27-Pad27)*%
X163622000Y-111420000D03*
%TO.P,J1,28,Pin_28*%
%TO.N,unconnected-(J1-Pin_28-Pad28)*%
X166162000Y-111420000D03*
%TO.P,J1,29,Pin_29*%
%TO.N,/GPIO5*%
X163622000Y-113960000D03*
D13*
%TO.P,J1,30,Pin_30*%
%TO.N,GND*%
X166162000Y-113960000D03*
D14*
%TO.P,J1,31,Pin_31*%
%TO.N,unconnected-(J1-Pin_31-Pad31)*%
X163622000Y-116500000D03*
%TO.P,J1,32,Pin_32*%
%TO.N,unconnected-(J1-Pin_32-Pad32)*%
X166162000Y-116500000D03*
%TO.P,J1,33,Pin_33*%
%TO.N,unconnected-(J1-Pin_33-Pad33)*%
X163622000Y-119040000D03*
D13*
%TO.P,J1,34,Pin_34*%
%TO.N,GND*%
X166162000Y-119040000D03*
D14*
%TO.P,J1,35,Pin_35*%
%TO.N,unconnected-(J1-Pin_35-Pad35)*%
X163622000Y-121580000D03*
%TO.P,J1,36,Pin_36*%
%TO.N,unconnected-(J1-Pin_36-Pad36)*%
X166162000Y-121580000D03*
%TO.P,J1,37,Pin_37*%
%TO.N,unconnected-(J1-Pin_37-Pad37)*%
X163622000Y-124120000D03*
%TO.P,J1,38,Pin_38*%
%TO.N,unconnected-(J1-Pin_38-Pad38)*%
X166162000Y-124120000D03*
D13*
%TO.P,J1,39,Pin_39*%
%TO.N,GND*%
X163622000Y-126660000D03*
D14*
%TO.P,J1,40,Pin_40*%
%TO.N,unconnected-(J1-Pin_40-Pad40)*%
X166162000Y-126660000D03*
%TD*%
D23*
%TO.P,D1,1,K*%
%TO.N,GND*%
X139562500Y-117250000D03*
%TO.P,D1,2,A*%
%TO.N,Net-(D1-A)*%
X141437500Y-117250000D03*
%TD*%
D20*
%TO.P,R2,1*%
%TO.N,/GPO*%
X157500000Y-113500000D03*
%TO.P,R2,2*%
%TO.N,/GPIO5*%
X159500000Y-113500000D03*
%TD*%
D24*
%TO.P,JP1,1,A*%
%TO.N,Net-(J1-Pin_1)*%
X157850000Y-89230000D03*
D25*
%TO.P,JP1,2,B*%
%TO.N,VCC*%
X157850000Y-90430000D03*
%TD*%
D26*
%TO.P,IC1,1,VCC*%
%TO.N,VCC*%
X139150000Y-97650000D03*
D27*
%TO.P,IC1,2,GND*%
%TO.N,GND*%
X139150000Y-98050000D03*
%TO.P,IC1,3,PULLDN*%
X139150000Y-98450000D03*
%TO.P,IC1,4,GPO*%
%TO.N,/GPO*%
X139150000Y-98850000D03*
%TO.P,IC1,5,SDI*%
%TO.N,/SPI_MOSI*%
X139150000Y-99250000D03*
%TO.P,IC1,6,SDO*%
%TO.N,/SPI_MISO*%
X139150000Y-99650000D03*
%TO.P,IC1,7,SCK*%
%TO.N,/SPI_SCK*%
X139150000Y-100050000D03*
D28*
%TO.P,IC1,8,CSN*%
%TO.N,/SPI_CS*%
X139150000Y-100450000D03*
D29*
%TO.P,IC1,9,PULLDN*%
%TO.N,GND*%
X139700000Y-101000000D03*
D30*
%TO.P,IC1,10,PULLDN*%
X140100000Y-101000000D03*
%TO.P,IC1,11,VCC*%
%TO.N,VCC*%
X140500000Y-101000000D03*
%TO.P,IC1,12,GND*%
%TO.N,GND*%
X140900000Y-101000000D03*
%TO.P,IC1,13,DNC*%
%TO.N,unconnected-(IC1-DNC-Pad13)*%
X141300000Y-101000000D03*
%TO.P,IC1,14,DNC*%
%TO.N,unconnected-(IC1-DNC-Pad14)*%
X141700000Y-101000000D03*
%TO.P,IC1,15*%
%TO.N,N/C*%
X142100000Y-101000000D03*
D31*
%TO.P,IC1,16*%
X142500000Y-101000000D03*
D32*
%TO.P,IC1,17,DNC*%
%TO.N,unconnected-(IC1-DNC-Pad17)*%
X143050000Y-100450000D03*
D27*
%TO.P,IC1,18,DNC*%
%TO.N,unconnected-(IC1-DNC-Pad18)*%
X143050000Y-100050000D03*
%TO.P,IC1,19,DNC*%
%TO.N,unconnected-(IC1-DNC-Pad19)*%
X143050000Y-99650000D03*
%TO.P,IC1,20,DNC*%
%TO.N,unconnected-(IC1-DNC-Pad20)*%
X143050000Y-99250000D03*
%TO.P,IC1,21,DNC*%
%TO.N,unconnected-(IC1-DNC-Pad21)*%
X143050000Y-98850000D03*
%TO.P,IC1,22,PULLUP*%
%TO.N,VCC*%
X143050000Y-98450000D03*
%TO.P,IC1,23,GND*%
%TO.N,GND*%
X143050000Y-98050000D03*
D33*
%TO.P,IC1,24,VCC*%
%TO.N,VCC*%
X143050000Y-97650000D03*
D34*
%TO.P,IC1,25*%
%TO.N,N/C*%
X142500000Y-97100000D03*
D30*
%TO.P,IC1,26,DNC*%
%TO.N,unconnected-(IC1-DNC-Pad26)*%
X142100000Y-97100000D03*
%TO.P,IC1,27,DNC*%
%TO.N,unconnected-(IC1-DNC-Pad27)*%
X141700000Y-97100000D03*
%TO.P,IC1,28,DNC*%
%TO.N,unconnected-(IC1-DNC-Pad28)*%
X141300000Y-97100000D03*
%TO.P,IC1,29,DNC*%
%TO.N,unconnected-(IC1-DNC-Pad29)*%
X140900000Y-97100000D03*
%TO.P,IC1,30,PULLDN*%
%TO.N,GND*%
X140500000Y-97100000D03*
%TO.P,IC1,31,PULLDN*%
X140100000Y-97100000D03*
D35*
%TO.P,IC1,32*%
%TO.N,N/C*%
X139700000Y-97100000D03*
D36*
%TO.P,IC1,33,TP*%
%TO.N,GND*%
X141100000Y-99050000D03*
%TD*%
D37*
%TO.N,GND*%
X158500000Y-106750000D03*
X119170000Y-104380000D03*
X124060000Y-103810000D03*
X161280000Y-111610000D03*
X153680000Y-111230000D03*
%TO.N,/GPIO25*%
X161540000Y-106970000D03*
%TO.N,GND*%
X130500000Y-85000000D03*
X149600000Y-104800000D03*
X137500000Y-111030000D03*
X114500000Y-90000000D03*
X132500000Y-92000000D03*
X158500000Y-101000000D03*
X143130000Y-103660000D03*
X140310000Y-95810000D03*
X152500000Y-115000000D03*
X121500000Y-73000000D03*
X150500000Y-73000000D03*
X114500000Y-80000000D03*
X130500000Y-133000000D03*
X150500000Y-133000000D03*
X129600000Y-110800000D03*
X159500000Y-133000000D03*
X146080000Y-102800000D03*
X146080000Y-101060000D03*
X114500000Y-100000000D03*
X159500000Y-73000000D03*
X143130000Y-102350000D03*
X137910000Y-101360000D03*
X114500000Y-120000000D03*
X114500000Y-110000000D03*
X121500000Y-133000000D03*
X135450000Y-97670000D03*
X143510000Y-108070000D03*
X149600000Y-94800000D03*
X150500000Y-85000000D03*
X130500000Y-73000000D03*
X144350000Y-95800000D03*
X137910000Y-103050000D03*
%TO.N,/GPO*%
X156250000Y-113500000D03*
%TO.N,VCC*%
X159500000Y-99540000D03*
X160690000Y-116060000D03*
%TO.N,/SPI_SCK*%
X135030000Y-101420000D03*
X135030000Y-106510000D03*
%TO.N,/SPI_MOSI*%
X132280000Y-106570000D03*
X132280000Y-101380000D03*
%TO.N,/SPI_CS*%
X136370000Y-101420000D03*
%TO.N,/SPI_MISO*%
X133595000Y-106525000D03*
X133680000Y-101350000D03*
%TD*%
D38*
%TO.N,/SPI_CE1*%
X166162000Y-108880000D02*
X164882000Y-110160000D01*
X157847107Y-110160000D02*
X154867107Y-113140000D01*
X116850000Y-96880000D02*
X118860000Y-94870000D01*
X118860000Y-94870000D02*
X121450000Y-94870000D01*
X164882000Y-110160000D02*
X157847107Y-110160000D01*
X116850000Y-107924212D02*
X116850000Y-96880000D01*
X154867107Y-113140000D02*
X122065788Y-113140000D01*
X122065788Y-113140000D02*
X116850000Y-107924212D01*
X121450000Y-94870000D02*
X121710000Y-95130000D01*
X121710000Y-95130000D02*
X121710000Y-97500000D01*
X121710000Y-97500000D02*
X120475000Y-98735000D01*
D39*
%TO.N,VCC*%
X159500000Y-99540000D02*
X159500000Y-98800000D01*
X159500000Y-98800000D02*
X157860000Y-97160000D01*
X157860000Y-96198000D02*
X157880000Y-96178000D01*
X157860000Y-97160000D02*
X157860000Y-96198000D01*
D38*
%TO.N,/GPIO25*%
X161540000Y-106970000D02*
X161090000Y-107420000D01*
X117850000Y-107510000D02*
X117850000Y-102450000D01*
X161090000Y-107420000D02*
X159080000Y-107420000D01*
X159080000Y-107420000D02*
X154400000Y-112100000D01*
X154400000Y-112100000D02*
X122440000Y-112100000D01*
X122440000Y-112100000D02*
X117850000Y-107510000D01*
X117850000Y-102450000D02*
X119025000Y-101275000D01*
X119025000Y-101275000D02*
X120475000Y-101275000D01*
%TO.N,/SPI_CS*%
X120750000Y-105750000D02*
X120750000Y-104850000D01*
X120750000Y-104850000D02*
X123015000Y-102585000D01*
X123015000Y-102585000D02*
X123015000Y-101275000D01*
%TO.N,VCC*%
X122750000Y-105750000D02*
X125720000Y-105750000D01*
X125720000Y-105750000D02*
X126460000Y-105010000D01*
X126460000Y-105010000D02*
X129240000Y-105010000D01*
%TO.N,/SPI_CE0*%
X166162000Y-106340000D02*
X164912000Y-107590000D01*
X117350000Y-107717106D02*
X117350000Y-98000000D01*
X164912000Y-107590000D02*
X162490000Y-107590000D01*
X162490000Y-107590000D02*
X161310000Y-108770000D01*
X161310000Y-108770000D02*
X158530000Y-108770000D01*
X117350000Y-98000000D02*
X119155000Y-96195000D01*
X158530000Y-108770000D02*
X154660000Y-112640000D01*
X154660000Y-112640000D02*
X122272894Y-112640000D01*
X119155000Y-96195000D02*
X120475000Y-96195000D01*
X122272894Y-112640000D02*
X117350000Y-107717106D01*
%TO.N,/SPI_SCK*%
X135030000Y-106510000D02*
X135670000Y-106510000D01*
X135670000Y-106510000D02*
X136500000Y-107340000D01*
X163082000Y-105800000D02*
X163622000Y-106340000D01*
X136500000Y-107340000D02*
X137567106Y-107340000D01*
X137567106Y-107340000D02*
X140154212Y-109927107D01*
X158167106Y-105800000D02*
X163082000Y-105800000D01*
X140154212Y-109927107D02*
X140447105Y-110220000D01*
X140447105Y-110220000D02*
X153747106Y-110220000D01*
X153747106Y-110220000D02*
X158167106Y-105800000D01*
%TO.N,/SPI_MISO*%
X133595000Y-106525000D02*
X133595000Y-106255000D01*
X140654212Y-109720000D02*
X153540000Y-109720000D01*
X133595000Y-106255000D02*
X134260000Y-105590000D01*
X134260000Y-105590000D02*
X135590000Y-105590000D01*
X153540000Y-109720000D02*
X158900000Y-104360000D01*
X135590000Y-105590000D02*
X136760000Y-106760000D01*
X136760000Y-106760000D02*
X137694212Y-106760000D01*
X137694212Y-106760000D02*
X140654212Y-109720000D01*
X158900000Y-104360000D02*
X161270000Y-104360000D01*
X161270000Y-104360000D02*
X161830000Y-103800000D01*
X161830000Y-103800000D02*
X163622000Y-103800000D01*
%TO.N,/SPI_MOSI*%
X163622000Y-101260000D02*
X161290000Y-101260000D01*
X161290000Y-101260000D02*
X153330000Y-109220000D01*
X153330000Y-109220000D02*
X140861318Y-109220000D01*
X140861318Y-109220000D02*
X138194212Y-106552893D01*
X138194212Y-106552893D02*
X137901319Y-106260000D01*
X137901319Y-106260000D02*
X136967106Y-106260000D01*
X136967106Y-106260000D02*
X135777106Y-105070000D01*
X135777106Y-105070000D02*
X133780000Y-105070000D01*
X133780000Y-105070000D02*
X132280000Y-106570000D01*
%TO.N,/GPIO5*%
X159500000Y-113500000D02*
X159520000Y-113520000D01*
X162420000Y-113960000D02*
X163622000Y-113960000D01*
X159520000Y-113520000D02*
X161980000Y-113520000D01*
X161980000Y-113520000D02*
X162420000Y-113960000D01*
%TO.N,/GPO*%
X156250000Y-113500000D02*
X157500000Y-113500000D01*
%TO.N,VCC*%
X160690000Y-116060000D02*
X159500000Y-117250000D01*
%TO.N,/SPI_CS*%
X123015000Y-96195000D02*
X125305000Y-96195000D01*
X125305000Y-96195000D02*
X126650000Y-94850000D01*
X126650000Y-94850000D02*
X129240000Y-94850000D01*
X123015000Y-98735000D02*
X123015000Y-96195000D01*
X123015000Y-101275000D02*
X123015000Y-98735000D01*
D40*
%TO.N,GND*%
X142100000Y-98050000D02*
X141100000Y-99050000D01*
X139150000Y-98450000D02*
X140500000Y-98450000D01*
X140900000Y-99250000D02*
X141100000Y-99050000D01*
X140100000Y-98050000D02*
X141100000Y-99050000D01*
X144230000Y-98050000D02*
X144800000Y-98620000D01*
X141925000Y-102785000D02*
X141925000Y-103600000D01*
X139150000Y-98050000D02*
X140100000Y-98050000D01*
X140100000Y-101000000D02*
X140100000Y-101650000D01*
X140100000Y-97100000D02*
X140100000Y-98050000D01*
X140100000Y-97100000D02*
X140100000Y-96020000D01*
X139700000Y-101680000D02*
X139440000Y-101940000D01*
X140900000Y-101760000D02*
X141925000Y-102785000D01*
X140900000Y-101000000D02*
X140900000Y-101760000D01*
X144800000Y-98620000D02*
X144800000Y-99470000D01*
X140100000Y-100050000D02*
X141100000Y-99050000D01*
X140100000Y-101000000D02*
X140100000Y-100050000D01*
X143050000Y-98050000D02*
X142100000Y-98050000D01*
X145167500Y-99837500D02*
X146100000Y-99837500D01*
X139810000Y-101940000D02*
X139440000Y-101940000D01*
X140100000Y-101650000D02*
X139810000Y-101940000D01*
X140500000Y-97100000D02*
X140500000Y-96000000D01*
X139440000Y-101940000D02*
X138490000Y-101940000D01*
X139700000Y-101000000D02*
X139700000Y-101680000D01*
X138490000Y-101940000D02*
X137910000Y-101360000D01*
X140100000Y-96020000D02*
X140310000Y-95810000D01*
X139150000Y-98450000D02*
X137612500Y-98450000D01*
X140500000Y-98450000D02*
X141100000Y-99050000D01*
X144800000Y-99470000D02*
X145167500Y-99837500D01*
X140500000Y-96000000D02*
X140310000Y-95810000D01*
X137612500Y-98450000D02*
X136800000Y-97637500D01*
X139150000Y-98050000D02*
X137212500Y-98050000D01*
X140500000Y-97100000D02*
X140500000Y-98450000D01*
X137212500Y-98050000D02*
X136800000Y-97637500D01*
X140010000Y-100140000D02*
X141100000Y-99050000D01*
X143050000Y-98050000D02*
X144230000Y-98050000D01*
X140900000Y-101000000D02*
X140900000Y-99250000D01*
%TO.N,/GPO*%
X135498629Y-98850000D02*
X134330000Y-97681371D01*
X139150000Y-98850000D02*
X135498629Y-98850000D01*
X134330000Y-97681371D02*
X134330000Y-94050000D01*
X136070000Y-92310000D02*
X152600000Y-92310000D01*
X134330000Y-94050000D02*
X136070000Y-92310000D01*
D39*
%TO.N,VCC*%
X157880000Y-96178000D02*
X148002000Y-96178000D01*
X138025000Y-104100000D02*
X139195000Y-105270000D01*
X131020000Y-105010000D02*
X131930000Y-104100000D01*
X148002000Y-96178000D02*
X147610000Y-96570000D01*
X139830000Y-103580000D02*
X139850000Y-103600000D01*
D40*
X137512500Y-95562500D02*
X136800000Y-95562500D01*
X143920000Y-98450000D02*
X144400000Y-98930000D01*
X145987500Y-97650000D02*
X146100000Y-97762500D01*
D39*
X129740000Y-105010000D02*
X131020000Y-105010000D01*
X139820000Y-105270000D02*
X144400000Y-105270000D01*
X139195000Y-105270000D02*
X139820000Y-105270000D01*
X144400000Y-105270000D02*
X145720000Y-105270000D01*
D40*
X146100000Y-97762500D02*
X147592500Y-97762500D01*
D39*
X147610000Y-103380000D02*
X147610000Y-97780000D01*
D40*
X139850000Y-105240000D02*
X139820000Y-105270000D01*
X147592500Y-97762500D02*
X147610000Y-97780000D01*
D41*
X157850000Y-90430000D02*
X157850000Y-96148000D01*
D39*
X147610000Y-97780000D02*
X147610000Y-96570000D01*
D40*
X140500000Y-101000000D02*
X140500000Y-101820000D01*
X143050000Y-98450000D02*
X143920000Y-98450000D01*
D39*
X145720000Y-105270000D02*
X147610000Y-103380000D01*
X131930000Y-104100000D02*
X138025000Y-104100000D01*
D41*
X157850000Y-96148000D02*
X157880000Y-96178000D01*
D39*
X137120000Y-94330000D02*
X136800000Y-94650000D01*
D40*
X144400000Y-98930000D02*
X144400000Y-105270000D01*
X139150000Y-97650000D02*
X138480000Y-97650000D01*
D39*
X145370000Y-94330000D02*
X137120000Y-94330000D01*
D40*
X139850000Y-102470000D02*
X139850000Y-103600000D01*
X138480000Y-97650000D02*
X138110000Y-97280000D01*
D39*
X147610000Y-96570000D02*
X145370000Y-94330000D01*
X136800000Y-94650000D02*
X136800000Y-95562500D01*
D40*
X138110000Y-97280000D02*
X138110000Y-96160000D01*
X140500000Y-101820000D02*
X139850000Y-102470000D01*
X139850000Y-103600000D02*
X139850000Y-105240000D01*
X143050000Y-97650000D02*
X145987500Y-97650000D01*
X138110000Y-96160000D02*
X137512500Y-95562500D01*
%TO.N,/SPI_SCK*%
X135030000Y-100810000D02*
X135790000Y-100050000D01*
X135790000Y-100050000D02*
X139150000Y-100050000D01*
X135030000Y-101420000D02*
X135030000Y-100810000D01*
%TO.N,/SPI_MOSI*%
X132280000Y-101380000D02*
X132280000Y-100644314D01*
X133674314Y-99250000D02*
X139150000Y-99250000D01*
X132280000Y-100644314D02*
X133674314Y-99250000D01*
X129740000Y-102360000D02*
X129740000Y-102470000D01*
%TO.N,/SPI_CS*%
X136370000Y-101420000D02*
X136370000Y-100770000D01*
X136370000Y-100770000D02*
X136690000Y-100450000D01*
X136690000Y-100450000D02*
X139150000Y-100450000D01*
%TO.N,/SPI_MISO*%
X134820000Y-99650000D02*
X139150000Y-99650000D01*
X133680000Y-100790000D02*
X134820000Y-99650000D01*
X133680000Y-101350000D02*
X133680000Y-100790000D01*
D38*
%TO.N,Net-(D1-A)*%
X141437500Y-117250000D02*
X157500000Y-117250000D01*
%TO.N,+5V*%
X166162000Y-78400000D02*
X166162000Y-80940000D01*
D41*
%TO.N,Net-(J1-Pin_1)*%
X160310000Y-86510000D02*
X160310000Y-79710000D01*
X157850000Y-87760000D02*
X159100000Y-86510000D01*
X160310000Y-79710000D02*
X161620000Y-78400000D01*
X161910000Y-98720000D02*
X160310000Y-97120000D01*
X160310000Y-97120000D02*
X160310000Y-86510000D01*
X159100000Y-86510000D02*
X160310000Y-86510000D01*
X157850000Y-89230000D02*
X157850000Y-87760000D01*
X163622000Y-98720000D02*
X161910000Y-98720000D01*
X161620000Y-78400000D02*
X163622000Y-78400000D01*
%TD*%
%TA.AperFunction,Conductor*%
%TO.N,GND*%
G36*
X162441334Y-108307573D02*
G01*
X162497267Y-108349445D01*
X162521684Y-108414909D01*
X162522000Y-108423755D01*
X162522000Y-108730000D01*
X163144555Y-108730000D01*
X163122000Y-108814174D01*
X163122000Y-108945826D01*
X163144555Y-109030000D01*
X162522000Y-109030000D01*
X162522000Y-109635500D01*
X162502315Y-109702539D01*
X162449511Y-109748294D01*
X162398000Y-109759500D01*
X158406255Y-109759500D01*
X158339216Y-109739815D01*
X158293461Y-109687011D01*
X158283517Y-109617853D01*
X158312542Y-109554297D01*
X158318574Y-109547819D01*
X158659574Y-109206819D01*
X158720897Y-109173334D01*
X158747255Y-109170500D01*
X161362725Y-109170500D01*
X161362727Y-109170500D01*
X161464588Y-109143207D01*
X161555913Y-109090480D01*
X162310319Y-108336074D01*
X162371642Y-108302589D01*
X162441334Y-108307573D01*
G37*
%TD.AperFunction*%
%TA.AperFunction,Conductor*%
G36*
X143805703Y-98831831D02*
G01*
X143812181Y-98837863D01*
X144013181Y-99038863D01*
X144046666Y-99100186D01*
X144049500Y-99126544D01*
X144049500Y-104645500D01*
X144029815Y-104712539D01*
X143977011Y-104758294D01*
X143925500Y-104769500D01*
X142518525Y-104769500D01*
X142451486Y-104749815D01*
X142405731Y-104697011D01*
X142395787Y-104627853D01*
X142424812Y-104564297D01*
X142475191Y-104529318D01*
X142504588Y-104518353D01*
X142504593Y-104518350D01*
X142619687Y-104432190D01*
X142619690Y-104432187D01*
X142705850Y-104317093D01*
X142705854Y-104317086D01*
X142756096Y-104182379D01*
X142756098Y-104182372D01*
X142762499Y-104122844D01*
X142762500Y-104122827D01*
X142762500Y-103750000D01*
X141087500Y-103750000D01*
X141087500Y-104122844D01*
X141093901Y-104182372D01*
X141093903Y-104182379D01*
X141144145Y-104317086D01*
X141144149Y-104317093D01*
X141230309Y-104432187D01*
X141230312Y-104432190D01*
X141345406Y-104518350D01*
X141345411Y-104518353D01*
X141374809Y-104529318D01*
X141430742Y-104571190D01*
X141455159Y-104636654D01*
X141440307Y-104704927D01*
X141390902Y-104754332D01*
X141331475Y-104769500D01*
X140444954Y-104769500D01*
X140377915Y-104749815D01*
X140332160Y-104697011D01*
X140322216Y-104627853D01*
X140351241Y-104564297D01*
X140401621Y-104529318D01*
X140429828Y-104518797D01*
X140429827Y-104518797D01*
X140429831Y-104518796D01*
X140545046Y-104432546D01*
X140631296Y-104317331D01*
X140681591Y-104182483D01*
X140688000Y-104122873D01*
X140687999Y-103077155D01*
X141087500Y-103077155D01*
X141087500Y-103450000D01*
X141775000Y-103450000D01*
X142075000Y-103450000D01*
X142762500Y-103450000D01*
X142762500Y-103077172D01*
X142762499Y-103077155D01*
X142756098Y-103017627D01*
X142756096Y-103017620D01*
X142705854Y-102882913D01*
X142705850Y-102882906D01*
X142619690Y-102767812D01*
X142619687Y-102767809D01*
X142504593Y-102681649D01*
X142504586Y-102681645D01*
X142369879Y-102631403D01*
X142369872Y-102631401D01*
X142310344Y-102625000D01*
X142075000Y-102625000D01*
X142075000Y-103450000D01*
X141775000Y-103450000D01*
X141775000Y-102625000D01*
X141539655Y-102625000D01*
X141480127Y-102631401D01*
X141480120Y-102631403D01*
X141345413Y-102681645D01*
X141345406Y-102681649D01*
X141230312Y-102767809D01*
X141230309Y-102767812D01*
X141144149Y-102882906D01*
X141144145Y-102882913D01*
X141093903Y-103017620D01*
X141093901Y-103017627D01*
X141087500Y-103077155D01*
X140687999Y-103077155D01*
X140687999Y-103077128D01*
X140681591Y-103017517D01*
X140639804Y-102905481D01*
X140631297Y-102882671D01*
X140631293Y-102882664D01*
X140545047Y-102767455D01*
X140545044Y-102767452D01*
X140429835Y-102681206D01*
X140429828Y-102681202D01*
X140395495Y-102668397D01*
X140339561Y-102626526D01*
X140315144Y-102561061D01*
X140329996Y-102492788D01*
X140351144Y-102464537D01*
X140780470Y-102035212D01*
X140826614Y-101955288D01*
X140850500Y-101866144D01*
X140850500Y-101773999D01*
X140870185Y-101706960D01*
X140922989Y-101661205D01*
X140974500Y-101649999D01*
X140994786Y-101649999D01*
X140994808Y-101649997D01*
X141019869Y-101647091D01*
X141019870Y-101647091D01*
X141122480Y-101601784D01*
X141122482Y-101601783D01*
X141137447Y-101586819D01*
X141198770Y-101553334D01*
X141225128Y-101550500D01*
X141369750Y-101550500D01*
X141369751Y-101550499D01*
X141384568Y-101547552D01*
X141428229Y-101538868D01*
X141428231Y-101538867D01*
X141431108Y-101536945D01*
X141438335Y-101534681D01*
X141439513Y-101534194D01*
X141439556Y-101534299D01*
X141497785Y-101516066D01*
X141565165Y-101534550D01*
X141568892Y-101536945D01*
X141571768Y-101538867D01*
X141571770Y-101538868D01*
X141630247Y-101550499D01*
X141630250Y-101550500D01*
X141630252Y-101550500D01*
X141769750Y-101550500D01*
X141769751Y-101550499D01*
X141784568Y-101547552D01*
X141828229Y-101538868D01*
X141828231Y-101538867D01*
X141831108Y-101536945D01*
X141838335Y-101534681D01*
X141839513Y-101534194D01*
X141839556Y-101534299D01*
X141897785Y-101516066D01*
X141965165Y-101534550D01*
X141968892Y-101536945D01*
X141971768Y-101538867D01*
X141971770Y-101538868D01*
X142030247Y-101550499D01*
X142030250Y-101550500D01*
X142030252Y-101550500D01*
X142169750Y-101550500D01*
X142169751Y-101550499D01*
X142184568Y-101547552D01*
X142228229Y-101538868D01*
X142239513Y-101534194D01*
X142240173Y-101535788D01*
X142293035Y-101519230D01*
X142342978Y-101532138D01*
X142344094Y-101529445D01*
X142351601Y-101532554D01*
X142351602Y-101532555D01*
X142390493Y-101548664D01*
X142450000Y-101560500D01*
X142450001Y-101560500D01*
X142549999Y-101560500D01*
X142550000Y-101560500D01*
X142609507Y-101548664D01*
X142648398Y-101532555D01*
X142683554Y-101512257D01*
X142732555Y-101448398D01*
X142748664Y-101409507D01*
X142760500Y-101350000D01*
X142760500Y-100834500D01*
X142780185Y-100767461D01*
X142832989Y-100721706D01*
X142884500Y-100710500D01*
X143399999Y-100710500D01*
X143400000Y-100710500D01*
X143459507Y-100698664D01*
X143498398Y-100682555D01*
X143533554Y-100662257D01*
X143582555Y-100598398D01*
X143598664Y-100559507D01*
X143610500Y-100500000D01*
X143610500Y-100400000D01*
X143598664Y-100340493D01*
X143589903Y-100319342D01*
X143582558Y-100301608D01*
X143581904Y-100300283D01*
X143581827Y-100299845D01*
X143581002Y-100297852D01*
X143581447Y-100297667D01*
X143569895Y-100231453D01*
X143585113Y-100189893D01*
X143584194Y-100189513D01*
X143588868Y-100178229D01*
X143600499Y-100119752D01*
X143600500Y-100119750D01*
X143600500Y-99980249D01*
X143600499Y-99980247D01*
X143588868Y-99921770D01*
X143588867Y-99921768D01*
X143586945Y-99918892D01*
X143584681Y-99911664D01*
X143584194Y-99910487D01*
X143584299Y-99910443D01*
X143566066Y-99852215D01*
X143584550Y-99784835D01*
X143586945Y-99781108D01*
X143588867Y-99778231D01*
X143588868Y-99778229D01*
X143600499Y-99719752D01*
X143600500Y-99719750D01*
X143600500Y-99580249D01*
X143600499Y-99580247D01*
X143588868Y-99521770D01*
X143588867Y-99521768D01*
X143586945Y-99518892D01*
X143584681Y-99511664D01*
X143584194Y-99510487D01*
X143584299Y-99510443D01*
X143566066Y-99452215D01*
X143584550Y-99384835D01*
X143586945Y-99381108D01*
X143588867Y-99378231D01*
X143588868Y-99378229D01*
X143600499Y-99319752D01*
X143600500Y-99319750D01*
X143600500Y-99180249D01*
X143600499Y-99180247D01*
X143588868Y-99121770D01*
X143588867Y-99121768D01*
X143586945Y-99118892D01*
X143584681Y-99111664D01*
X143584194Y-99110487D01*
X143584299Y-99110443D01*
X143566066Y-99052215D01*
X143584550Y-98984835D01*
X143586945Y-98981108D01*
X143588867Y-98978231D01*
X143588868Y-98978229D01*
X143599776Y-98923386D01*
X143600500Y-98919748D01*
X143600500Y-98919741D01*
X143601097Y-98913688D01*
X143603900Y-98913964D01*
X143620185Y-98858505D01*
X143672989Y-98812750D01*
X143742147Y-98802806D01*
X143805703Y-98831831D01*
G37*
%TD.AperFunction*%
%TA.AperFunction,Conductor*%
G36*
X145067540Y-98020185D02*
G01*
X145113295Y-98072989D01*
X145124501Y-98124500D01*
X145124501Y-98147876D01*
X145130908Y-98207483D01*
X145181202Y-98342328D01*
X145181206Y-98342335D01*
X145267452Y-98457544D01*
X145267455Y-98457547D01*
X145382664Y-98543793D01*
X145382671Y-98543797D01*
X145517517Y-98594091D01*
X145517516Y-98594091D01*
X145524444Y-98594835D01*
X145577127Y-98600500D01*
X146622872Y-98600499D01*
X146682483Y-98594091D01*
X146817331Y-98543796D01*
X146911189Y-98473533D01*
X146976653Y-98449116D01*
X147044926Y-98463967D01*
X147094332Y-98513372D01*
X147109500Y-98572800D01*
X147109500Y-99027823D01*
X147089815Y-99094862D01*
X147037011Y-99140617D01*
X146967853Y-99150561D01*
X146911189Y-99127090D01*
X146817089Y-99056647D01*
X146817086Y-99056645D01*
X146682379Y-99006403D01*
X146682372Y-99006401D01*
X146622844Y-99000000D01*
X146250000Y-99000000D01*
X146250000Y-100675000D01*
X146622828Y-100675000D01*
X146622844Y-100674999D01*
X146682372Y-100668598D01*
X146682379Y-100668596D01*
X146817086Y-100618354D01*
X146817093Y-100618350D01*
X146911189Y-100547910D01*
X146976653Y-100523492D01*
X147044926Y-100538343D01*
X147094332Y-100587748D01*
X147109500Y-100647176D01*
X147109500Y-103121324D01*
X147089815Y-103188363D01*
X147073181Y-103209005D01*
X145549005Y-104733181D01*
X145487682Y-104766666D01*
X145461324Y-104769500D01*
X144874500Y-104769500D01*
X144807461Y-104749815D01*
X144761706Y-104697011D01*
X144750500Y-104645500D01*
X144750500Y-100222844D01*
X145125000Y-100222844D01*
X145131401Y-100282372D01*
X145131403Y-100282379D01*
X145181645Y-100417086D01*
X145181649Y-100417093D01*
X145267809Y-100532187D01*
X145267812Y-100532190D01*
X145382906Y-100618350D01*
X145382913Y-100618354D01*
X145517620Y-100668596D01*
X145517627Y-100668598D01*
X145577155Y-100674999D01*
X145577172Y-100675000D01*
X145950000Y-100675000D01*
X145950000Y-99987500D01*
X145125000Y-99987500D01*
X145125000Y-100222844D01*
X144750500Y-100222844D01*
X144750500Y-99452155D01*
X145125000Y-99452155D01*
X145125000Y-99687500D01*
X145950000Y-99687500D01*
X145950000Y-99000000D01*
X145577155Y-99000000D01*
X145517627Y-99006401D01*
X145517620Y-99006403D01*
X145382913Y-99056645D01*
X145382906Y-99056649D01*
X145267812Y-99142809D01*
X145267809Y-99142812D01*
X145181649Y-99257906D01*
X145181645Y-99257913D01*
X145131403Y-99392620D01*
X145131401Y-99392627D01*
X145125000Y-99452155D01*
X144750500Y-99452155D01*
X144750500Y-98883858D01*
X144750500Y-98883856D01*
X144726614Y-98794712D01*
X144726613Y-98794710D01*
X144726613Y-98794709D01*
X144720469Y-98784068D01*
X144720467Y-98784066D01*
X144692139Y-98735000D01*
X144680470Y-98714788D01*
X144177863Y-98212181D01*
X144144378Y-98150858D01*
X144149362Y-98081166D01*
X144191234Y-98025233D01*
X144256698Y-98000816D01*
X144265544Y-98000500D01*
X145000501Y-98000500D01*
X145067540Y-98020185D01*
G37*
%TD.AperFunction*%
%TA.AperFunction,Conductor*%
G36*
X141965165Y-97634550D02*
G01*
X141968892Y-97636945D01*
X141971768Y-97638867D01*
X141971770Y-97638868D01*
X142030247Y-97650499D01*
X142030250Y-97650500D01*
X142030252Y-97650500D01*
X142169750Y-97650500D01*
X142169751Y-97650499D01*
X142190707Y-97646331D01*
X142228229Y-97638868D01*
X142239513Y-97634194D01*
X142240173Y-97635788D01*
X142293035Y-97619230D01*
X142342977Y-97632138D01*
X142344093Y-97629445D01*
X142389645Y-97648313D01*
X142444049Y-97692154D01*
X142466114Y-97758448D01*
X142451337Y-97816340D01*
X142452854Y-97817010D01*
X142448855Y-97826064D01*
X142448835Y-97826147D01*
X142448785Y-97826224D01*
X142402910Y-97930122D01*
X142402910Y-97930124D01*
X142400000Y-97955205D01*
X142400000Y-98144785D01*
X142400002Y-98144808D01*
X142402908Y-98169869D01*
X142402909Y-98169873D01*
X142448211Y-98272474D01*
X142448214Y-98272479D01*
X142463181Y-98287446D01*
X142496666Y-98348769D01*
X142499500Y-98375127D01*
X142499500Y-98519752D01*
X142511131Y-98578229D01*
X142511132Y-98578231D01*
X142513058Y-98581113D01*
X142515322Y-98588344D01*
X142515806Y-98589513D01*
X142515701Y-98589556D01*
X142533933Y-98647791D01*
X142515446Y-98715171D01*
X142513058Y-98718887D01*
X142511132Y-98721768D01*
X142511131Y-98721770D01*
X142499500Y-98780247D01*
X142499500Y-98919752D01*
X142511131Y-98978229D01*
X142511132Y-98978231D01*
X142513058Y-98981113D01*
X142515322Y-98988344D01*
X142515806Y-98989513D01*
X142515701Y-98989556D01*
X142533933Y-99047791D01*
X142515446Y-99115171D01*
X142513058Y-99118887D01*
X142511132Y-99121768D01*
X142511131Y-99121770D01*
X142499500Y-99180247D01*
X142499500Y-99319752D01*
X142511131Y-99378229D01*
X142511132Y-99378231D01*
X142513058Y-99381113D01*
X142515322Y-99388344D01*
X142515806Y-99389513D01*
X142515701Y-99389556D01*
X142533933Y-99447791D01*
X142515446Y-99515171D01*
X142513058Y-99518887D01*
X142511132Y-99521768D01*
X142511131Y-99521770D01*
X142499500Y-99580247D01*
X142499500Y-99719752D01*
X142511131Y-99778229D01*
X142511132Y-99778231D01*
X142513058Y-99781113D01*
X142515322Y-99788344D01*
X142515806Y-99789513D01*
X142515701Y-99789556D01*
X142533933Y-99847791D01*
X142515446Y-99915171D01*
X142513058Y-99918887D01*
X142511132Y-99921768D01*
X142511131Y-99921770D01*
X142499500Y-99980247D01*
X142499500Y-100119752D01*
X142511131Y-100178229D01*
X142515806Y-100189513D01*
X142514212Y-100190173D01*
X142530769Y-100243045D01*
X142517874Y-100292983D01*
X142520555Y-100294094D01*
X142501338Y-100340486D01*
X142501334Y-100340500D01*
X142499108Y-100351689D01*
X142466720Y-100413599D01*
X142406003Y-100448170D01*
X142401689Y-100449108D01*
X142390500Y-100451334D01*
X142390486Y-100451338D01*
X142351601Y-100467445D01*
X142350265Y-100468104D01*
X142349825Y-100468180D01*
X142347852Y-100468998D01*
X142347669Y-100468556D01*
X142281433Y-100480102D01*
X142239892Y-100464889D01*
X142239513Y-100465806D01*
X142228229Y-100461131D01*
X142169752Y-100449500D01*
X142169748Y-100449500D01*
X142030252Y-100449500D01*
X142030247Y-100449500D01*
X141971770Y-100461131D01*
X141971768Y-100461132D01*
X141968887Y-100463058D01*
X141961655Y-100465322D01*
X141960487Y-100465806D01*
X141960443Y-100465701D01*
X141902209Y-100483933D01*
X141834829Y-100465446D01*
X141831113Y-100463058D01*
X141828231Y-100461132D01*
X141828229Y-100461131D01*
X141769752Y-100449500D01*
X141769748Y-100449500D01*
X141630252Y-100449500D01*
X141630247Y-100449500D01*
X141571770Y-100461131D01*
X141571768Y-100461132D01*
X141568887Y-100463058D01*
X141561655Y-100465322D01*
X141560487Y-100465806D01*
X141560443Y-100465701D01*
X141502209Y-100483933D01*
X141434829Y-100465446D01*
X141431113Y-100463058D01*
X141428231Y-100461132D01*
X141428229Y-100461131D01*
X141369752Y-100449500D01*
X141369748Y-100449500D01*
X141230252Y-100449500D01*
X141225127Y-100449500D01*
X141158088Y-100429815D01*
X141137446Y-100413181D01*
X141122479Y-100398214D01*
X141122474Y-100398211D01*
X141019876Y-100352910D01*
X140994793Y-100350000D01*
X140805214Y-100350000D01*
X140805191Y-100350002D01*
X140780130Y-100352908D01*
X140780126Y-100352909D01*
X140677520Y-100398213D01*
X140662553Y-100413181D01*
X140601230Y-100446666D01*
X140574872Y-100449500D01*
X140425127Y-100449500D01*
X140358088Y-100429815D01*
X140337446Y-100413181D01*
X140322479Y-100398214D01*
X140322474Y-100398211D01*
X140219876Y-100352910D01*
X140194793Y-100350000D01*
X140005214Y-100350000D01*
X140005191Y-100350002D01*
X139980129Y-100352908D01*
X139980118Y-100352911D01*
X139956897Y-100363164D01*
X139887618Y-100372233D01*
X139859366Y-100364291D01*
X139847581Y-100359410D01*
X139847574Y-100359408D01*
X139779805Y-100345928D01*
X139717894Y-100313544D01*
X139683320Y-100252828D01*
X139686673Y-100190247D01*
X139686485Y-100190210D01*
X139686746Y-100188897D01*
X139687059Y-100183058D01*
X139688822Y-100178456D01*
X139689609Y-100174503D01*
X139700500Y-100119748D01*
X139700500Y-99980252D01*
X139700500Y-99980249D01*
X139700499Y-99980247D01*
X139688868Y-99921770D01*
X139688867Y-99921768D01*
X139686945Y-99918892D01*
X139684681Y-99911664D01*
X139684194Y-99910487D01*
X139684299Y-99910443D01*
X139666066Y-99852215D01*
X139684550Y-99784835D01*
X139686945Y-99781108D01*
X139688867Y-99778231D01*
X139688868Y-99778229D01*
X139700499Y-99719752D01*
X139700500Y-99719750D01*
X139700500Y-99580249D01*
X139700499Y-99580247D01*
X139688868Y-99521770D01*
X139688867Y-99521768D01*
X139686945Y-99518892D01*
X139684681Y-99511664D01*
X139684194Y-99510487D01*
X139684299Y-99510443D01*
X139666066Y-99452215D01*
X139684550Y-99384835D01*
X139686945Y-99381108D01*
X139688867Y-99378231D01*
X139688868Y-99378229D01*
X139700499Y-99319752D01*
X139700500Y-99319750D01*
X139700500Y-99180249D01*
X139700499Y-99180247D01*
X139688868Y-99121770D01*
X139688867Y-99121768D01*
X139686945Y-99118892D01*
X139684681Y-99111664D01*
X139684194Y-99110487D01*
X139684299Y-99110443D01*
X139666066Y-99052215D01*
X139684550Y-98984835D01*
X139686945Y-98981108D01*
X139688867Y-98978231D01*
X139688868Y-98978229D01*
X139699776Y-98923386D01*
X139700500Y-98919748D01*
X139700500Y-98780252D01*
X139700500Y-98775127D01*
X139720185Y-98708088D01*
X139736821Y-98687444D01*
X139751784Y-98672481D01*
X139751787Y-98672475D01*
X139797088Y-98569879D01*
X139797089Y-98569875D01*
X139799999Y-98544794D01*
X139799999Y-98355214D01*
X139799997Y-98355191D01*
X139797091Y-98330129D01*
X139783826Y-98300088D01*
X139774754Y-98230810D01*
X139783827Y-98199910D01*
X139797089Y-98169875D01*
X139799999Y-98144794D01*
X139799999Y-97955214D01*
X139799997Y-97955191D01*
X139797091Y-97930130D01*
X139797089Y-97930124D01*
X139781661Y-97895182D01*
X139772589Y-97825904D01*
X139802413Y-97762719D01*
X139861662Y-97725688D01*
X139931526Y-97726568D01*
X139945180Y-97731661D01*
X139980123Y-97747089D01*
X140005206Y-97749999D01*
X140194785Y-97749999D01*
X140194808Y-97749997D01*
X140219872Y-97747090D01*
X140249910Y-97733827D01*
X140319188Y-97724754D01*
X140350088Y-97733827D01*
X140380123Y-97747089D01*
X140380121Y-97747089D01*
X140405206Y-97749999D01*
X140594785Y-97749999D01*
X140594808Y-97749997D01*
X140619869Y-97747091D01*
X140619870Y-97747091D01*
X140722480Y-97701784D01*
X140722482Y-97701783D01*
X140737447Y-97686819D01*
X140798770Y-97653334D01*
X140825128Y-97650500D01*
X140969750Y-97650500D01*
X140969751Y-97650499D01*
X140990707Y-97646331D01*
X141028229Y-97638868D01*
X141028231Y-97638867D01*
X141031108Y-97636945D01*
X141038335Y-97634681D01*
X141039513Y-97634194D01*
X141039556Y-97634299D01*
X141097785Y-97616066D01*
X141165165Y-97634550D01*
X141168892Y-97636945D01*
X141171768Y-97638867D01*
X141171770Y-97638868D01*
X141230247Y-97650499D01*
X141230250Y-97650500D01*
X141230252Y-97650500D01*
X141369750Y-97650500D01*
X141369751Y-97650499D01*
X141390707Y-97646331D01*
X141428229Y-97638868D01*
X141428231Y-97638867D01*
X141431108Y-97636945D01*
X141438335Y-97634681D01*
X141439513Y-97634194D01*
X141439556Y-97634299D01*
X141497785Y-97616066D01*
X141565165Y-97634550D01*
X141568892Y-97636945D01*
X141571768Y-97638867D01*
X141571770Y-97638868D01*
X141630247Y-97650499D01*
X141630250Y-97650500D01*
X141630252Y-97650500D01*
X141769750Y-97650500D01*
X141769751Y-97650499D01*
X141790707Y-97646331D01*
X141828229Y-97638868D01*
X141828231Y-97638867D01*
X141831108Y-97636945D01*
X141838335Y-97634681D01*
X141839513Y-97634194D01*
X141839556Y-97634299D01*
X141897785Y-97616066D01*
X141965165Y-97634550D01*
G37*
%TD.AperFunction*%
%TA.AperFunction,Conductor*%
G36*
X145178363Y-94850185D02*
G01*
X145199005Y-94866819D01*
X147073181Y-96740995D01*
X147106666Y-96802318D01*
X147109500Y-96828676D01*
X147109500Y-96952199D01*
X147089815Y-97019238D01*
X147037011Y-97064993D01*
X146967853Y-97074937D01*
X146911189Y-97051466D01*
X146896370Y-97040373D01*
X146817331Y-96981204D01*
X146817329Y-96981203D01*
X146817328Y-96981202D01*
X146682482Y-96930908D01*
X146682483Y-96930908D01*
X146622883Y-96924501D01*
X146622881Y-96924500D01*
X146622873Y-96924500D01*
X146622864Y-96924500D01*
X145577129Y-96924500D01*
X145577123Y-96924501D01*
X145517516Y-96930908D01*
X145382671Y-96981202D01*
X145382664Y-96981206D01*
X145267455Y-97067452D01*
X145267452Y-97067455D01*
X145181206Y-97182664D01*
X145181203Y-97182669D01*
X145167715Y-97218834D01*
X145125843Y-97274767D01*
X145060379Y-97299184D01*
X145051533Y-97299500D01*
X143003856Y-97299500D01*
X142942647Y-97315901D01*
X142916593Y-97322882D01*
X142846743Y-97321219D01*
X142788881Y-97282056D01*
X142761377Y-97217828D01*
X142760500Y-97203107D01*
X142760500Y-96750001D01*
X142755986Y-96727306D01*
X142748664Y-96690493D01*
X142732555Y-96651602D01*
X142712257Y-96616446D01*
X142708549Y-96613601D01*
X142648398Y-96567445D01*
X142609513Y-96551338D01*
X142609508Y-96551336D01*
X142572926Y-96544060D01*
X142550000Y-96539500D01*
X142450000Y-96539500D01*
X142430164Y-96543445D01*
X142390491Y-96551336D01*
X142390486Y-96551338D01*
X142351601Y-96567445D01*
X142350265Y-96568104D01*
X142349825Y-96568180D01*
X142347852Y-96568998D01*
X142347669Y-96568556D01*
X142281433Y-96580102D01*
X142239892Y-96564889D01*
X142239513Y-96565806D01*
X142228229Y-96561131D01*
X142169752Y-96549500D01*
X142169748Y-96549500D01*
X142030252Y-96549500D01*
X142030247Y-96549500D01*
X141971770Y-96561131D01*
X141971768Y-96561132D01*
X141968887Y-96563058D01*
X141961655Y-96565322D01*
X141960487Y-96565806D01*
X141960443Y-96565701D01*
X141902209Y-96583933D01*
X141834829Y-96565446D01*
X141831113Y-96563058D01*
X141828231Y-96561132D01*
X141828229Y-96561131D01*
X141769752Y-96549500D01*
X141769748Y-96549500D01*
X141630252Y-96549500D01*
X141630247Y-96549500D01*
X141571770Y-96561131D01*
X141571768Y-96561132D01*
X141568887Y-96563058D01*
X141561655Y-96565322D01*
X141560487Y-96565806D01*
X141560443Y-96565701D01*
X141502209Y-96583933D01*
X141434829Y-96565446D01*
X141431113Y-96563058D01*
X141428231Y-96561132D01*
X141428229Y-96561131D01*
X141369752Y-96549500D01*
X141369748Y-96549500D01*
X141230252Y-96549500D01*
X141230247Y-96549500D01*
X141171770Y-96561131D01*
X141171768Y-96561132D01*
X141168887Y-96563058D01*
X141161655Y-96565322D01*
X141160487Y-96565806D01*
X141160443Y-96565701D01*
X141102209Y-96583933D01*
X141034829Y-96565446D01*
X141031113Y-96563058D01*
X141028231Y-96561132D01*
X141028229Y-96561131D01*
X140969752Y-96549500D01*
X140969748Y-96549500D01*
X140830252Y-96549500D01*
X140825127Y-96549500D01*
X140758088Y-96529815D01*
X140737446Y-96513181D01*
X140722479Y-96498214D01*
X140722474Y-96498211D01*
X140619876Y-96452910D01*
X140594793Y-96450000D01*
X140405214Y-96450000D01*
X140405191Y-96450002D01*
X140380130Y-96452908D01*
X140380123Y-96452910D01*
X140350082Y-96466174D01*
X140280804Y-96475243D01*
X140249916Y-96466173D01*
X140219880Y-96452911D01*
X140219875Y-96452910D01*
X140194793Y-96450000D01*
X140005214Y-96450000D01*
X140005191Y-96450002D01*
X139980130Y-96452908D01*
X139980126Y-96452909D01*
X139877521Y-96498212D01*
X139868791Y-96506943D01*
X139807467Y-96540426D01*
X139756922Y-96540876D01*
X139750000Y-96539500D01*
X139650000Y-96539500D01*
X139630164Y-96543445D01*
X139590491Y-96551336D01*
X139590486Y-96551338D01*
X139551608Y-96567442D01*
X139551604Y-96567443D01*
X139516445Y-96587743D01*
X139467445Y-96651600D01*
X139467445Y-96651601D01*
X139451338Y-96690486D01*
X139451336Y-96690491D01*
X139439500Y-96750001D01*
X139439500Y-97203107D01*
X139419815Y-97270146D01*
X139367011Y-97315901D01*
X139297853Y-97325845D01*
X139283407Y-97322882D01*
X139277201Y-97321219D01*
X139196144Y-97299500D01*
X139196143Y-97299500D01*
X138676544Y-97299500D01*
X138609505Y-97279815D01*
X138588863Y-97263181D01*
X138496819Y-97171137D01*
X138463334Y-97109814D01*
X138460500Y-97083456D01*
X138460500Y-96113858D01*
X138460500Y-96113856D01*
X138436614Y-96024712D01*
X138425126Y-96004814D01*
X138390470Y-95944788D01*
X137811818Y-95366136D01*
X137778333Y-95304813D01*
X137775499Y-95278455D01*
X137775499Y-95177129D01*
X137775498Y-95177123D01*
X137769091Y-95117516D01*
X137724452Y-94997833D01*
X137719468Y-94928141D01*
X137752953Y-94866818D01*
X137814276Y-94833334D01*
X137840634Y-94830500D01*
X145111324Y-94830500D01*
X145178363Y-94850185D01*
G37*
%TD.AperFunction*%
%TA.AperFunction,Conductor*%
G36*
X131006922Y-70501280D02*
G01*
X131097266Y-70511459D01*
X131124331Y-70517636D01*
X131203540Y-70545352D01*
X131228553Y-70557398D01*
X131299606Y-70602043D01*
X131321313Y-70619355D01*
X131380644Y-70678686D01*
X131397957Y-70700395D01*
X131442600Y-70771444D01*
X131454648Y-70796462D01*
X131482362Y-70875666D01*
X131488540Y-70902735D01*
X131498720Y-70993076D01*
X131499500Y-71006961D01*
X131499500Y-73934108D01*
X131499500Y-74000000D01*
X131499500Y-74107318D01*
X131501895Y-74123975D01*
X131530044Y-74319764D01*
X131530047Y-74319774D01*
X131590517Y-74525715D01*
X131679672Y-74720938D01*
X131679679Y-74720951D01*
X131795720Y-74901514D01*
X131936275Y-75063724D01*
X132007569Y-75125500D01*
X132098487Y-75204281D01*
X132227531Y-75287211D01*
X132279048Y-75320320D01*
X132279061Y-75320327D01*
X132474284Y-75409482D01*
X132474288Y-75409483D01*
X132474290Y-75409484D01*
X132680231Y-75469954D01*
X132680232Y-75469954D01*
X132680235Y-75469955D01*
X132743584Y-75479062D01*
X132892682Y-75500500D01*
X132892683Y-75500500D01*
X148107317Y-75500500D01*
X148107318Y-75500500D01*
X148277851Y-75475980D01*
X148319764Y-75469955D01*
X148319765Y-75469954D01*
X148319769Y-75469954D01*
X148525710Y-75409484D01*
X148525713Y-75409482D01*
X148525715Y-75409482D01*
X148720938Y-75320327D01*
X148720944Y-75320323D01*
X148720950Y-75320321D01*
X148901513Y-75204281D01*
X149063724Y-75063724D01*
X149204281Y-74901513D01*
X149320321Y-74720950D01*
X149320323Y-74720944D01*
X149320327Y-74720938D01*
X149409482Y-74525715D01*
X149409482Y-74525713D01*
X149409484Y-74525710D01*
X149469954Y-74319769D01*
X149500500Y-74107318D01*
X149500500Y-74000000D01*
X149500500Y-73934108D01*
X149500500Y-73372070D01*
X163374500Y-73372070D01*
X163374500Y-73627929D01*
X163414526Y-73880640D01*
X163493588Y-74123972D01*
X163493589Y-74123975D01*
X163572533Y-74278910D01*
X163593352Y-74319769D01*
X163609750Y-74351950D01*
X163760132Y-74558935D01*
X163760136Y-74558940D01*
X163941059Y-74739863D01*
X163941064Y-74739867D01*
X164121607Y-74871038D01*
X164148053Y-74890252D01*
X164297080Y-74966185D01*
X164376024Y-75006410D01*
X164376027Y-75006411D01*
X164497693Y-75045942D01*
X164619361Y-75085474D01*
X164872070Y-75125500D01*
X164872071Y-75125500D01*
X165127929Y-75125500D01*
X165127930Y-75125500D01*
X165380639Y-75085474D01*
X165623975Y-75006410D01*
X165851947Y-74890252D01*
X166058942Y-74739862D01*
X166239862Y-74558942D01*
X166390252Y-74351947D01*
X166506410Y-74123975D01*
X166585474Y-73880639D01*
X166625500Y-73627930D01*
X166625500Y-73372070D01*
X166585474Y-73119361D01*
X166506410Y-72876025D01*
X166506410Y-72876024D01*
X166466185Y-72797080D01*
X166390252Y-72648053D01*
X166371038Y-72621607D01*
X166239867Y-72441064D01*
X166239863Y-72441059D01*
X166058940Y-72260136D01*
X166058935Y-72260132D01*
X165851950Y-72109750D01*
X165851949Y-72109749D01*
X165851947Y-72109748D01*
X165778910Y-72072533D01*
X165623975Y-71993589D01*
X165623972Y-71993588D01*
X165380640Y-71914526D01*
X165254284Y-71894513D01*
X165127930Y-71874500D01*
X164872070Y-71874500D01*
X164787833Y-71887842D01*
X164619359Y-71914526D01*
X164376027Y-71993588D01*
X164376024Y-71993589D01*
X164148049Y-72109750D01*
X163941064Y-72260132D01*
X163941059Y-72260136D01*
X163760136Y-72441059D01*
X163760132Y-72441064D01*
X163609750Y-72648049D01*
X163493589Y-72876024D01*
X163493588Y-72876027D01*
X163414526Y-73119359D01*
X163374500Y-73372070D01*
X149500500Y-73372070D01*
X149500500Y-73223864D01*
X151871316Y-73223864D01*
X155107270Y-73223864D01*
X155107270Y-71510574D01*
X151871316Y-71510574D01*
X151871316Y-73223864D01*
X149500500Y-73223864D01*
X149500500Y-71006961D01*
X149501280Y-70993077D01*
X149507365Y-70939070D01*
X149511459Y-70902731D01*
X149517635Y-70875670D01*
X149545353Y-70796456D01*
X149557396Y-70771450D01*
X149602046Y-70700389D01*
X149619351Y-70678690D01*
X149678690Y-70619351D01*
X149700389Y-70602046D01*
X149771450Y-70557396D01*
X149796456Y-70545353D01*
X149875670Y-70517635D01*
X149902733Y-70511459D01*
X149965419Y-70504396D01*
X149993079Y-70501280D01*
X150006962Y-70500500D01*
X150065892Y-70500500D01*
X165496267Y-70500500D01*
X165503754Y-70500726D01*
X165793797Y-70518270D01*
X165808660Y-70520075D01*
X166090798Y-70571779D01*
X166105335Y-70575362D01*
X166379183Y-70660697D01*
X166393164Y-70665999D01*
X166654735Y-70783723D01*
X166667988Y-70790679D01*
X166913459Y-70939070D01*
X166925777Y-70947572D01*
X167151574Y-71124473D01*
X167162782Y-71134403D01*
X167365596Y-71337217D01*
X167375526Y-71348425D01*
X167552425Y-71574219D01*
X167560929Y-71586540D01*
X167709320Y-71832011D01*
X167716278Y-71845268D01*
X167833995Y-72106822D01*
X167839305Y-72120824D01*
X167924636Y-72394663D01*
X167928220Y-72409201D01*
X167979924Y-72691339D01*
X167981729Y-72706204D01*
X167999274Y-72996260D01*
X167999500Y-73003747D01*
X167999500Y-131996249D01*
X167999274Y-132003736D01*
X167981728Y-132293794D01*
X167979923Y-132308659D01*
X167928219Y-132590798D01*
X167924635Y-132605336D01*
X167839306Y-132879167D01*
X167833997Y-132893168D01*
X167716275Y-133154736D01*
X167709316Y-133167995D01*
X167560928Y-133413459D01*
X167552422Y-133425782D01*
X167375526Y-133651573D01*
X167365596Y-133662781D01*
X167162781Y-133865596D01*
X167151573Y-133875526D01*
X166925782Y-134052422D01*
X166913459Y-134060928D01*
X166667995Y-134209316D01*
X166654736Y-134216275D01*
X166393168Y-134333997D01*
X166379167Y-134339306D01*
X166105336Y-134424635D01*
X166090798Y-134428219D01*
X165808659Y-134479923D01*
X165793794Y-134481728D01*
X165503736Y-134499274D01*
X165496249Y-134499500D01*
X115503751Y-134499500D01*
X115496264Y-134499274D01*
X115206205Y-134481728D01*
X115191340Y-134479923D01*
X114909201Y-134428219D01*
X114894663Y-134424635D01*
X114620832Y-134339306D01*
X114606831Y-134333997D01*
X114345263Y-134216275D01*
X114332004Y-134209316D01*
X114086540Y-134060928D01*
X114074217Y-134052422D01*
X113848426Y-133875526D01*
X113837218Y-133865596D01*
X113634403Y-133662781D01*
X113624473Y-133651573D01*
X113447573Y-133425776D01*
X113439075Y-133413465D01*
X113290680Y-133167989D01*
X113283727Y-133154743D01*
X113166000Y-132893163D01*
X113160693Y-132879167D01*
X113117285Y-132739867D01*
X113075363Y-132605335D01*
X113071780Y-132590798D01*
X113020076Y-132308659D01*
X113018271Y-132293794D01*
X113000726Y-132003736D01*
X113000500Y-131996249D01*
X113000500Y-131372070D01*
X114374500Y-131372070D01*
X114374500Y-131627929D01*
X114414526Y-131880640D01*
X114493588Y-132123972D01*
X114493589Y-132123975D01*
X114518044Y-132171969D01*
X114580117Y-132293794D01*
X114609750Y-132351950D01*
X114760132Y-132558935D01*
X114760136Y-132558940D01*
X114941059Y-132739863D01*
X114941064Y-132739867D01*
X115121607Y-132871038D01*
X115148053Y-132890252D01*
X115297080Y-132966185D01*
X115376024Y-133006410D01*
X115376027Y-133006411D01*
X115497693Y-133045942D01*
X115619361Y-133085474D01*
X115872070Y-133125500D01*
X115872071Y-133125500D01*
X116127929Y-133125500D01*
X116127930Y-133125500D01*
X116380639Y-133085474D01*
X116623975Y-133006410D01*
X116851947Y-132890252D01*
X117058942Y-132739862D01*
X117239862Y-132558942D01*
X117390252Y-132351947D01*
X117506410Y-132123975D01*
X117585474Y-131880639D01*
X117625500Y-131627930D01*
X117625500Y-131500000D01*
X156994353Y-131500000D01*
X157014834Y-131642456D01*
X157074622Y-131773371D01*
X157074623Y-131773373D01*
X157168872Y-131882143D01*
X157289947Y-131959953D01*
X157289950Y-131959954D01*
X157289949Y-131959954D01*
X157397107Y-131991417D01*
X157426336Y-132000000D01*
X157428036Y-132000499D01*
X157428038Y-132000500D01*
X157428039Y-132000500D01*
X157571962Y-132000500D01*
X157571962Y-132000499D01*
X157710053Y-131959953D01*
X157831128Y-131882143D01*
X157925377Y-131773373D01*
X157985165Y-131642457D01*
X158005647Y-131500000D01*
X157987254Y-131372070D01*
X163374500Y-131372070D01*
X163374500Y-131627929D01*
X163414526Y-131880640D01*
X163493588Y-132123972D01*
X163493589Y-132123975D01*
X163518044Y-132171969D01*
X163580117Y-132293794D01*
X163609750Y-132351950D01*
X163760132Y-132558935D01*
X163760136Y-132558940D01*
X163941059Y-132739863D01*
X163941064Y-132739867D01*
X164121607Y-132871038D01*
X164148053Y-132890252D01*
X164297080Y-132966185D01*
X164376024Y-133006410D01*
X164376027Y-133006411D01*
X164497693Y-133045942D01*
X164619361Y-133085474D01*
X164872070Y-133125500D01*
X164872071Y-133125500D01*
X165127929Y-133125500D01*
X165127930Y-133125500D01*
X165380639Y-133085474D01*
X165623975Y-133006410D01*
X165851947Y-132890252D01*
X166058942Y-132739862D01*
X166239862Y-132558942D01*
X166390252Y-132351947D01*
X166506410Y-132123975D01*
X166585474Y-131880639D01*
X166625500Y-131627930D01*
X166625500Y-131372070D01*
X166585474Y-131119361D01*
X166506410Y-130876025D01*
X166506410Y-130876024D01*
X166466185Y-130797080D01*
X166390252Y-130648053D01*
X166371038Y-130621607D01*
X166239867Y-130441064D01*
X166239863Y-130441059D01*
X166058940Y-130260136D01*
X166058935Y-130260132D01*
X165851950Y-130109750D01*
X165851949Y-130109749D01*
X165851947Y-130109748D01*
X165778910Y-130072533D01*
X165623975Y-129993589D01*
X165623972Y-129993588D01*
X165380640Y-129914526D01*
X165254284Y-129894513D01*
X165127930Y-129874500D01*
X164872070Y-129874500D01*
X164787833Y-129887842D01*
X164619359Y-129914526D01*
X164376027Y-129993588D01*
X164376024Y-129993589D01*
X164148049Y-130109750D01*
X163941064Y-130260132D01*
X163941059Y-130260136D01*
X163760136Y-130441059D01*
X163760132Y-130441064D01*
X163609750Y-130648049D01*
X163493589Y-130876024D01*
X163493588Y-130876027D01*
X163414526Y-131119359D01*
X163374500Y-131372070D01*
X157987254Y-131372070D01*
X157985165Y-131357543D01*
X157925377Y-131226627D01*
X157831128Y-131117857D01*
X157710053Y-131040047D01*
X157710051Y-131040046D01*
X157710049Y-131040045D01*
X157710050Y-131040045D01*
X157571963Y-130999500D01*
X157571961Y-130999500D01*
X157428039Y-130999500D01*
X157428036Y-130999500D01*
X157289949Y-131040045D01*
X157168873Y-131117856D01*
X157074623Y-131226626D01*
X157074622Y-131226628D01*
X157014834Y-131357543D01*
X156994353Y-131500000D01*
X117625500Y-131500000D01*
X117625500Y-131372070D01*
X117585474Y-131119361D01*
X117506410Y-130876025D01*
X117506410Y-130876024D01*
X117466185Y-130797080D01*
X117390252Y-130648053D01*
X117371038Y-130621607D01*
X117239867Y-130441064D01*
X117239863Y-130441059D01*
X117058940Y-130260136D01*
X117058935Y-130260132D01*
X116851950Y-130109750D01*
X116851949Y-130109749D01*
X116851947Y-130109748D01*
X116778910Y-130072533D01*
X116623975Y-129993589D01*
X116623972Y-129993588D01*
X116380640Y-129914526D01*
X116254284Y-129894513D01*
X116127930Y-129874500D01*
X115872070Y-129874500D01*
X115787833Y-129887842D01*
X115619359Y-129914526D01*
X115376027Y-129993588D01*
X115376024Y-129993589D01*
X115148049Y-130109750D01*
X114941064Y-130260132D01*
X114941059Y-130260136D01*
X114760136Y-130441059D01*
X114760132Y-130441064D01*
X114609750Y-130648049D01*
X114493589Y-130876024D01*
X114493588Y-130876027D01*
X114414526Y-131119359D01*
X114374500Y-131372070D01*
X113000500Y-131372070D01*
X113000500Y-125785371D01*
X162522000Y-125785371D01*
X162522000Y-126510000D01*
X163144555Y-126510000D01*
X163122000Y-126594174D01*
X163122000Y-126725826D01*
X163144555Y-126810000D01*
X162522000Y-126810000D01*
X162522000Y-127534628D01*
X162536503Y-127607540D01*
X162536505Y-127607544D01*
X162591760Y-127690239D01*
X162674455Y-127745494D01*
X162674459Y-127745496D01*
X162747371Y-127759999D01*
X162747374Y-127760000D01*
X163472000Y-127760000D01*
X163472000Y-127137445D01*
X163556174Y-127160000D01*
X163687826Y-127160000D01*
X163772000Y-127137445D01*
X163772000Y-127760000D01*
X164496626Y-127760000D01*
X164496628Y-127759999D01*
X164569540Y-127745496D01*
X164569544Y-127745494D01*
X164652239Y-127690239D01*
X164707494Y-127607544D01*
X164707496Y-127607540D01*
X164721999Y-127534628D01*
X164722000Y-127534626D01*
X164722000Y-126810000D01*
X164099445Y-126810000D01*
X164122000Y-126725826D01*
X164122000Y-126659999D01*
X165056785Y-126659999D01*
X165056785Y-126660000D01*
X165075602Y-126863082D01*
X165131417Y-127059247D01*
X165131422Y-127059260D01*
X165222327Y-127241821D01*
X165345237Y-127404581D01*
X165495958Y-127541980D01*
X165495960Y-127541982D01*
X165595141Y-127603392D01*
X165669363Y-127649348D01*
X165859544Y-127723024D01*
X166060024Y-127760500D01*
X166060026Y-127760500D01*
X166263974Y-127760500D01*
X166263976Y-127760500D01*
X166464456Y-127723024D01*
X166654637Y-127649348D01*
X166828041Y-127541981D01*
X166978764Y-127404579D01*
X167101673Y-127241821D01*
X167192582Y-127059250D01*
X167248397Y-126863083D01*
X167267215Y-126660000D01*
X167261115Y-126594174D01*
X167248397Y-126456917D01*
X167192582Y-126260750D01*
X167192159Y-126259901D01*
X167142415Y-126160000D01*
X167101673Y-126078179D01*
X166978764Y-125915421D01*
X166978762Y-125915418D01*
X166828041Y-125778019D01*
X166828039Y-125778017D01*
X166654642Y-125670655D01*
X166654635Y-125670651D01*
X166549082Y-125629760D01*
X166464456Y-125596976D01*
X166263976Y-125559500D01*
X166060024Y-125559500D01*
X165859544Y-125596976D01*
X165859541Y-125596976D01*
X165859541Y-125596977D01*
X165669364Y-125670651D01*
X165669357Y-125670655D01*
X165495960Y-125778017D01*
X165495958Y-125778019D01*
X165345237Y-125915418D01*
X165222327Y-126078178D01*
X165131422Y-126260739D01*
X165131417Y-126260752D01*
X165075602Y-126456917D01*
X165056785Y-126659999D01*
X164122000Y-126659999D01*
X164122000Y-126594174D01*
X164099445Y-126510000D01*
X164722000Y-126510000D01*
X164722000Y-125785373D01*
X164721999Y-125785371D01*
X164707496Y-125712459D01*
X164707494Y-125712455D01*
X164652239Y-125629760D01*
X164569544Y-125574505D01*
X164569540Y-125574503D01*
X164496627Y-125560000D01*
X163772000Y-125560000D01*
X163772000Y-126182554D01*
X163687826Y-126160000D01*
X163556174Y-126160000D01*
X163472000Y-126182554D01*
X163472000Y-125560000D01*
X162747373Y-125560000D01*
X162674459Y-125574503D01*
X162674455Y-125574505D01*
X162591760Y-125629760D01*
X162536505Y-125712455D01*
X162536503Y-125712459D01*
X162522000Y-125785371D01*
X113000500Y-125785371D01*
X113000500Y-124119999D01*
X162516785Y-124119999D01*
X162516785Y-124120000D01*
X162535602Y-124323082D01*
X162591417Y-124519247D01*
X162591422Y-124519260D01*
X162682327Y-124701821D01*
X162805237Y-124864581D01*
X162955958Y-125001980D01*
X162955960Y-125001982D01*
X163055141Y-125063392D01*
X163129363Y-125109348D01*
X163319544Y-125183024D01*
X163520024Y-125220500D01*
X163520026Y-125220500D01*
X163723974Y-125220500D01*
X163723976Y-125220500D01*
X163924456Y-125183024D01*
X164114637Y-125109348D01*
X164288041Y-125001981D01*
X164438764Y-124864579D01*
X164561673Y-124701821D01*
X164652582Y-124519250D01*
X164708397Y-124323083D01*
X164727215Y-124120000D01*
X164727215Y-124119999D01*
X165056785Y-124119999D01*
X165056785Y-124120000D01*
X165075602Y-124323082D01*
X165131417Y-124519247D01*
X165131422Y-124519260D01*
X165222327Y-124701821D01*
X165345237Y-124864581D01*
X165495958Y-125001980D01*
X165495960Y-125001982D01*
X165595141Y-125063392D01*
X165669363Y-125109348D01*
X165859544Y-125183024D01*
X166060024Y-125220500D01*
X166060026Y-125220500D01*
X166263974Y-125220500D01*
X166263976Y-125220500D01*
X166464456Y-125183024D01*
X166654637Y-125109348D01*
X166828041Y-125001981D01*
X166978764Y-124864579D01*
X167101673Y-124701821D01*
X167192582Y-124519250D01*
X167248397Y-124323083D01*
X167267215Y-124120000D01*
X167248397Y-123916917D01*
X167192582Y-123720750D01*
X167101673Y-123538179D01*
X166978764Y-123375421D01*
X166978762Y-123375418D01*
X166828041Y-123238019D01*
X166828039Y-123238017D01*
X166654642Y-123130655D01*
X166654635Y-123130651D01*
X166559546Y-123093814D01*
X166464456Y-123056976D01*
X166263976Y-123019500D01*
X166060024Y-123019500D01*
X165859544Y-123056976D01*
X165859541Y-123056976D01*
X165859541Y-123056977D01*
X165669364Y-123130651D01*
X165669357Y-123130655D01*
X165495960Y-123238017D01*
X165495958Y-123238019D01*
X165345237Y-123375418D01*
X165222327Y-123538178D01*
X165131422Y-123720739D01*
X165131417Y-123720752D01*
X165075602Y-123916917D01*
X165056785Y-124119999D01*
X164727215Y-124119999D01*
X164708397Y-123916917D01*
X164652582Y-123720750D01*
X164561673Y-123538179D01*
X164438764Y-123375421D01*
X164438762Y-123375418D01*
X164288041Y-123238019D01*
X164288039Y-123238017D01*
X164114642Y-123130655D01*
X164114635Y-123130651D01*
X164019546Y-123093814D01*
X163924456Y-123056976D01*
X163723976Y-123019500D01*
X163520024Y-123019500D01*
X163319544Y-123056976D01*
X163319541Y-123056976D01*
X163319541Y-123056977D01*
X163129364Y-123130651D01*
X163129357Y-123130655D01*
X162955960Y-123238017D01*
X162955958Y-123238019D01*
X162805237Y-123375418D01*
X162682327Y-123538178D01*
X162591422Y-123720739D01*
X162591417Y-123720752D01*
X162535602Y-123916917D01*
X162516785Y-124119999D01*
X113000500Y-124119999D01*
X113000500Y-121579999D01*
X162516785Y-121579999D01*
X162516785Y-121580000D01*
X162535602Y-121783082D01*
X162591417Y-121979247D01*
X162591422Y-121979260D01*
X162682327Y-122161821D01*
X162805237Y-122324581D01*
X162955958Y-122461980D01*
X162955960Y-122461982D01*
X163055141Y-122523392D01*
X163129363Y-122569348D01*
X163319544Y-122643024D01*
X163520024Y-122680500D01*
X163520026Y-122680500D01*
X163723974Y-122680500D01*
X163723976Y-122680500D01*
X163924456Y-122643024D01*
X164114637Y-122569348D01*
X164288041Y-122461981D01*
X164438764Y-122324579D01*
X164561673Y-122161821D01*
X164652582Y-121979250D01*
X164708397Y-121783083D01*
X164727215Y-121580000D01*
X164727215Y-121579999D01*
X165056785Y-121579999D01*
X165056785Y-121580000D01*
X165075602Y-121783082D01*
X165131417Y-121979247D01*
X165131422Y-121979260D01*
X165222327Y-122161821D01*
X165345237Y-122324581D01*
X165495958Y-122461980D01*
X165495960Y-122461982D01*
X165595141Y-122523392D01*
X165669363Y-122569348D01*
X165859544Y-122643024D01*
X166060024Y-122680500D01*
X166060026Y-122680500D01*
X166263974Y-122680500D01*
X166263976Y-122680500D01*
X166464456Y-122643024D01*
X166654637Y-122569348D01*
X166828041Y-122461981D01*
X166978764Y-122324579D01*
X167101673Y-122161821D01*
X167192582Y-121979250D01*
X167248397Y-121783083D01*
X167267215Y-121580000D01*
X167248397Y-121376917D01*
X167192582Y-121180750D01*
X167101673Y-120998179D01*
X166978764Y-120835421D01*
X166978762Y-120835418D01*
X166828041Y-120698019D01*
X166828039Y-120698017D01*
X166654642Y-120590655D01*
X166654635Y-120590651D01*
X166559546Y-120553814D01*
X166464456Y-120516976D01*
X166263976Y-120479500D01*
X166060024Y-120479500D01*
X165859544Y-120516976D01*
X165859541Y-120516976D01*
X165859541Y-120516977D01*
X165669364Y-120590651D01*
X165669357Y-120590655D01*
X165495960Y-120698017D01*
X165495958Y-120698019D01*
X165345237Y-120835418D01*
X165222327Y-120998178D01*
X165131422Y-121180739D01*
X165131417Y-121180752D01*
X165075602Y-121376917D01*
X165056785Y-121579999D01*
X164727215Y-121579999D01*
X164708397Y-121376917D01*
X164652582Y-121180750D01*
X164561673Y-120998179D01*
X164438764Y-120835421D01*
X164438762Y-120835418D01*
X164288041Y-120698019D01*
X164288039Y-120698017D01*
X164114642Y-120590655D01*
X164114635Y-120590651D01*
X164019546Y-120553814D01*
X163924456Y-120516976D01*
X163723976Y-120479500D01*
X163520024Y-120479500D01*
X163319544Y-120516976D01*
X163319541Y-120516976D01*
X163319541Y-120516977D01*
X163129364Y-120590651D01*
X163129357Y-120590655D01*
X162955960Y-120698017D01*
X162955958Y-120698019D01*
X162805237Y-120835418D01*
X162682327Y-120998178D01*
X162591422Y-121180739D01*
X162591417Y-121180752D01*
X162535602Y-121376917D01*
X162516785Y-121579999D01*
X113000500Y-121579999D01*
X113000500Y-119039999D01*
X162516785Y-119039999D01*
X162516785Y-119040000D01*
X162535602Y-119243082D01*
X162591417Y-119439247D01*
X162591422Y-119439260D01*
X162682327Y-119621821D01*
X162805237Y-119784581D01*
X162955958Y-119921980D01*
X162955960Y-119921982D01*
X163055141Y-119983392D01*
X163129363Y-120029348D01*
X163319544Y-120103024D01*
X163520024Y-120140500D01*
X163520026Y-120140500D01*
X163723974Y-120140500D01*
X163723976Y-120140500D01*
X163924456Y-120103024D01*
X164114637Y-120029348D01*
X164288041Y-119921981D01*
X164438764Y-119784579D01*
X164561673Y-119621821D01*
X164652582Y-119439250D01*
X164708397Y-119243083D01*
X164727215Y-119040000D01*
X164721115Y-118974174D01*
X164708397Y-118836917D01*
X164652582Y-118640750D01*
X164652159Y-118639901D01*
X164602415Y-118540000D01*
X164561673Y-118458179D01*
X164438764Y-118295421D01*
X164438762Y-118295418D01*
X164296106Y-118165371D01*
X165062000Y-118165371D01*
X165062000Y-118890000D01*
X165684555Y-118890000D01*
X165662000Y-118974174D01*
X165662000Y-119105826D01*
X165684555Y-119190000D01*
X165062000Y-119190000D01*
X165062000Y-119914628D01*
X165076503Y-119987540D01*
X165076505Y-119987544D01*
X165131760Y-120070239D01*
X165214455Y-120125494D01*
X165214459Y-120125496D01*
X165287371Y-120139999D01*
X165287374Y-120140000D01*
X166012000Y-120140000D01*
X166012000Y-119517445D01*
X166096174Y-119540000D01*
X166227826Y-119540000D01*
X166312000Y-119517445D01*
X166312000Y-120140000D01*
X167036626Y-120140000D01*
X167036628Y-120139999D01*
X167109540Y-120125496D01*
X167109544Y-120125494D01*
X167192239Y-120070239D01*
X167247494Y-119987544D01*
X167247496Y-119987540D01*
X167261999Y-119914628D01*
X167262000Y-119914626D01*
X167262000Y-119190000D01*
X166639445Y-119190000D01*
X166662000Y-119105826D01*
X166662000Y-118974174D01*
X166639445Y-118890000D01*
X167262000Y-118890000D01*
X167262000Y-118165373D01*
X167261999Y-118165371D01*
X167247496Y-118092459D01*
X167247494Y-118092455D01*
X167192239Y-118009760D01*
X167109544Y-117954505D01*
X167109540Y-117954503D01*
X167036627Y-117940000D01*
X166312000Y-117940000D01*
X166312000Y-118562554D01*
X166227826Y-118540000D01*
X166096174Y-118540000D01*
X166012000Y-118562554D01*
X166012000Y-117940000D01*
X165287373Y-117940000D01*
X165214459Y-117954503D01*
X165214455Y-117954505D01*
X165131760Y-118009760D01*
X165076505Y-118092455D01*
X165076503Y-118092459D01*
X165062000Y-118165371D01*
X164296106Y-118165371D01*
X164288041Y-118158019D01*
X164288039Y-118158017D01*
X164114642Y-118050655D01*
X164114635Y-118050651D01*
X164009082Y-118009760D01*
X163924456Y-117976976D01*
X163723976Y-117939500D01*
X163520024Y-117939500D01*
X163319544Y-117976976D01*
X163319541Y-117976976D01*
X163319541Y-117976977D01*
X163129364Y-118050651D01*
X163129357Y-118050655D01*
X162955960Y-118158017D01*
X162955958Y-118158019D01*
X162805237Y-118295418D01*
X162682327Y-118458178D01*
X162591422Y-118640739D01*
X162591417Y-118640752D01*
X162535602Y-118836917D01*
X162516785Y-119039999D01*
X113000500Y-119039999D01*
X113000500Y-117753463D01*
X138825000Y-117753463D01*
X138831324Y-117812288D01*
X138880938Y-117945309D01*
X138880940Y-117945312D01*
X138966026Y-118058973D01*
X139079687Y-118144059D01*
X139079690Y-118144061D01*
X139212712Y-118193675D01*
X139212711Y-118193675D01*
X139271536Y-118199999D01*
X139271538Y-118200000D01*
X139412500Y-118200000D01*
X139712500Y-118200000D01*
X139853462Y-118200000D01*
X139853463Y-118199999D01*
X139912288Y-118193675D01*
X140045309Y-118144061D01*
X140045312Y-118144059D01*
X140158973Y-118058973D01*
X140244059Y-117945312D01*
X140244061Y-117945309D01*
X140293675Y-117812288D01*
X140299999Y-117753463D01*
X140300000Y-117753462D01*
X140300000Y-117400000D01*
X139712500Y-117400000D01*
X139712500Y-118200000D01*
X139412500Y-118200000D01*
X139412500Y-117400000D01*
X138825000Y-117400000D01*
X138825000Y-117753463D01*
X113000500Y-117753463D01*
X113000500Y-116746536D01*
X138825000Y-116746536D01*
X138825000Y-117100000D01*
X139412500Y-117100000D01*
X139712500Y-117100000D01*
X140300000Y-117100000D01*
X140300000Y-116746538D01*
X140299999Y-116746536D01*
X140299991Y-116746462D01*
X140699500Y-116746462D01*
X140699500Y-117753517D01*
X140699501Y-117753526D01*
X140705828Y-117812391D01*
X140753239Y-117939500D01*
X140755497Y-117945554D01*
X140840669Y-118059331D01*
X140931997Y-118127698D01*
X140953855Y-118144061D01*
X140954446Y-118144503D01*
X141087609Y-118194171D01*
X141146479Y-118200500D01*
X141728520Y-118200499D01*
X141787391Y-118194171D01*
X141920554Y-118144503D01*
X142034331Y-118059331D01*
X142119503Y-117945554D01*
X142169171Y-117812391D01*
X142172046Y-117785643D01*
X142174670Y-117761245D01*
X142201408Y-117696694D01*
X142258800Y-117656846D01*
X142297959Y-117650500D01*
X156527649Y-117650500D01*
X156594688Y-117670185D01*
X156640443Y-117722989D01*
X156650939Y-117761248D01*
X156655908Y-117807483D01*
X156706202Y-117942328D01*
X156706206Y-117942335D01*
X156792452Y-118057544D01*
X156792455Y-118057547D01*
X156907664Y-118143793D01*
X156907671Y-118143797D01*
X157042517Y-118194091D01*
X157042516Y-118194091D01*
X157049444Y-118194835D01*
X157102127Y-118200500D01*
X157897872Y-118200499D01*
X157957483Y-118194091D01*
X158092331Y-118143796D01*
X158207546Y-118057546D01*
X158293796Y-117942331D01*
X158344091Y-117807483D01*
X158350500Y-117747873D01*
X158350499Y-116752135D01*
X158649500Y-116752135D01*
X158649500Y-117747870D01*
X158649501Y-117747876D01*
X158655908Y-117807483D01*
X158706202Y-117942328D01*
X158706206Y-117942335D01*
X158792452Y-118057544D01*
X158792455Y-118057547D01*
X158907664Y-118143793D01*
X158907671Y-118143797D01*
X159042517Y-118194091D01*
X159042516Y-118194091D01*
X159049444Y-118194835D01*
X159102127Y-118200500D01*
X159897872Y-118200499D01*
X159957483Y-118194091D01*
X160092331Y-118143796D01*
X160207546Y-118057546D01*
X160293796Y-117942331D01*
X160344091Y-117807483D01*
X160350500Y-117747873D01*
X160350499Y-117017253D01*
X160370183Y-116950215D01*
X160386813Y-116929578D01*
X160478043Y-116838348D01*
X160539364Y-116804865D01*
X160579605Y-116802811D01*
X160689996Y-116815249D01*
X160690000Y-116815249D01*
X160690003Y-116815249D01*
X160858056Y-116796314D01*
X160913221Y-116777011D01*
X161017690Y-116740456D01*
X161017692Y-116740454D01*
X161017694Y-116740454D01*
X161017697Y-116740452D01*
X161160884Y-116650481D01*
X161160885Y-116650480D01*
X161160890Y-116650477D01*
X161280477Y-116530890D01*
X161280481Y-116530884D01*
X161299887Y-116499999D01*
X162516785Y-116499999D01*
X162516785Y-116500000D01*
X162535602Y-116703082D01*
X162591417Y-116899247D01*
X162591422Y-116899260D01*
X162682327Y-117081821D01*
X162805237Y-117244581D01*
X162955958Y-117381980D01*
X162955960Y-117381982D01*
X163055141Y-117443392D01*
X163129363Y-117489348D01*
X163319544Y-117563024D01*
X163520024Y-117600500D01*
X163520026Y-117600500D01*
X163723974Y-117600500D01*
X163723976Y-117600500D01*
X163924456Y-117563024D01*
X164114637Y-117489348D01*
X164288041Y-117381981D01*
X164438764Y-117244579D01*
X164561673Y-117081821D01*
X164652582Y-116899250D01*
X164708397Y-116703083D01*
X164727215Y-116500000D01*
X164727215Y-116499999D01*
X165056785Y-116499999D01*
X165056785Y-116500000D01*
X165075602Y-116703082D01*
X165131417Y-116899247D01*
X165131422Y-116899260D01*
X165222327Y-117081821D01*
X165345237Y-117244581D01*
X165495958Y-117381980D01*
X165495960Y-117381982D01*
X165595141Y-117443392D01*
X165669363Y-117489348D01*
X165859544Y-117563024D01*
X166060024Y-117600500D01*
X166060026Y-117600500D01*
X166263974Y-117600500D01*
X166263976Y-117600500D01*
X166464456Y-117563024D01*
X166654637Y-117489348D01*
X166828041Y-117381981D01*
X166978764Y-117244579D01*
X167101673Y-117081821D01*
X167192582Y-116899250D01*
X167248397Y-116703083D01*
X167267215Y-116500000D01*
X167248397Y-116296917D01*
X167192582Y-116100750D01*
X167101673Y-115918179D01*
X166978764Y-115755421D01*
X166978762Y-115755418D01*
X166828041Y-115618019D01*
X166828039Y-115618017D01*
X166654642Y-115510655D01*
X166654635Y-115510651D01*
X166548457Y-115469518D01*
X166464456Y-115436976D01*
X166263976Y-115399500D01*
X166060024Y-115399500D01*
X165859544Y-115436976D01*
X165859541Y-115436976D01*
X165859541Y-115436977D01*
X165669364Y-115510651D01*
X165669357Y-115510655D01*
X165495960Y-115618017D01*
X165495958Y-115618019D01*
X165345237Y-115755418D01*
X165222327Y-115918178D01*
X165131422Y-116100739D01*
X165131417Y-116100752D01*
X165075602Y-116296917D01*
X165056785Y-116499999D01*
X164727215Y-116499999D01*
X164708397Y-116296917D01*
X164652582Y-116100750D01*
X164561673Y-115918179D01*
X164438764Y-115755421D01*
X164438762Y-115755418D01*
X164288041Y-115618019D01*
X164288039Y-115618017D01*
X164114642Y-115510655D01*
X164114635Y-115510651D01*
X164008457Y-115469518D01*
X163924456Y-115436976D01*
X163723976Y-115399500D01*
X163520024Y-115399500D01*
X163319544Y-115436976D01*
X163319541Y-115436976D01*
X163319541Y-115436977D01*
X163129364Y-115510651D01*
X163129357Y-115510655D01*
X162955960Y-115618017D01*
X162955958Y-115618019D01*
X162805237Y-115755418D01*
X162682327Y-115918178D01*
X162591422Y-116100739D01*
X162591417Y-116100752D01*
X162535602Y-116296917D01*
X162516785Y-116499999D01*
X161299887Y-116499999D01*
X161370452Y-116387697D01*
X161370454Y-116387694D01*
X161370454Y-116387692D01*
X161370456Y-116387690D01*
X161426313Y-116228059D01*
X161426313Y-116228058D01*
X161426314Y-116228056D01*
X161445249Y-116060002D01*
X161445249Y-116059997D01*
X161426314Y-115891943D01*
X161370454Y-115732305D01*
X161370452Y-115732302D01*
X161280481Y-115589115D01*
X161280476Y-115589109D01*
X161160890Y-115469523D01*
X161160884Y-115469518D01*
X161017697Y-115379547D01*
X161017694Y-115379545D01*
X160858056Y-115323685D01*
X160690003Y-115304751D01*
X160689997Y-115304751D01*
X160521943Y-115323685D01*
X160362305Y-115379545D01*
X160362302Y-115379547D01*
X160219115Y-115469518D01*
X160219109Y-115469523D01*
X160099523Y-115589109D01*
X160099518Y-115589115D01*
X160009547Y-115732302D01*
X160009545Y-115732305D01*
X159953685Y-115891943D01*
X159934751Y-116059997D01*
X159934751Y-116060002D01*
X159946200Y-116161616D01*
X159934146Y-116230438D01*
X159886796Y-116281818D01*
X159822980Y-116299500D01*
X159102129Y-116299500D01*
X159102123Y-116299501D01*
X159042516Y-116305908D01*
X158907671Y-116356202D01*
X158907664Y-116356206D01*
X158792455Y-116442452D01*
X158792452Y-116442455D01*
X158706206Y-116557664D01*
X158706202Y-116557671D01*
X158655908Y-116692517D01*
X158650109Y-116746462D01*
X158649501Y-116752123D01*
X158649500Y-116752135D01*
X158350499Y-116752135D01*
X158350499Y-116752128D01*
X158344091Y-116692517D01*
X158342298Y-116687711D01*
X158293797Y-116557671D01*
X158293793Y-116557664D01*
X158207547Y-116442455D01*
X158207544Y-116442452D01*
X158092335Y-116356206D01*
X158092328Y-116356202D01*
X157957482Y-116305908D01*
X157957483Y-116305908D01*
X157897883Y-116299501D01*
X157897881Y-116299500D01*
X157897873Y-116299500D01*
X157897864Y-116299500D01*
X157102129Y-116299500D01*
X157102123Y-116299501D01*
X157042516Y-116305908D01*
X156907671Y-116356202D01*
X156907664Y-116356206D01*
X156792455Y-116442452D01*
X156792452Y-116442455D01*
X156706206Y-116557664D01*
X156706202Y-116557671D01*
X156655910Y-116692513D01*
X156655909Y-116692517D01*
X156650937Y-116738757D01*
X156624201Y-116803306D01*
X156566809Y-116843154D01*
X156527649Y-116849500D01*
X142297959Y-116849500D01*
X142230920Y-116829815D01*
X142185165Y-116777011D01*
X142174669Y-116738753D01*
X142169171Y-116687608D01*
X142150645Y-116637940D01*
X142119503Y-116554446D01*
X142034331Y-116440669D01*
X141963559Y-116387690D01*
X141920556Y-116355498D01*
X141920554Y-116355497D01*
X141787391Y-116305829D01*
X141787389Y-116305828D01*
X141787387Y-116305828D01*
X141728529Y-116299500D01*
X141146482Y-116299500D01*
X141146473Y-116299501D01*
X141087608Y-116305828D01*
X140954445Y-116355497D01*
X140840669Y-116440669D01*
X140755498Y-116554443D01*
X140705828Y-116687612D01*
X140699500Y-116746462D01*
X140299991Y-116746462D01*
X140293675Y-116687711D01*
X140244061Y-116554690D01*
X140244059Y-116554687D01*
X140158973Y-116441026D01*
X140045312Y-116355940D01*
X140045309Y-116355938D01*
X139912287Y-116306324D01*
X139912288Y-116306324D01*
X139853463Y-116300000D01*
X139712500Y-116300000D01*
X139712500Y-117100000D01*
X139412500Y-117100000D01*
X139412500Y-116300000D01*
X139271536Y-116300000D01*
X139212711Y-116306324D01*
X139079690Y-116355938D01*
X139079687Y-116355940D01*
X138966026Y-116441026D01*
X138880940Y-116554687D01*
X138880938Y-116554690D01*
X138831324Y-116687711D01*
X138825000Y-116746536D01*
X113000500Y-116746536D01*
X113000500Y-114881902D01*
X114999500Y-114881902D01*
X114999500Y-115118097D01*
X115036446Y-115351368D01*
X115109433Y-115575996D01*
X115216657Y-115786433D01*
X115355483Y-115977510D01*
X115522490Y-116144517D01*
X115713567Y-116283343D01*
X115758670Y-116306324D01*
X115924003Y-116390566D01*
X115924005Y-116390566D01*
X115924008Y-116390568D01*
X116044412Y-116429689D01*
X116148631Y-116463553D01*
X116381903Y-116500500D01*
X116381908Y-116500500D01*
X131618097Y-116500500D01*
X131851368Y-116463553D01*
X132075992Y-116390568D01*
X132286433Y-116283343D01*
X132477510Y-116144517D01*
X132644517Y-115977510D01*
X132783343Y-115786433D01*
X132890568Y-115575992D01*
X132963553Y-115351368D01*
X132967938Y-115323685D01*
X133000500Y-115118097D01*
X133000500Y-114881902D01*
X132963553Y-114648631D01*
X132915422Y-114500500D01*
X132890568Y-114424008D01*
X132890566Y-114424005D01*
X132890566Y-114424003D01*
X132794933Y-114236314D01*
X132783343Y-114213567D01*
X132644517Y-114022490D01*
X132477510Y-113855483D01*
X132352719Y-113764816D01*
X132310055Y-113709488D01*
X132304076Y-113639875D01*
X132336682Y-113578080D01*
X132397521Y-113543722D01*
X132425606Y-113540500D01*
X154919832Y-113540500D01*
X154919834Y-113540500D01*
X155021695Y-113513207D01*
X155113020Y-113460480D01*
X155297665Y-113275834D01*
X155358986Y-113242351D01*
X155428677Y-113247335D01*
X155484611Y-113289206D01*
X155509028Y-113354671D01*
X155508564Y-113377400D01*
X155494751Y-113499996D01*
X155494751Y-113500002D01*
X155513685Y-113668056D01*
X155569545Y-113827694D01*
X155569547Y-113827697D01*
X155659518Y-113970884D01*
X155659523Y-113970890D01*
X155779109Y-114090476D01*
X155779115Y-114090481D01*
X155922302Y-114180452D01*
X155922305Y-114180454D01*
X155922309Y-114180455D01*
X155922310Y-114180456D01*
X155974520Y-114198725D01*
X156081943Y-114236314D01*
X156249997Y-114255249D01*
X156250000Y-114255249D01*
X156250003Y-114255249D01*
X156350835Y-114243887D01*
X156418059Y-114236313D01*
X156543762Y-114192328D01*
X156584264Y-114178156D01*
X156585088Y-114180512D01*
X156642593Y-114171024D01*
X156706736Y-114198725D01*
X156726755Y-114219784D01*
X156792454Y-114307546D01*
X156792455Y-114307546D01*
X156792456Y-114307548D01*
X156907664Y-114393793D01*
X156907671Y-114393797D01*
X157042517Y-114444091D01*
X157042516Y-114444091D01*
X157049444Y-114444835D01*
X157102127Y-114450500D01*
X157897872Y-114450499D01*
X157957483Y-114444091D01*
X158092331Y-114393796D01*
X158207546Y-114307546D01*
X158293796Y-114192331D01*
X158344091Y-114057483D01*
X158350500Y-113997873D01*
X158350499Y-113002131D01*
X158649500Y-113002131D01*
X158649500Y-113997870D01*
X158649501Y-113997876D01*
X158655908Y-114057483D01*
X158706202Y-114192328D01*
X158706206Y-114192335D01*
X158792452Y-114307544D01*
X158792455Y-114307547D01*
X158907664Y-114393793D01*
X158907671Y-114393797D01*
X159042517Y-114444091D01*
X159042516Y-114444091D01*
X159049444Y-114444835D01*
X159102127Y-114450500D01*
X159897872Y-114450499D01*
X159957483Y-114444091D01*
X160092331Y-114393796D01*
X160207546Y-114307546D01*
X160293796Y-114192331D01*
X160344091Y-114057483D01*
X160346912Y-114031241D01*
X160373649Y-113966694D01*
X160431041Y-113926846D01*
X160470201Y-113920500D01*
X161762745Y-113920500D01*
X161829784Y-113940185D01*
X161850426Y-113956819D01*
X162174087Y-114280480D01*
X162265412Y-114333207D01*
X162367273Y-114360500D01*
X162472727Y-114360500D01*
X162515263Y-114360500D01*
X162582302Y-114380185D01*
X162626262Y-114429228D01*
X162682327Y-114541821D01*
X162743781Y-114623200D01*
X162805237Y-114704581D01*
X162955958Y-114841980D01*
X162955960Y-114841982D01*
X163002374Y-114870720D01*
X163129363Y-114949348D01*
X163319544Y-115023024D01*
X163520024Y-115060500D01*
X163520026Y-115060500D01*
X163723974Y-115060500D01*
X163723976Y-115060500D01*
X163924456Y-115023024D01*
X164114637Y-114949348D01*
X164288041Y-114841981D01*
X164438764Y-114704579D01*
X164561673Y-114541821D01*
X164652582Y-114359250D01*
X164708397Y-114163083D01*
X164727215Y-113960000D01*
X164721115Y-113894174D01*
X164708397Y-113756917D01*
X164683114Y-113668059D01*
X164652582Y-113560750D01*
X164652159Y-113559901D01*
X164593322Y-113441740D01*
X164561673Y-113378179D01*
X164438764Y-113215421D01*
X164438762Y-113215418D01*
X164296106Y-113085371D01*
X165062000Y-113085371D01*
X165062000Y-113810000D01*
X165684555Y-113810000D01*
X165662000Y-113894174D01*
X165662000Y-114025826D01*
X165684555Y-114110000D01*
X165062000Y-114110000D01*
X165062000Y-114834628D01*
X165076503Y-114907540D01*
X165076505Y-114907544D01*
X165131760Y-114990239D01*
X165214455Y-115045494D01*
X165214459Y-115045496D01*
X165287371Y-115059999D01*
X165287374Y-115060000D01*
X166012000Y-115060000D01*
X166012000Y-114437445D01*
X166096174Y-114460000D01*
X166227826Y-114460000D01*
X166312000Y-114437445D01*
X166312000Y-115060000D01*
X167036626Y-115060000D01*
X167036628Y-115059999D01*
X167109540Y-115045496D01*
X167109544Y-115045494D01*
X167192239Y-114990239D01*
X167247494Y-114907544D01*
X167247496Y-114907540D01*
X167261999Y-114834628D01*
X167262000Y-114834626D01*
X167262000Y-114110000D01*
X166639445Y-114110000D01*
X166662000Y-114025826D01*
X166662000Y-113894174D01*
X166639445Y-113810000D01*
X167262000Y-113810000D01*
X167262000Y-113085373D01*
X167261999Y-113085371D01*
X167247496Y-113012459D01*
X167247494Y-113012455D01*
X167192239Y-112929760D01*
X167109544Y-112874505D01*
X167109540Y-112874503D01*
X167036627Y-112860000D01*
X166312000Y-112860000D01*
X166312000Y-113482554D01*
X166227826Y-113460000D01*
X166096174Y-113460000D01*
X166012000Y-113482554D01*
X166012000Y-112860000D01*
X165287373Y-112860000D01*
X165214459Y-112874503D01*
X165214455Y-112874505D01*
X165131760Y-112929760D01*
X165076505Y-113012455D01*
X165076503Y-113012459D01*
X165062000Y-113085371D01*
X164296106Y-113085371D01*
X164288041Y-113078019D01*
X164288039Y-113078017D01*
X164114642Y-112970655D01*
X164114635Y-112970651D01*
X164009082Y-112929760D01*
X163924456Y-112896976D01*
X163723976Y-112859500D01*
X163520024Y-112859500D01*
X163319544Y-112896976D01*
X163319541Y-112896976D01*
X163319541Y-112896977D01*
X163129364Y-112970651D01*
X163129357Y-112970655D01*
X162955960Y-113078017D01*
X162955958Y-113078019D01*
X162805237Y-113215418D01*
X162682328Y-113378177D01*
X162666813Y-113409334D01*
X162619308Y-113460569D01*
X162551645Y-113477989D01*
X162485305Y-113456062D01*
X162468133Y-113441740D01*
X162225915Y-113199522D01*
X162225913Y-113199520D01*
X162178784Y-113172310D01*
X162134589Y-113146793D01*
X162083657Y-113133146D01*
X162032727Y-113119500D01*
X162032726Y-113119500D01*
X160474322Y-113119500D01*
X160407283Y-113099815D01*
X160361528Y-113047011D01*
X160351297Y-113005381D01*
X160350854Y-113005429D01*
X160344091Y-112942516D01*
X160293797Y-112807671D01*
X160293793Y-112807664D01*
X160207547Y-112692455D01*
X160207544Y-112692452D01*
X160092335Y-112606206D01*
X160092328Y-112606202D01*
X159957482Y-112555908D01*
X159957483Y-112555908D01*
X159897883Y-112549501D01*
X159897881Y-112549500D01*
X159897873Y-112549500D01*
X159897864Y-112549500D01*
X159102129Y-112549500D01*
X159102123Y-112549501D01*
X159042516Y-112555908D01*
X158907671Y-112606202D01*
X158907664Y-112606206D01*
X158792455Y-112692452D01*
X158792452Y-112692455D01*
X158706206Y-112807664D01*
X158706202Y-112807671D01*
X158655908Y-112942517D01*
X158649501Y-113002116D01*
X158649501Y-113002123D01*
X158649500Y-113002131D01*
X158350499Y-113002131D01*
X158350499Y-113002128D01*
X158344091Y-112942517D01*
X158327105Y-112896976D01*
X158293797Y-112807671D01*
X158293793Y-112807664D01*
X158207547Y-112692455D01*
X158207544Y-112692452D01*
X158092335Y-112606206D01*
X158092328Y-112606202D01*
X157957482Y-112555908D01*
X157957483Y-112555908D01*
X157897883Y-112549501D01*
X157897881Y-112549500D01*
X157897873Y-112549500D01*
X157897864Y-112549500D01*
X157102129Y-112549500D01*
X157102123Y-112549501D01*
X157042516Y-112555908D01*
X156907671Y-112606202D01*
X156907664Y-112606206D01*
X156792456Y-112692452D01*
X156792455Y-112692453D01*
X156792454Y-112692454D01*
X156739129Y-112763687D01*
X156726761Y-112780209D01*
X156670827Y-112822080D01*
X156601135Y-112827064D01*
X156584444Y-112821321D01*
X156584262Y-112821844D01*
X156577691Y-112819544D01*
X156577690Y-112819544D01*
X156537664Y-112805538D01*
X156418056Y-112763685D01*
X156250003Y-112744751D01*
X156249996Y-112744751D01*
X156127400Y-112758564D01*
X156058578Y-112746509D01*
X156007199Y-112699160D01*
X155989575Y-112631550D01*
X156011302Y-112565144D01*
X156025831Y-112547668D01*
X157976681Y-110596819D01*
X158038004Y-110563334D01*
X158064362Y-110560500D01*
X162642995Y-110560500D01*
X162710034Y-110580185D01*
X162755789Y-110632989D01*
X162765733Y-110702147D01*
X162741949Y-110759227D01*
X162682327Y-110838178D01*
X162591422Y-111020739D01*
X162591417Y-111020752D01*
X162535602Y-111216917D01*
X162516785Y-111419999D01*
X162516785Y-111420000D01*
X162535602Y-111623082D01*
X162591417Y-111819247D01*
X162591422Y-111819260D01*
X162682327Y-112001821D01*
X162805237Y-112164581D01*
X162955958Y-112301980D01*
X162955960Y-112301982D01*
X163055141Y-112363392D01*
X163129363Y-112409348D01*
X163319544Y-112483024D01*
X163520024Y-112520500D01*
X163520026Y-112520500D01*
X163723974Y-112520500D01*
X163723976Y-112520500D01*
X163924456Y-112483024D01*
X164114637Y-112409348D01*
X164288041Y-112301981D01*
X164438764Y-112164579D01*
X164561673Y-112001821D01*
X164652582Y-111819250D01*
X164708397Y-111623083D01*
X164727215Y-111420000D01*
X164727215Y-111419999D01*
X165056785Y-111419999D01*
X165056785Y-111420000D01*
X165075602Y-111623082D01*
X165131417Y-111819247D01*
X165131422Y-111819260D01*
X165222327Y-112001821D01*
X165345237Y-112164581D01*
X165495958Y-112301980D01*
X165495960Y-112301982D01*
X165595141Y-112363392D01*
X165669363Y-112409348D01*
X165859544Y-112483024D01*
X166060024Y-112520500D01*
X166060026Y-112520500D01*
X166263974Y-112520500D01*
X166263976Y-112520500D01*
X166464456Y-112483024D01*
X166654637Y-112409348D01*
X166828041Y-112301981D01*
X166978764Y-112164579D01*
X167101673Y-112001821D01*
X167192582Y-111819250D01*
X167248397Y-111623083D01*
X167267215Y-111420000D01*
X167248397Y-111216917D01*
X167192582Y-111020750D01*
X167101673Y-110838179D01*
X166978764Y-110675421D01*
X166978762Y-110675418D01*
X166828041Y-110538019D01*
X166828039Y-110538017D01*
X166654642Y-110430655D01*
X166654635Y-110430651D01*
X166559546Y-110393814D01*
X166464456Y-110356976D01*
X166263976Y-110319500D01*
X166060024Y-110319500D01*
X165859544Y-110356976D01*
X165859541Y-110356976D01*
X165859541Y-110356977D01*
X165669364Y-110430651D01*
X165669357Y-110430655D01*
X165495960Y-110538017D01*
X165495958Y-110538019D01*
X165345237Y-110675418D01*
X165222327Y-110838178D01*
X165131422Y-111020739D01*
X165131417Y-111020752D01*
X165075602Y-111216917D01*
X165056785Y-111419999D01*
X164727215Y-111419999D01*
X164708397Y-111216917D01*
X164652582Y-111020750D01*
X164561673Y-110838179D01*
X164502050Y-110759226D01*
X164477359Y-110693866D01*
X164491924Y-110625531D01*
X164541121Y-110575919D01*
X164601005Y-110560500D01*
X164934725Y-110560500D01*
X164934727Y-110560500D01*
X165036588Y-110533207D01*
X165127913Y-110480480D01*
X165662455Y-109945936D01*
X165723776Y-109912453D01*
X165793467Y-109917437D01*
X165794927Y-109917992D01*
X165859538Y-109943022D01*
X165859539Y-109943022D01*
X165859544Y-109943024D01*
X166060024Y-109980500D01*
X166060026Y-109980500D01*
X166263974Y-109980500D01*
X166263976Y-109980500D01*
X166464456Y-109943024D01*
X166654637Y-109869348D01*
X166828041Y-109761981D01*
X166978764Y-109624579D01*
X167101673Y-109461821D01*
X167192582Y-109279250D01*
X167248397Y-109083083D01*
X167267215Y-108880000D01*
X167261115Y-108814174D01*
X167248397Y-108676917D01*
X167192582Y-108480750D01*
X167192159Y-108479901D01*
X167134783Y-108364673D01*
X167101673Y-108298179D01*
X167004971Y-108170125D01*
X166978762Y-108135418D01*
X166828041Y-107998019D01*
X166828039Y-107998017D01*
X166654642Y-107890655D01*
X166654635Y-107890651D01*
X166479825Y-107822930D01*
X166464456Y-107816976D01*
X166263976Y-107779500D01*
X166060024Y-107779500D01*
X165859544Y-107816976D01*
X165859541Y-107816976D01*
X165859541Y-107816977D01*
X165669364Y-107890651D01*
X165669357Y-107890655D01*
X165495960Y-107998017D01*
X165495958Y-107998019D01*
X165345237Y-108135418D01*
X165222327Y-108298178D01*
X165131422Y-108480739D01*
X165131417Y-108480752D01*
X165075602Y-108676917D01*
X165056785Y-108879999D01*
X165056785Y-108880000D01*
X165075602Y-109083082D01*
X165075603Y-109083085D01*
X165125859Y-109259716D01*
X165125272Y-109329583D01*
X165094274Y-109381331D01*
X164947052Y-109528555D01*
X164933682Y-109541925D01*
X164872358Y-109575410D01*
X164802667Y-109570426D01*
X164746733Y-109528555D01*
X164722316Y-109463090D01*
X164722000Y-109454244D01*
X164722000Y-109030000D01*
X164099445Y-109030000D01*
X164122000Y-108945826D01*
X164122000Y-108814174D01*
X164099445Y-108730000D01*
X164722000Y-108730000D01*
X164722000Y-108114500D01*
X164741685Y-108047461D01*
X164794489Y-108001706D01*
X164846000Y-107990500D01*
X164964725Y-107990500D01*
X164964727Y-107990500D01*
X165066588Y-107963207D01*
X165157913Y-107910480D01*
X165662455Y-107405936D01*
X165723776Y-107372453D01*
X165793467Y-107377437D01*
X165794927Y-107377992D01*
X165859538Y-107403022D01*
X165859539Y-107403022D01*
X165859544Y-107403024D01*
X166060024Y-107440500D01*
X166060026Y-107440500D01*
X166263974Y-107440500D01*
X166263976Y-107440500D01*
X166464456Y-107403024D01*
X166654637Y-107329348D01*
X166828041Y-107221981D01*
X166978764Y-107084579D01*
X166979646Y-107083412D01*
X167039705Y-107003880D01*
X167101673Y-106921821D01*
X167192582Y-106739250D01*
X167248397Y-106543083D01*
X167267215Y-106340000D01*
X167248397Y-106136917D01*
X167192582Y-105940750D01*
X167101673Y-105758179D01*
X166978764Y-105595421D01*
X166978762Y-105595418D01*
X166828041Y-105458019D01*
X166828039Y-105458017D01*
X166654642Y-105350655D01*
X166654635Y-105350651D01*
X166464546Y-105277011D01*
X166464456Y-105276976D01*
X166263976Y-105239500D01*
X166060024Y-105239500D01*
X165859544Y-105276976D01*
X165859541Y-105276976D01*
X165859541Y-105276977D01*
X165669364Y-105350651D01*
X165669357Y-105350655D01*
X165495960Y-105458017D01*
X165495958Y-105458019D01*
X165345237Y-105595418D01*
X165222327Y-105758178D01*
X165131422Y-105940739D01*
X165131417Y-105940752D01*
X165075602Y-106136917D01*
X165056785Y-106339999D01*
X165056785Y-106340000D01*
X165075602Y-106543082D01*
X165075603Y-106543085D01*
X165125859Y-106719716D01*
X165125272Y-106789583D01*
X165094274Y-106841331D01*
X164782424Y-107153182D01*
X164721103Y-107186666D01*
X164694745Y-107189500D01*
X164608557Y-107189500D01*
X164541518Y-107169815D01*
X164495763Y-107117011D01*
X164485819Y-107047853D01*
X164509603Y-106990773D01*
X164525292Y-106969997D01*
X164561673Y-106921821D01*
X164652582Y-106739250D01*
X164708397Y-106543083D01*
X164727215Y-106340000D01*
X164708397Y-106136917D01*
X164652582Y-105940750D01*
X164561673Y-105758179D01*
X164438764Y-105595421D01*
X164438762Y-105595418D01*
X164288041Y-105458019D01*
X164288039Y-105458017D01*
X164114642Y-105350655D01*
X164114635Y-105350651D01*
X163924546Y-105277011D01*
X163924456Y-105276976D01*
X163723976Y-105239500D01*
X163520024Y-105239500D01*
X163319544Y-105276976D01*
X163319541Y-105276976D01*
X163319541Y-105276977D01*
X163129365Y-105350651D01*
X163129364Y-105350651D01*
X163129358Y-105350655D01*
X163080466Y-105380927D01*
X163015190Y-105399500D01*
X158726254Y-105399500D01*
X158659215Y-105379815D01*
X158613460Y-105327011D01*
X158603516Y-105257853D01*
X158632541Y-105194297D01*
X158638573Y-105187819D01*
X159029573Y-104796819D01*
X159090896Y-104763334D01*
X159117254Y-104760500D01*
X161322725Y-104760500D01*
X161322727Y-104760500D01*
X161424588Y-104733207D01*
X161515913Y-104680480D01*
X161959573Y-104236818D01*
X162020896Y-104203334D01*
X162047254Y-104200500D01*
X162515263Y-104200500D01*
X162582302Y-104220185D01*
X162626262Y-104269228D01*
X162682327Y-104381821D01*
X162729857Y-104444761D01*
X162805237Y-104544581D01*
X162915941Y-104645500D01*
X162954312Y-104680480D01*
X162955958Y-104681980D01*
X162955960Y-104681982D01*
X162977652Y-104695413D01*
X163129363Y-104789348D01*
X163319544Y-104863024D01*
X163520024Y-104900500D01*
X163520026Y-104900500D01*
X163723974Y-104900500D01*
X163723976Y-104900500D01*
X163924456Y-104863024D01*
X164114637Y-104789348D01*
X164288041Y-104681981D01*
X164438764Y-104544579D01*
X164561673Y-104381821D01*
X164652582Y-104199250D01*
X164708397Y-104003083D01*
X164727215Y-103800000D01*
X164727215Y-103799999D01*
X165056785Y-103799999D01*
X165056785Y-103800000D01*
X165075602Y-104003082D01*
X165131417Y-104199247D01*
X165131422Y-104199260D01*
X165222327Y-104381821D01*
X165345237Y-104544581D01*
X165455941Y-104645500D01*
X165494312Y-104680480D01*
X165495958Y-104681980D01*
X165495960Y-104681982D01*
X165517652Y-104695413D01*
X165669363Y-104789348D01*
X165859544Y-104863024D01*
X166060024Y-104900500D01*
X166060026Y-104900500D01*
X166263974Y-104900500D01*
X166263976Y-104900500D01*
X166464456Y-104863024D01*
X166654637Y-104789348D01*
X166828041Y-104681981D01*
X166978764Y-104544579D01*
X167101673Y-104381821D01*
X167192582Y-104199250D01*
X167248397Y-104003083D01*
X167267215Y-103800000D01*
X167248397Y-103596917D01*
X167192582Y-103400750D01*
X167191959Y-103399499D01*
X167101673Y-103218180D01*
X167101673Y-103218179D01*
X166995157Y-103077129D01*
X166978762Y-103055418D01*
X166828041Y-102918019D01*
X166828039Y-102918017D01*
X166654642Y-102810655D01*
X166654635Y-102810651D01*
X166543124Y-102767452D01*
X166464456Y-102736976D01*
X166263976Y-102699500D01*
X166060024Y-102699500D01*
X165859544Y-102736976D01*
X165859541Y-102736976D01*
X165859541Y-102736977D01*
X165669364Y-102810651D01*
X165669357Y-102810655D01*
X165495960Y-102918017D01*
X165495958Y-102918019D01*
X165345237Y-103055418D01*
X165222327Y-103218178D01*
X165131422Y-103400739D01*
X165131417Y-103400752D01*
X165075602Y-103596917D01*
X165056785Y-103799999D01*
X164727215Y-103799999D01*
X164708397Y-103596917D01*
X164652582Y-103400750D01*
X164651959Y-103399499D01*
X164561673Y-103218180D01*
X164561673Y-103218179D01*
X164455157Y-103077129D01*
X164438762Y-103055418D01*
X164288041Y-102918019D01*
X164288039Y-102918017D01*
X164114642Y-102810655D01*
X164114635Y-102810651D01*
X164003124Y-102767452D01*
X163924456Y-102736976D01*
X163723976Y-102699500D01*
X163520024Y-102699500D01*
X163319544Y-102736976D01*
X163319541Y-102736976D01*
X163319541Y-102736977D01*
X163129364Y-102810651D01*
X163129357Y-102810655D01*
X162955960Y-102918017D01*
X162955958Y-102918019D01*
X162805237Y-103055418D01*
X162682326Y-103218180D01*
X162626263Y-103330771D01*
X162578761Y-103382008D01*
X162515263Y-103399500D01*
X161890339Y-103399500D01*
X161890323Y-103399499D01*
X161882727Y-103399499D01*
X161777273Y-103399499D01*
X161709366Y-103417695D01*
X161675412Y-103426793D01*
X161584084Y-103479522D01*
X161140426Y-103923181D01*
X161079103Y-103956666D01*
X161052745Y-103959500D01*
X159456255Y-103959500D01*
X159389216Y-103939815D01*
X159343461Y-103887011D01*
X159333517Y-103817853D01*
X159362542Y-103754297D01*
X159368574Y-103747819D01*
X161419574Y-101696819D01*
X161480897Y-101663334D01*
X161507255Y-101660500D01*
X162515263Y-101660500D01*
X162582302Y-101680185D01*
X162626262Y-101729228D01*
X162682327Y-101841821D01*
X162700694Y-101866143D01*
X162805237Y-102004581D01*
X162955958Y-102141980D01*
X162955960Y-102141982D01*
X163055141Y-102203392D01*
X163129363Y-102249348D01*
X163319544Y-102323024D01*
X163520024Y-102360500D01*
X163520026Y-102360500D01*
X163723974Y-102360500D01*
X163723976Y-102360500D01*
X163924456Y-102323024D01*
X164114637Y-102249348D01*
X164288041Y-102141981D01*
X164438764Y-102004579D01*
X164561673Y-101841821D01*
X164652582Y-101659250D01*
X164708397Y-101463083D01*
X164727215Y-101260000D01*
X164726468Y-101251943D01*
X164708397Y-101056917D01*
X164680389Y-100958482D01*
X164652582Y-100860750D01*
X164652159Y-100859901D01*
X164599365Y-100753876D01*
X164561673Y-100678179D01*
X164456074Y-100538343D01*
X164438762Y-100515418D01*
X164296106Y-100385371D01*
X165062000Y-100385371D01*
X165062000Y-101110000D01*
X165684555Y-101110000D01*
X165662000Y-101194174D01*
X165662000Y-101325826D01*
X165684555Y-101410000D01*
X165062000Y-101410000D01*
X165062000Y-102134628D01*
X165076503Y-102207540D01*
X165076505Y-102207544D01*
X165131760Y-102290239D01*
X165214455Y-102345494D01*
X165214459Y-102345496D01*
X165287371Y-102359999D01*
X165287374Y-102360000D01*
X166012000Y-102360000D01*
X166012000Y-101737445D01*
X166096174Y-101760000D01*
X166227826Y-101760000D01*
X166312000Y-101737445D01*
X166312000Y-102360000D01*
X167036626Y-102360000D01*
X167036628Y-102359999D01*
X167109540Y-102345496D01*
X167109544Y-102345494D01*
X167192239Y-102290239D01*
X167247494Y-102207544D01*
X167247496Y-102207540D01*
X167261999Y-102134628D01*
X167262000Y-102134626D01*
X167262000Y-101410000D01*
X166639445Y-101410000D01*
X166662000Y-101325826D01*
X166662000Y-101194174D01*
X166639445Y-101110000D01*
X167262000Y-101110000D01*
X167262000Y-100385373D01*
X167261999Y-100385371D01*
X167247496Y-100312459D01*
X167247494Y-100312455D01*
X167192239Y-100229760D01*
X167109544Y-100174505D01*
X167109540Y-100174503D01*
X167036627Y-100160000D01*
X166312000Y-100160000D01*
X166312000Y-100782554D01*
X166227826Y-100760000D01*
X166096174Y-100760000D01*
X166012000Y-100782554D01*
X166012000Y-100160000D01*
X165287373Y-100160000D01*
X165214459Y-100174503D01*
X165214455Y-100174505D01*
X165131760Y-100229760D01*
X165076505Y-100312455D01*
X165076503Y-100312459D01*
X165062000Y-100385371D01*
X164296106Y-100385371D01*
X164288041Y-100378019D01*
X164288039Y-100378017D01*
X164114642Y-100270655D01*
X164114635Y-100270651D01*
X163963178Y-100211977D01*
X163924456Y-100196976D01*
X163723976Y-100159500D01*
X163520024Y-100159500D01*
X163319544Y-100196976D01*
X163319541Y-100196976D01*
X163319541Y-100196977D01*
X163129364Y-100270651D01*
X163129357Y-100270655D01*
X162955960Y-100378017D01*
X162955958Y-100378019D01*
X162805237Y-100515418D01*
X162682326Y-100678180D01*
X162633651Y-100775934D01*
X162628063Y-100787157D01*
X162626263Y-100790771D01*
X162578761Y-100842008D01*
X162515263Y-100859500D01*
X161237273Y-100859500D01*
X161135410Y-100886793D01*
X161044087Y-100939520D01*
X161044084Y-100939522D01*
X153200426Y-108783181D01*
X153139103Y-108816666D01*
X153112745Y-108819500D01*
X141078573Y-108819500D01*
X141011534Y-108799815D01*
X140990892Y-108783181D01*
X139757711Y-107550000D01*
X151083103Y-107550000D01*
X151102642Y-107748389D01*
X151160510Y-107939151D01*
X151254477Y-108114951D01*
X151254481Y-108114957D01*
X151285325Y-108152541D01*
X151285326Y-108152541D01*
X151696957Y-107740910D01*
X151744311Y-107822930D01*
X151827070Y-107905689D01*
X151909088Y-107953042D01*
X151497456Y-108364673D01*
X151497456Y-108364674D01*
X151535041Y-108395518D01*
X151535043Y-108395520D01*
X151710848Y-108489489D01*
X151901610Y-108547357D01*
X152100000Y-108566896D01*
X152298389Y-108547357D01*
X152489151Y-108489489D01*
X152664951Y-108395523D01*
X152664954Y-108395521D01*
X152702541Y-108364674D01*
X152702541Y-108364673D01*
X152290910Y-107953042D01*
X152372930Y-107905689D01*
X152455689Y-107822930D01*
X152503042Y-107740910D01*
X152914673Y-108152541D01*
X152914674Y-108152541D01*
X152945521Y-108114954D01*
X152945523Y-108114951D01*
X153039489Y-107939151D01*
X153097357Y-107748389D01*
X153116896Y-107550000D01*
X153097357Y-107351610D01*
X153039489Y-107160848D01*
X152945520Y-106985043D01*
X152945518Y-106985041D01*
X152914673Y-106947456D01*
X152503041Y-107359088D01*
X152455689Y-107277070D01*
X152372930Y-107194311D01*
X152290910Y-107146957D01*
X152702541Y-106735326D01*
X152702541Y-106735325D01*
X152664957Y-106704481D01*
X152664951Y-106704477D01*
X152489151Y-106610510D01*
X152298389Y-106552642D01*
X152100000Y-106533103D01*
X151901610Y-106552642D01*
X151710848Y-106610510D01*
X151535044Y-106704479D01*
X151497457Y-106735325D01*
X151909089Y-107146957D01*
X151827070Y-107194311D01*
X151744311Y-107277070D01*
X151696957Y-107359089D01*
X151285325Y-106947457D01*
X151254479Y-106985044D01*
X151160510Y-107160848D01*
X151102642Y-107351610D01*
X151083103Y-107550000D01*
X139757711Y-107550000D01*
X138440125Y-106232413D01*
X138147234Y-105939522D01*
X138147232Y-105939520D01*
X138101569Y-105913156D01*
X138055908Y-105886793D01*
X138004976Y-105873146D01*
X137954046Y-105859500D01*
X137954045Y-105859500D01*
X137184361Y-105859500D01*
X137117322Y-105839815D01*
X137096680Y-105823181D01*
X136085680Y-104812181D01*
X136052195Y-104750858D01*
X136057179Y-104681166D01*
X136099051Y-104625233D01*
X136164515Y-104600816D01*
X136173361Y-104600500D01*
X137766324Y-104600500D01*
X137833363Y-104620185D01*
X137854005Y-104636819D01*
X138794500Y-105577314D01*
X138887686Y-105670500D01*
X139001814Y-105736392D01*
X139129108Y-105770500D01*
X139129110Y-105770500D01*
X145785890Y-105770500D01*
X145785892Y-105770500D01*
X145913186Y-105736392D01*
X146027314Y-105670500D01*
X146687814Y-105010000D01*
X151082601Y-105010000D01*
X151102149Y-105208481D01*
X151102149Y-105208483D01*
X151102150Y-105208485D01*
X151115391Y-105252135D01*
X151160048Y-105399348D01*
X151254060Y-105575231D01*
X151254065Y-105575238D01*
X151380589Y-105729410D01*
X151456430Y-105791650D01*
X151534763Y-105855936D01*
X151534766Y-105855937D01*
X151534768Y-105855939D01*
X151710651Y-105949951D01*
X151710654Y-105949951D01*
X151710658Y-105949954D01*
X151901515Y-106007850D01*
X152100000Y-106027399D01*
X152298485Y-106007850D01*
X152489342Y-105949954D01*
X152506562Y-105940750D01*
X152665231Y-105855939D01*
X152665229Y-105855939D01*
X152665237Y-105855936D01*
X152819410Y-105729410D01*
X152945936Y-105575237D01*
X152998954Y-105476047D01*
X153039951Y-105399348D01*
X153039951Y-105399347D01*
X153039954Y-105399342D01*
X153097850Y-105208485D01*
X153117399Y-105010000D01*
X153097850Y-104811515D01*
X153039954Y-104620658D01*
X153039951Y-104620654D01*
X153039951Y-104620651D01*
X152945939Y-104444768D01*
X152945937Y-104444766D01*
X152945936Y-104444763D01*
X152894281Y-104381821D01*
X152819410Y-104290589D01*
X152665238Y-104164065D01*
X152665231Y-104164060D01*
X152489348Y-104070048D01*
X152489342Y-104070046D01*
X152298485Y-104012150D01*
X152298483Y-104012149D01*
X152298481Y-104012149D01*
X152100000Y-103992601D01*
X151901518Y-104012149D01*
X151710651Y-104070048D01*
X151534768Y-104164060D01*
X151534761Y-104164065D01*
X151380589Y-104290589D01*
X151254065Y-104444761D01*
X151254060Y-104444768D01*
X151160048Y-104620651D01*
X151102149Y-104811518D01*
X151082601Y-105010000D01*
X146687814Y-105010000D01*
X148010500Y-103687314D01*
X148076392Y-103573186D01*
X148110500Y-103445892D01*
X148110500Y-103314107D01*
X148110500Y-102470000D01*
X151082601Y-102470000D01*
X151102149Y-102668481D01*
X151102149Y-102668483D01*
X151102150Y-102668485D01*
X151132280Y-102767809D01*
X151160048Y-102859348D01*
X151254060Y-103035231D01*
X151254065Y-103035238D01*
X151380589Y-103189410D01*
X151415645Y-103218179D01*
X151534763Y-103315936D01*
X151534766Y-103315937D01*
X151534768Y-103315939D01*
X151710651Y-103409951D01*
X151710654Y-103409951D01*
X151710658Y-103409954D01*
X151901515Y-103467850D01*
X152100000Y-103487399D01*
X152298485Y-103467850D01*
X152489342Y-103409954D01*
X152506562Y-103400750D01*
X152577289Y-103362945D01*
X152665237Y-103315936D01*
X152819410Y-103189410D01*
X152945936Y-103035237D01*
X152992945Y-102947289D01*
X153039951Y-102859348D01*
X153039951Y-102859347D01*
X153039954Y-102859342D01*
X153097850Y-102668485D01*
X153117399Y-102470000D01*
X153097850Y-102271515D01*
X153039954Y-102080658D01*
X153039951Y-102080654D01*
X153039951Y-102080651D01*
X152945939Y-101904768D01*
X152945937Y-101904766D01*
X152945936Y-101904763D01*
X152894281Y-101841821D01*
X152819410Y-101750589D01*
X152677328Y-101633987D01*
X152665237Y-101624064D01*
X152665235Y-101624063D01*
X152665231Y-101624060D01*
X152489348Y-101530048D01*
X152489342Y-101530046D01*
X152298485Y-101472150D01*
X152298483Y-101472149D01*
X152298481Y-101472149D01*
X152100000Y-101452601D01*
X151901518Y-101472149D01*
X151710651Y-101530048D01*
X151534768Y-101624060D01*
X151534761Y-101624065D01*
X151380589Y-101750589D01*
X151254065Y-101904761D01*
X151254060Y-101904768D01*
X151160048Y-102080651D01*
X151102149Y-102271518D01*
X151082601Y-102470000D01*
X148110500Y-102470000D01*
X148110500Y-99930000D01*
X151082601Y-99930000D01*
X151102149Y-100128481D01*
X151102149Y-100128483D01*
X151102150Y-100128485D01*
X151157957Y-100312455D01*
X151160048Y-100319348D01*
X151254060Y-100495231D01*
X151254065Y-100495238D01*
X151380589Y-100649410D01*
X151457322Y-100712382D01*
X151534763Y-100775936D01*
X151534766Y-100775937D01*
X151534768Y-100775939D01*
X151710651Y-100869951D01*
X151710654Y-100869951D01*
X151710658Y-100869954D01*
X151901515Y-100927850D01*
X152100000Y-100947399D01*
X152298485Y-100927850D01*
X152489342Y-100869954D01*
X152506562Y-100860750D01*
X152631301Y-100794075D01*
X152665237Y-100775936D01*
X152819410Y-100649410D01*
X152945936Y-100495237D01*
X152997796Y-100398214D01*
X153039951Y-100319348D01*
X153039951Y-100319347D01*
X153039954Y-100319342D01*
X153097850Y-100128485D01*
X153117399Y-99930000D01*
X153097850Y-99731515D01*
X153039954Y-99540658D01*
X153039951Y-99540654D01*
X153039951Y-99540651D01*
X152945939Y-99364768D01*
X152945937Y-99364766D01*
X152945936Y-99364763D01*
X152889646Y-99296173D01*
X152819410Y-99210589D01*
X152665238Y-99084065D01*
X152665231Y-99084060D01*
X152489348Y-98990048D01*
X152489342Y-98990046D01*
X152298485Y-98932150D01*
X152298483Y-98932149D01*
X152298481Y-98932149D01*
X152100000Y-98912601D01*
X151901518Y-98932149D01*
X151710651Y-98990048D01*
X151534768Y-99084060D01*
X151534761Y-99084065D01*
X151380589Y-99210589D01*
X151254065Y-99364761D01*
X151254060Y-99364768D01*
X151160048Y-99540651D01*
X151102149Y-99731518D01*
X151082601Y-99930000D01*
X148110500Y-99930000D01*
X148110500Y-97714108D01*
X148110500Y-96828676D01*
X148130185Y-96761637D01*
X148146819Y-96740995D01*
X148172995Y-96714819D01*
X148234318Y-96681334D01*
X148260676Y-96678500D01*
X151125361Y-96678500D01*
X151192400Y-96698185D01*
X151238155Y-96750989D01*
X151248099Y-96820147D01*
X151234719Y-96860953D01*
X151160048Y-97000651D01*
X151102149Y-97191518D01*
X151082601Y-97390000D01*
X151102149Y-97588481D01*
X151102149Y-97588483D01*
X151102150Y-97588485D01*
X151160046Y-97779342D01*
X151160048Y-97779348D01*
X151254060Y-97955231D01*
X151254065Y-97955238D01*
X151380589Y-98109410D01*
X151454267Y-98169875D01*
X151534763Y-98235936D01*
X151534766Y-98235937D01*
X151534768Y-98235939D01*
X151710651Y-98329951D01*
X151710654Y-98329951D01*
X151710658Y-98329954D01*
X151901515Y-98387850D01*
X152100000Y-98407399D01*
X152298485Y-98387850D01*
X152489342Y-98329954D01*
X152506562Y-98320750D01*
X152603016Y-98269194D01*
X152665237Y-98235936D01*
X152819410Y-98109410D01*
X152945936Y-97955237D01*
X153000574Y-97853017D01*
X153039951Y-97779348D01*
X153039951Y-97779347D01*
X153039954Y-97779342D01*
X153097850Y-97588485D01*
X153117399Y-97390000D01*
X153097850Y-97191515D01*
X153039954Y-97000658D01*
X153039951Y-97000654D01*
X153039951Y-97000651D01*
X152965281Y-96860953D01*
X152951039Y-96792550D01*
X152976039Y-96727306D01*
X153032344Y-96685936D01*
X153074639Y-96678500D01*
X157235500Y-96678500D01*
X157302539Y-96698185D01*
X157348294Y-96750989D01*
X157359500Y-96802500D01*
X157359500Y-97094108D01*
X157359500Y-97225892D01*
X157374132Y-97280500D01*
X157393608Y-97353187D01*
X157426554Y-97410250D01*
X157459500Y-97467314D01*
X157459502Y-97467316D01*
X158898502Y-98906316D01*
X158931987Y-98967639D01*
X158927003Y-99037331D01*
X158912582Y-99062809D01*
X158913227Y-99063214D01*
X158819547Y-99212302D01*
X158819545Y-99212305D01*
X158763685Y-99371943D01*
X158744751Y-99539997D01*
X158744751Y-99540002D01*
X158763685Y-99708056D01*
X158819545Y-99867694D01*
X158819547Y-99867697D01*
X158909518Y-100010884D01*
X158909523Y-100010890D01*
X159029109Y-100130476D01*
X159029115Y-100130481D01*
X159172302Y-100220452D01*
X159172305Y-100220454D01*
X159172309Y-100220455D01*
X159172310Y-100220456D01*
X159222640Y-100238067D01*
X159331943Y-100276314D01*
X159499997Y-100295249D01*
X159500000Y-100295249D01*
X159500003Y-100295249D01*
X159668056Y-100276314D01*
X159668059Y-100276313D01*
X159827690Y-100220456D01*
X159827692Y-100220454D01*
X159827694Y-100220454D01*
X159827697Y-100220452D01*
X159970884Y-100130481D01*
X159970885Y-100130480D01*
X159970890Y-100130477D01*
X160090477Y-100010890D01*
X160109730Y-99980249D01*
X160180452Y-99867697D01*
X160180454Y-99867694D01*
X160180454Y-99867692D01*
X160180456Y-99867690D01*
X160236313Y-99708059D01*
X160236313Y-99708058D01*
X160236314Y-99708056D01*
X160255249Y-99540002D01*
X160255249Y-99539997D01*
X160236314Y-99371943D01*
X160180454Y-99212305D01*
X160180452Y-99212302D01*
X160090481Y-99069115D01*
X160090476Y-99069109D01*
X160036819Y-99015452D01*
X160003334Y-98954129D01*
X160000500Y-98927771D01*
X160000500Y-98734110D01*
X160000500Y-98734108D01*
X159966392Y-98606814D01*
X159962745Y-98600498D01*
X159951553Y-98581113D01*
X159900500Y-98492686D01*
X159807314Y-98399500D01*
X159807313Y-98399499D01*
X159802983Y-98395169D01*
X159802972Y-98395159D01*
X158396819Y-96989005D01*
X158363334Y-96927682D01*
X158360500Y-96901324D01*
X158360500Y-96667226D01*
X158380185Y-96600187D01*
X158381944Y-96597769D01*
X158381892Y-96597734D01*
X158456464Y-96486128D01*
X158470223Y-96452911D01*
X158505501Y-96367743D01*
X158530499Y-96242069D01*
X158530499Y-96113931D01*
X158530011Y-96111478D01*
X158504313Y-95982282D01*
X158504773Y-95982190D01*
X158500500Y-95953376D01*
X158500500Y-91139263D01*
X158520185Y-91072224D01*
X158543298Y-91045550D01*
X158563282Y-91028233D01*
X158649077Y-90953893D01*
X158696702Y-90898931D01*
X158774434Y-90777977D01*
X158804644Y-90711826D01*
X158845151Y-90573871D01*
X158855500Y-90501889D01*
X158855500Y-89930000D01*
X158855500Y-89929997D01*
X158840421Y-89854192D01*
X158840421Y-89805808D01*
X158855500Y-89730002D01*
X158855500Y-89158113D01*
X158855500Y-89158111D01*
X158845151Y-89086129D01*
X158804644Y-88948174D01*
X158774434Y-88882023D01*
X158774432Y-88882020D01*
X158774431Y-88882017D01*
X158696702Y-88761069D01*
X158649077Y-88706107D01*
X158543298Y-88614450D01*
X158505523Y-88555673D01*
X158500500Y-88520737D01*
X158500500Y-88080808D01*
X158520185Y-88013769D01*
X158536819Y-87993127D01*
X159333127Y-87196819D01*
X159394450Y-87163334D01*
X159420808Y-87160500D01*
X159535500Y-87160500D01*
X159602539Y-87180185D01*
X159648294Y-87232989D01*
X159659500Y-87284500D01*
X159659500Y-97184069D01*
X159659500Y-97184071D01*
X159659499Y-97184071D01*
X159684497Y-97309738D01*
X159684499Y-97309744D01*
X159713305Y-97379289D01*
X159733535Y-97428127D01*
X159804723Y-97534669D01*
X159804726Y-97534673D01*
X161495326Y-99225273D01*
X161495329Y-99225275D01*
X161495331Y-99225277D01*
X161601393Y-99296144D01*
X161601386Y-99296153D01*
X161601435Y-99296172D01*
X161601873Y-99296465D01*
X161720256Y-99345501D01*
X161720260Y-99345501D01*
X161720261Y-99345502D01*
X161845928Y-99370500D01*
X161845931Y-99370500D01*
X162672446Y-99370500D01*
X162739485Y-99390185D01*
X162771400Y-99419773D01*
X162805236Y-99464579D01*
X162954334Y-99600500D01*
X162955958Y-99601980D01*
X162955960Y-99601982D01*
X163012224Y-99636819D01*
X163129363Y-99709348D01*
X163319544Y-99783024D01*
X163520024Y-99820500D01*
X163520026Y-99820500D01*
X163723974Y-99820500D01*
X163723976Y-99820500D01*
X163924456Y-99783024D01*
X164114637Y-99709348D01*
X164288041Y-99601981D01*
X164438764Y-99464579D01*
X164561673Y-99301821D01*
X164652582Y-99119250D01*
X164708397Y-98923083D01*
X164727215Y-98720000D01*
X164727215Y-98719999D01*
X165056785Y-98719999D01*
X165056785Y-98720000D01*
X165075602Y-98923082D01*
X165131417Y-99119247D01*
X165131422Y-99119260D01*
X165222327Y-99301821D01*
X165345237Y-99464581D01*
X165472118Y-99580247D01*
X165494334Y-99600500D01*
X165495958Y-99601980D01*
X165495960Y-99601982D01*
X165552224Y-99636819D01*
X165669363Y-99709348D01*
X165859544Y-99783024D01*
X166060024Y-99820500D01*
X166060026Y-99820500D01*
X166263974Y-99820500D01*
X166263976Y-99820500D01*
X166464456Y-99783024D01*
X166654637Y-99709348D01*
X166828041Y-99601981D01*
X166978764Y-99464579D01*
X167101673Y-99301821D01*
X167192582Y-99119250D01*
X167248397Y-98923083D01*
X167267215Y-98720000D01*
X167248397Y-98516917D01*
X167192582Y-98320750D01*
X167182841Y-98301188D01*
X167138521Y-98212181D01*
X167101673Y-98138179D01*
X167012568Y-98020185D01*
X166978762Y-97975418D01*
X166828041Y-97838019D01*
X166828039Y-97838017D01*
X166654642Y-97730655D01*
X166654635Y-97730651D01*
X166559546Y-97693814D01*
X166464456Y-97656976D01*
X166263976Y-97619500D01*
X166060024Y-97619500D01*
X165859544Y-97656976D01*
X165859541Y-97656976D01*
X165859541Y-97656977D01*
X165669364Y-97730651D01*
X165669357Y-97730655D01*
X165495960Y-97838017D01*
X165495958Y-97838019D01*
X165345237Y-97975418D01*
X165222327Y-98138178D01*
X165131422Y-98320739D01*
X165131417Y-98320752D01*
X165075602Y-98516917D01*
X165056785Y-98719999D01*
X164727215Y-98719999D01*
X164708397Y-98516917D01*
X164652582Y-98320750D01*
X164642841Y-98301188D01*
X164598521Y-98212181D01*
X164561673Y-98138179D01*
X164472568Y-98020185D01*
X164438762Y-97975418D01*
X164288041Y-97838019D01*
X164288039Y-97838017D01*
X164114642Y-97730655D01*
X164114635Y-97730651D01*
X164019546Y-97693814D01*
X163924456Y-97656976D01*
X163723976Y-97619500D01*
X163520024Y-97619500D01*
X163319544Y-97656976D01*
X163319541Y-97656976D01*
X163319541Y-97656977D01*
X163129364Y-97730651D01*
X163129357Y-97730655D01*
X162955960Y-97838017D01*
X162955958Y-97838019D01*
X162805237Y-97975419D01*
X162771400Y-98020227D01*
X162715291Y-98061863D01*
X162672446Y-98069500D01*
X162230808Y-98069500D01*
X162163769Y-98049815D01*
X162143127Y-98033181D01*
X160996819Y-96886873D01*
X160963334Y-96825550D01*
X160960500Y-96799192D01*
X160960500Y-96179999D01*
X162516785Y-96179999D01*
X162516785Y-96180000D01*
X162535602Y-96383082D01*
X162591417Y-96579247D01*
X162591422Y-96579260D01*
X162682327Y-96761821D01*
X162805237Y-96924581D01*
X162955958Y-97061980D01*
X162955960Y-97061982D01*
X163033212Y-97109814D01*
X163129363Y-97169348D01*
X163319544Y-97243024D01*
X163520024Y-97280500D01*
X163520026Y-97280500D01*
X163723974Y-97280500D01*
X163723976Y-97280500D01*
X163924456Y-97243024D01*
X164114637Y-97169348D01*
X164288041Y-97061981D01*
X164431820Y-96930909D01*
X164438762Y-96924581D01*
X164438764Y-96924579D01*
X164561673Y-96761821D01*
X164652582Y-96579250D01*
X164708397Y-96383083D01*
X164727215Y-96180000D01*
X164727215Y-96179999D01*
X165056785Y-96179999D01*
X165056785Y-96180000D01*
X165075602Y-96383082D01*
X165131417Y-96579247D01*
X165131422Y-96579260D01*
X165222327Y-96761821D01*
X165345237Y-96924581D01*
X165495958Y-97061980D01*
X165495960Y-97061982D01*
X165573212Y-97109814D01*
X165669363Y-97169348D01*
X165859544Y-97243024D01*
X166060024Y-97280500D01*
X166060026Y-97280500D01*
X166263974Y-97280500D01*
X166263976Y-97280500D01*
X166464456Y-97243024D01*
X166654637Y-97169348D01*
X166828041Y-97061981D01*
X166971820Y-96930909D01*
X166978762Y-96924581D01*
X166978764Y-96924579D01*
X167101673Y-96761821D01*
X167192582Y-96579250D01*
X167248397Y-96383083D01*
X167267215Y-96180000D01*
X167261092Y-96113926D01*
X167248397Y-95976917D01*
X167239255Y-95944788D01*
X167192582Y-95780750D01*
X167192449Y-95780483D01*
X167112807Y-95620539D01*
X167101673Y-95598179D01*
X167008529Y-95474836D01*
X166978762Y-95435418D01*
X166828041Y-95298019D01*
X166828039Y-95298017D01*
X166654642Y-95190655D01*
X166654635Y-95190651D01*
X166503178Y-95131977D01*
X166464456Y-95116976D01*
X166263976Y-95079500D01*
X166060024Y-95079500D01*
X165859544Y-95116976D01*
X165859541Y-95116976D01*
X165859541Y-95116977D01*
X165669364Y-95190651D01*
X165669357Y-95190655D01*
X165495960Y-95298017D01*
X165495958Y-95298019D01*
X165345237Y-95435418D01*
X165222327Y-95598178D01*
X165131422Y-95780739D01*
X165131417Y-95780752D01*
X165075602Y-95976917D01*
X165056785Y-96179999D01*
X164727215Y-96179999D01*
X164721092Y-96113926D01*
X164708397Y-95976917D01*
X164699255Y-95944788D01*
X164652582Y-95780750D01*
X164652449Y-95780483D01*
X164572807Y-95620539D01*
X164561673Y-95598179D01*
X164468529Y-95474836D01*
X164438762Y-95435418D01*
X164288041Y-95298019D01*
X164288039Y-95298017D01*
X164114642Y-95190655D01*
X164114635Y-95190651D01*
X163963178Y-95131977D01*
X163924456Y-95116976D01*
X163723976Y-95079500D01*
X163520024Y-95079500D01*
X163319544Y-95116976D01*
X163319541Y-95116976D01*
X163319541Y-95116977D01*
X163129364Y-95190651D01*
X163129357Y-95190655D01*
X162955960Y-95298017D01*
X162955958Y-95298019D01*
X162805237Y-95435418D01*
X162682327Y-95598178D01*
X162591422Y-95780739D01*
X162591417Y-95780752D01*
X162535602Y-95976917D01*
X162516785Y-96179999D01*
X160960500Y-96179999D01*
X160960500Y-93639999D01*
X162516785Y-93639999D01*
X162516785Y-93640000D01*
X162535602Y-93843082D01*
X162591417Y-94039247D01*
X162591422Y-94039260D01*
X162682327Y-94221821D01*
X162805237Y-94384581D01*
X162955958Y-94521980D01*
X162955960Y-94521982D01*
X162968138Y-94529522D01*
X163129363Y-94629348D01*
X163319544Y-94703024D01*
X163520024Y-94740500D01*
X163520026Y-94740500D01*
X163723974Y-94740500D01*
X163723976Y-94740500D01*
X163924456Y-94703024D01*
X164114637Y-94629348D01*
X164288041Y-94521981D01*
X164438764Y-94384579D01*
X164561673Y-94221821D01*
X164652582Y-94039250D01*
X164708397Y-93843083D01*
X164727215Y-93640000D01*
X164721115Y-93574174D01*
X164708397Y-93436917D01*
X164652582Y-93240750D01*
X164652159Y-93239901D01*
X164602415Y-93140000D01*
X164561673Y-93058179D01*
X164438764Y-92895421D01*
X164438762Y-92895418D01*
X164296106Y-92765371D01*
X165062000Y-92765371D01*
X165062000Y-93490000D01*
X165684555Y-93490000D01*
X165662000Y-93574174D01*
X165662000Y-93705826D01*
X165684555Y-93790000D01*
X165062000Y-93790000D01*
X165062000Y-94514628D01*
X165076503Y-94587540D01*
X165076505Y-94587544D01*
X165131760Y-94670239D01*
X165214455Y-94725494D01*
X165214459Y-94725496D01*
X165287371Y-94739999D01*
X165287374Y-94740000D01*
X166012000Y-94740000D01*
X166012000Y-94117445D01*
X166096174Y-94140000D01*
X166227826Y-94140000D01*
X166312000Y-94117445D01*
X166312000Y-94740000D01*
X167036626Y-94740000D01*
X167036628Y-94739999D01*
X167109540Y-94725496D01*
X167109544Y-94725494D01*
X167192239Y-94670239D01*
X167247494Y-94587544D01*
X167247496Y-94587540D01*
X167261999Y-94514628D01*
X167262000Y-94514626D01*
X167262000Y-93790000D01*
X166639445Y-93790000D01*
X166662000Y-93705826D01*
X166662000Y-93574174D01*
X166639445Y-93490000D01*
X167262000Y-93490000D01*
X167262000Y-92765373D01*
X167261999Y-92765371D01*
X167247496Y-92692459D01*
X167247494Y-92692455D01*
X167192239Y-92609760D01*
X167109544Y-92554505D01*
X167109540Y-92554503D01*
X167036627Y-92540000D01*
X166312000Y-92540000D01*
X166312000Y-93162554D01*
X166227826Y-93140000D01*
X166096174Y-93140000D01*
X166012000Y-93162554D01*
X166012000Y-92540000D01*
X165287373Y-92540000D01*
X165214459Y-92554503D01*
X165214455Y-92554505D01*
X165131760Y-92609760D01*
X165076505Y-92692455D01*
X165076503Y-92692459D01*
X165062000Y-92765371D01*
X164296106Y-92765371D01*
X164288041Y-92758019D01*
X164288039Y-92758017D01*
X164114642Y-92650655D01*
X164114635Y-92650651D01*
X164009082Y-92609760D01*
X163924456Y-92576976D01*
X163723976Y-92539500D01*
X163520024Y-92539500D01*
X163319544Y-92576976D01*
X163319541Y-92576976D01*
X163319541Y-92576977D01*
X163129364Y-92650651D01*
X163129357Y-92650655D01*
X162955960Y-92758017D01*
X162955958Y-92758019D01*
X162805237Y-92895418D01*
X162682327Y-93058178D01*
X162591422Y-93240739D01*
X162591417Y-93240752D01*
X162535602Y-93436917D01*
X162516785Y-93639999D01*
X160960500Y-93639999D01*
X160960500Y-91099999D01*
X162516785Y-91099999D01*
X162516785Y-91100000D01*
X162535602Y-91303082D01*
X162591417Y-91499247D01*
X162591422Y-91499260D01*
X162682327Y-91681821D01*
X162805237Y-91844581D01*
X162955958Y-91981980D01*
X162955960Y-91981982D01*
X163032753Y-92029530D01*
X163129363Y-92089348D01*
X163319544Y-92163024D01*
X163520024Y-92200500D01*
X163520026Y-92200500D01*
X163723974Y-92200500D01*
X163723976Y-92200500D01*
X163924456Y-92163024D01*
X164114637Y-92089348D01*
X164288041Y-91981981D01*
X164438764Y-91844579D01*
X164561673Y-91681821D01*
X164652582Y-91499250D01*
X164708397Y-91303083D01*
X164727215Y-91100000D01*
X164727215Y-91099999D01*
X165056785Y-91099999D01*
X165056785Y-91100000D01*
X165075602Y-91303082D01*
X165131417Y-91499247D01*
X165131422Y-91499260D01*
X165222327Y-91681821D01*
X165345237Y-91844581D01*
X165495958Y-91981980D01*
X165495960Y-91981982D01*
X165572753Y-92029530D01*
X165669363Y-92089348D01*
X165859544Y-92163024D01*
X166060024Y-92200500D01*
X166060026Y-92200500D01*
X166263974Y-92200500D01*
X166263976Y-92200500D01*
X166464456Y-92163024D01*
X166654637Y-92089348D01*
X166828041Y-91981981D01*
X166978764Y-91844579D01*
X167101673Y-91681821D01*
X167192582Y-91499250D01*
X167248397Y-91303083D01*
X167267215Y-91100000D01*
X167253676Y-90953893D01*
X167248397Y-90896917D01*
X167217635Y-90788801D01*
X167192582Y-90700750D01*
X167157223Y-90629740D01*
X167120841Y-90556674D01*
X167101673Y-90518179D01*
X166978764Y-90355421D01*
X166978762Y-90355418D01*
X166828041Y-90218019D01*
X166828039Y-90218017D01*
X166654642Y-90110655D01*
X166654635Y-90110651D01*
X166559546Y-90073814D01*
X166464456Y-90036976D01*
X166263976Y-89999500D01*
X166060024Y-89999500D01*
X165859544Y-90036976D01*
X165859541Y-90036976D01*
X165859541Y-90036977D01*
X165669364Y-90110651D01*
X165669357Y-90110655D01*
X165495960Y-90218017D01*
X165495958Y-90218019D01*
X165345237Y-90355418D01*
X165222327Y-90518178D01*
X165131422Y-90700739D01*
X165131417Y-90700752D01*
X165075602Y-90896917D01*
X165056785Y-91099999D01*
X164727215Y-91099999D01*
X164713676Y-90953893D01*
X164708397Y-90896917D01*
X164677635Y-90788801D01*
X164652582Y-90700750D01*
X164617223Y-90629740D01*
X164580841Y-90556674D01*
X164561673Y-90518179D01*
X164438764Y-90355421D01*
X164438762Y-90355418D01*
X164288041Y-90218019D01*
X164288039Y-90218017D01*
X164114642Y-90110655D01*
X164114635Y-90110651D01*
X164019546Y-90073814D01*
X163924456Y-90036976D01*
X163723976Y-89999500D01*
X163520024Y-89999500D01*
X163319544Y-90036976D01*
X163319541Y-90036976D01*
X163319541Y-90036977D01*
X163129364Y-90110651D01*
X163129357Y-90110655D01*
X162955960Y-90218017D01*
X162955958Y-90218019D01*
X162805237Y-90355418D01*
X162682327Y-90518178D01*
X162591422Y-90700739D01*
X162591417Y-90700752D01*
X162535602Y-90896917D01*
X162516785Y-91099999D01*
X160960500Y-91099999D01*
X160960500Y-87685371D01*
X162522000Y-87685371D01*
X162522000Y-88410000D01*
X163144555Y-88410000D01*
X163122000Y-88494174D01*
X163122000Y-88625826D01*
X163144555Y-88710000D01*
X162522000Y-88710000D01*
X162522000Y-89434628D01*
X162536503Y-89507540D01*
X162536505Y-89507544D01*
X162591760Y-89590239D01*
X162674455Y-89645494D01*
X162674459Y-89645496D01*
X162747371Y-89659999D01*
X162747374Y-89660000D01*
X163472000Y-89660000D01*
X163472000Y-89037445D01*
X163556174Y-89060000D01*
X163687826Y-89060000D01*
X163772000Y-89037445D01*
X163772000Y-89660000D01*
X164496626Y-89660000D01*
X164496628Y-89659999D01*
X164569540Y-89645496D01*
X164569544Y-89645494D01*
X164652239Y-89590239D01*
X164707494Y-89507544D01*
X164707496Y-89507540D01*
X164721999Y-89434628D01*
X164722000Y-89434626D01*
X164722000Y-88710000D01*
X164099445Y-88710000D01*
X164122000Y-88625826D01*
X164122000Y-88559999D01*
X165056785Y-88559999D01*
X165056785Y-88560000D01*
X165075602Y-88763082D01*
X165131417Y-88959247D01*
X165131422Y-88959260D01*
X165222327Y-89141821D01*
X165345237Y-89304581D01*
X165495958Y-89441980D01*
X165495960Y-89441982D01*
X165595141Y-89503392D01*
X165669363Y-89549348D01*
X165859544Y-89623024D01*
X166060024Y-89660500D01*
X166060026Y-89660500D01*
X166263974Y-89660500D01*
X166263976Y-89660500D01*
X166464456Y-89623024D01*
X166654637Y-89549348D01*
X166828041Y-89441981D01*
X166978764Y-89304579D01*
X167101673Y-89141821D01*
X167192582Y-88959250D01*
X167248397Y-88763083D01*
X167267215Y-88560000D01*
X167261115Y-88494174D01*
X167248397Y-88356917D01*
X167192582Y-88160750D01*
X167192159Y-88159901D01*
X167127201Y-88029446D01*
X167101673Y-87978179D01*
X166978764Y-87815421D01*
X166978762Y-87815418D01*
X166828041Y-87678019D01*
X166828039Y-87678017D01*
X166654642Y-87570655D01*
X166654635Y-87570651D01*
X166549082Y-87529760D01*
X166464456Y-87496976D01*
X166263976Y-87459500D01*
X166060024Y-87459500D01*
X165859544Y-87496976D01*
X165859541Y-87496976D01*
X165859541Y-87496977D01*
X165669364Y-87570651D01*
X165669357Y-87570655D01*
X165495960Y-87678017D01*
X165495958Y-87678019D01*
X165345237Y-87815418D01*
X165222327Y-87978178D01*
X165131422Y-88160739D01*
X165131417Y-88160752D01*
X165075602Y-88356917D01*
X165056785Y-88559999D01*
X164122000Y-88559999D01*
X164122000Y-88494174D01*
X164099445Y-88410000D01*
X164722000Y-88410000D01*
X164722000Y-87685373D01*
X164721999Y-87685371D01*
X164707496Y-87612459D01*
X164707494Y-87612455D01*
X164652239Y-87529760D01*
X164569544Y-87474505D01*
X164569540Y-87474503D01*
X164496627Y-87460000D01*
X163772000Y-87460000D01*
X163772000Y-88082554D01*
X163687826Y-88060000D01*
X163556174Y-88060000D01*
X163472000Y-88082554D01*
X163472000Y-87460000D01*
X162747373Y-87460000D01*
X162674459Y-87474503D01*
X162674455Y-87474505D01*
X162591760Y-87529760D01*
X162536505Y-87612455D01*
X162536503Y-87612459D01*
X162522000Y-87685371D01*
X160960500Y-87685371D01*
X160960500Y-86019999D01*
X162516785Y-86019999D01*
X162516785Y-86020000D01*
X162535602Y-86223082D01*
X162591417Y-86419247D01*
X162591422Y-86419260D01*
X162682327Y-86601821D01*
X162805237Y-86764581D01*
X162955958Y-86901980D01*
X162955960Y-86901982D01*
X163055141Y-86963392D01*
X163129363Y-87009348D01*
X163319544Y-87083024D01*
X163520024Y-87120500D01*
X163520026Y-87120500D01*
X163723974Y-87120500D01*
X163723976Y-87120500D01*
X163924456Y-87083024D01*
X164114637Y-87009348D01*
X164288041Y-86901981D01*
X164438764Y-86764579D01*
X164561673Y-86601821D01*
X164652582Y-86419250D01*
X164708397Y-86223083D01*
X164727215Y-86020000D01*
X164727215Y-86019999D01*
X165056785Y-86019999D01*
X165056785Y-86020000D01*
X165075602Y-86223082D01*
X165131417Y-86419247D01*
X165131422Y-86419260D01*
X165222327Y-86601821D01*
X165345237Y-86764581D01*
X165495958Y-86901980D01*
X165495960Y-86901982D01*
X165595141Y-86963392D01*
X165669363Y-87009348D01*
X165859544Y-87083024D01*
X166060024Y-87120500D01*
X166060026Y-87120500D01*
X166263974Y-87120500D01*
X166263976Y-87120500D01*
X166464456Y-87083024D01*
X166654637Y-87009348D01*
X166828041Y-86901981D01*
X166978764Y-86764579D01*
X167101673Y-86601821D01*
X167192582Y-86419250D01*
X167248397Y-86223083D01*
X167267215Y-86020000D01*
X167248397Y-85816917D01*
X167192582Y-85620750D01*
X167101673Y-85438179D01*
X166978764Y-85275421D01*
X166978762Y-85275418D01*
X166828041Y-85138019D01*
X166828039Y-85138017D01*
X166654642Y-85030655D01*
X166654635Y-85030651D01*
X166559546Y-84993814D01*
X166464456Y-84956976D01*
X166263976Y-84919500D01*
X166060024Y-84919500D01*
X165859544Y-84956976D01*
X165859541Y-84956976D01*
X165859541Y-84956977D01*
X165669364Y-85030651D01*
X165669357Y-85030655D01*
X165495960Y-85138017D01*
X165495958Y-85138019D01*
X165345237Y-85275418D01*
X165222327Y-85438178D01*
X165131422Y-85620739D01*
X165131417Y-85620752D01*
X165075602Y-85816917D01*
X165056785Y-86019999D01*
X164727215Y-86019999D01*
X164708397Y-85816917D01*
X164652582Y-85620750D01*
X164561673Y-85438179D01*
X164438764Y-85275421D01*
X164438762Y-85275418D01*
X164288041Y-85138019D01*
X164288039Y-85138017D01*
X164114642Y-85030655D01*
X164114635Y-85030651D01*
X164019546Y-84993814D01*
X163924456Y-84956976D01*
X163723976Y-84919500D01*
X163520024Y-84919500D01*
X163319544Y-84956976D01*
X163319541Y-84956976D01*
X163319541Y-84956977D01*
X163129364Y-85030651D01*
X163129357Y-85030655D01*
X162955960Y-85138017D01*
X162955958Y-85138019D01*
X162805237Y-85275418D01*
X162682327Y-85438178D01*
X162591422Y-85620739D01*
X162591417Y-85620752D01*
X162535602Y-85816917D01*
X162516785Y-86019999D01*
X160960500Y-86019999D01*
X160960500Y-83479999D01*
X162516785Y-83479999D01*
X162516785Y-83480000D01*
X162535602Y-83683082D01*
X162591417Y-83879247D01*
X162591422Y-83879260D01*
X162682327Y-84061821D01*
X162805237Y-84224581D01*
X162955958Y-84361980D01*
X162955960Y-84361982D01*
X163055141Y-84423392D01*
X163129363Y-84469348D01*
X163319544Y-84543024D01*
X163520024Y-84580500D01*
X163520026Y-84580500D01*
X163723974Y-84580500D01*
X163723976Y-84580500D01*
X163924456Y-84543024D01*
X164114637Y-84469348D01*
X164288041Y-84361981D01*
X164438764Y-84224579D01*
X164561673Y-84061821D01*
X164652582Y-83879250D01*
X164708397Y-83683083D01*
X164727215Y-83480000D01*
X164721115Y-83414174D01*
X164708397Y-83276917D01*
X164652582Y-83080750D01*
X164652159Y-83079901D01*
X164602415Y-82980000D01*
X164561673Y-82898179D01*
X164438764Y-82735421D01*
X164438762Y-82735418D01*
X164296106Y-82605371D01*
X165062000Y-82605371D01*
X165062000Y-83330000D01*
X165684555Y-83330000D01*
X165662000Y-83414174D01*
X165662000Y-83545826D01*
X165684555Y-83630000D01*
X165062000Y-83630000D01*
X165062000Y-84354628D01*
X165076503Y-84427540D01*
X165076505Y-84427544D01*
X165131760Y-84510239D01*
X165214455Y-84565494D01*
X165214459Y-84565496D01*
X165287371Y-84579999D01*
X165287374Y-84580000D01*
X166012000Y-84580000D01*
X166012000Y-83957445D01*
X166096174Y-83980000D01*
X166227826Y-83980000D01*
X166312000Y-83957445D01*
X166312000Y-84580000D01*
X167036626Y-84580000D01*
X167036628Y-84579999D01*
X167109540Y-84565496D01*
X167109544Y-84565494D01*
X167192239Y-84510239D01*
X167247494Y-84427544D01*
X167247496Y-84427540D01*
X167261999Y-84354628D01*
X167262000Y-84354626D01*
X167262000Y-83630000D01*
X166639445Y-83630000D01*
X166662000Y-83545826D01*
X166662000Y-83414174D01*
X166639445Y-83330000D01*
X167262000Y-83330000D01*
X167262000Y-82605373D01*
X167261999Y-82605371D01*
X167247496Y-82532459D01*
X167247494Y-82532455D01*
X167192239Y-82449760D01*
X167109544Y-82394505D01*
X167109540Y-82394503D01*
X167036627Y-82380000D01*
X166312000Y-82380000D01*
X166312000Y-83002554D01*
X166227826Y-82980000D01*
X166096174Y-82980000D01*
X166012000Y-83002554D01*
X166012000Y-82380000D01*
X165287373Y-82380000D01*
X165214459Y-82394503D01*
X165214455Y-82394505D01*
X165131760Y-82449760D01*
X165076505Y-82532455D01*
X165076503Y-82532459D01*
X165062000Y-82605371D01*
X164296106Y-82605371D01*
X164288041Y-82598019D01*
X164288039Y-82598017D01*
X164114642Y-82490655D01*
X164114635Y-82490651D01*
X164009082Y-82449760D01*
X163924456Y-82416976D01*
X163723976Y-82379500D01*
X163520024Y-82379500D01*
X163319544Y-82416976D01*
X163319541Y-82416976D01*
X163319541Y-82416977D01*
X163129364Y-82490651D01*
X163129357Y-82490655D01*
X162955960Y-82598017D01*
X162955958Y-82598019D01*
X162805237Y-82735418D01*
X162682327Y-82898178D01*
X162591422Y-83080739D01*
X162591417Y-83080752D01*
X162535602Y-83276917D01*
X162516785Y-83479999D01*
X160960500Y-83479999D01*
X160960500Y-80939999D01*
X162516785Y-80939999D01*
X162516785Y-80940000D01*
X162535602Y-81143082D01*
X162591417Y-81339247D01*
X162591422Y-81339260D01*
X162682327Y-81521821D01*
X162805237Y-81684581D01*
X162955958Y-81821980D01*
X162955960Y-81821982D01*
X163055141Y-81883392D01*
X163129363Y-81929348D01*
X163319544Y-82003024D01*
X163520024Y-82040500D01*
X163520026Y-82040500D01*
X163723974Y-82040500D01*
X163723976Y-82040500D01*
X163924456Y-82003024D01*
X164114637Y-81929348D01*
X164288041Y-81821981D01*
X164438764Y-81684579D01*
X164561673Y-81521821D01*
X164652582Y-81339250D01*
X164708397Y-81143083D01*
X164727215Y-80940000D01*
X164708397Y-80736917D01*
X164652582Y-80540750D01*
X164561673Y-80358179D01*
X164438764Y-80195421D01*
X164438762Y-80195418D01*
X164288041Y-80058019D01*
X164288039Y-80058017D01*
X164114642Y-79950655D01*
X164114639Y-79950653D01*
X164114637Y-79950652D01*
X164114636Y-79950651D01*
X164114635Y-79950651D01*
X163991805Y-79903067D01*
X163924456Y-79876976D01*
X163723976Y-79839500D01*
X163520024Y-79839500D01*
X163319544Y-79876976D01*
X163319541Y-79876976D01*
X163319541Y-79876977D01*
X163129364Y-79950651D01*
X163129357Y-79950655D01*
X162955960Y-80058017D01*
X162955958Y-80058019D01*
X162805237Y-80195418D01*
X162682327Y-80358178D01*
X162591422Y-80540739D01*
X162591417Y-80540752D01*
X162535602Y-80736917D01*
X162516785Y-80939999D01*
X160960500Y-80939999D01*
X160960500Y-80030808D01*
X160980185Y-79963769D01*
X160996819Y-79943127D01*
X161853127Y-79086819D01*
X161914450Y-79053334D01*
X161940808Y-79050500D01*
X162672446Y-79050500D01*
X162739485Y-79070185D01*
X162771400Y-79099773D01*
X162805237Y-79144580D01*
X162955958Y-79281980D01*
X162955960Y-79281982D01*
X162977520Y-79295331D01*
X163129363Y-79389348D01*
X163319544Y-79463024D01*
X163520024Y-79500500D01*
X163520026Y-79500500D01*
X163723974Y-79500500D01*
X163723976Y-79500500D01*
X163924456Y-79463024D01*
X164114637Y-79389348D01*
X164288041Y-79281981D01*
X164438764Y-79144579D01*
X164561673Y-78981821D01*
X164652582Y-78799250D01*
X164708397Y-78603083D01*
X164727215Y-78400000D01*
X164727215Y-78399999D01*
X165056785Y-78399999D01*
X165056785Y-78400000D01*
X165075602Y-78603082D01*
X165131417Y-78799247D01*
X165131422Y-78799260D01*
X165222327Y-78981821D01*
X165345237Y-79144581D01*
X165495958Y-79281980D01*
X165495960Y-79281982D01*
X165517520Y-79295331D01*
X165669363Y-79389348D01*
X165682290Y-79394356D01*
X165737691Y-79436924D01*
X165761285Y-79502689D01*
X165761500Y-79509983D01*
X165761500Y-79830015D01*
X165741815Y-79897054D01*
X165689011Y-79942809D01*
X165682296Y-79945641D01*
X165669368Y-79950649D01*
X165669359Y-79950653D01*
X165495960Y-80058017D01*
X165495958Y-80058019D01*
X165345237Y-80195418D01*
X165222327Y-80358178D01*
X165131422Y-80540739D01*
X165131417Y-80540752D01*
X165075602Y-80736917D01*
X165056785Y-80939999D01*
X165056785Y-80940000D01*
X165075602Y-81143082D01*
X165131417Y-81339247D01*
X165131422Y-81339260D01*
X165222327Y-81521821D01*
X165345237Y-81684581D01*
X165495958Y-81821980D01*
X165495960Y-81821982D01*
X165595141Y-81883392D01*
X165669363Y-81929348D01*
X165859544Y-82003024D01*
X166060024Y-82040500D01*
X166060026Y-82040500D01*
X166263974Y-82040500D01*
X166263976Y-82040500D01*
X166464456Y-82003024D01*
X166654637Y-81929348D01*
X166828041Y-81821981D01*
X166978764Y-81684579D01*
X167101673Y-81521821D01*
X167192582Y-81339250D01*
X167248397Y-81143083D01*
X167267215Y-80940000D01*
X167248397Y-80736917D01*
X167192582Y-80540750D01*
X167101673Y-80358179D01*
X166978764Y-80195421D01*
X166978762Y-80195418D01*
X166828041Y-80058019D01*
X166828039Y-80058017D01*
X166654640Y-79950653D01*
X166654631Y-79950649D01*
X166641704Y-79945641D01*
X166586303Y-79903067D01*
X166562714Y-79837299D01*
X166562500Y-79830015D01*
X166562500Y-79509983D01*
X166582185Y-79442944D01*
X166634989Y-79397189D01*
X166641682Y-79394366D01*
X166654637Y-79389348D01*
X166828041Y-79281981D01*
X166978764Y-79144579D01*
X167101673Y-78981821D01*
X167192582Y-78799250D01*
X167248397Y-78603083D01*
X167267215Y-78400000D01*
X167248397Y-78196917D01*
X167192582Y-78000750D01*
X167101673Y-77818179D01*
X166978764Y-77655421D01*
X166978762Y-77655418D01*
X166828041Y-77518019D01*
X166828039Y-77518017D01*
X166654642Y-77410655D01*
X166654635Y-77410651D01*
X166559546Y-77373814D01*
X166464456Y-77336976D01*
X166263976Y-77299500D01*
X166060024Y-77299500D01*
X165859544Y-77336976D01*
X165859541Y-77336976D01*
X165859541Y-77336977D01*
X165669364Y-77410651D01*
X165669357Y-77410655D01*
X165495960Y-77518017D01*
X165495958Y-77518019D01*
X165345237Y-77655418D01*
X165222327Y-77818178D01*
X165131422Y-78000739D01*
X165131417Y-78000752D01*
X165075602Y-78196917D01*
X165056785Y-78399999D01*
X164727215Y-78399999D01*
X164708397Y-78196917D01*
X164652582Y-78000750D01*
X164561673Y-77818179D01*
X164438764Y-77655421D01*
X164438762Y-77655418D01*
X164288041Y-77518019D01*
X164288039Y-77518017D01*
X164114642Y-77410655D01*
X164114635Y-77410651D01*
X164019546Y-77373814D01*
X163924456Y-77336976D01*
X163723976Y-77299500D01*
X163520024Y-77299500D01*
X163319544Y-77336976D01*
X163319541Y-77336976D01*
X163319541Y-77336977D01*
X163129364Y-77410651D01*
X163129357Y-77410655D01*
X162955960Y-77518017D01*
X162955958Y-77518019D01*
X162805237Y-77655419D01*
X162771400Y-77700227D01*
X162715291Y-77741863D01*
X162672446Y-77749500D01*
X161555929Y-77749500D01*
X161430261Y-77774497D01*
X161430255Y-77774499D01*
X161311874Y-77823534D01*
X161205326Y-77894726D01*
X159804726Y-79295326D01*
X159741905Y-79389347D01*
X159733533Y-79401876D01*
X159684499Y-79520255D01*
X159684497Y-79520261D01*
X159659500Y-79645928D01*
X159659500Y-85735500D01*
X159639815Y-85802539D01*
X159587011Y-85848294D01*
X159535500Y-85859500D01*
X159035929Y-85859500D01*
X158910261Y-85884497D01*
X158910255Y-85884499D01*
X158791874Y-85933534D01*
X158685326Y-86004726D01*
X157344726Y-87345326D01*
X157273534Y-87451874D01*
X157224499Y-87570255D01*
X157224497Y-87570261D01*
X157199500Y-87695928D01*
X157199500Y-88520737D01*
X157179815Y-88587776D01*
X157156702Y-88614450D01*
X157050922Y-88706107D01*
X157003297Y-88761069D01*
X156925568Y-88882017D01*
X156925566Y-88882022D01*
X156895356Y-88948174D01*
X156854850Y-89086124D01*
X156854847Y-89086136D01*
X156846842Y-89141821D01*
X156844500Y-89158111D01*
X156844500Y-89730000D01*
X156847998Y-89747586D01*
X156859579Y-89805810D01*
X156859579Y-89854190D01*
X156844500Y-89930000D01*
X156844500Y-90501889D01*
X156854847Y-90573863D01*
X156854849Y-90573871D01*
X156895356Y-90711826D01*
X156895710Y-90712601D01*
X156925566Y-90777977D01*
X156925568Y-90777982D01*
X157003297Y-90898930D01*
X157050922Y-90953892D01*
X157156702Y-91045550D01*
X157194477Y-91104327D01*
X157199500Y-91139263D01*
X157199500Y-95553500D01*
X157179815Y-95620539D01*
X157127011Y-95666294D01*
X157075500Y-95677500D01*
X152992879Y-95677500D01*
X152925840Y-95657815D01*
X152880085Y-95605011D01*
X152870141Y-95535853D01*
X152897025Y-95474836D01*
X152929371Y-95435421D01*
X152945936Y-95415237D01*
X153004959Y-95304813D01*
X153039951Y-95239348D01*
X153039951Y-95239347D01*
X153039954Y-95239342D01*
X153097850Y-95048485D01*
X153117399Y-94850000D01*
X153097850Y-94651515D01*
X153039954Y-94460658D01*
X153039951Y-94460654D01*
X153039951Y-94460651D01*
X152945939Y-94284768D01*
X152945937Y-94284766D01*
X152945936Y-94284763D01*
X152872419Y-94195182D01*
X152819410Y-94130589D01*
X152665238Y-94004065D01*
X152665231Y-94004060D01*
X152489348Y-93910048D01*
X152489342Y-93910046D01*
X152298485Y-93852150D01*
X152298483Y-93852149D01*
X152298481Y-93852149D01*
X152100000Y-93832601D01*
X151901518Y-93852149D01*
X151710651Y-93910048D01*
X151534768Y-94004060D01*
X151534761Y-94004065D01*
X151380589Y-94130589D01*
X151254065Y-94284761D01*
X151254060Y-94284768D01*
X151160048Y-94460651D01*
X151102149Y-94651518D01*
X151082601Y-94850000D01*
X151102149Y-95048481D01*
X151102149Y-95048483D01*
X151102150Y-95048485D01*
X151123091Y-95117517D01*
X151160048Y-95239348D01*
X151254060Y-95415231D01*
X151254064Y-95415237D01*
X151302975Y-95474836D01*
X151330287Y-95539146D01*
X151318496Y-95608013D01*
X151271343Y-95659573D01*
X151207121Y-95677500D01*
X147936108Y-95677500D01*
X147808812Y-95711608D01*
X147694686Y-95777500D01*
X147688240Y-95782447D01*
X147686732Y-95780483D01*
X147636358Y-95807990D01*
X147566666Y-95803006D01*
X147522319Y-95774505D01*
X145677316Y-93929502D01*
X145677314Y-93929500D01*
X145620250Y-93896554D01*
X145563187Y-93863608D01*
X145455627Y-93834788D01*
X145435892Y-93829500D01*
X137185892Y-93829500D01*
X137054107Y-93829500D01*
X136969575Y-93852150D01*
X136969574Y-93852149D01*
X136926814Y-93863607D01*
X136812686Y-93929500D01*
X136812683Y-93929502D01*
X136399502Y-94342683D01*
X136399500Y-94342686D01*
X136333608Y-94456812D01*
X136299500Y-94584108D01*
X136299500Y-94614235D01*
X136279815Y-94681274D01*
X136227011Y-94727029D01*
X136218834Y-94730417D01*
X136082669Y-94781203D01*
X136082664Y-94781206D01*
X135967455Y-94867452D01*
X135967452Y-94867455D01*
X135881206Y-94982664D01*
X135881202Y-94982671D01*
X135831110Y-95116977D01*
X135830909Y-95117517D01*
X135824500Y-95177127D01*
X135824500Y-95177134D01*
X135824500Y-95177135D01*
X135824500Y-95947870D01*
X135824501Y-95947876D01*
X135830908Y-96007483D01*
X135881202Y-96142328D01*
X135881206Y-96142335D01*
X135967452Y-96257544D01*
X135967455Y-96257547D01*
X136082664Y-96343793D01*
X136082671Y-96343797D01*
X136217517Y-96394091D01*
X136217516Y-96394091D01*
X136224444Y-96394835D01*
X136277127Y-96400500D01*
X137322872Y-96400499D01*
X137382483Y-96394091D01*
X137517331Y-96343796D01*
X137561189Y-96310963D01*
X137626652Y-96286546D01*
X137694925Y-96301397D01*
X137744331Y-96350801D01*
X137759500Y-96410230D01*
X137759500Y-96790393D01*
X137739815Y-96857432D01*
X137687011Y-96903187D01*
X137617853Y-96913131D01*
X137561189Y-96889660D01*
X137517089Y-96856647D01*
X137517086Y-96856645D01*
X137382379Y-96806403D01*
X137382372Y-96806401D01*
X137322844Y-96800000D01*
X136950000Y-96800000D01*
X136950000Y-97487500D01*
X137770456Y-97487500D01*
X137837495Y-97507185D01*
X137858137Y-97523819D01*
X137910137Y-97575819D01*
X137938153Y-97627127D01*
X137980203Y-97646331D01*
X137986681Y-97652363D01*
X138264788Y-97930470D01*
X138319123Y-97961840D01*
X138342645Y-97975421D01*
X138344712Y-97976614D01*
X138408095Y-97993597D01*
X138467753Y-98029960D01*
X138498283Y-98092807D01*
X138500000Y-98113367D01*
X138500000Y-98144783D01*
X138500002Y-98144808D01*
X138502908Y-98169869D01*
X138502909Y-98169873D01*
X138516174Y-98199916D01*
X138525243Y-98269194D01*
X138516174Y-98300082D01*
X138502910Y-98330122D01*
X138502910Y-98330124D01*
X138500000Y-98355205D01*
X138500000Y-98375500D01*
X138480315Y-98442539D01*
X138427511Y-98488294D01*
X138376000Y-98499500D01*
X137754662Y-98499500D01*
X137687623Y-98479815D01*
X137641868Y-98427011D01*
X137631924Y-98357853D01*
X137655396Y-98301188D01*
X137718352Y-98217089D01*
X137718354Y-98217086D01*
X137768596Y-98082379D01*
X137768598Y-98082372D01*
X137774999Y-98022844D01*
X137775000Y-98022827D01*
X137775000Y-97787500D01*
X135825000Y-97787500D01*
X135825000Y-98022844D01*
X135831401Y-98082372D01*
X135831403Y-98082379D01*
X135881645Y-98217086D01*
X135881647Y-98217089D01*
X135944604Y-98301188D01*
X135969022Y-98366653D01*
X135954171Y-98434926D01*
X135904766Y-98484332D01*
X135845338Y-98499500D01*
X135695173Y-98499500D01*
X135628134Y-98479815D01*
X135607492Y-98463181D01*
X134716819Y-97572508D01*
X134683334Y-97511185D01*
X134680500Y-97484827D01*
X134680500Y-97252155D01*
X135825000Y-97252155D01*
X135825000Y-97487500D01*
X136650000Y-97487500D01*
X136650000Y-96800000D01*
X136277155Y-96800000D01*
X136217627Y-96806401D01*
X136217620Y-96806403D01*
X136082913Y-96856645D01*
X136082906Y-96856649D01*
X135967812Y-96942809D01*
X135967809Y-96942812D01*
X135881649Y-97057906D01*
X135881645Y-97057913D01*
X135831403Y-97192620D01*
X135831401Y-97192627D01*
X135825000Y-97252155D01*
X134680500Y-97252155D01*
X134680500Y-94246544D01*
X134700185Y-94179505D01*
X134716819Y-94158863D01*
X136178863Y-92696819D01*
X136240186Y-92663334D01*
X136266544Y-92660500D01*
X151064961Y-92660500D01*
X151132000Y-92680185D01*
X151174319Y-92726047D01*
X151254059Y-92875231D01*
X151254065Y-92875238D01*
X151380589Y-93029410D01*
X151415645Y-93058179D01*
X151534763Y-93155936D01*
X151534766Y-93155937D01*
X151534768Y-93155939D01*
X151710651Y-93249951D01*
X151710654Y-93249951D01*
X151710658Y-93249954D01*
X151901515Y-93307850D01*
X152100000Y-93327399D01*
X152298485Y-93307850D01*
X152489342Y-93249954D01*
X152506562Y-93240750D01*
X152665231Y-93155939D01*
X152665229Y-93155939D01*
X152665237Y-93155936D01*
X152819410Y-93029410D01*
X152945936Y-92875237D01*
X153004661Y-92765371D01*
X153039951Y-92699348D01*
X153039951Y-92699347D01*
X153039954Y-92699342D01*
X153097850Y-92508485D01*
X153117399Y-92310000D01*
X153097850Y-92111515D01*
X153039954Y-91920658D01*
X153039951Y-91920654D01*
X153039951Y-91920651D01*
X152945939Y-91744768D01*
X152945937Y-91744766D01*
X152945936Y-91744763D01*
X152894281Y-91681821D01*
X152819410Y-91590589D01*
X152665238Y-91464065D01*
X152665231Y-91464060D01*
X152489348Y-91370048D01*
X152489342Y-91370046D01*
X152298485Y-91312150D01*
X152298483Y-91312149D01*
X152298481Y-91312149D01*
X152100000Y-91292601D01*
X151901518Y-91312149D01*
X151710651Y-91370048D01*
X151534768Y-91464060D01*
X151534761Y-91464065D01*
X151380589Y-91590589D01*
X151254065Y-91744761D01*
X151254059Y-91744768D01*
X151174319Y-91893953D01*
X151125357Y-91943798D01*
X151064961Y-91959500D01*
X136023856Y-91959500D01*
X135944385Y-91980794D01*
X135944384Y-91980794D01*
X135934713Y-91983384D01*
X135934713Y-91983385D01*
X135854791Y-92029527D01*
X135854786Y-92029531D01*
X134049529Y-93834788D01*
X134039507Y-93852149D01*
X134032891Y-93863608D01*
X134018138Y-93889160D01*
X134003386Y-93914711D01*
X133979500Y-94003856D01*
X133979500Y-97727515D01*
X133980611Y-97731661D01*
X133998492Y-97798396D01*
X134003384Y-97816654D01*
X134003387Y-97816661D01*
X134049527Y-97896579D01*
X134049531Y-97896584D01*
X134840766Y-98687819D01*
X134874251Y-98749142D01*
X134869267Y-98818834D01*
X134827395Y-98874767D01*
X134761931Y-98899184D01*
X134753085Y-98899500D01*
X133628170Y-98899500D01*
X133539026Y-98923386D01*
X133539023Y-98923387D01*
X133459105Y-98969527D01*
X133459100Y-98969531D01*
X131999532Y-100429099D01*
X131999527Y-100429105D01*
X131958596Y-100500001D01*
X131953389Y-100509018D01*
X131953385Y-100509029D01*
X131929500Y-100598170D01*
X131929500Y-100645343D01*
X131909815Y-100712382D01*
X131871473Y-100750336D01*
X131809113Y-100789520D01*
X131809111Y-100789521D01*
X131689523Y-100909109D01*
X131689518Y-100909115D01*
X131599547Y-101052302D01*
X131599545Y-101052305D01*
X131543685Y-101211943D01*
X131524751Y-101379997D01*
X131524751Y-101380002D01*
X131543685Y-101548056D01*
X131599545Y-101707694D01*
X131599547Y-101707697D01*
X131689518Y-101850884D01*
X131689523Y-101850890D01*
X131809109Y-101970476D01*
X131809115Y-101970481D01*
X131952302Y-102060452D01*
X131952305Y-102060454D01*
X131952309Y-102060455D01*
X131952310Y-102060456D01*
X132010024Y-102080651D01*
X132111943Y-102116314D01*
X132279997Y-102135249D01*
X132280000Y-102135249D01*
X132280003Y-102135249D01*
X132448056Y-102116314D01*
X132479678Y-102105249D01*
X132607690Y-102060456D01*
X132607692Y-102060454D01*
X132607694Y-102060454D01*
X132607697Y-102060452D01*
X132750884Y-101970481D01*
X132750885Y-101970480D01*
X132750890Y-101970477D01*
X132870477Y-101850890D01*
X132884573Y-101828455D01*
X132936904Y-101782166D01*
X133005957Y-101771516D01*
X133069806Y-101799890D01*
X133086513Y-101817115D01*
X133089525Y-101820892D01*
X133209109Y-101940476D01*
X133209115Y-101940481D01*
X133352302Y-102030452D01*
X133352305Y-102030454D01*
X133352309Y-102030455D01*
X133352310Y-102030456D01*
X133365905Y-102035213D01*
X133511943Y-102086314D01*
X133679997Y-102105249D01*
X133680000Y-102105249D01*
X133680003Y-102105249D01*
X133848056Y-102086314D01*
X133921954Y-102060456D01*
X134007690Y-102030456D01*
X134007692Y-102030454D01*
X134007694Y-102030454D01*
X134007697Y-102030452D01*
X134150884Y-101940481D01*
X134150884Y-101940480D01*
X134150890Y-101940477D01*
X134237334Y-101854032D01*
X134298653Y-101820550D01*
X134368345Y-101825534D01*
X134424279Y-101867405D01*
X134430003Y-101875739D01*
X134439519Y-101890884D01*
X134439524Y-101890891D01*
X134559109Y-102010476D01*
X134559115Y-102010481D01*
X134702302Y-102100452D01*
X134702305Y-102100454D01*
X134702309Y-102100455D01*
X134702310Y-102100456D01*
X134716008Y-102105249D01*
X134861943Y-102156314D01*
X135029997Y-102175249D01*
X135030000Y-102175249D01*
X135030003Y-102175249D01*
X135198056Y-102156314D01*
X135198059Y-102156313D01*
X135357690Y-102100456D01*
X135357692Y-102100454D01*
X135357694Y-102100454D01*
X135357697Y-102100452D01*
X135500884Y-102010481D01*
X135500885Y-102010480D01*
X135500890Y-102010477D01*
X135612319Y-101899048D01*
X135673642Y-101865563D01*
X135743334Y-101870547D01*
X135787681Y-101899048D01*
X135899109Y-102010476D01*
X135899115Y-102010481D01*
X136042302Y-102100452D01*
X136042305Y-102100454D01*
X136042309Y-102100455D01*
X136042310Y-102100456D01*
X136056008Y-102105249D01*
X136201943Y-102156314D01*
X136369997Y-102175249D01*
X136370000Y-102175249D01*
X136370003Y-102175249D01*
X136538056Y-102156314D01*
X136538059Y-102156313D01*
X136697690Y-102100456D01*
X136697692Y-102100454D01*
X136697694Y-102100454D01*
X136697697Y-102100452D01*
X136840884Y-102010481D01*
X136840885Y-102010480D01*
X136840890Y-102010477D01*
X136960477Y-101890890D01*
X136969995Y-101875742D01*
X137050452Y-101747697D01*
X137050454Y-101747694D01*
X137050454Y-101747692D01*
X137050456Y-101747690D01*
X137106313Y-101588059D01*
X137106313Y-101588058D01*
X137106314Y-101588056D01*
X137125249Y-101420002D01*
X137125249Y-101419997D01*
X137106314Y-101251943D01*
X137086100Y-101194174D01*
X137050456Y-101092310D01*
X137050454Y-101092307D01*
X137050454Y-101092306D01*
X136986467Y-100990473D01*
X136967466Y-100923236D01*
X136987833Y-100856401D01*
X137041101Y-100811187D01*
X137091460Y-100800500D01*
X139196139Y-100800500D01*
X139196144Y-100800500D01*
X139196148Y-100800498D01*
X139199806Y-100800017D01*
X139202905Y-100800500D01*
X139204271Y-100800500D01*
X139204271Y-100800712D01*
X139268842Y-100810778D01*
X139321101Y-100857154D01*
X139340000Y-100922955D01*
X139340000Y-101350004D01*
X139359408Y-101447574D01*
X139359411Y-101447586D01*
X139375517Y-101486470D01*
X139375521Y-101486478D01*
X139375522Y-101486481D01*
X139430793Y-101569199D01*
X139430799Y-101569205D01*
X139513515Y-101624474D01*
X139513524Y-101624479D01*
X139552422Y-101640590D01*
X139552425Y-101640591D01*
X139649995Y-101659999D01*
X139649999Y-101660000D01*
X139750001Y-101660000D01*
X139750004Y-101659999D01*
X139847574Y-101640591D01*
X139853409Y-101638822D01*
X139853934Y-101640554D01*
X139914932Y-101633987D01*
X139977416Y-101665252D01*
X140013078Y-101725335D01*
X140010596Y-101795161D01*
X139980616Y-101843701D01*
X139569532Y-102254785D01*
X139569528Y-102254791D01*
X139535427Y-102313856D01*
X139535426Y-102313855D01*
X139523389Y-102334705D01*
X139523386Y-102334712D01*
X139499500Y-102423856D01*
X139499500Y-102510468D01*
X139479815Y-102577507D01*
X139427011Y-102623262D01*
X139408532Y-102629597D01*
X139270171Y-102681202D01*
X139270164Y-102681206D01*
X139154955Y-102767452D01*
X139154952Y-102767455D01*
X139068706Y-102882664D01*
X139068702Y-102882671D01*
X139018408Y-103017517D01*
X139012001Y-103077116D01*
X139012001Y-103077123D01*
X139012000Y-103077135D01*
X139012000Y-104079824D01*
X138992315Y-104146863D01*
X138939511Y-104192618D01*
X138870353Y-104202562D01*
X138806797Y-104173537D01*
X138800319Y-104167505D01*
X138332316Y-103699502D01*
X138332314Y-103699500D01*
X138275250Y-103666554D01*
X138218187Y-103633608D01*
X138154539Y-103616554D01*
X138090892Y-103599500D01*
X131995892Y-103599500D01*
X131864107Y-103599500D01*
X131736812Y-103633608D01*
X131622686Y-103699500D01*
X131622683Y-103699502D01*
X130849005Y-104473181D01*
X130787682Y-104506666D01*
X130761324Y-104509500D01*
X130194861Y-104509500D01*
X130127822Y-104489815D01*
X130090307Y-104449161D01*
X130089317Y-104449823D01*
X130085935Y-104444762D01*
X129959410Y-104290589D01*
X129805238Y-104164065D01*
X129805231Y-104164060D01*
X129629348Y-104070048D01*
X129629342Y-104070046D01*
X129438485Y-104012150D01*
X129438483Y-104012149D01*
X129438481Y-104012149D01*
X129240000Y-103992601D01*
X129041518Y-104012149D01*
X128850651Y-104070048D01*
X128674768Y-104164060D01*
X128674761Y-104164065D01*
X128520589Y-104290589D01*
X128394065Y-104444761D01*
X128394060Y-104444768D01*
X128341045Y-104543953D01*
X128292083Y-104593797D01*
X128231687Y-104609500D01*
X126407273Y-104609500D01*
X126305410Y-104636793D01*
X126214087Y-104689520D01*
X126214084Y-104689522D01*
X125590426Y-105313181D01*
X125529103Y-105346666D01*
X125502745Y-105349500D01*
X123722351Y-105349500D01*
X123655312Y-105329815D01*
X123609557Y-105277011D01*
X123599061Y-105238752D01*
X123594091Y-105192516D01*
X123543797Y-105057671D01*
X123543793Y-105057664D01*
X123457547Y-104942455D01*
X123457544Y-104942452D01*
X123342335Y-104856206D01*
X123342328Y-104856202D01*
X123207482Y-104805908D01*
X123207483Y-104805908D01*
X123147883Y-104799501D01*
X123147881Y-104799500D01*
X123147873Y-104799500D01*
X123147864Y-104799500D01*
X122352129Y-104799500D01*
X122352123Y-104799501D01*
X122292516Y-104805908D01*
X122157671Y-104856202D01*
X122157664Y-104856206D01*
X122042455Y-104942452D01*
X122042452Y-104942455D01*
X121956206Y-105057664D01*
X121956202Y-105057671D01*
X121905908Y-105192517D01*
X121899501Y-105252116D01*
X121899501Y-105252123D01*
X121899500Y-105252135D01*
X121899500Y-106247870D01*
X121899501Y-106247876D01*
X121905908Y-106307483D01*
X121956202Y-106442328D01*
X121956206Y-106442335D01*
X122042452Y-106557544D01*
X122042455Y-106557547D01*
X122157664Y-106643793D01*
X122157671Y-106643797D01*
X122292517Y-106694091D01*
X122292516Y-106694091D01*
X122299444Y-106694835D01*
X122352127Y-106700500D01*
X123147872Y-106700499D01*
X123207483Y-106694091D01*
X123342331Y-106643796D01*
X123457546Y-106557546D01*
X123543796Y-106442331D01*
X123594091Y-106307483D01*
X123599062Y-106261242D01*
X123625799Y-106196694D01*
X123683191Y-106156846D01*
X123722351Y-106150500D01*
X125772725Y-106150500D01*
X125772727Y-106150500D01*
X125874588Y-106123207D01*
X125965913Y-106070480D01*
X126589574Y-105446819D01*
X126650897Y-105413334D01*
X126677255Y-105410500D01*
X128231687Y-105410500D01*
X128298726Y-105430185D01*
X128341045Y-105476047D01*
X128394060Y-105575231D01*
X128394065Y-105575238D01*
X128520589Y-105729410D01*
X128596430Y-105791650D01*
X128674763Y-105855936D01*
X128674766Y-105855937D01*
X128674768Y-105855939D01*
X128850651Y-105949951D01*
X128850654Y-105949951D01*
X128850658Y-105949954D01*
X129041515Y-106007850D01*
X129240000Y-106027399D01*
X129438485Y-106007850D01*
X129629342Y-105949954D01*
X129646562Y-105940750D01*
X129805231Y-105855939D01*
X129805229Y-105855939D01*
X129805237Y-105855936D01*
X129959410Y-105729410D01*
X130085936Y-105575237D01*
X130085939Y-105575229D01*
X130089317Y-105570177D01*
X130090495Y-105570964D01*
X130134466Y-105526202D01*
X130194861Y-105510500D01*
X131085890Y-105510500D01*
X131085892Y-105510500D01*
X131213186Y-105476392D01*
X131327314Y-105410500D01*
X132100995Y-104636819D01*
X132162318Y-104603334D01*
X132188676Y-104600500D01*
X133383745Y-104600500D01*
X133450784Y-104620185D01*
X133496539Y-104672989D01*
X133506483Y-104742147D01*
X133477458Y-104805703D01*
X133471426Y-104812181D01*
X132491956Y-105791650D01*
X132430633Y-105825135D01*
X132390391Y-105827189D01*
X132280003Y-105814751D01*
X132279997Y-105814751D01*
X132111943Y-105833685D01*
X131952305Y-105889545D01*
X131952302Y-105889547D01*
X131809115Y-105979518D01*
X131809109Y-105979523D01*
X131689523Y-106099109D01*
X131689518Y-106099115D01*
X131599547Y-106242302D01*
X131599545Y-106242305D01*
X131543685Y-106401943D01*
X131524751Y-106569997D01*
X131524751Y-106570002D01*
X131543685Y-106738056D01*
X131599545Y-106897694D01*
X131599547Y-106897697D01*
X131689518Y-107040884D01*
X131689523Y-107040890D01*
X131809109Y-107160476D01*
X131809115Y-107160481D01*
X131952302Y-107250452D01*
X131952305Y-107250454D01*
X131952309Y-107250455D01*
X131952310Y-107250456D01*
X131983338Y-107261313D01*
X132111943Y-107306314D01*
X132279997Y-107325249D01*
X132280000Y-107325249D01*
X132280003Y-107325249D01*
X132448056Y-107306314D01*
X132486834Y-107292745D01*
X132607690Y-107250456D01*
X132607692Y-107250454D01*
X132607694Y-107250454D01*
X132607697Y-107250452D01*
X132750884Y-107160481D01*
X132750885Y-107160480D01*
X132750890Y-107160477D01*
X132870477Y-107040890D01*
X132870477Y-107040889D01*
X132872319Y-107039048D01*
X132933642Y-107005563D01*
X133003334Y-107010547D01*
X133047681Y-107039048D01*
X133124109Y-107115476D01*
X133124115Y-107115481D01*
X133267302Y-107205452D01*
X133267305Y-107205454D01*
X133267309Y-107205455D01*
X133267310Y-107205456D01*
X133314533Y-107221980D01*
X133426943Y-107261314D01*
X133594997Y-107280249D01*
X133595000Y-107280249D01*
X133595003Y-107280249D01*
X133763056Y-107261314D01*
X133763059Y-107261313D01*
X133922690Y-107205456D01*
X133922692Y-107205454D01*
X133922694Y-107205454D01*
X133922697Y-107205452D01*
X134065884Y-107115481D01*
X134065885Y-107115480D01*
X134065890Y-107115477D01*
X134185477Y-106995890D01*
X134212219Y-106953329D01*
X134264552Y-106907040D01*
X134333606Y-106896391D01*
X134397454Y-106924766D01*
X134422205Y-106953329D01*
X134432678Y-106969997D01*
X134439524Y-106980891D01*
X134559109Y-107100476D01*
X134559115Y-107100481D01*
X134702302Y-107190452D01*
X134702305Y-107190454D01*
X134702309Y-107190455D01*
X134702310Y-107190456D01*
X134745172Y-107205454D01*
X134861943Y-107246314D01*
X135029997Y-107265249D01*
X135030000Y-107265249D01*
X135030003Y-107265249D01*
X135198056Y-107246314D01*
X135267593Y-107221982D01*
X135357690Y-107190456D01*
X135357692Y-107190454D01*
X135357694Y-107190454D01*
X135357697Y-107190452D01*
X135500884Y-107100481D01*
X135500885Y-107100480D01*
X135500890Y-107100477D01*
X135509806Y-107091561D01*
X135571129Y-107058076D01*
X135640821Y-107063060D01*
X135685168Y-107091561D01*
X136254087Y-107660480D01*
X136345412Y-107713207D01*
X136447273Y-107740500D01*
X137349851Y-107740500D01*
X137416890Y-107760185D01*
X137437531Y-107776818D01*
X139833731Y-110173019D01*
X139833732Y-110173020D01*
X140201192Y-110540480D01*
X140292517Y-110593207D01*
X140394378Y-110620500D01*
X140394380Y-110620500D01*
X153799831Y-110620500D01*
X153799833Y-110620500D01*
X153901694Y-110593207D01*
X153993019Y-110540480D01*
X158296680Y-106236819D01*
X158358003Y-106203334D01*
X158384361Y-106200500D01*
X160948771Y-106200500D01*
X161015810Y-106220185D01*
X161061565Y-106272989D01*
X161071509Y-106342147D01*
X161042484Y-106405703D01*
X161036452Y-106412181D01*
X160949523Y-106499109D01*
X160949518Y-106499115D01*
X160859547Y-106642302D01*
X160859545Y-106642305D01*
X160803685Y-106801944D01*
X160791580Y-106909384D01*
X160764513Y-106973798D01*
X160706918Y-107013353D01*
X160668360Y-107019500D01*
X159027273Y-107019500D01*
X158925413Y-107046793D01*
X158925412Y-107046793D01*
X158925410Y-107046794D01*
X158925409Y-107046794D01*
X158859967Y-107084578D01*
X158859966Y-107084578D01*
X158834093Y-107099515D01*
X158834085Y-107099521D01*
X154270426Y-111663181D01*
X154209103Y-111696666D01*
X154182745Y-111699500D01*
X122657255Y-111699500D01*
X122590216Y-111679815D01*
X122569574Y-111663181D01*
X118456393Y-107550000D01*
X128223103Y-107550000D01*
X128242642Y-107748389D01*
X128300510Y-107939151D01*
X128394477Y-108114951D01*
X128394481Y-108114957D01*
X128425325Y-108152541D01*
X128425326Y-108152541D01*
X128836957Y-107740910D01*
X128884311Y-107822930D01*
X128967070Y-107905689D01*
X129049088Y-107953042D01*
X128637456Y-108364673D01*
X128637456Y-108364674D01*
X128675041Y-108395518D01*
X128675043Y-108395520D01*
X128850848Y-108489489D01*
X129041610Y-108547357D01*
X129240000Y-108566896D01*
X129438389Y-108547357D01*
X129629151Y-108489489D01*
X129804951Y-108395523D01*
X129804954Y-108395521D01*
X129842541Y-108364674D01*
X129842541Y-108364673D01*
X129430910Y-107953042D01*
X129512930Y-107905689D01*
X129595689Y-107822930D01*
X129643042Y-107740910D01*
X130054673Y-108152541D01*
X130054674Y-108152541D01*
X130085521Y-108114954D01*
X130085523Y-108114951D01*
X130179489Y-107939151D01*
X130237357Y-107748389D01*
X130256896Y-107550000D01*
X130237357Y-107351610D01*
X130179489Y-107160848D01*
X130085520Y-106985043D01*
X130085518Y-106985041D01*
X130054673Y-106947456D01*
X129643041Y-107359088D01*
X129595689Y-107277070D01*
X129512930Y-107194311D01*
X129430910Y-107146957D01*
X129842541Y-106735326D01*
X129842541Y-106735325D01*
X129804957Y-106704481D01*
X129804951Y-106704477D01*
X129629151Y-106610510D01*
X129438389Y-106552642D01*
X129240000Y-106533103D01*
X129041610Y-106552642D01*
X128850848Y-106610510D01*
X128675044Y-106704479D01*
X128637457Y-106735325D01*
X129049089Y-107146957D01*
X128967070Y-107194311D01*
X128884311Y-107277070D01*
X128836957Y-107359089D01*
X128425325Y-106947457D01*
X128394479Y-106985044D01*
X128300510Y-107160848D01*
X128242642Y-107351610D01*
X128223103Y-107550000D01*
X118456393Y-107550000D01*
X118286819Y-107380426D01*
X118253334Y-107319103D01*
X118250500Y-107292745D01*
X118250500Y-102667255D01*
X118270185Y-102600216D01*
X118286819Y-102579574D01*
X119154574Y-101711819D01*
X119215897Y-101678334D01*
X119242255Y-101675500D01*
X119368263Y-101675500D01*
X119435302Y-101695185D01*
X119479262Y-101744228D01*
X119535327Y-101856821D01*
X119571530Y-101904761D01*
X119658237Y-102019581D01*
X119808958Y-102156980D01*
X119808960Y-102156982D01*
X119890615Y-102207540D01*
X119982363Y-102264348D01*
X120172544Y-102338024D01*
X120373024Y-102375500D01*
X120373026Y-102375500D01*
X120576974Y-102375500D01*
X120576976Y-102375500D01*
X120777456Y-102338024D01*
X120967637Y-102264348D01*
X121141041Y-102156981D01*
X121274620Y-102035208D01*
X121291762Y-102019581D01*
X121298634Y-102010481D01*
X121414673Y-101856821D01*
X121505582Y-101674250D01*
X121561397Y-101478083D01*
X121580215Y-101275000D01*
X121561397Y-101071917D01*
X121505582Y-100875750D01*
X121502694Y-100869951D01*
X121447708Y-100759522D01*
X121414673Y-100693179D01*
X121313733Y-100559513D01*
X121291762Y-100530418D01*
X121141041Y-100393019D01*
X121141039Y-100393017D01*
X120967642Y-100285655D01*
X120967639Y-100285653D01*
X120967637Y-100285652D01*
X120967636Y-100285651D01*
X120967635Y-100285651D01*
X120844805Y-100238067D01*
X120777456Y-100211976D01*
X120576976Y-100174500D01*
X120373024Y-100174500D01*
X120172544Y-100211976D01*
X120172541Y-100211976D01*
X120172541Y-100211977D01*
X119982364Y-100285651D01*
X119982357Y-100285655D01*
X119808960Y-100393017D01*
X119808958Y-100393019D01*
X119658237Y-100530418D01*
X119535326Y-100693180D01*
X119479263Y-100805771D01*
X119431761Y-100857008D01*
X119368263Y-100874500D01*
X118972273Y-100874500D01*
X118870410Y-100901793D01*
X118779087Y-100954520D01*
X118779084Y-100954522D01*
X117962181Y-101771426D01*
X117900858Y-101804911D01*
X117831166Y-101799927D01*
X117775233Y-101758055D01*
X117750816Y-101692591D01*
X117750500Y-101683745D01*
X117750500Y-98217255D01*
X117770185Y-98150216D01*
X117786819Y-98129574D01*
X119162819Y-96753574D01*
X119224142Y-96720089D01*
X119293834Y-96725073D01*
X119349767Y-96766945D01*
X119374184Y-96832409D01*
X119374500Y-96841255D01*
X119374500Y-97069678D01*
X119389032Y-97142735D01*
X119389033Y-97142739D01*
X119389034Y-97142740D01*
X119444399Y-97225601D01*
X119525537Y-97279815D01*
X119527260Y-97280966D01*
X119527264Y-97280967D01*
X119600321Y-97295499D01*
X119600324Y-97295500D01*
X119600326Y-97295500D01*
X121048745Y-97295500D01*
X121115784Y-97315185D01*
X121161539Y-97367989D01*
X121171483Y-97437147D01*
X121142458Y-97500703D01*
X121136439Y-97507167D01*
X121055126Y-97588481D01*
X120974545Y-97669062D01*
X120913222Y-97702546D01*
X120843530Y-97697562D01*
X120842071Y-97697007D01*
X120777461Y-97671977D01*
X120777456Y-97671976D01*
X120576976Y-97634500D01*
X120373024Y-97634500D01*
X120172544Y-97671976D01*
X120172541Y-97671976D01*
X120172541Y-97671977D01*
X119982364Y-97745651D01*
X119982357Y-97745655D01*
X119808960Y-97853017D01*
X119808958Y-97853019D01*
X119658237Y-97990418D01*
X119535327Y-98153178D01*
X119444422Y-98335739D01*
X119444417Y-98335752D01*
X119388602Y-98531917D01*
X119369785Y-98734999D01*
X119369785Y-98735000D01*
X119388602Y-98938082D01*
X119444417Y-99134247D01*
X119444422Y-99134260D01*
X119535327Y-99316821D01*
X119658237Y-99479581D01*
X119808958Y-99616980D01*
X119808960Y-99616982D01*
X119899415Y-99672989D01*
X119982363Y-99724348D01*
X120172544Y-99798024D01*
X120373024Y-99835500D01*
X120373026Y-99835500D01*
X120576974Y-99835500D01*
X120576976Y-99835500D01*
X120777456Y-99798024D01*
X120967637Y-99724348D01*
X121141041Y-99616981D01*
X121291764Y-99479579D01*
X121414673Y-99316821D01*
X121505582Y-99134250D01*
X121561397Y-98938083D01*
X121580215Y-98735000D01*
X121561397Y-98531917D01*
X121511139Y-98355280D01*
X121511725Y-98285416D01*
X121542722Y-98233669D01*
X121945703Y-97830687D01*
X121945708Y-97830684D01*
X121955911Y-97820480D01*
X121955913Y-97820480D01*
X122030480Y-97745913D01*
X122068811Y-97679522D01*
X122068812Y-97679521D01*
X122074850Y-97669062D01*
X122083207Y-97654588D01*
X122110501Y-97552727D01*
X122110501Y-97447273D01*
X122110501Y-97439678D01*
X122110500Y-97439660D01*
X122110500Y-97140430D01*
X122130185Y-97073391D01*
X122182989Y-97027636D01*
X122252147Y-97017692D01*
X122315703Y-97046717D01*
X122318038Y-97048793D01*
X122348958Y-97076980D01*
X122348960Y-97076982D01*
X122401986Y-97109814D01*
X122522363Y-97184348D01*
X122535290Y-97189356D01*
X122590691Y-97231924D01*
X122614285Y-97297689D01*
X122614500Y-97304983D01*
X122614500Y-97625015D01*
X122594815Y-97692054D01*
X122542011Y-97737809D01*
X122535296Y-97740641D01*
X122522368Y-97745649D01*
X122522359Y-97745653D01*
X122348960Y-97853017D01*
X122348958Y-97853019D01*
X122198237Y-97990418D01*
X122075327Y-98153178D01*
X121984422Y-98335739D01*
X121984417Y-98335752D01*
X121928602Y-98531917D01*
X121909785Y-98734999D01*
X121909785Y-98735000D01*
X121928602Y-98938082D01*
X121984417Y-99134247D01*
X121984422Y-99134260D01*
X122075327Y-99316821D01*
X122198237Y-99479581D01*
X122348958Y-99616980D01*
X122348960Y-99616982D01*
X122439415Y-99672989D01*
X122522363Y-99724348D01*
X122535290Y-99729356D01*
X122590691Y-99771924D01*
X122614285Y-99837689D01*
X122614500Y-99844983D01*
X122614500Y-100165015D01*
X122594815Y-100232054D01*
X122542011Y-100277809D01*
X122535296Y-100280641D01*
X122522368Y-100285649D01*
X122522359Y-100285653D01*
X122348960Y-100393017D01*
X122348958Y-100393019D01*
X122198237Y-100530418D01*
X122075327Y-100693178D01*
X121984422Y-100875739D01*
X121984417Y-100875752D01*
X121928602Y-101071917D01*
X121909785Y-101274999D01*
X121909785Y-101275000D01*
X121928602Y-101478082D01*
X121984417Y-101674247D01*
X121984422Y-101674260D01*
X122075327Y-101856821D01*
X122198237Y-102019581D01*
X122348958Y-102156980D01*
X122348960Y-102156982D01*
X122430615Y-102207540D01*
X122522363Y-102264348D01*
X122522864Y-102264542D01*
X122523068Y-102264698D01*
X122527497Y-102266904D01*
X122527065Y-102267770D01*
X122578266Y-102307112D01*
X122601859Y-102372877D01*
X122586152Y-102440959D01*
X122565755Y-102467851D01*
X120429522Y-104604084D01*
X120429518Y-104604090D01*
X120376792Y-104695412D01*
X120376792Y-104695416D01*
X120369800Y-104721508D01*
X120333434Y-104781168D01*
X120293359Y-104805594D01*
X120157671Y-104856202D01*
X120157664Y-104856206D01*
X120042455Y-104942452D01*
X120042452Y-104942455D01*
X119956206Y-105057664D01*
X119956202Y-105057671D01*
X119905908Y-105192517D01*
X119899501Y-105252116D01*
X119899501Y-105252123D01*
X119899500Y-105252135D01*
X119899500Y-106247870D01*
X119899501Y-106247876D01*
X119905908Y-106307483D01*
X119956202Y-106442328D01*
X119956206Y-106442335D01*
X120042452Y-106557544D01*
X120042455Y-106557547D01*
X120157664Y-106643793D01*
X120157671Y-106643797D01*
X120292517Y-106694091D01*
X120292516Y-106694091D01*
X120299444Y-106694835D01*
X120352127Y-106700500D01*
X121147872Y-106700499D01*
X121207483Y-106694091D01*
X121342331Y-106643796D01*
X121457546Y-106557546D01*
X121543796Y-106442331D01*
X121594091Y-106307483D01*
X121600500Y-106247873D01*
X121600499Y-105252128D01*
X121594091Y-105192517D01*
X121543796Y-105057669D01*
X121543795Y-105057668D01*
X121543793Y-105057664D01*
X121457547Y-104942455D01*
X121457544Y-104942452D01*
X121438507Y-104928201D01*
X121396636Y-104872268D01*
X121391652Y-104802576D01*
X121425135Y-104741256D01*
X123250703Y-102915687D01*
X123250708Y-102915684D01*
X123260911Y-102905480D01*
X123260913Y-102905480D01*
X123335480Y-102830913D01*
X123388207Y-102739587D01*
X123388267Y-102739361D01*
X123388911Y-102736964D01*
X123403733Y-102681645D01*
X123415501Y-102637727D01*
X123415501Y-102532273D01*
X123415501Y-102524678D01*
X123415500Y-102524660D01*
X123415500Y-102470000D01*
X128222601Y-102470000D01*
X128242149Y-102668481D01*
X128242149Y-102668483D01*
X128242150Y-102668485D01*
X128272280Y-102767809D01*
X128300048Y-102859348D01*
X128394060Y-103035231D01*
X128394065Y-103035238D01*
X128520589Y-103189410D01*
X128555645Y-103218179D01*
X128674763Y-103315936D01*
X128674766Y-103315937D01*
X128674768Y-103315939D01*
X128850651Y-103409951D01*
X128850654Y-103409951D01*
X128850658Y-103409954D01*
X129041515Y-103467850D01*
X129240000Y-103487399D01*
X129438485Y-103467850D01*
X129629342Y-103409954D01*
X129646562Y-103400750D01*
X129717289Y-103362945D01*
X129805237Y-103315936D01*
X129959410Y-103189410D01*
X130085936Y-103035237D01*
X130132945Y-102947289D01*
X130179951Y-102859348D01*
X130179951Y-102859347D01*
X130179954Y-102859342D01*
X130237850Y-102668485D01*
X130257399Y-102470000D01*
X130237850Y-102271515D01*
X130179954Y-102080658D01*
X130179951Y-102080654D01*
X130179951Y-102080651D01*
X130085939Y-101904768D01*
X130085937Y-101904766D01*
X130085936Y-101904763D01*
X130034281Y-101841821D01*
X129959410Y-101750589D01*
X129817328Y-101633987D01*
X129805237Y-101624064D01*
X129805235Y-101624063D01*
X129805231Y-101624060D01*
X129629348Y-101530048D01*
X129629342Y-101530046D01*
X129438485Y-101472150D01*
X129438483Y-101472149D01*
X129438481Y-101472149D01*
X129240000Y-101452601D01*
X129041518Y-101472149D01*
X128850651Y-101530048D01*
X128674768Y-101624060D01*
X128674761Y-101624065D01*
X128520589Y-101750589D01*
X128394065Y-101904761D01*
X128394060Y-101904768D01*
X128300048Y-102080651D01*
X128242149Y-102271518D01*
X128222601Y-102470000D01*
X123415500Y-102470000D01*
X123415500Y-102384983D01*
X123435185Y-102317944D01*
X123487989Y-102272189D01*
X123494682Y-102269366D01*
X123507637Y-102264348D01*
X123681041Y-102156981D01*
X123814620Y-102035208D01*
X123831762Y-102019581D01*
X123838634Y-102010481D01*
X123954673Y-101856821D01*
X124045582Y-101674250D01*
X124101397Y-101478083D01*
X124120215Y-101275000D01*
X124101397Y-101071917D01*
X124045582Y-100875750D01*
X124042694Y-100869951D01*
X123987708Y-100759522D01*
X123954673Y-100693179D01*
X123853733Y-100559513D01*
X123831762Y-100530418D01*
X123681041Y-100393019D01*
X123681039Y-100393017D01*
X123507640Y-100285653D01*
X123507631Y-100285649D01*
X123494704Y-100280641D01*
X123439303Y-100238067D01*
X123415714Y-100172299D01*
X123415500Y-100165015D01*
X123415500Y-99930000D01*
X128222601Y-99930000D01*
X128242149Y-100128481D01*
X128242149Y-100128483D01*
X128242150Y-100128485D01*
X128297957Y-100312455D01*
X128300048Y-100319348D01*
X128394060Y-100495231D01*
X128394065Y-100495238D01*
X128520589Y-100649410D01*
X128597322Y-100712382D01*
X128674763Y-100775936D01*
X128674766Y-100775937D01*
X128674768Y-100775939D01*
X128850651Y-100869951D01*
X128850654Y-100869951D01*
X128850658Y-100869954D01*
X129041515Y-100927850D01*
X129240000Y-100947399D01*
X129438485Y-100927850D01*
X129629342Y-100869954D01*
X129646562Y-100860750D01*
X129771301Y-100794075D01*
X129805237Y-100775936D01*
X129959410Y-100649410D01*
X130085936Y-100495237D01*
X130137796Y-100398214D01*
X130179951Y-100319348D01*
X130179951Y-100319347D01*
X130179954Y-100319342D01*
X130237850Y-100128485D01*
X130257399Y-99930000D01*
X130237850Y-99731515D01*
X130179954Y-99540658D01*
X130179951Y-99540654D01*
X130179951Y-99540651D01*
X130085939Y-99364768D01*
X130085937Y-99364766D01*
X130085936Y-99364763D01*
X130029646Y-99296173D01*
X129959410Y-99210589D01*
X129805238Y-99084065D01*
X129805231Y-99084060D01*
X129629348Y-98990048D01*
X129629342Y-98990046D01*
X129438485Y-98932150D01*
X129438483Y-98932149D01*
X129438481Y-98932149D01*
X129240000Y-98912601D01*
X129041518Y-98932149D01*
X128850651Y-98990048D01*
X128674768Y-99084060D01*
X128674761Y-99084065D01*
X128520589Y-99210589D01*
X128394065Y-99364761D01*
X128394060Y-99364768D01*
X128300048Y-99540651D01*
X128242149Y-99731518D01*
X128222601Y-99930000D01*
X123415500Y-99930000D01*
X123415500Y-99844983D01*
X123435185Y-99777944D01*
X123487989Y-99732189D01*
X123494682Y-99729366D01*
X123507637Y-99724348D01*
X123681041Y-99616981D01*
X123831764Y-99479579D01*
X123954673Y-99316821D01*
X124045582Y-99134250D01*
X124101397Y-98938083D01*
X124120215Y-98735000D01*
X124101397Y-98531917D01*
X124045582Y-98335750D01*
X124042783Y-98330129D01*
X123977738Y-98199500D01*
X123954673Y-98153179D01*
X123864055Y-98033181D01*
X123831762Y-97990418D01*
X123681041Y-97853019D01*
X123681039Y-97853017D01*
X123507640Y-97745653D01*
X123507631Y-97745649D01*
X123494704Y-97740641D01*
X123439303Y-97698067D01*
X123415714Y-97632299D01*
X123415500Y-97625015D01*
X123415500Y-97390000D01*
X128222601Y-97390000D01*
X128242149Y-97588481D01*
X128242149Y-97588483D01*
X128242150Y-97588485D01*
X128300046Y-97779342D01*
X128300048Y-97779348D01*
X128394060Y-97955231D01*
X128394065Y-97955238D01*
X128520589Y-98109410D01*
X128594267Y-98169875D01*
X128674763Y-98235936D01*
X128674766Y-98235937D01*
X128674768Y-98235939D01*
X128850651Y-98329951D01*
X128850654Y-98329951D01*
X128850658Y-98329954D01*
X129041515Y-98387850D01*
X129240000Y-98407399D01*
X129438485Y-98387850D01*
X129629342Y-98329954D01*
X129646562Y-98320750D01*
X129743016Y-98269194D01*
X129805237Y-98235936D01*
X129959410Y-98109410D01*
X130085936Y-97955237D01*
X130140574Y-97853017D01*
X130179951Y-97779348D01*
X130179951Y-97779347D01*
X130179954Y-97779342D01*
X130237850Y-97588485D01*
X130257399Y-97390000D01*
X130237850Y-97191515D01*
X130179954Y-97000658D01*
X130179951Y-97000654D01*
X130179951Y-97000651D01*
X130085939Y-96824768D01*
X130085937Y-96824766D01*
X130085936Y-96824763D01*
X130038486Y-96766945D01*
X129959410Y-96670589D01*
X129826036Y-96561133D01*
X129805237Y-96544064D01*
X129805235Y-96544063D01*
X129805231Y-96544060D01*
X129629348Y-96450048D01*
X129629342Y-96450046D01*
X129438485Y-96392150D01*
X129438483Y-96392149D01*
X129438481Y-96392149D01*
X129240000Y-96372601D01*
X129041518Y-96392149D01*
X128850651Y-96450048D01*
X128674768Y-96544060D01*
X128674761Y-96544065D01*
X128520589Y-96670589D01*
X128394065Y-96824761D01*
X128394060Y-96824768D01*
X128300048Y-97000651D01*
X128242149Y-97191518D01*
X128222601Y-97390000D01*
X123415500Y-97390000D01*
X123415500Y-97304983D01*
X123435185Y-97237944D01*
X123487989Y-97192189D01*
X123494682Y-97189366D01*
X123507637Y-97184348D01*
X123681041Y-97076981D01*
X123831764Y-96939579D01*
X123954673Y-96776821D01*
X124010737Y-96664228D01*
X124058239Y-96612992D01*
X124121737Y-96595500D01*
X125357725Y-96595500D01*
X125357727Y-96595500D01*
X125459588Y-96568207D01*
X125550913Y-96515480D01*
X126779574Y-95286819D01*
X126840897Y-95253334D01*
X126867255Y-95250500D01*
X128231687Y-95250500D01*
X128298726Y-95270185D01*
X128341045Y-95316047D01*
X128394060Y-95415231D01*
X128394065Y-95415238D01*
X128520589Y-95569410D01*
X128573924Y-95613180D01*
X128674763Y-95695936D01*
X128674766Y-95695937D01*
X128674768Y-95695939D01*
X128850651Y-95789951D01*
X128850654Y-95789951D01*
X128850658Y-95789954D01*
X129041515Y-95847850D01*
X129240000Y-95867399D01*
X129438485Y-95847850D01*
X129629342Y-95789954D01*
X129646562Y-95780750D01*
X129805231Y-95695939D01*
X129805229Y-95695939D01*
X129805237Y-95695936D01*
X129959410Y-95569410D01*
X130085936Y-95415237D01*
X130144959Y-95304813D01*
X130179951Y-95239348D01*
X130179951Y-95239347D01*
X130179954Y-95239342D01*
X130237850Y-95048485D01*
X130257399Y-94850000D01*
X130237850Y-94651515D01*
X130179954Y-94460658D01*
X130179951Y-94460654D01*
X130179951Y-94460651D01*
X130085939Y-94284768D01*
X130085937Y-94284766D01*
X130085936Y-94284763D01*
X130012419Y-94195182D01*
X129959410Y-94130589D01*
X129805238Y-94004065D01*
X129805231Y-94004060D01*
X129629348Y-93910048D01*
X129629342Y-93910046D01*
X129438485Y-93852150D01*
X129438483Y-93852149D01*
X129438481Y-93852149D01*
X129240000Y-93832601D01*
X129041518Y-93852149D01*
X128850651Y-93910048D01*
X128674768Y-94004060D01*
X128674761Y-94004065D01*
X128520589Y-94130589D01*
X128394065Y-94284761D01*
X128394060Y-94284768D01*
X128341045Y-94383953D01*
X128292083Y-94433797D01*
X128231687Y-94449500D01*
X126597273Y-94449500D01*
X126495410Y-94476793D01*
X126404087Y-94529520D01*
X126404084Y-94529522D01*
X125175426Y-95758181D01*
X125114103Y-95791666D01*
X125087745Y-95794500D01*
X124121737Y-95794500D01*
X124054698Y-95774815D01*
X124010737Y-95725771D01*
X124003685Y-95711608D01*
X123954673Y-95613179D01*
X123831764Y-95450421D01*
X123831762Y-95450418D01*
X123681041Y-95313019D01*
X123681039Y-95313017D01*
X123507642Y-95205655D01*
X123507635Y-95205651D01*
X123412546Y-95168814D01*
X123317456Y-95131976D01*
X123116976Y-95094500D01*
X122913024Y-95094500D01*
X122712544Y-95131976D01*
X122712541Y-95131976D01*
X122712541Y-95131977D01*
X122522364Y-95205651D01*
X122522357Y-95205655D01*
X122348960Y-95313017D01*
X122348958Y-95313019D01*
X122318037Y-95341207D01*
X122255233Y-95371824D01*
X122185846Y-95363625D01*
X122131906Y-95319214D01*
X122110539Y-95252692D01*
X122110500Y-95249569D01*
X122110500Y-95192729D01*
X122110501Y-95192716D01*
X122110501Y-95077276D01*
X122110501Y-95077274D01*
X122083207Y-94975413D01*
X122030480Y-94884087D01*
X121955913Y-94809520D01*
X121955911Y-94809518D01*
X121695913Y-94549520D01*
X121648216Y-94521982D01*
X121604589Y-94496793D01*
X121529945Y-94476793D01*
X121502727Y-94469500D01*
X118912727Y-94469500D01*
X118807273Y-94469500D01*
X118705410Y-94496793D01*
X118614087Y-94549520D01*
X118614084Y-94549522D01*
X116529522Y-96634084D01*
X116529518Y-96634090D01*
X116476792Y-96725413D01*
X116476791Y-96725414D01*
X116466735Y-96762949D01*
X116449500Y-96827271D01*
X116449500Y-96827273D01*
X116449500Y-107871485D01*
X116449500Y-107976939D01*
X116455148Y-107998017D01*
X116476793Y-108078801D01*
X116497665Y-108114951D01*
X116529520Y-108170125D01*
X116529522Y-108170127D01*
X121647214Y-113287819D01*
X121680699Y-113349142D01*
X121675715Y-113418834D01*
X121633843Y-113474767D01*
X121568379Y-113499184D01*
X121559533Y-113499500D01*
X116381903Y-113499500D01*
X116148631Y-113536446D01*
X115924003Y-113609433D01*
X115713566Y-113716657D01*
X115658154Y-113756917D01*
X115522490Y-113855483D01*
X115522488Y-113855485D01*
X115522487Y-113855485D01*
X115355485Y-114022487D01*
X115355485Y-114022488D01*
X115355483Y-114022490D01*
X115295862Y-114104550D01*
X115216657Y-114213566D01*
X115109433Y-114424003D01*
X115036446Y-114648631D01*
X114999500Y-114881902D01*
X113000500Y-114881902D01*
X113000500Y-92310000D01*
X128222601Y-92310000D01*
X128242149Y-92508481D01*
X128242149Y-92508483D01*
X128242150Y-92508485D01*
X128289123Y-92663334D01*
X128300048Y-92699348D01*
X128394060Y-92875231D01*
X128394065Y-92875238D01*
X128520589Y-93029410D01*
X128555645Y-93058179D01*
X128674763Y-93155936D01*
X128674766Y-93155937D01*
X128674768Y-93155939D01*
X128850651Y-93249951D01*
X128850654Y-93249951D01*
X128850658Y-93249954D01*
X129041515Y-93307850D01*
X129240000Y-93327399D01*
X129438485Y-93307850D01*
X129629342Y-93249954D01*
X129646562Y-93240750D01*
X129805231Y-93155939D01*
X129805229Y-93155939D01*
X129805237Y-93155936D01*
X129959410Y-93029410D01*
X130085936Y-92875237D01*
X130144661Y-92765371D01*
X130179951Y-92699348D01*
X130179951Y-92699347D01*
X130179954Y-92699342D01*
X130237850Y-92508485D01*
X130257399Y-92310000D01*
X130237850Y-92111515D01*
X130179954Y-91920658D01*
X130179951Y-91920654D01*
X130179951Y-91920651D01*
X130085939Y-91744768D01*
X130085937Y-91744766D01*
X130085936Y-91744763D01*
X130034281Y-91681821D01*
X129959410Y-91590589D01*
X129805238Y-91464065D01*
X129805231Y-91464060D01*
X129629348Y-91370048D01*
X129629342Y-91370046D01*
X129438485Y-91312150D01*
X129438483Y-91312149D01*
X129438481Y-91312149D01*
X129240000Y-91292601D01*
X129041518Y-91312149D01*
X128850651Y-91370048D01*
X128674768Y-91464060D01*
X128674761Y-91464065D01*
X128520589Y-91590589D01*
X128394065Y-91744761D01*
X128394060Y-91744768D01*
X128300048Y-91920651D01*
X128242149Y-92111518D01*
X128222601Y-92310000D01*
X113000500Y-92310000D01*
X113000500Y-88907121D01*
X128151300Y-88907121D01*
X128151300Y-90632878D01*
X128165832Y-90705935D01*
X128165833Y-90705939D01*
X128184205Y-90733435D01*
X128221199Y-90788801D01*
X128304060Y-90844166D01*
X128304064Y-90844167D01*
X128377121Y-90858699D01*
X128377124Y-90858700D01*
X128377126Y-90858700D01*
X130102876Y-90858700D01*
X130102877Y-90858699D01*
X130175940Y-90844166D01*
X130258801Y-90788801D01*
X130314166Y-90705940D01*
X130328700Y-90632874D01*
X130328700Y-88983321D01*
X151087500Y-88983321D01*
X151087500Y-90556678D01*
X151102032Y-90629735D01*
X151102033Y-90629739D01*
X151120405Y-90657235D01*
X151157399Y-90712601D01*
X151240260Y-90767966D01*
X151240264Y-90767967D01*
X151313321Y-90782499D01*
X151313324Y-90782500D01*
X151313326Y-90782500D01*
X152886676Y-90782500D01*
X152886677Y-90782499D01*
X152959740Y-90767966D01*
X153042601Y-90712601D01*
X153097966Y-90629740D01*
X153112500Y-90556674D01*
X153112500Y-88983326D01*
X153112500Y-88983323D01*
X153112499Y-88983321D01*
X153097967Y-88910264D01*
X153097966Y-88910260D01*
X153079095Y-88882017D01*
X153042601Y-88827399D01*
X152959740Y-88772034D01*
X152959739Y-88772033D01*
X152959735Y-88772032D01*
X152886677Y-88757500D01*
X152886674Y-88757500D01*
X151313326Y-88757500D01*
X151313323Y-88757500D01*
X151240264Y-88772032D01*
X151240260Y-88772033D01*
X151157399Y-88827399D01*
X151102033Y-88910260D01*
X151102032Y-88910264D01*
X151087500Y-88983321D01*
X130328700Y-88983321D01*
X130328700Y-88907126D01*
X130328700Y-88907123D01*
X130328699Y-88907121D01*
X130314167Y-88834064D01*
X130314166Y-88834060D01*
X130272722Y-88772034D01*
X130258801Y-88751199D01*
X130175940Y-88695834D01*
X130175939Y-88695833D01*
X130175935Y-88695832D01*
X130102877Y-88681300D01*
X130102874Y-88681300D01*
X128377126Y-88681300D01*
X128377123Y-88681300D01*
X128304064Y-88695832D01*
X128304060Y-88695833D01*
X128221199Y-88751199D01*
X128165833Y-88834060D01*
X128165832Y-88834064D01*
X128151300Y-88907121D01*
X113000500Y-88907121D01*
X113000500Y-73372070D01*
X114374500Y-73372070D01*
X114374500Y-73627929D01*
X114414526Y-73880640D01*
X114493588Y-74123972D01*
X114493589Y-74123975D01*
X114572533Y-74278910D01*
X114593352Y-74319769D01*
X114609750Y-74351950D01*
X114760132Y-74558935D01*
X114760136Y-74558940D01*
X114941059Y-74739863D01*
X114941064Y-74739867D01*
X115121607Y-74871038D01*
X115148053Y-74890252D01*
X115297080Y-74966185D01*
X115376024Y-75006410D01*
X115376027Y-75006411D01*
X115497693Y-75045942D01*
X115619361Y-75085474D01*
X115872070Y-75125500D01*
X115872071Y-75125500D01*
X116127929Y-75125500D01*
X116127930Y-75125500D01*
X116380639Y-75085474D01*
X116623975Y-75006410D01*
X116851947Y-74890252D01*
X117058942Y-74739862D01*
X117239862Y-74558942D01*
X117390252Y-74351947D01*
X117506410Y-74123975D01*
X117585474Y-73880639D01*
X117625500Y-73627930D01*
X117625500Y-73372070D01*
X117585474Y-73119361D01*
X117506410Y-72876025D01*
X117506410Y-72876024D01*
X117466185Y-72797080D01*
X117390252Y-72648053D01*
X117371038Y-72621607D01*
X117239867Y-72441064D01*
X117239863Y-72441059D01*
X117058940Y-72260136D01*
X117058935Y-72260132D01*
X116851950Y-72109750D01*
X116851949Y-72109749D01*
X116851947Y-72109748D01*
X116778910Y-72072533D01*
X116623975Y-71993589D01*
X116623972Y-71993588D01*
X116380640Y-71914526D01*
X116254284Y-71894513D01*
X116127930Y-71874500D01*
X115872070Y-71874500D01*
X115787833Y-71887842D01*
X115619359Y-71914526D01*
X115376027Y-71993588D01*
X115376024Y-71993589D01*
X115148049Y-72109750D01*
X114941064Y-72260132D01*
X114941059Y-72260136D01*
X114760136Y-72441059D01*
X114760132Y-72441064D01*
X114609750Y-72648049D01*
X114493589Y-72876024D01*
X114493588Y-72876027D01*
X114414526Y-73119359D01*
X114374500Y-73372070D01*
X113000500Y-73372070D01*
X113000500Y-73003749D01*
X113000726Y-72996262D01*
X113018271Y-72706205D01*
X113020076Y-72691340D01*
X113028010Y-72648049D01*
X113071780Y-72409197D01*
X113075364Y-72394663D01*
X113117284Y-72260138D01*
X113160696Y-72120822D01*
X113165998Y-72106841D01*
X113283731Y-71845249D01*
X113290676Y-71832016D01*
X113439080Y-71586526D01*
X113447567Y-71574230D01*
X113624480Y-71348417D01*
X113634395Y-71337226D01*
X113837226Y-71134395D01*
X113848417Y-71124480D01*
X114074230Y-70947567D01*
X114086526Y-70939080D01*
X114332016Y-70790676D01*
X114345249Y-70783731D01*
X114606841Y-70665998D01*
X114620822Y-70660696D01*
X114894668Y-70575362D01*
X114909197Y-70571780D01*
X115191344Y-70520075D01*
X115206201Y-70518271D01*
X115496264Y-70500726D01*
X115503751Y-70500500D01*
X115565892Y-70500500D01*
X130934108Y-70500500D01*
X130993038Y-70500500D01*
X131006922Y-70501280D01*
G37*
%TD.AperFunction*%
%TD*%
M02*
