%TF.GenerationSoftware,KiCad,Pcbnew,8.0.7+1*%
%TF.CreationDate,2025-02-19T14:48:18+01:00*%
%TF.ProjectId,ts15-rpi-shield,74733135-2d72-4706-992d-736869656c64,rev?*%
%TF.SameCoordinates,Original*%
%TF.FileFunction,Paste,Top*%
%TF.FilePolarity,Positive*%
%FSLAX46Y46*%
G04 Gerber Fmt 4.6, Leading zero omitted, Abs format (unit mm)*
G04 Created by KiCad (PCBNEW 8.0.7+1) date 2025-02-19 14:48:18*
%MOMM*%
%LPD*%
G01*
G04 APERTURE LIST*
G04 Aperture macros list*
%AMRoundRect*
0 Rectangle with rounded corners*
0 $1 Rounding radius*
0 $2 $3 $4 $5 $6 $7 $8 $9 X,Y pos of 4 corners*
0 Add a 4 corners polygon primitive as box body*
4,1,4,$2,$3,$4,$5,$6,$7,$8,$9,$2,$3,0*
0 Add four circle primitives for the rounded corners*
1,1,$1+$1,$2,$3*
1,1,$1+$1,$4,$5*
1,1,$1+$1,$6,$7*
1,1,$1+$1,$8,$9*
0 Add four rect primitives between the rounded corners*
20,1,$1+$1,$2,$3,$4,$5,0*
20,1,$1+$1,$4,$5,$6,$7,0*
20,1,$1+$1,$6,$7,$8,$9,0*
20,1,$1+$1,$8,$9,$2,$3,0*%
%AMFreePoly0*
4,1,14,0.314644,0.085355,0.385355,0.014644,0.400000,-0.020711,0.400000,-0.050000,0.385355,-0.085355,0.350000,-0.100000,-0.350000,-0.100000,-0.385355,-0.085355,-0.400000,-0.050000,-0.400000,0.050000,-0.385355,0.085355,-0.350000,0.100000,0.279289,0.100000,0.314644,0.085355,0.314644,0.085355,$1*%
%AMFreePoly1*
4,1,14,0.385355,0.085355,0.400000,0.050000,0.400000,0.020711,0.385355,-0.014644,0.314644,-0.085355,0.279289,-0.100000,-0.350000,-0.100000,-0.385355,-0.085355,-0.400000,-0.050000,-0.400000,0.050000,-0.385355,0.085355,-0.350000,0.100000,0.350000,0.100000,0.385355,0.085355,0.385355,0.085355,$1*%
%AMFreePoly2*
4,1,14,0.085355,0.385355,0.100000,0.350000,0.100000,-0.350000,0.085355,-0.385355,0.050000,-0.400000,-0.050000,-0.400000,-0.085355,-0.385355,-0.100000,-0.350000,-0.100000,0.279289,-0.085355,0.314644,-0.014644,0.385355,0.020711,0.400000,0.050000,0.400000,0.085355,0.385355,0.085355,0.385355,$1*%
%AMFreePoly3*
4,1,14,0.014644,0.385355,0.085355,0.314644,0.100000,0.279289,0.100000,-0.350000,0.085355,-0.385355,0.050000,-0.400000,-0.050000,-0.400000,-0.085355,-0.385355,-0.100000,-0.350000,-0.100000,0.350000,-0.085355,0.385355,-0.050000,0.400000,-0.020711,0.400000,0.014644,0.385355,0.014644,0.385355,$1*%
%AMFreePoly4*
4,1,14,0.385355,0.085355,0.400000,0.050000,0.400000,-0.050000,0.385355,-0.085355,0.350000,-0.100000,-0.279289,-0.100000,-0.314644,-0.085355,-0.385355,-0.014644,-0.400000,0.020711,-0.400000,0.050000,-0.385355,0.085355,-0.350000,0.100000,0.350000,0.100000,0.385355,0.085355,0.385355,0.085355,$1*%
%AMFreePoly5*
4,1,14,0.385355,0.085355,0.400000,0.050000,0.400000,-0.050000,0.385355,-0.085355,0.350000,-0.100000,-0.350000,-0.100000,-0.385355,-0.085355,-0.400000,-0.050000,-0.400000,-0.020711,-0.385355,0.014644,-0.314644,0.085355,-0.279289,0.100000,0.350000,0.100000,0.385355,0.085355,0.385355,0.085355,$1*%
%AMFreePoly6*
4,1,14,0.085355,0.385355,0.100000,0.350000,0.100000,-0.279289,0.085355,-0.314644,0.014644,-0.385355,-0.020711,-0.400000,-0.050000,-0.400000,-0.085355,-0.385355,-0.100000,-0.350000,-0.100000,0.350000,-0.085355,0.385355,-0.050000,0.400000,0.050000,0.400000,0.085355,0.385355,0.085355,0.385355,$1*%
%AMFreePoly7*
4,1,14,0.085355,0.385355,0.100000,0.350000,0.100000,-0.350000,0.085355,-0.385355,0.050000,-0.400000,0.020711,-0.400000,-0.014644,-0.385355,-0.085355,-0.314644,-0.100000,-0.279289,-0.100000,0.350000,-0.085355,0.385355,-0.050000,0.400000,0.050000,0.400000,0.085355,0.385355,0.085355,0.385355,$1*%
G04 Aperture macros list end*
%ADD10RoundRect,0.250000X0.475000X-0.337500X0.475000X0.337500X-0.475000X0.337500X-0.475000X-0.337500X0*%
%ADD11RoundRect,0.250000X0.337500X0.475000X-0.337500X0.475000X-0.337500X-0.475000X0.337500X-0.475000X0*%
%ADD12RoundRect,0.250000X-0.350000X-0.450000X0.350000X-0.450000X0.350000X0.450000X-0.350000X0.450000X0*%
%ADD13RoundRect,0.243750X-0.243750X-0.456250X0.243750X-0.456250X0.243750X0.456250X-0.243750X0.456250X0*%
%ADD14RoundRect,0.250000X-0.285000X-0.285000X0.285000X-0.285000X0.285000X0.285000X-0.285000X0.285000X0*%
%ADD15FreePoly0,0.000000*%
%ADD16RoundRect,0.050000X-0.350000X-0.050000X0.350000X-0.050000X0.350000X0.050000X-0.350000X0.050000X0*%
%ADD17FreePoly1,0.000000*%
%ADD18FreePoly2,0.000000*%
%ADD19RoundRect,0.050000X-0.050000X-0.350000X0.050000X-0.350000X0.050000X0.350000X-0.050000X0.350000X0*%
%ADD20FreePoly3,0.000000*%
%ADD21FreePoly4,0.000000*%
%ADD22FreePoly5,0.000000*%
%ADD23FreePoly6,0.000000*%
%ADD24FreePoly7,0.000000*%
G04 APERTURE END LIST*
D10*
%TO.C,C3*%
X146100000Y-99837500D03*
X146100000Y-97762500D03*
%TD*%
%TO.C,C2*%
X136800000Y-97637500D03*
X136800000Y-95562500D03*
%TD*%
D11*
%TO.C,C1*%
X141925000Y-103600000D03*
X139850000Y-103600000D03*
%TD*%
D12*
%TO.C,R3*%
X120750000Y-105750000D03*
X122750000Y-105750000D03*
%TD*%
%TO.C,R1*%
X157500000Y-117250000D03*
X159500000Y-117250000D03*
%TD*%
D13*
%TO.C,D1*%
X139562500Y-117250000D03*
X141437500Y-117250000D03*
%TD*%
D12*
%TO.C,R2*%
X157500000Y-113500000D03*
X159500000Y-113500000D03*
%TD*%
D14*
%TO.C,IC1*%
X140440000Y-98390000D03*
X140440000Y-99710000D03*
X141760000Y-98390000D03*
X141760000Y-99710000D03*
D15*
X139150000Y-97650000D03*
D16*
X139150000Y-98050000D03*
X139150000Y-98450000D03*
X139150000Y-98850000D03*
X139150000Y-99250000D03*
X139150000Y-99650000D03*
X139150000Y-100050000D03*
D17*
X139150000Y-100450000D03*
D18*
X139700000Y-101000000D03*
D19*
X140100000Y-101000000D03*
X140500000Y-101000000D03*
X140900000Y-101000000D03*
X141300000Y-101000000D03*
X141700000Y-101000000D03*
X142100000Y-101000000D03*
D20*
X142500000Y-101000000D03*
D21*
X143050000Y-100450000D03*
D16*
X143050000Y-100050000D03*
X143050000Y-99650000D03*
X143050000Y-99250000D03*
X143050000Y-98850000D03*
X143050000Y-98450000D03*
X143050000Y-98050000D03*
D22*
X143050000Y-97650000D03*
D23*
X142500000Y-97100000D03*
D19*
X142100000Y-97100000D03*
X141700000Y-97100000D03*
X141300000Y-97100000D03*
X140900000Y-97100000D03*
X140500000Y-97100000D03*
X140100000Y-97100000D03*
D24*
X139700000Y-97100000D03*
%TD*%
M02*
