%TF.GenerationSoftware,KiCad,Pcbnew,8.0.7+1*%
%TF.CreationDate,2025-02-19T14:48:17+01:00*%
%TF.ProjectId,ts15-rpi-shield,74733135-2d72-4706-992d-736869656c64,rev?*%
%TF.SameCoordinates,Original*%
%TF.FileFunction,Copper,L2,Bot*%
%TF.FilePolarity,Positive*%
%FSLAX46Y46*%
G04 Gerber Fmt 4.6, Leading zero omitted, Abs format (unit mm)*
G04 Created by KiCad (PCBNEW 8.0.7+1) date 2025-02-19 14:48:17*
%MOMM*%
%LPD*%
G01*
G04 APERTURE LIST*
%ADD10C,0.200000*%
%TA.AperFunction,NonConductor*%
%ADD11C,0.200000*%
%TD*%
%TA.AperFunction,ComponentPad*%
%ADD12R,1.700000X1.700000*%
%TD*%
%TA.AperFunction,ComponentPad*%
%ADD13O,1.700000X1.700000*%
%TD*%
%TA.AperFunction,ComponentPad*%
%ADD14R,1.676400X1.676400*%
%TD*%
%TA.AperFunction,ComponentPad*%
%ADD15C,1.524000*%
%TD*%
%TA.AperFunction,ComponentPad*%
%ADD16R,1.524000X1.524000*%
%TD*%
%TA.AperFunction,ComponentPad*%
%ADD17C,1.700000*%
%TD*%
%TA.AperFunction,ViaPad*%
%ADD18C,1.000000*%
%TD*%
%TA.AperFunction,Conductor*%
%ADD19C,0.300000*%
%TD*%
G04 APERTURE END LIST*
D10*
D11*
X154296993Y-72343409D02*
X154154136Y-72391028D01*
X154154136Y-72391028D02*
X154106517Y-72438647D01*
X154106517Y-72438647D02*
X154058898Y-72533885D01*
X154058898Y-72533885D02*
X154058898Y-72676742D01*
X154058898Y-72676742D02*
X154106517Y-72771980D01*
X154106517Y-72771980D02*
X154154136Y-72819600D01*
X154154136Y-72819600D02*
X154249374Y-72867219D01*
X154249374Y-72867219D02*
X154630326Y-72867219D01*
X154630326Y-72867219D02*
X154630326Y-71867219D01*
X154630326Y-71867219D02*
X154296993Y-71867219D01*
X154296993Y-71867219D02*
X154201755Y-71914838D01*
X154201755Y-71914838D02*
X154154136Y-71962457D01*
X154154136Y-71962457D02*
X154106517Y-72057695D01*
X154106517Y-72057695D02*
X154106517Y-72152933D01*
X154106517Y-72152933D02*
X154154136Y-72248171D01*
X154154136Y-72248171D02*
X154201755Y-72295790D01*
X154201755Y-72295790D02*
X154296993Y-72343409D01*
X154296993Y-72343409D02*
X154630326Y-72343409D01*
X153439850Y-71867219D02*
X153249374Y-71867219D01*
X153249374Y-71867219D02*
X153154136Y-71914838D01*
X153154136Y-71914838D02*
X153058898Y-72010076D01*
X153058898Y-72010076D02*
X153011279Y-72200552D01*
X153011279Y-72200552D02*
X153011279Y-72533885D01*
X153011279Y-72533885D02*
X153058898Y-72724361D01*
X153058898Y-72724361D02*
X153154136Y-72819600D01*
X153154136Y-72819600D02*
X153249374Y-72867219D01*
X153249374Y-72867219D02*
X153439850Y-72867219D01*
X153439850Y-72867219D02*
X153535088Y-72819600D01*
X153535088Y-72819600D02*
X153630326Y-72724361D01*
X153630326Y-72724361D02*
X153677945Y-72533885D01*
X153677945Y-72533885D02*
X153677945Y-72200552D01*
X153677945Y-72200552D02*
X153630326Y-72010076D01*
X153630326Y-72010076D02*
X153535088Y-71914838D01*
X153535088Y-71914838D02*
X153439850Y-71867219D01*
X152725564Y-71867219D02*
X152154136Y-71867219D01*
X152439850Y-72867219D02*
X152439850Y-71867219D01*
D12*
%TO.P,J2,1,Pin_1*%
%TO.N,/SPI_CE0*%
X120475000Y-96195000D03*
D13*
%TO.P,J2,2,Pin_2*%
%TO.N,/SPI_CS*%
X123015000Y-96195000D03*
%TO.P,J2,3,Pin_3*%
%TO.N,/SPI_CE1*%
X120475000Y-98735000D03*
%TO.P,J2,4,Pin_4*%
%TO.N,/SPI_CS*%
X123015000Y-98735000D03*
%TO.P,J2,5,Pin_5*%
%TO.N,/GPIO25*%
X120475000Y-101275000D03*
%TO.P,J2,6,Pin_6*%
%TO.N,/SPI_CS*%
X123015000Y-101275000D03*
%TD*%
D14*
%TO.P,CON1,P1,AN*%
%TO.N,unconnected-(CON1-AN-PadP1)*%
X129240000Y-89770000D03*
D15*
%TO.P,CON1,P2,RST*%
%TO.N,unconnected-(CON1-RST-PadP2)*%
X129240000Y-92310000D03*
%TO.P,CON1,P3,CS*%
%TO.N,/SPI_CS*%
X129240000Y-94850000D03*
%TO.P,CON1,P4,SCK*%
%TO.N,/SPI_SCK*%
X129240000Y-97390000D03*
%TO.P,CON1,P5,MISO*%
%TO.N,/SPI_MISO*%
X129240000Y-99930000D03*
%TO.P,CON1,P6,MOSI*%
%TO.N,/SPI_MOSI*%
X129240000Y-102470000D03*
%TO.P,CON1,P7,3V3*%
%TO.N,VCC*%
X129240000Y-105010000D03*
%TO.P,CON1,P8,GND1*%
%TO.N,GND*%
X129240000Y-107550000D03*
%TO.P,CON1,P9,GND2*%
X152100000Y-107550000D03*
%TO.P,CON1,P10,5V*%
%TO.N,unconnected-(CON1-5V-PadP10)*%
X152100000Y-105010000D03*
%TO.P,CON1,P11,SDA*%
%TO.N,unconnected-(CON1-SDA-PadP11)*%
X152100000Y-102470000D03*
%TO.P,CON1,P12,SCL*%
%TO.N,unconnected-(CON1-SCL-PadP12)*%
X152100000Y-99930000D03*
%TO.P,CON1,P13,RX*%
%TO.N,unconnected-(CON1-RX-PadP13)*%
X152100000Y-97390000D03*
%TO.P,CON1,P14,TX*%
%TO.N,unconnected-(CON1-TX-PadP14)*%
X152100000Y-94850000D03*
%TO.P,CON1,P15,INT*%
%TO.N,/GPO*%
X152100000Y-92310000D03*
D16*
%TO.P,CON1,P16,PWM*%
%TO.N,unconnected-(CON1-PWM-PadP16)*%
X152100000Y-89770000D03*
%TD*%
D17*
%TO.P,J1,1,Pin_1*%
%TO.N,Net-(J1-Pin_1)*%
X163622000Y-78400000D03*
D13*
%TO.P,J1,2,Pin_2*%
%TO.N,+5V*%
X166162000Y-78400000D03*
%TO.P,J1,3,Pin_3*%
%TO.N,unconnected-(J1-Pin_3-Pad3)*%
X163622000Y-80940000D03*
%TO.P,J1,4,Pin_4*%
%TO.N,+5V*%
X166162000Y-80940000D03*
%TO.P,J1,5,Pin_5*%
%TO.N,unconnected-(J1-Pin_5-Pad5)*%
X163622000Y-83480000D03*
D12*
%TO.P,J1,6,Pin_6*%
%TO.N,GND*%
X166162000Y-83480000D03*
D13*
%TO.P,J1,7,Pin_7*%
%TO.N,unconnected-(J1-Pin_7-Pad7)*%
X163622000Y-86020000D03*
%TO.P,J1,8,Pin_8*%
%TO.N,unconnected-(J1-Pin_8-Pad8)*%
X166162000Y-86020000D03*
D12*
%TO.P,J1,9,Pin_9*%
%TO.N,GND*%
X163622000Y-88560000D03*
D13*
%TO.P,J1,10,Pin_10*%
%TO.N,unconnected-(J1-Pin_10-Pad10)*%
X166162000Y-88560000D03*
%TO.P,J1,11,Pin_11*%
%TO.N,unconnected-(J1-Pin_11-Pad11)*%
X163622000Y-91100000D03*
%TO.P,J1,12,Pin_12*%
%TO.N,unconnected-(J1-Pin_12-Pad12)*%
X166162000Y-91100000D03*
%TO.P,J1,13,Pin_13*%
%TO.N,unconnected-(J1-Pin_13-Pad13)*%
X163622000Y-93640000D03*
D12*
%TO.P,J1,14,Pin_14*%
%TO.N,GND*%
X166162000Y-93640000D03*
D13*
%TO.P,J1,15,Pin_15*%
%TO.N,unconnected-(J1-Pin_15-Pad15)*%
X163622000Y-96180000D03*
%TO.P,J1,16,Pin_16*%
%TO.N,unconnected-(J1-Pin_16-Pad16)*%
X166162000Y-96180000D03*
%TO.P,J1,17,Pin_17*%
%TO.N,Net-(J1-Pin_1)*%
X163622000Y-98720000D03*
%TO.P,J1,18,Pin_18*%
%TO.N,unconnected-(J1-Pin_18-Pad18)*%
X166162000Y-98720000D03*
%TO.P,J1,19,Pin_19*%
%TO.N,/SPI_MOSI*%
X163622000Y-101260000D03*
D12*
%TO.P,J1,20,Pin_20*%
%TO.N,GND*%
X166162000Y-101260000D03*
D13*
%TO.P,J1,21,Pin_21*%
%TO.N,/SPI_MISO*%
X163622000Y-103800000D03*
%TO.P,J1,22,Pin_22*%
%TO.N,/GPIO25*%
X166162000Y-103800000D03*
%TO.P,J1,23,Pin_23*%
%TO.N,/SPI_SCK*%
X163622000Y-106340000D03*
%TO.P,J1,24,Pin_24*%
%TO.N,/SPI_CE0*%
X166162000Y-106340000D03*
D12*
%TO.P,J1,25,Pin_25*%
%TO.N,GND*%
X163622000Y-108880000D03*
D13*
%TO.P,J1,26,Pin_26*%
%TO.N,/SPI_CE1*%
X166162000Y-108880000D03*
%TO.P,J1,27,Pin_27*%
%TO.N,unconnected-(J1-Pin_27-Pad27)*%
X163622000Y-111420000D03*
%TO.P,J1,28,Pin_28*%
%TO.N,unconnected-(J1-Pin_28-Pad28)*%
X166162000Y-111420000D03*
%TO.P,J1,29,Pin_29*%
%TO.N,/GPIO5*%
X163622000Y-113960000D03*
D12*
%TO.P,J1,30,Pin_30*%
%TO.N,GND*%
X166162000Y-113960000D03*
D13*
%TO.P,J1,31,Pin_31*%
%TO.N,unconnected-(J1-Pin_31-Pad31)*%
X163622000Y-116500000D03*
%TO.P,J1,32,Pin_32*%
%TO.N,unconnected-(J1-Pin_32-Pad32)*%
X166162000Y-116500000D03*
%TO.P,J1,33,Pin_33*%
%TO.N,unconnected-(J1-Pin_33-Pad33)*%
X163622000Y-119040000D03*
D12*
%TO.P,J1,34,Pin_34*%
%TO.N,GND*%
X166162000Y-119040000D03*
D13*
%TO.P,J1,35,Pin_35*%
%TO.N,unconnected-(J1-Pin_35-Pad35)*%
X163622000Y-121580000D03*
%TO.P,J1,36,Pin_36*%
%TO.N,unconnected-(J1-Pin_36-Pad36)*%
X166162000Y-121580000D03*
%TO.P,J1,37,Pin_37*%
%TO.N,unconnected-(J1-Pin_37-Pad37)*%
X163622000Y-124120000D03*
%TO.P,J1,38,Pin_38*%
%TO.N,unconnected-(J1-Pin_38-Pad38)*%
X166162000Y-124120000D03*
D12*
%TO.P,J1,39,Pin_39*%
%TO.N,GND*%
X163622000Y-126660000D03*
D13*
%TO.P,J1,40,Pin_40*%
%TO.N,unconnected-(J1-Pin_40-Pad40)*%
X166162000Y-126660000D03*
%TD*%
D18*
%TO.N,GND*%
X158500000Y-106750000D03*
X119170000Y-104380000D03*
X124060000Y-103810000D03*
X161280000Y-111610000D03*
X153680000Y-111230000D03*
%TO.N,/GPIO25*%
X161540000Y-106970000D03*
%TO.N,GND*%
X130500000Y-85000000D03*
X149600000Y-104800000D03*
X137500000Y-111030000D03*
X114500000Y-90000000D03*
X132500000Y-92000000D03*
X158500000Y-101000000D03*
X143130000Y-103660000D03*
X140310000Y-95810000D03*
X152500000Y-115000000D03*
X121500000Y-73000000D03*
X150500000Y-73000000D03*
X114500000Y-80000000D03*
X130500000Y-133000000D03*
X150500000Y-133000000D03*
X129600000Y-110800000D03*
X159500000Y-133000000D03*
X146080000Y-102800000D03*
X146080000Y-101060000D03*
X114500000Y-100000000D03*
X159500000Y-73000000D03*
X143130000Y-102350000D03*
X137910000Y-101360000D03*
X114500000Y-120000000D03*
X114500000Y-110000000D03*
X121500000Y-133000000D03*
X135450000Y-97670000D03*
X143510000Y-108070000D03*
X149600000Y-94800000D03*
X150500000Y-85000000D03*
X130500000Y-73000000D03*
X144350000Y-95800000D03*
X137910000Y-103050000D03*
%TO.N,/GPO*%
X156250000Y-113500000D03*
%TO.N,VCC*%
X159500000Y-99540000D03*
X160690000Y-116060000D03*
%TO.N,/SPI_SCK*%
X135030000Y-101420000D03*
X135030000Y-106510000D03*
%TO.N,/SPI_MOSI*%
X132280000Y-106570000D03*
X132280000Y-101380000D03*
%TO.N,/SPI_CS*%
X136370000Y-101420000D03*
%TO.N,/SPI_MISO*%
X133595000Y-106525000D03*
X133680000Y-101350000D03*
%TD*%
D19*
%TO.N,/GPIO25*%
X161540000Y-106970000D02*
X161540000Y-106520000D01*
X161540000Y-106520000D02*
X163020000Y-105040000D01*
X163020000Y-105040000D02*
X164922000Y-105040000D01*
X164922000Y-105040000D02*
X166162000Y-103800000D01*
%TO.N,VCC*%
X159650000Y-99690000D02*
X159650000Y-115020000D01*
X159500000Y-99540000D02*
X159650000Y-99690000D01*
X159650000Y-115020000D02*
X160690000Y-116060000D01*
%TO.N,/GPO*%
X156250000Y-113500000D02*
X156160000Y-113410000D01*
X156160000Y-113410000D02*
X156160000Y-94990000D01*
X153480000Y-92310000D02*
X152100000Y-92310000D01*
X156160000Y-94990000D02*
X153480000Y-92310000D01*
%TO.N,/SPI_SCK*%
X135030000Y-100480000D02*
X131940000Y-97390000D01*
X135030000Y-101420000D02*
X135030000Y-100480000D01*
X135030000Y-106510000D02*
X135030000Y-101420000D01*
X131940000Y-97390000D02*
X129740000Y-97390000D01*
%TO.N,/SPI_MOSI*%
X132280000Y-101380000D02*
X131190000Y-102470000D01*
X131190000Y-102470000D02*
X129740000Y-102470000D01*
X132280000Y-106570000D02*
X132280000Y-101380000D01*
%TO.N,/SPI_CS*%
X136370000Y-100340000D02*
X130880000Y-94850000D01*
X136370000Y-101420000D02*
X136370000Y-100340000D01*
X130880000Y-94850000D02*
X129740000Y-94850000D01*
%TO.N,/SPI_MISO*%
X133680000Y-106440000D02*
X133680000Y-101350000D01*
X132910000Y-99930000D02*
X129740000Y-99930000D01*
X133680000Y-100700000D02*
X132910000Y-99930000D01*
X133680000Y-101350000D02*
X133680000Y-100700000D01*
X133595000Y-106525000D02*
X133680000Y-106440000D01*
%TD*%
%TA.AperFunction,Conductor*%
%TO.N,GND*%
G36*
X131006922Y-70501280D02*
G01*
X131097266Y-70511459D01*
X131124331Y-70517636D01*
X131203540Y-70545352D01*
X131228553Y-70557398D01*
X131299606Y-70602043D01*
X131321313Y-70619355D01*
X131380644Y-70678686D01*
X131397957Y-70700395D01*
X131442600Y-70771444D01*
X131454648Y-70796462D01*
X131482362Y-70875666D01*
X131488540Y-70902735D01*
X131498720Y-70993076D01*
X131499500Y-71006961D01*
X131499500Y-73934108D01*
X131499500Y-74000000D01*
X131499500Y-74107318D01*
X131501895Y-74123975D01*
X131530044Y-74319764D01*
X131530047Y-74319774D01*
X131590517Y-74525715D01*
X131679672Y-74720938D01*
X131679679Y-74720951D01*
X131795720Y-74901514D01*
X131936275Y-75063724D01*
X132007569Y-75125500D01*
X132098487Y-75204281D01*
X132227531Y-75287211D01*
X132279048Y-75320320D01*
X132279061Y-75320327D01*
X132474284Y-75409482D01*
X132474288Y-75409483D01*
X132474290Y-75409484D01*
X132680231Y-75469954D01*
X132680232Y-75469954D01*
X132680235Y-75469955D01*
X132743584Y-75479062D01*
X132892682Y-75500500D01*
X132892683Y-75500500D01*
X148107317Y-75500500D01*
X148107318Y-75500500D01*
X148277851Y-75475980D01*
X148319764Y-75469955D01*
X148319765Y-75469954D01*
X148319769Y-75469954D01*
X148525710Y-75409484D01*
X148525713Y-75409482D01*
X148525715Y-75409482D01*
X148720938Y-75320327D01*
X148720944Y-75320323D01*
X148720950Y-75320321D01*
X148901513Y-75204281D01*
X149063724Y-75063724D01*
X149204281Y-74901513D01*
X149320321Y-74720950D01*
X149320323Y-74720944D01*
X149320327Y-74720938D01*
X149409482Y-74525715D01*
X149409482Y-74525713D01*
X149409484Y-74525710D01*
X149469954Y-74319769D01*
X149500500Y-74107318D01*
X149500500Y-74000000D01*
X149500500Y-73934108D01*
X149500500Y-73372070D01*
X163374500Y-73372070D01*
X163374500Y-73627929D01*
X163414526Y-73880640D01*
X163493588Y-74123972D01*
X163493589Y-74123975D01*
X163572533Y-74278910D01*
X163593352Y-74319769D01*
X163609750Y-74351950D01*
X163760132Y-74558935D01*
X163760136Y-74558940D01*
X163941059Y-74739863D01*
X163941064Y-74739867D01*
X164121607Y-74871038D01*
X164148053Y-74890252D01*
X164297080Y-74966185D01*
X164376024Y-75006410D01*
X164376027Y-75006411D01*
X164497693Y-75045942D01*
X164619361Y-75085474D01*
X164872070Y-75125500D01*
X164872071Y-75125500D01*
X165127929Y-75125500D01*
X165127930Y-75125500D01*
X165380639Y-75085474D01*
X165623975Y-75006410D01*
X165851947Y-74890252D01*
X166058942Y-74739862D01*
X166239862Y-74558942D01*
X166390252Y-74351947D01*
X166506410Y-74123975D01*
X166585474Y-73880639D01*
X166625500Y-73627930D01*
X166625500Y-73372070D01*
X166585474Y-73119361D01*
X166506410Y-72876025D01*
X166506410Y-72876024D01*
X166466185Y-72797080D01*
X166390252Y-72648053D01*
X166371038Y-72621607D01*
X166239867Y-72441064D01*
X166239863Y-72441059D01*
X166058940Y-72260136D01*
X166058935Y-72260132D01*
X165851950Y-72109750D01*
X165851949Y-72109749D01*
X165851947Y-72109748D01*
X165778910Y-72072533D01*
X165623975Y-71993589D01*
X165623972Y-71993588D01*
X165380640Y-71914526D01*
X165254284Y-71894513D01*
X165127930Y-71874500D01*
X164872070Y-71874500D01*
X164787833Y-71887842D01*
X164619359Y-71914526D01*
X164376027Y-71993588D01*
X164376024Y-71993589D01*
X164148049Y-72109750D01*
X163941064Y-72260132D01*
X163941059Y-72260136D01*
X163760136Y-72441059D01*
X163760132Y-72441064D01*
X163609750Y-72648049D01*
X163493589Y-72876024D01*
X163493588Y-72876027D01*
X163414526Y-73119359D01*
X163374500Y-73372070D01*
X149500500Y-73372070D01*
X149500500Y-73223864D01*
X151798636Y-73223864D01*
X154985826Y-73223864D01*
X154985826Y-71510574D01*
X151798636Y-71510574D01*
X151798636Y-73223864D01*
X149500500Y-73223864D01*
X149500500Y-71006961D01*
X149501280Y-70993077D01*
X149507365Y-70939070D01*
X149511459Y-70902731D01*
X149517635Y-70875670D01*
X149545353Y-70796456D01*
X149557396Y-70771450D01*
X149602046Y-70700389D01*
X149619351Y-70678690D01*
X149678690Y-70619351D01*
X149700389Y-70602046D01*
X149771450Y-70557396D01*
X149796456Y-70545353D01*
X149875670Y-70517635D01*
X149902733Y-70511459D01*
X149965419Y-70504396D01*
X149993079Y-70501280D01*
X150006962Y-70500500D01*
X150065892Y-70500500D01*
X165496267Y-70500500D01*
X165503754Y-70500726D01*
X165793797Y-70518270D01*
X165808660Y-70520075D01*
X166090798Y-70571779D01*
X166105335Y-70575362D01*
X166379183Y-70660697D01*
X166393164Y-70665999D01*
X166654735Y-70783723D01*
X166667988Y-70790679D01*
X166913459Y-70939070D01*
X166925777Y-70947572D01*
X167151574Y-71124473D01*
X167162782Y-71134403D01*
X167365596Y-71337217D01*
X167375526Y-71348425D01*
X167552425Y-71574219D01*
X167560929Y-71586540D01*
X167709320Y-71832011D01*
X167716278Y-71845268D01*
X167833995Y-72106822D01*
X167839305Y-72120824D01*
X167924636Y-72394663D01*
X167928220Y-72409201D01*
X167979924Y-72691339D01*
X167981729Y-72706204D01*
X167999274Y-72996260D01*
X167999500Y-73003747D01*
X167999500Y-131996249D01*
X167999274Y-132003736D01*
X167981728Y-132293794D01*
X167979923Y-132308659D01*
X167928219Y-132590798D01*
X167924635Y-132605336D01*
X167839306Y-132879167D01*
X167833997Y-132893168D01*
X167716275Y-133154736D01*
X167709316Y-133167995D01*
X167560928Y-133413459D01*
X167552422Y-133425782D01*
X167375526Y-133651573D01*
X167365596Y-133662781D01*
X167162781Y-133865596D01*
X167151573Y-133875526D01*
X166925782Y-134052422D01*
X166913459Y-134060928D01*
X166667995Y-134209316D01*
X166654736Y-134216275D01*
X166393168Y-134333997D01*
X166379167Y-134339306D01*
X166105336Y-134424635D01*
X166090798Y-134428219D01*
X165808659Y-134479923D01*
X165793794Y-134481728D01*
X165503736Y-134499274D01*
X165496249Y-134499500D01*
X115503751Y-134499500D01*
X115496264Y-134499274D01*
X115206205Y-134481728D01*
X115191340Y-134479923D01*
X114909201Y-134428219D01*
X114894663Y-134424635D01*
X114620832Y-134339306D01*
X114606831Y-134333997D01*
X114345263Y-134216275D01*
X114332004Y-134209316D01*
X114086540Y-134060928D01*
X114074217Y-134052422D01*
X113848426Y-133875526D01*
X113837218Y-133865596D01*
X113634403Y-133662781D01*
X113624473Y-133651573D01*
X113447573Y-133425776D01*
X113439075Y-133413465D01*
X113290680Y-133167989D01*
X113283727Y-133154743D01*
X113166000Y-132893163D01*
X113160693Y-132879167D01*
X113117285Y-132739867D01*
X113075363Y-132605335D01*
X113071780Y-132590798D01*
X113020076Y-132308659D01*
X113018271Y-132293794D01*
X113000726Y-132003736D01*
X113000500Y-131996249D01*
X113000500Y-131372070D01*
X114374500Y-131372070D01*
X114374500Y-131627929D01*
X114414526Y-131880640D01*
X114493588Y-132123972D01*
X114493589Y-132123975D01*
X114518044Y-132171969D01*
X114580117Y-132293794D01*
X114609750Y-132351950D01*
X114760132Y-132558935D01*
X114760136Y-132558940D01*
X114941059Y-132739863D01*
X114941064Y-132739867D01*
X115121607Y-132871038D01*
X115148053Y-132890252D01*
X115297080Y-132966185D01*
X115376024Y-133006410D01*
X115376027Y-133006411D01*
X115497693Y-133045942D01*
X115619361Y-133085474D01*
X115872070Y-133125500D01*
X115872071Y-133125500D01*
X116127929Y-133125500D01*
X116127930Y-133125500D01*
X116380639Y-133085474D01*
X116623975Y-133006410D01*
X116851947Y-132890252D01*
X117058942Y-132739862D01*
X117239862Y-132558942D01*
X117390252Y-132351947D01*
X117506410Y-132123975D01*
X117585474Y-131880639D01*
X117625500Y-131627930D01*
X117625500Y-131372070D01*
X163374500Y-131372070D01*
X163374500Y-131627929D01*
X163414526Y-131880640D01*
X163493588Y-132123972D01*
X163493589Y-132123975D01*
X163518044Y-132171969D01*
X163580117Y-132293794D01*
X163609750Y-132351950D01*
X163760132Y-132558935D01*
X163760136Y-132558940D01*
X163941059Y-132739863D01*
X163941064Y-132739867D01*
X164121607Y-132871038D01*
X164148053Y-132890252D01*
X164297080Y-132966185D01*
X164376024Y-133006410D01*
X164376027Y-133006411D01*
X164497693Y-133045942D01*
X164619361Y-133085474D01*
X164872070Y-133125500D01*
X164872071Y-133125500D01*
X165127929Y-133125500D01*
X165127930Y-133125500D01*
X165380639Y-133085474D01*
X165623975Y-133006410D01*
X165851947Y-132890252D01*
X166058942Y-132739862D01*
X166239862Y-132558942D01*
X166390252Y-132351947D01*
X166506410Y-132123975D01*
X166585474Y-131880639D01*
X166625500Y-131627930D01*
X166625500Y-131372070D01*
X166585474Y-131119361D01*
X166506410Y-130876025D01*
X166506410Y-130876024D01*
X166466185Y-130797080D01*
X166390252Y-130648053D01*
X166371038Y-130621607D01*
X166239867Y-130441064D01*
X166239863Y-130441059D01*
X166058940Y-130260136D01*
X166058935Y-130260132D01*
X165851950Y-130109750D01*
X165851949Y-130109749D01*
X165851947Y-130109748D01*
X165778910Y-130072533D01*
X165623975Y-129993589D01*
X165623972Y-129993588D01*
X165380640Y-129914526D01*
X165254284Y-129894513D01*
X165127930Y-129874500D01*
X164872070Y-129874500D01*
X164787833Y-129887842D01*
X164619359Y-129914526D01*
X164376027Y-129993588D01*
X164376024Y-129993589D01*
X164148049Y-130109750D01*
X163941064Y-130260132D01*
X163941059Y-130260136D01*
X163760136Y-130441059D01*
X163760132Y-130441064D01*
X163609750Y-130648049D01*
X163493589Y-130876024D01*
X163493588Y-130876027D01*
X163414526Y-131119359D01*
X163374500Y-131372070D01*
X117625500Y-131372070D01*
X117585474Y-131119361D01*
X117506410Y-130876025D01*
X117506410Y-130876024D01*
X117466185Y-130797080D01*
X117390252Y-130648053D01*
X117371038Y-130621607D01*
X117239867Y-130441064D01*
X117239863Y-130441059D01*
X117058940Y-130260136D01*
X117058935Y-130260132D01*
X116851950Y-130109750D01*
X116851949Y-130109749D01*
X116851947Y-130109748D01*
X116778910Y-130072533D01*
X116623975Y-129993589D01*
X116623972Y-129993588D01*
X116380640Y-129914526D01*
X116254284Y-129894513D01*
X116127930Y-129874500D01*
X115872070Y-129874500D01*
X115787833Y-129887842D01*
X115619359Y-129914526D01*
X115376027Y-129993588D01*
X115376024Y-129993589D01*
X115148049Y-130109750D01*
X114941064Y-130260132D01*
X114941059Y-130260136D01*
X114760136Y-130441059D01*
X114760132Y-130441064D01*
X114609750Y-130648049D01*
X114493589Y-130876024D01*
X114493588Y-130876027D01*
X114414526Y-131119359D01*
X114374500Y-131372070D01*
X113000500Y-131372070D01*
X113000500Y-125785371D01*
X162522000Y-125785371D01*
X162522000Y-126510000D01*
X163144555Y-126510000D01*
X163122000Y-126594174D01*
X163122000Y-126725826D01*
X163144555Y-126810000D01*
X162522000Y-126810000D01*
X162522000Y-127534628D01*
X162536503Y-127607540D01*
X162536505Y-127607544D01*
X162591760Y-127690239D01*
X162674455Y-127745494D01*
X162674459Y-127745496D01*
X162747371Y-127759999D01*
X162747374Y-127760000D01*
X163472000Y-127760000D01*
X163472000Y-127137445D01*
X163556174Y-127160000D01*
X163687826Y-127160000D01*
X163772000Y-127137445D01*
X163772000Y-127760000D01*
X164496626Y-127760000D01*
X164496628Y-127759999D01*
X164569540Y-127745496D01*
X164569544Y-127745494D01*
X164652239Y-127690239D01*
X164707494Y-127607544D01*
X164707496Y-127607540D01*
X164721999Y-127534628D01*
X164722000Y-127534626D01*
X164722000Y-126810000D01*
X164099445Y-126810000D01*
X164122000Y-126725826D01*
X164122000Y-126659999D01*
X165056785Y-126659999D01*
X165056785Y-126660000D01*
X165075602Y-126863082D01*
X165131417Y-127059247D01*
X165131422Y-127059260D01*
X165222327Y-127241821D01*
X165345237Y-127404581D01*
X165495958Y-127541980D01*
X165495960Y-127541982D01*
X165595141Y-127603392D01*
X165669363Y-127649348D01*
X165859544Y-127723024D01*
X166060024Y-127760500D01*
X166060026Y-127760500D01*
X166263974Y-127760500D01*
X166263976Y-127760500D01*
X166464456Y-127723024D01*
X166654637Y-127649348D01*
X166828041Y-127541981D01*
X166978764Y-127404579D01*
X167101673Y-127241821D01*
X167192582Y-127059250D01*
X167248397Y-126863083D01*
X167267215Y-126660000D01*
X167261115Y-126594174D01*
X167248397Y-126456917D01*
X167192582Y-126260750D01*
X167192159Y-126259901D01*
X167142415Y-126160000D01*
X167101673Y-126078179D01*
X166978764Y-125915421D01*
X166978762Y-125915418D01*
X166828041Y-125778019D01*
X166828039Y-125778017D01*
X166654642Y-125670655D01*
X166654635Y-125670651D01*
X166549082Y-125629760D01*
X166464456Y-125596976D01*
X166263976Y-125559500D01*
X166060024Y-125559500D01*
X165859544Y-125596976D01*
X165859541Y-125596976D01*
X165859541Y-125596977D01*
X165669364Y-125670651D01*
X165669357Y-125670655D01*
X165495960Y-125778017D01*
X165495958Y-125778019D01*
X165345237Y-125915418D01*
X165222327Y-126078178D01*
X165131422Y-126260739D01*
X165131417Y-126260752D01*
X165075602Y-126456917D01*
X165056785Y-126659999D01*
X164122000Y-126659999D01*
X164122000Y-126594174D01*
X164099445Y-126510000D01*
X164722000Y-126510000D01*
X164722000Y-125785373D01*
X164721999Y-125785371D01*
X164707496Y-125712459D01*
X164707494Y-125712455D01*
X164652239Y-125629760D01*
X164569544Y-125574505D01*
X164569540Y-125574503D01*
X164496627Y-125560000D01*
X163772000Y-125560000D01*
X163772000Y-126182554D01*
X163687826Y-126160000D01*
X163556174Y-126160000D01*
X163472000Y-126182554D01*
X163472000Y-125560000D01*
X162747373Y-125560000D01*
X162674459Y-125574503D01*
X162674455Y-125574505D01*
X162591760Y-125629760D01*
X162536505Y-125712455D01*
X162536503Y-125712459D01*
X162522000Y-125785371D01*
X113000500Y-125785371D01*
X113000500Y-124119999D01*
X162516785Y-124119999D01*
X162516785Y-124120000D01*
X162535602Y-124323082D01*
X162591417Y-124519247D01*
X162591422Y-124519260D01*
X162682327Y-124701821D01*
X162805237Y-124864581D01*
X162955958Y-125001980D01*
X162955960Y-125001982D01*
X163055141Y-125063392D01*
X163129363Y-125109348D01*
X163319544Y-125183024D01*
X163520024Y-125220500D01*
X163520026Y-125220500D01*
X163723974Y-125220500D01*
X163723976Y-125220500D01*
X163924456Y-125183024D01*
X164114637Y-125109348D01*
X164288041Y-125001981D01*
X164438764Y-124864579D01*
X164561673Y-124701821D01*
X164652582Y-124519250D01*
X164708397Y-124323083D01*
X164727215Y-124120000D01*
X164727215Y-124119999D01*
X165056785Y-124119999D01*
X165056785Y-124120000D01*
X165075602Y-124323082D01*
X165131417Y-124519247D01*
X165131422Y-124519260D01*
X165222327Y-124701821D01*
X165345237Y-124864581D01*
X165495958Y-125001980D01*
X165495960Y-125001982D01*
X165595141Y-125063392D01*
X165669363Y-125109348D01*
X165859544Y-125183024D01*
X166060024Y-125220500D01*
X166060026Y-125220500D01*
X166263974Y-125220500D01*
X166263976Y-125220500D01*
X166464456Y-125183024D01*
X166654637Y-125109348D01*
X166828041Y-125001981D01*
X166978764Y-124864579D01*
X167101673Y-124701821D01*
X167192582Y-124519250D01*
X167248397Y-124323083D01*
X167267215Y-124120000D01*
X167248397Y-123916917D01*
X167192582Y-123720750D01*
X167101673Y-123538179D01*
X166978764Y-123375421D01*
X166978762Y-123375418D01*
X166828041Y-123238019D01*
X166828039Y-123238017D01*
X166654642Y-123130655D01*
X166654635Y-123130651D01*
X166559546Y-123093814D01*
X166464456Y-123056976D01*
X166263976Y-123019500D01*
X166060024Y-123019500D01*
X165859544Y-123056976D01*
X165859541Y-123056976D01*
X165859541Y-123056977D01*
X165669364Y-123130651D01*
X165669357Y-123130655D01*
X165495960Y-123238017D01*
X165495958Y-123238019D01*
X165345237Y-123375418D01*
X165222327Y-123538178D01*
X165131422Y-123720739D01*
X165131417Y-123720752D01*
X165075602Y-123916917D01*
X165056785Y-124119999D01*
X164727215Y-124119999D01*
X164708397Y-123916917D01*
X164652582Y-123720750D01*
X164561673Y-123538179D01*
X164438764Y-123375421D01*
X164438762Y-123375418D01*
X164288041Y-123238019D01*
X164288039Y-123238017D01*
X164114642Y-123130655D01*
X164114635Y-123130651D01*
X164019546Y-123093814D01*
X163924456Y-123056976D01*
X163723976Y-123019500D01*
X163520024Y-123019500D01*
X163319544Y-123056976D01*
X163319541Y-123056976D01*
X163319541Y-123056977D01*
X163129364Y-123130651D01*
X163129357Y-123130655D01*
X162955960Y-123238017D01*
X162955958Y-123238019D01*
X162805237Y-123375418D01*
X162682327Y-123538178D01*
X162591422Y-123720739D01*
X162591417Y-123720752D01*
X162535602Y-123916917D01*
X162516785Y-124119999D01*
X113000500Y-124119999D01*
X113000500Y-121579999D01*
X162516785Y-121579999D01*
X162516785Y-121580000D01*
X162535602Y-121783082D01*
X162591417Y-121979247D01*
X162591422Y-121979260D01*
X162682327Y-122161821D01*
X162805237Y-122324581D01*
X162955958Y-122461980D01*
X162955960Y-122461982D01*
X163055141Y-122523392D01*
X163129363Y-122569348D01*
X163319544Y-122643024D01*
X163520024Y-122680500D01*
X163520026Y-122680500D01*
X163723974Y-122680500D01*
X163723976Y-122680500D01*
X163924456Y-122643024D01*
X164114637Y-122569348D01*
X164288041Y-122461981D01*
X164438764Y-122324579D01*
X164561673Y-122161821D01*
X164652582Y-121979250D01*
X164708397Y-121783083D01*
X164727215Y-121580000D01*
X164727215Y-121579999D01*
X165056785Y-121579999D01*
X165056785Y-121580000D01*
X165075602Y-121783082D01*
X165131417Y-121979247D01*
X165131422Y-121979260D01*
X165222327Y-122161821D01*
X165345237Y-122324581D01*
X165495958Y-122461980D01*
X165495960Y-122461982D01*
X165595141Y-122523392D01*
X165669363Y-122569348D01*
X165859544Y-122643024D01*
X166060024Y-122680500D01*
X166060026Y-122680500D01*
X166263974Y-122680500D01*
X166263976Y-122680500D01*
X166464456Y-122643024D01*
X166654637Y-122569348D01*
X166828041Y-122461981D01*
X166978764Y-122324579D01*
X167101673Y-122161821D01*
X167192582Y-121979250D01*
X167248397Y-121783083D01*
X167267215Y-121580000D01*
X167248397Y-121376917D01*
X167192582Y-121180750D01*
X167101673Y-120998179D01*
X166978764Y-120835421D01*
X166978762Y-120835418D01*
X166828041Y-120698019D01*
X166828039Y-120698017D01*
X166654642Y-120590655D01*
X166654635Y-120590651D01*
X166559546Y-120553814D01*
X166464456Y-120516976D01*
X166263976Y-120479500D01*
X166060024Y-120479500D01*
X165859544Y-120516976D01*
X165859541Y-120516976D01*
X165859541Y-120516977D01*
X165669364Y-120590651D01*
X165669357Y-120590655D01*
X165495960Y-120698017D01*
X165495958Y-120698019D01*
X165345237Y-120835418D01*
X165222327Y-120998178D01*
X165131422Y-121180739D01*
X165131417Y-121180752D01*
X165075602Y-121376917D01*
X165056785Y-121579999D01*
X164727215Y-121579999D01*
X164708397Y-121376917D01*
X164652582Y-121180750D01*
X164561673Y-120998179D01*
X164438764Y-120835421D01*
X164438762Y-120835418D01*
X164288041Y-120698019D01*
X164288039Y-120698017D01*
X164114642Y-120590655D01*
X164114635Y-120590651D01*
X164019546Y-120553814D01*
X163924456Y-120516976D01*
X163723976Y-120479500D01*
X163520024Y-120479500D01*
X163319544Y-120516976D01*
X163319541Y-120516976D01*
X163319541Y-120516977D01*
X163129364Y-120590651D01*
X163129357Y-120590655D01*
X162955960Y-120698017D01*
X162955958Y-120698019D01*
X162805237Y-120835418D01*
X162682327Y-120998178D01*
X162591422Y-121180739D01*
X162591417Y-121180752D01*
X162535602Y-121376917D01*
X162516785Y-121579999D01*
X113000500Y-121579999D01*
X113000500Y-119039999D01*
X162516785Y-119039999D01*
X162516785Y-119040000D01*
X162535602Y-119243082D01*
X162591417Y-119439247D01*
X162591422Y-119439260D01*
X162682327Y-119621821D01*
X162805237Y-119784581D01*
X162955958Y-119921980D01*
X162955960Y-119921982D01*
X163055141Y-119983392D01*
X163129363Y-120029348D01*
X163319544Y-120103024D01*
X163520024Y-120140500D01*
X163520026Y-120140500D01*
X163723974Y-120140500D01*
X163723976Y-120140500D01*
X163924456Y-120103024D01*
X164114637Y-120029348D01*
X164288041Y-119921981D01*
X164438764Y-119784579D01*
X164561673Y-119621821D01*
X164652582Y-119439250D01*
X164708397Y-119243083D01*
X164727215Y-119040000D01*
X164721115Y-118974174D01*
X164708397Y-118836917D01*
X164652582Y-118640750D01*
X164652159Y-118639901D01*
X164602415Y-118540000D01*
X164561673Y-118458179D01*
X164438764Y-118295421D01*
X164438762Y-118295418D01*
X164296106Y-118165371D01*
X165062000Y-118165371D01*
X165062000Y-118890000D01*
X165684555Y-118890000D01*
X165662000Y-118974174D01*
X165662000Y-119105826D01*
X165684555Y-119190000D01*
X165062000Y-119190000D01*
X165062000Y-119914628D01*
X165076503Y-119987540D01*
X165076505Y-119987544D01*
X165131760Y-120070239D01*
X165214455Y-120125494D01*
X165214459Y-120125496D01*
X165287371Y-120139999D01*
X165287374Y-120140000D01*
X166012000Y-120140000D01*
X166012000Y-119517445D01*
X166096174Y-119540000D01*
X166227826Y-119540000D01*
X166312000Y-119517445D01*
X166312000Y-120140000D01*
X167036626Y-120140000D01*
X167036628Y-120139999D01*
X167109540Y-120125496D01*
X167109544Y-120125494D01*
X167192239Y-120070239D01*
X167247494Y-119987544D01*
X167247496Y-119987540D01*
X167261999Y-119914628D01*
X167262000Y-119914626D01*
X167262000Y-119190000D01*
X166639445Y-119190000D01*
X166662000Y-119105826D01*
X166662000Y-118974174D01*
X166639445Y-118890000D01*
X167262000Y-118890000D01*
X167262000Y-118165373D01*
X167261999Y-118165371D01*
X167247496Y-118092459D01*
X167247494Y-118092455D01*
X167192239Y-118009760D01*
X167109544Y-117954505D01*
X167109540Y-117954503D01*
X167036627Y-117940000D01*
X166312000Y-117940000D01*
X166312000Y-118562554D01*
X166227826Y-118540000D01*
X166096174Y-118540000D01*
X166012000Y-118562554D01*
X166012000Y-117940000D01*
X165287373Y-117940000D01*
X165214459Y-117954503D01*
X165214455Y-117954505D01*
X165131760Y-118009760D01*
X165076505Y-118092455D01*
X165076503Y-118092459D01*
X165062000Y-118165371D01*
X164296106Y-118165371D01*
X164288041Y-118158019D01*
X164288039Y-118158017D01*
X164114642Y-118050655D01*
X164114635Y-118050651D01*
X164009082Y-118009760D01*
X163924456Y-117976976D01*
X163723976Y-117939500D01*
X163520024Y-117939500D01*
X163319544Y-117976976D01*
X163319541Y-117976976D01*
X163319541Y-117976977D01*
X163129364Y-118050651D01*
X163129357Y-118050655D01*
X162955960Y-118158017D01*
X162955958Y-118158019D01*
X162805237Y-118295418D01*
X162682327Y-118458178D01*
X162591422Y-118640739D01*
X162591417Y-118640752D01*
X162535602Y-118836917D01*
X162516785Y-119039999D01*
X113000500Y-119039999D01*
X113000500Y-114881902D01*
X114999500Y-114881902D01*
X114999500Y-115118097D01*
X115036446Y-115351368D01*
X115109433Y-115575996D01*
X115216657Y-115786433D01*
X115355483Y-115977510D01*
X115522490Y-116144517D01*
X115713567Y-116283343D01*
X115812991Y-116334002D01*
X115924003Y-116390566D01*
X115924005Y-116390566D01*
X115924008Y-116390568D01*
X116044412Y-116429689D01*
X116148631Y-116463553D01*
X116381903Y-116500500D01*
X116381908Y-116500500D01*
X131618097Y-116500500D01*
X131851368Y-116463553D01*
X132075992Y-116390568D01*
X132286433Y-116283343D01*
X132477510Y-116144517D01*
X132644517Y-115977510D01*
X132783343Y-115786433D01*
X132890568Y-115575992D01*
X132963553Y-115351368D01*
X132970876Y-115305133D01*
X133000500Y-115118097D01*
X133000500Y-114881902D01*
X132963553Y-114648631D01*
X132915422Y-114500500D01*
X132890568Y-114424008D01*
X132890566Y-114424005D01*
X132890566Y-114424003D01*
X132794933Y-114236314D01*
X132783343Y-114213567D01*
X132644517Y-114022490D01*
X132477510Y-113855483D01*
X132286433Y-113716657D01*
X132075996Y-113609433D01*
X131851368Y-113536446D01*
X131618097Y-113499500D01*
X131618092Y-113499500D01*
X131565892Y-113499500D01*
X116565892Y-113499500D01*
X116500000Y-113499500D01*
X116381908Y-113499500D01*
X116381903Y-113499500D01*
X116148631Y-113536446D01*
X115924003Y-113609433D01*
X115713566Y-113716657D01*
X115658154Y-113756917D01*
X115522490Y-113855483D01*
X115522488Y-113855485D01*
X115522487Y-113855485D01*
X115355485Y-114022487D01*
X115355485Y-114022488D01*
X115355483Y-114022490D01*
X115295862Y-114104550D01*
X115216657Y-114213566D01*
X115109433Y-114424003D01*
X115036446Y-114648631D01*
X114999500Y-114881902D01*
X113000500Y-114881902D01*
X113000500Y-107550000D01*
X128223103Y-107550000D01*
X128242642Y-107748389D01*
X128300510Y-107939151D01*
X128394477Y-108114951D01*
X128394481Y-108114957D01*
X128425325Y-108152541D01*
X128425326Y-108152541D01*
X128836957Y-107740910D01*
X128884311Y-107822930D01*
X128967070Y-107905689D01*
X129049088Y-107953042D01*
X128637456Y-108364673D01*
X128637456Y-108364674D01*
X128675041Y-108395518D01*
X128675043Y-108395520D01*
X128850848Y-108489489D01*
X129041610Y-108547357D01*
X129240000Y-108566896D01*
X129438389Y-108547357D01*
X129629151Y-108489489D01*
X129804951Y-108395523D01*
X129804954Y-108395521D01*
X129842541Y-108364674D01*
X129842541Y-108364673D01*
X129430910Y-107953042D01*
X129512930Y-107905689D01*
X129595689Y-107822930D01*
X129643042Y-107740910D01*
X130054673Y-108152541D01*
X130054674Y-108152541D01*
X130085521Y-108114954D01*
X130085523Y-108114951D01*
X130179489Y-107939151D01*
X130237357Y-107748389D01*
X130256896Y-107550000D01*
X151083103Y-107550000D01*
X151102642Y-107748389D01*
X151160510Y-107939151D01*
X151254477Y-108114951D01*
X151254481Y-108114957D01*
X151285325Y-108152541D01*
X151285326Y-108152541D01*
X151696957Y-107740910D01*
X151744311Y-107822930D01*
X151827070Y-107905689D01*
X151909088Y-107953042D01*
X151497456Y-108364673D01*
X151497456Y-108364674D01*
X151535041Y-108395518D01*
X151535043Y-108395520D01*
X151710848Y-108489489D01*
X151901610Y-108547357D01*
X152100000Y-108566896D01*
X152298389Y-108547357D01*
X152489151Y-108489489D01*
X152664951Y-108395523D01*
X152664954Y-108395521D01*
X152702541Y-108364674D01*
X152702541Y-108364673D01*
X152290910Y-107953042D01*
X152372930Y-107905689D01*
X152455689Y-107822930D01*
X152503042Y-107740910D01*
X152914673Y-108152541D01*
X152914674Y-108152541D01*
X152945521Y-108114954D01*
X152945523Y-108114951D01*
X153039489Y-107939151D01*
X153097357Y-107748389D01*
X153116896Y-107550000D01*
X153097357Y-107351610D01*
X153039489Y-107160848D01*
X152945520Y-106985043D01*
X152945518Y-106985041D01*
X152914673Y-106947456D01*
X152503041Y-107359088D01*
X152455689Y-107277070D01*
X152372930Y-107194311D01*
X152290910Y-107146957D01*
X152702541Y-106735326D01*
X152702541Y-106735325D01*
X152664957Y-106704481D01*
X152664951Y-106704477D01*
X152489151Y-106610510D01*
X152298389Y-106552642D01*
X152100000Y-106533103D01*
X151901610Y-106552642D01*
X151710848Y-106610510D01*
X151535044Y-106704479D01*
X151497457Y-106735325D01*
X151909089Y-107146957D01*
X151827070Y-107194311D01*
X151744311Y-107277070D01*
X151696957Y-107359089D01*
X151285325Y-106947457D01*
X151254479Y-106985044D01*
X151160510Y-107160848D01*
X151102642Y-107351610D01*
X151083103Y-107550000D01*
X130256896Y-107550000D01*
X130237357Y-107351610D01*
X130179489Y-107160848D01*
X130085520Y-106985043D01*
X130085518Y-106985041D01*
X130054673Y-106947456D01*
X129643041Y-107359088D01*
X129595689Y-107277070D01*
X129512930Y-107194311D01*
X129430910Y-107146957D01*
X129842541Y-106735326D01*
X129842541Y-106735325D01*
X129804957Y-106704481D01*
X129804951Y-106704477D01*
X129629151Y-106610510D01*
X129438389Y-106552642D01*
X129240000Y-106533103D01*
X129041610Y-106552642D01*
X128850848Y-106610510D01*
X128675044Y-106704479D01*
X128637457Y-106735325D01*
X129049089Y-107146957D01*
X128967070Y-107194311D01*
X128884311Y-107277070D01*
X128836957Y-107359089D01*
X128425325Y-106947457D01*
X128394479Y-106985044D01*
X128300510Y-107160848D01*
X128242642Y-107351610D01*
X128223103Y-107550000D01*
X113000500Y-107550000D01*
X113000500Y-105010000D01*
X128222601Y-105010000D01*
X128242149Y-105208481D01*
X128242149Y-105208483D01*
X128242150Y-105208485D01*
X128288257Y-105360479D01*
X128300048Y-105399348D01*
X128394060Y-105575231D01*
X128394065Y-105575238D01*
X128520589Y-105729410D01*
X128555645Y-105758179D01*
X128674763Y-105855936D01*
X128674766Y-105855937D01*
X128674768Y-105855939D01*
X128850651Y-105949951D01*
X128850654Y-105949951D01*
X128850658Y-105949954D01*
X129041515Y-106007850D01*
X129240000Y-106027399D01*
X129438485Y-106007850D01*
X129629342Y-105949954D01*
X129646562Y-105940750D01*
X129726969Y-105897771D01*
X129805237Y-105855936D01*
X129959410Y-105729410D01*
X130085936Y-105575237D01*
X130132945Y-105487289D01*
X130179951Y-105399348D01*
X130179951Y-105399347D01*
X130179954Y-105399342D01*
X130237850Y-105208485D01*
X130257399Y-105010000D01*
X130237850Y-104811515D01*
X130179954Y-104620658D01*
X130179951Y-104620654D01*
X130179951Y-104620651D01*
X130085939Y-104444768D01*
X130085937Y-104444766D01*
X130085936Y-104444763D01*
X130034281Y-104381821D01*
X129959410Y-104290589D01*
X129805238Y-104164065D01*
X129805231Y-104164060D01*
X129629348Y-104070048D01*
X129629342Y-104070046D01*
X129438485Y-104012150D01*
X129438483Y-104012149D01*
X129438481Y-104012149D01*
X129240000Y-103992601D01*
X129041518Y-104012149D01*
X128850651Y-104070048D01*
X128674768Y-104164060D01*
X128674761Y-104164065D01*
X128520589Y-104290589D01*
X128394065Y-104444761D01*
X128394060Y-104444768D01*
X128300048Y-104620651D01*
X128242149Y-104811518D01*
X128222601Y-105010000D01*
X113000500Y-105010000D01*
X113000500Y-101274999D01*
X119369785Y-101274999D01*
X119369785Y-101275000D01*
X119388602Y-101478082D01*
X119444417Y-101674247D01*
X119444422Y-101674260D01*
X119535327Y-101856821D01*
X119658237Y-102019581D01*
X119808958Y-102156980D01*
X119808960Y-102156982D01*
X119890615Y-102207540D01*
X119982363Y-102264348D01*
X120172544Y-102338024D01*
X120373024Y-102375500D01*
X120373026Y-102375500D01*
X120576974Y-102375500D01*
X120576976Y-102375500D01*
X120777456Y-102338024D01*
X120967637Y-102264348D01*
X121141041Y-102156981D01*
X121291764Y-102019579D01*
X121414673Y-101856821D01*
X121505582Y-101674250D01*
X121561397Y-101478083D01*
X121580215Y-101275000D01*
X121580215Y-101274999D01*
X121909785Y-101274999D01*
X121909785Y-101275000D01*
X121928602Y-101478082D01*
X121984417Y-101674247D01*
X121984422Y-101674260D01*
X122075327Y-101856821D01*
X122198237Y-102019581D01*
X122348958Y-102156980D01*
X122348960Y-102156982D01*
X122430615Y-102207540D01*
X122522363Y-102264348D01*
X122712544Y-102338024D01*
X122913024Y-102375500D01*
X122913026Y-102375500D01*
X123116974Y-102375500D01*
X123116976Y-102375500D01*
X123317456Y-102338024D01*
X123507637Y-102264348D01*
X123681041Y-102156981D01*
X123831764Y-102019579D01*
X123954673Y-101856821D01*
X124045582Y-101674250D01*
X124101397Y-101478083D01*
X124120215Y-101275000D01*
X124101397Y-101071917D01*
X124045582Y-100875750D01*
X124042694Y-100869951D01*
X123965684Y-100715293D01*
X123954673Y-100693179D01*
X123852028Y-100557255D01*
X123831762Y-100530418D01*
X123681041Y-100393019D01*
X123681039Y-100393017D01*
X123507642Y-100285655D01*
X123507635Y-100285651D01*
X123359477Y-100228255D01*
X123317456Y-100211976D01*
X123116976Y-100174500D01*
X122913024Y-100174500D01*
X122712544Y-100211976D01*
X122712541Y-100211976D01*
X122712541Y-100211977D01*
X122522364Y-100285651D01*
X122522357Y-100285655D01*
X122348960Y-100393017D01*
X122348958Y-100393019D01*
X122198237Y-100530418D01*
X122075327Y-100693178D01*
X121984422Y-100875739D01*
X121984417Y-100875752D01*
X121928602Y-101071917D01*
X121909785Y-101274999D01*
X121580215Y-101274999D01*
X121561397Y-101071917D01*
X121505582Y-100875750D01*
X121502694Y-100869951D01*
X121425684Y-100715293D01*
X121414673Y-100693179D01*
X121312028Y-100557255D01*
X121291762Y-100530418D01*
X121141041Y-100393019D01*
X121141039Y-100393017D01*
X120967642Y-100285655D01*
X120967635Y-100285651D01*
X120819477Y-100228255D01*
X120777456Y-100211976D01*
X120576976Y-100174500D01*
X120373024Y-100174500D01*
X120172544Y-100211976D01*
X120172541Y-100211976D01*
X120172541Y-100211977D01*
X119982364Y-100285651D01*
X119982357Y-100285655D01*
X119808960Y-100393017D01*
X119808958Y-100393019D01*
X119658237Y-100530418D01*
X119535327Y-100693178D01*
X119444422Y-100875739D01*
X119444417Y-100875752D01*
X119388602Y-101071917D01*
X119369785Y-101274999D01*
X113000500Y-101274999D01*
X113000500Y-98734999D01*
X119369785Y-98734999D01*
X119369785Y-98735000D01*
X119388602Y-98938082D01*
X119444417Y-99134247D01*
X119444422Y-99134260D01*
X119535327Y-99316821D01*
X119658237Y-99479581D01*
X119808958Y-99616980D01*
X119808960Y-99616982D01*
X119908141Y-99678392D01*
X119982363Y-99724348D01*
X120172544Y-99798024D01*
X120373024Y-99835500D01*
X120373026Y-99835500D01*
X120576974Y-99835500D01*
X120576976Y-99835500D01*
X120777456Y-99798024D01*
X120967637Y-99724348D01*
X121141041Y-99616981D01*
X121291764Y-99479579D01*
X121414673Y-99316821D01*
X121505582Y-99134250D01*
X121561397Y-98938083D01*
X121580215Y-98735000D01*
X121580215Y-98734999D01*
X121909785Y-98734999D01*
X121909785Y-98735000D01*
X121928602Y-98938082D01*
X121984417Y-99134247D01*
X121984422Y-99134260D01*
X122075327Y-99316821D01*
X122198237Y-99479581D01*
X122348958Y-99616980D01*
X122348960Y-99616982D01*
X122448141Y-99678392D01*
X122522363Y-99724348D01*
X122712544Y-99798024D01*
X122913024Y-99835500D01*
X122913026Y-99835500D01*
X123116974Y-99835500D01*
X123116976Y-99835500D01*
X123317456Y-99798024D01*
X123507637Y-99724348D01*
X123681041Y-99616981D01*
X123831764Y-99479579D01*
X123954673Y-99316821D01*
X124045582Y-99134250D01*
X124101397Y-98938083D01*
X124120215Y-98735000D01*
X124101397Y-98531917D01*
X124045582Y-98335750D01*
X124042694Y-98329951D01*
X123995880Y-98235934D01*
X123954673Y-98153179D01*
X123831764Y-97990421D01*
X123831762Y-97990418D01*
X123681041Y-97853019D01*
X123681039Y-97853017D01*
X123507642Y-97745655D01*
X123507635Y-97745651D01*
X123412546Y-97708814D01*
X123317456Y-97671976D01*
X123116976Y-97634500D01*
X122913024Y-97634500D01*
X122712544Y-97671976D01*
X122712541Y-97671976D01*
X122712541Y-97671977D01*
X122522364Y-97745651D01*
X122522357Y-97745655D01*
X122348960Y-97853017D01*
X122348958Y-97853019D01*
X122198237Y-97990418D01*
X122075327Y-98153178D01*
X121984422Y-98335739D01*
X121984417Y-98335752D01*
X121928602Y-98531917D01*
X121909785Y-98734999D01*
X121580215Y-98734999D01*
X121561397Y-98531917D01*
X121505582Y-98335750D01*
X121502694Y-98329951D01*
X121455880Y-98235934D01*
X121414673Y-98153179D01*
X121291764Y-97990421D01*
X121291762Y-97990418D01*
X121141041Y-97853019D01*
X121141039Y-97853017D01*
X120967642Y-97745655D01*
X120967635Y-97745651D01*
X120872546Y-97708814D01*
X120777456Y-97671976D01*
X120576976Y-97634500D01*
X120373024Y-97634500D01*
X120172544Y-97671976D01*
X120172541Y-97671976D01*
X120172541Y-97671977D01*
X119982364Y-97745651D01*
X119982357Y-97745655D01*
X119808960Y-97853017D01*
X119808958Y-97853019D01*
X119658237Y-97990418D01*
X119535327Y-98153178D01*
X119444422Y-98335739D01*
X119444417Y-98335752D01*
X119388602Y-98531917D01*
X119369785Y-98734999D01*
X113000500Y-98734999D01*
X113000500Y-95320321D01*
X119374500Y-95320321D01*
X119374500Y-97069678D01*
X119389032Y-97142735D01*
X119389033Y-97142739D01*
X119389034Y-97142740D01*
X119444399Y-97225601D01*
X119526563Y-97280500D01*
X119527260Y-97280966D01*
X119527264Y-97280967D01*
X119600321Y-97295499D01*
X119600324Y-97295500D01*
X119600326Y-97295500D01*
X121349676Y-97295500D01*
X121349677Y-97295499D01*
X121422740Y-97280966D01*
X121505601Y-97225601D01*
X121560966Y-97142740D01*
X121575500Y-97069674D01*
X121575500Y-96194999D01*
X121909785Y-96194999D01*
X121909785Y-96195000D01*
X121928602Y-96398082D01*
X121984417Y-96594247D01*
X121984422Y-96594260D01*
X122075327Y-96776821D01*
X122198237Y-96939581D01*
X122348958Y-97076980D01*
X122348960Y-97076982D01*
X122448141Y-97138392D01*
X122522363Y-97184348D01*
X122712544Y-97258024D01*
X122913024Y-97295500D01*
X122913026Y-97295500D01*
X123116974Y-97295500D01*
X123116976Y-97295500D01*
X123317456Y-97258024D01*
X123507637Y-97184348D01*
X123681041Y-97076981D01*
X123831764Y-96939579D01*
X123954673Y-96776821D01*
X124045582Y-96594250D01*
X124101397Y-96398083D01*
X124120215Y-96195000D01*
X124101397Y-95991917D01*
X124045582Y-95795750D01*
X124042694Y-95789951D01*
X123995880Y-95695934D01*
X123954673Y-95613179D01*
X123831764Y-95450421D01*
X123831762Y-95450418D01*
X123681041Y-95313019D01*
X123681039Y-95313017D01*
X123507642Y-95205655D01*
X123507635Y-95205651D01*
X123379193Y-95155893D01*
X123317456Y-95131976D01*
X123116976Y-95094500D01*
X122913024Y-95094500D01*
X122712544Y-95131976D01*
X122712541Y-95131976D01*
X122712541Y-95131977D01*
X122522364Y-95205651D01*
X122522357Y-95205655D01*
X122348960Y-95313017D01*
X122348958Y-95313019D01*
X122198237Y-95450418D01*
X122075327Y-95613178D01*
X121984422Y-95795739D01*
X121984417Y-95795752D01*
X121928602Y-95991917D01*
X121909785Y-96194999D01*
X121575500Y-96194999D01*
X121575500Y-95320326D01*
X121575500Y-95320323D01*
X121575499Y-95320321D01*
X121560967Y-95247264D01*
X121560966Y-95247260D01*
X121555675Y-95239342D01*
X121505601Y-95164399D01*
X121450235Y-95127405D01*
X121422739Y-95109033D01*
X121422735Y-95109032D01*
X121349677Y-95094500D01*
X121349674Y-95094500D01*
X119600326Y-95094500D01*
X119600323Y-95094500D01*
X119527264Y-95109032D01*
X119527260Y-95109033D01*
X119444399Y-95164399D01*
X119389033Y-95247260D01*
X119389032Y-95247264D01*
X119374500Y-95320321D01*
X113000500Y-95320321D01*
X113000500Y-94850000D01*
X128222601Y-94850000D01*
X128242149Y-95048481D01*
X128242149Y-95048483D01*
X128242150Y-95048485D01*
X128300046Y-95239342D01*
X128300048Y-95239348D01*
X128394060Y-95415231D01*
X128394065Y-95415238D01*
X128520589Y-95569410D01*
X128627875Y-95657456D01*
X128674763Y-95695936D01*
X128674766Y-95695937D01*
X128674768Y-95695939D01*
X128850651Y-95789951D01*
X128850654Y-95789951D01*
X128850658Y-95789954D01*
X129041515Y-95847850D01*
X129240000Y-95867399D01*
X129438485Y-95847850D01*
X129629342Y-95789954D01*
X129646562Y-95780750D01*
X129805231Y-95695939D01*
X129805229Y-95695939D01*
X129805237Y-95695936D01*
X129959410Y-95569410D01*
X130085936Y-95415237D01*
X130098088Y-95392501D01*
X130138955Y-95316047D01*
X130187917Y-95266203D01*
X130248313Y-95250500D01*
X130662745Y-95250500D01*
X130729784Y-95270185D01*
X130750426Y-95286819D01*
X132341426Y-96877819D01*
X132374911Y-96939142D01*
X132369927Y-97008834D01*
X132328055Y-97064767D01*
X132262591Y-97089184D01*
X132194318Y-97074332D01*
X132191744Y-97072887D01*
X132185913Y-97069520D01*
X132149751Y-97048642D01*
X132094589Y-97016793D01*
X132034344Y-97000651D01*
X131992727Y-96989500D01*
X131992726Y-96989500D01*
X130248313Y-96989500D01*
X130181274Y-96969815D01*
X130138955Y-96923953D01*
X130085939Y-96824768D01*
X130085937Y-96824766D01*
X130085936Y-96824763D01*
X130034281Y-96761821D01*
X129959410Y-96670589D01*
X129805238Y-96544065D01*
X129805231Y-96544060D01*
X129629348Y-96450048D01*
X129629342Y-96450046D01*
X129438485Y-96392150D01*
X129438483Y-96392149D01*
X129438481Y-96392149D01*
X129240000Y-96372601D01*
X129041518Y-96392149D01*
X128850651Y-96450048D01*
X128674768Y-96544060D01*
X128674761Y-96544065D01*
X128520589Y-96670589D01*
X128394065Y-96824761D01*
X128394060Y-96824768D01*
X128300048Y-97000651D01*
X128242149Y-97191518D01*
X128222601Y-97390000D01*
X128242149Y-97588481D01*
X128242149Y-97588483D01*
X128242150Y-97588485D01*
X128256109Y-97634500D01*
X128300048Y-97779348D01*
X128394060Y-97955231D01*
X128394065Y-97955238D01*
X128520589Y-98109410D01*
X128627875Y-98197456D01*
X128674763Y-98235936D01*
X128674766Y-98235937D01*
X128674768Y-98235939D01*
X128850651Y-98329951D01*
X128850654Y-98329951D01*
X128850658Y-98329954D01*
X129041515Y-98387850D01*
X129240000Y-98407399D01*
X129438485Y-98387850D01*
X129629342Y-98329954D01*
X129646562Y-98320750D01*
X129805231Y-98235939D01*
X129805229Y-98235939D01*
X129805237Y-98235936D01*
X129959410Y-98109410D01*
X130085936Y-97955237D01*
X130098088Y-97932501D01*
X130138955Y-97856047D01*
X130187917Y-97806203D01*
X130248313Y-97790500D01*
X131722745Y-97790500D01*
X131789784Y-97810185D01*
X131810426Y-97826819D01*
X134593181Y-100609574D01*
X134626666Y-100670897D01*
X134629500Y-100697255D01*
X134629500Y-100716761D01*
X134609815Y-100783800D01*
X134571477Y-100821752D01*
X134559111Y-100829522D01*
X134472668Y-100915965D01*
X134411344Y-100949449D01*
X134341653Y-100944465D01*
X134285719Y-100902593D01*
X134279993Y-100894255D01*
X134270476Y-100879109D01*
X134150892Y-100759525D01*
X134150890Y-100759523D01*
X134138523Y-100751752D01*
X134092235Y-100699415D01*
X134082386Y-100655224D01*
X134081561Y-100655333D01*
X134080500Y-100647280D01*
X134080500Y-100647273D01*
X134053207Y-100545413D01*
X134000480Y-100454087D01*
X133925913Y-100379520D01*
X133155913Y-99609520D01*
X133110250Y-99583156D01*
X133064589Y-99556793D01*
X133001903Y-99539997D01*
X132962727Y-99529500D01*
X132962726Y-99529500D01*
X130248313Y-99529500D01*
X130181274Y-99509815D01*
X130138955Y-99463953D01*
X130085939Y-99364768D01*
X130085937Y-99364766D01*
X130085936Y-99364763D01*
X129960822Y-99212310D01*
X129959410Y-99210589D01*
X129805238Y-99084065D01*
X129805231Y-99084060D01*
X129629348Y-98990048D01*
X129629342Y-98990046D01*
X129438485Y-98932150D01*
X129438483Y-98932149D01*
X129438481Y-98932149D01*
X129240000Y-98912601D01*
X129041518Y-98932149D01*
X128850651Y-98990048D01*
X128674768Y-99084060D01*
X128674761Y-99084065D01*
X128520589Y-99210589D01*
X128394065Y-99364761D01*
X128394060Y-99364768D01*
X128300048Y-99540651D01*
X128242149Y-99731518D01*
X128222601Y-99930000D01*
X128242149Y-100128481D01*
X128242149Y-100128483D01*
X128242150Y-100128485D01*
X128285276Y-100270651D01*
X128300048Y-100319348D01*
X128394060Y-100495231D01*
X128394065Y-100495238D01*
X128520589Y-100649410D01*
X128581682Y-100699547D01*
X128674763Y-100775936D01*
X128674766Y-100775937D01*
X128674768Y-100775939D01*
X128850651Y-100869951D01*
X128850654Y-100869951D01*
X128850658Y-100869954D01*
X129041515Y-100927850D01*
X129240000Y-100947399D01*
X129438485Y-100927850D01*
X129629342Y-100869954D01*
X129638248Y-100865194D01*
X129771301Y-100794075D01*
X129805237Y-100775936D01*
X129959410Y-100649410D01*
X130085936Y-100495237D01*
X130122264Y-100427273D01*
X130138955Y-100396047D01*
X130187917Y-100346203D01*
X130248313Y-100330500D01*
X132692745Y-100330500D01*
X132759784Y-100350185D01*
X132780426Y-100366819D01*
X133103439Y-100689832D01*
X133136924Y-100751155D01*
X133131940Y-100820847D01*
X133103439Y-100865194D01*
X133089524Y-100879108D01*
X133075426Y-100901545D01*
X133023090Y-100947835D01*
X132954037Y-100958482D01*
X132890189Y-100930106D01*
X132873485Y-100912883D01*
X132870480Y-100909115D01*
X132870477Y-100909110D01*
X132750890Y-100789523D01*
X132750884Y-100789518D01*
X132607697Y-100699547D01*
X132607694Y-100699545D01*
X132448056Y-100643685D01*
X132280003Y-100624751D01*
X132279997Y-100624751D01*
X132111943Y-100643685D01*
X131952305Y-100699545D01*
X131952302Y-100699547D01*
X131809115Y-100789518D01*
X131809109Y-100789523D01*
X131689523Y-100909109D01*
X131689518Y-100909115D01*
X131599547Y-101052302D01*
X131599545Y-101052305D01*
X131543685Y-101211943D01*
X131524751Y-101379997D01*
X131524751Y-101380004D01*
X131537188Y-101490393D01*
X131525133Y-101559215D01*
X131501649Y-101591957D01*
X131060426Y-102033181D01*
X130999103Y-102066666D01*
X130972745Y-102069500D01*
X130248313Y-102069500D01*
X130181274Y-102049815D01*
X130138955Y-102003953D01*
X130085939Y-101904768D01*
X130085937Y-101904766D01*
X130085936Y-101904763D01*
X130034281Y-101841821D01*
X129959410Y-101750589D01*
X129805238Y-101624065D01*
X129805231Y-101624060D01*
X129629348Y-101530048D01*
X129629342Y-101530046D01*
X129438485Y-101472150D01*
X129438483Y-101472149D01*
X129438481Y-101472149D01*
X129240000Y-101452601D01*
X129041518Y-101472149D01*
X128850651Y-101530048D01*
X128674768Y-101624060D01*
X128674761Y-101624065D01*
X128520589Y-101750589D01*
X128394065Y-101904761D01*
X128394060Y-101904768D01*
X128300048Y-102080651D01*
X128242149Y-102271518D01*
X128222601Y-102470000D01*
X128242149Y-102668481D01*
X128242149Y-102668483D01*
X128242150Y-102668485D01*
X128300046Y-102859342D01*
X128300048Y-102859348D01*
X128394060Y-103035231D01*
X128394065Y-103035238D01*
X128520589Y-103189410D01*
X128555645Y-103218179D01*
X128674763Y-103315936D01*
X128674766Y-103315937D01*
X128674768Y-103315939D01*
X128850651Y-103409951D01*
X128850654Y-103409951D01*
X128850658Y-103409954D01*
X129041515Y-103467850D01*
X129240000Y-103487399D01*
X129438485Y-103467850D01*
X129629342Y-103409954D01*
X129646562Y-103400750D01*
X129805231Y-103315939D01*
X129805229Y-103315939D01*
X129805237Y-103315936D01*
X129959410Y-103189410D01*
X130085936Y-103035237D01*
X130098088Y-103012501D01*
X130138955Y-102936047D01*
X130187917Y-102886203D01*
X130248313Y-102870500D01*
X131242725Y-102870500D01*
X131242727Y-102870500D01*
X131344588Y-102843207D01*
X131435913Y-102790480D01*
X131667820Y-102558572D01*
X131729142Y-102525088D01*
X131798833Y-102530072D01*
X131854767Y-102571943D01*
X131879184Y-102637408D01*
X131879500Y-102646254D01*
X131879500Y-105866761D01*
X131859815Y-105933800D01*
X131821477Y-105971752D01*
X131809110Y-105979523D01*
X131809107Y-105979525D01*
X131689523Y-106099109D01*
X131689518Y-106099115D01*
X131599547Y-106242302D01*
X131599545Y-106242305D01*
X131543685Y-106401943D01*
X131524751Y-106569997D01*
X131524751Y-106570002D01*
X131543685Y-106738056D01*
X131599545Y-106897694D01*
X131599547Y-106897697D01*
X131689518Y-107040884D01*
X131689523Y-107040890D01*
X131809109Y-107160476D01*
X131809115Y-107160481D01*
X131952302Y-107250452D01*
X131952305Y-107250454D01*
X131952309Y-107250455D01*
X131952310Y-107250456D01*
X131983338Y-107261313D01*
X132111943Y-107306314D01*
X132279997Y-107325249D01*
X132280000Y-107325249D01*
X132280003Y-107325249D01*
X132448056Y-107306314D01*
X132472682Y-107297697D01*
X132607690Y-107250456D01*
X132607692Y-107250454D01*
X132607694Y-107250454D01*
X132607697Y-107250452D01*
X132750884Y-107160481D01*
X132750885Y-107160480D01*
X132750890Y-107160477D01*
X132870477Y-107040890D01*
X132870477Y-107040889D01*
X132872319Y-107039048D01*
X132933642Y-107005563D01*
X133003334Y-107010547D01*
X133047681Y-107039048D01*
X133124109Y-107115476D01*
X133124115Y-107115481D01*
X133267302Y-107205452D01*
X133267305Y-107205454D01*
X133267309Y-107205455D01*
X133267310Y-107205456D01*
X133314533Y-107221980D01*
X133426943Y-107261314D01*
X133594997Y-107280249D01*
X133595000Y-107280249D01*
X133595003Y-107280249D01*
X133763056Y-107261314D01*
X133763059Y-107261313D01*
X133922690Y-107205456D01*
X133922692Y-107205454D01*
X133922694Y-107205454D01*
X133922697Y-107205452D01*
X134065884Y-107115481D01*
X134065885Y-107115480D01*
X134065890Y-107115477D01*
X134185477Y-106995890D01*
X134212219Y-106953329D01*
X134264552Y-106907040D01*
X134333606Y-106896391D01*
X134397454Y-106924766D01*
X134422205Y-106953329D01*
X134439519Y-106980884D01*
X134439524Y-106980891D01*
X134559109Y-107100476D01*
X134559115Y-107100481D01*
X134702302Y-107190452D01*
X134702305Y-107190454D01*
X134702309Y-107190455D01*
X134702310Y-107190456D01*
X134745172Y-107205454D01*
X134861943Y-107246314D01*
X135029997Y-107265249D01*
X135030000Y-107265249D01*
X135030003Y-107265249D01*
X135198056Y-107246314D01*
X135267593Y-107221982D01*
X135357690Y-107190456D01*
X135357692Y-107190454D01*
X135357694Y-107190454D01*
X135357697Y-107190452D01*
X135500884Y-107100481D01*
X135500885Y-107100480D01*
X135500890Y-107100477D01*
X135620477Y-106980890D01*
X135620481Y-106980884D01*
X135710452Y-106837697D01*
X135710454Y-106837694D01*
X135710454Y-106837692D01*
X135710456Y-106837690D01*
X135766313Y-106678059D01*
X135766313Y-106678058D01*
X135766314Y-106678056D01*
X135785249Y-106510002D01*
X135785249Y-106509997D01*
X135766314Y-106341943D01*
X135731448Y-106242302D01*
X135710456Y-106182310D01*
X135710455Y-106182309D01*
X135710454Y-106182305D01*
X135710452Y-106182302D01*
X135620481Y-106039115D01*
X135620476Y-106039109D01*
X135500892Y-105919525D01*
X135500890Y-105919523D01*
X135488523Y-105911752D01*
X135442235Y-105859415D01*
X135430500Y-105806761D01*
X135430500Y-105010000D01*
X151082601Y-105010000D01*
X151102149Y-105208481D01*
X151102149Y-105208483D01*
X151102150Y-105208485D01*
X151148257Y-105360479D01*
X151160048Y-105399348D01*
X151254060Y-105575231D01*
X151254065Y-105575238D01*
X151380589Y-105729410D01*
X151415645Y-105758179D01*
X151534763Y-105855936D01*
X151534766Y-105855937D01*
X151534768Y-105855939D01*
X151710651Y-105949951D01*
X151710654Y-105949951D01*
X151710658Y-105949954D01*
X151901515Y-106007850D01*
X152100000Y-106027399D01*
X152298485Y-106007850D01*
X152489342Y-105949954D01*
X152506562Y-105940750D01*
X152586969Y-105897771D01*
X152665237Y-105855936D01*
X152819410Y-105729410D01*
X152945936Y-105575237D01*
X152992945Y-105487289D01*
X153039951Y-105399348D01*
X153039951Y-105399347D01*
X153039954Y-105399342D01*
X153097850Y-105208485D01*
X153117399Y-105010000D01*
X153097850Y-104811515D01*
X153039954Y-104620658D01*
X153039951Y-104620654D01*
X153039951Y-104620651D01*
X152945939Y-104444768D01*
X152945937Y-104444766D01*
X152945936Y-104444763D01*
X152894281Y-104381821D01*
X152819410Y-104290589D01*
X152665238Y-104164065D01*
X152665231Y-104164060D01*
X152489348Y-104070048D01*
X152489342Y-104070046D01*
X152298485Y-104012150D01*
X152298483Y-104012149D01*
X152298481Y-104012149D01*
X152100000Y-103992601D01*
X151901518Y-104012149D01*
X151710651Y-104070048D01*
X151534768Y-104164060D01*
X151534761Y-104164065D01*
X151380589Y-104290589D01*
X151254065Y-104444761D01*
X151254060Y-104444768D01*
X151160048Y-104620651D01*
X151102149Y-104811518D01*
X151082601Y-105010000D01*
X135430500Y-105010000D01*
X135430500Y-102470000D01*
X151082601Y-102470000D01*
X151102149Y-102668481D01*
X151102149Y-102668483D01*
X151102150Y-102668485D01*
X151160046Y-102859342D01*
X151160048Y-102859348D01*
X151254060Y-103035231D01*
X151254065Y-103035238D01*
X151380589Y-103189410D01*
X151415645Y-103218179D01*
X151534763Y-103315936D01*
X151534766Y-103315937D01*
X151534768Y-103315939D01*
X151710651Y-103409951D01*
X151710654Y-103409951D01*
X151710658Y-103409954D01*
X151901515Y-103467850D01*
X152100000Y-103487399D01*
X152298485Y-103467850D01*
X152489342Y-103409954D01*
X152506562Y-103400750D01*
X152665231Y-103315939D01*
X152665229Y-103315939D01*
X152665237Y-103315936D01*
X152819410Y-103189410D01*
X152945936Y-103035237D01*
X152998954Y-102936047D01*
X153039951Y-102859348D01*
X153039951Y-102859347D01*
X153039954Y-102859342D01*
X153097850Y-102668485D01*
X153117399Y-102470000D01*
X153097850Y-102271515D01*
X153039954Y-102080658D01*
X153039951Y-102080654D01*
X153039951Y-102080651D01*
X152945939Y-101904768D01*
X152945937Y-101904766D01*
X152945936Y-101904763D01*
X152894281Y-101841821D01*
X152819410Y-101750589D01*
X152665238Y-101624065D01*
X152665231Y-101624060D01*
X152489348Y-101530048D01*
X152489342Y-101530046D01*
X152298485Y-101472150D01*
X152298483Y-101472149D01*
X152298481Y-101472149D01*
X152100000Y-101452601D01*
X151901518Y-101472149D01*
X151710651Y-101530048D01*
X151534768Y-101624060D01*
X151534761Y-101624065D01*
X151380589Y-101750589D01*
X151254065Y-101904761D01*
X151254060Y-101904768D01*
X151160048Y-102080651D01*
X151102149Y-102271518D01*
X151082601Y-102470000D01*
X135430500Y-102470000D01*
X135430500Y-102123238D01*
X135450185Y-102056199D01*
X135488529Y-102018244D01*
X135491783Y-102016199D01*
X135500890Y-102010477D01*
X135612319Y-101899048D01*
X135673642Y-101865563D01*
X135743334Y-101870547D01*
X135787681Y-101899048D01*
X135899109Y-102010476D01*
X135899115Y-102010481D01*
X136042302Y-102100452D01*
X136042305Y-102100454D01*
X136042309Y-102100455D01*
X136042310Y-102100456D01*
X136107418Y-102123238D01*
X136201943Y-102156314D01*
X136369997Y-102175249D01*
X136370000Y-102175249D01*
X136370003Y-102175249D01*
X136538056Y-102156314D01*
X136538059Y-102156313D01*
X136697690Y-102100456D01*
X136697692Y-102100454D01*
X136697694Y-102100454D01*
X136697697Y-102100452D01*
X136840884Y-102010481D01*
X136840888Y-102010478D01*
X136840890Y-102010477D01*
X136960477Y-101890890D01*
X136969995Y-101875742D01*
X137050452Y-101747697D01*
X137050454Y-101747694D01*
X137050454Y-101747692D01*
X137050456Y-101747690D01*
X137106313Y-101588059D01*
X137106313Y-101588058D01*
X137106314Y-101588056D01*
X137125249Y-101420002D01*
X137125249Y-101419997D01*
X137106314Y-101251943D01*
X137050454Y-101092305D01*
X137050452Y-101092302D01*
X136960481Y-100949115D01*
X136960476Y-100949109D01*
X136840892Y-100829525D01*
X136840890Y-100829523D01*
X136828523Y-100821752D01*
X136782235Y-100769415D01*
X136770500Y-100716761D01*
X136770500Y-100287275D01*
X136770500Y-100287273D01*
X136743207Y-100185413D01*
X136690480Y-100094087D01*
X136615913Y-100019520D01*
X136526393Y-99930000D01*
X151082601Y-99930000D01*
X151102149Y-100128481D01*
X151102149Y-100128483D01*
X151102150Y-100128485D01*
X151145276Y-100270651D01*
X151160048Y-100319348D01*
X151254060Y-100495231D01*
X151254065Y-100495238D01*
X151380589Y-100649410D01*
X151441682Y-100699547D01*
X151534763Y-100775936D01*
X151534766Y-100775937D01*
X151534768Y-100775939D01*
X151710651Y-100869951D01*
X151710654Y-100869951D01*
X151710658Y-100869954D01*
X151901515Y-100927850D01*
X152100000Y-100947399D01*
X152298485Y-100927850D01*
X152489342Y-100869954D01*
X152498248Y-100865194D01*
X152631301Y-100794075D01*
X152665237Y-100775936D01*
X152819410Y-100649410D01*
X152945936Y-100495237D01*
X153007788Y-100379520D01*
X153039951Y-100319348D01*
X153039951Y-100319347D01*
X153039954Y-100319342D01*
X153097850Y-100128485D01*
X153117399Y-99930000D01*
X153097850Y-99731515D01*
X153039954Y-99540658D01*
X153039951Y-99540654D01*
X153039951Y-99540651D01*
X152945939Y-99364768D01*
X152945937Y-99364766D01*
X152945936Y-99364763D01*
X152820822Y-99212310D01*
X152819410Y-99210589D01*
X152665238Y-99084065D01*
X152665231Y-99084060D01*
X152489348Y-98990048D01*
X152489342Y-98990046D01*
X152298485Y-98932150D01*
X152298483Y-98932149D01*
X152298481Y-98932149D01*
X152100000Y-98912601D01*
X151901518Y-98932149D01*
X151710651Y-98990048D01*
X151534768Y-99084060D01*
X151534761Y-99084065D01*
X151380589Y-99210589D01*
X151254065Y-99364761D01*
X151254060Y-99364768D01*
X151160048Y-99540651D01*
X151102149Y-99731518D01*
X151082601Y-99930000D01*
X136526393Y-99930000D01*
X133986393Y-97390000D01*
X151082601Y-97390000D01*
X151102149Y-97588481D01*
X151102149Y-97588483D01*
X151102150Y-97588485D01*
X151116109Y-97634500D01*
X151160048Y-97779348D01*
X151254060Y-97955231D01*
X151254065Y-97955238D01*
X151380589Y-98109410D01*
X151487875Y-98197456D01*
X151534763Y-98235936D01*
X151534766Y-98235937D01*
X151534768Y-98235939D01*
X151710651Y-98329951D01*
X151710654Y-98329951D01*
X151710658Y-98329954D01*
X151901515Y-98387850D01*
X152100000Y-98407399D01*
X152298485Y-98387850D01*
X152489342Y-98329954D01*
X152506562Y-98320750D01*
X152665231Y-98235939D01*
X152665229Y-98235939D01*
X152665237Y-98235936D01*
X152819410Y-98109410D01*
X152945936Y-97955237D01*
X153000574Y-97853017D01*
X153039951Y-97779348D01*
X153039951Y-97779347D01*
X153039954Y-97779342D01*
X153097850Y-97588485D01*
X153117399Y-97390000D01*
X153097850Y-97191515D01*
X153039954Y-97000658D01*
X153039951Y-97000654D01*
X153039951Y-97000651D01*
X152945939Y-96824768D01*
X152945937Y-96824766D01*
X152945936Y-96824763D01*
X152894281Y-96761821D01*
X152819410Y-96670589D01*
X152665238Y-96544065D01*
X152665231Y-96544060D01*
X152489348Y-96450048D01*
X152489342Y-96450046D01*
X152298485Y-96392150D01*
X152298483Y-96392149D01*
X152298481Y-96392149D01*
X152100000Y-96372601D01*
X151901518Y-96392149D01*
X151710651Y-96450048D01*
X151534768Y-96544060D01*
X151534761Y-96544065D01*
X151380589Y-96670589D01*
X151254065Y-96824761D01*
X151254060Y-96824768D01*
X151160048Y-97000651D01*
X151102149Y-97191518D01*
X151082601Y-97390000D01*
X133986393Y-97390000D01*
X131446393Y-94850000D01*
X151082601Y-94850000D01*
X151102149Y-95048481D01*
X151102149Y-95048483D01*
X151102150Y-95048485D01*
X151160046Y-95239342D01*
X151160048Y-95239348D01*
X151254060Y-95415231D01*
X151254065Y-95415238D01*
X151380589Y-95569410D01*
X151487875Y-95657456D01*
X151534763Y-95695936D01*
X151534766Y-95695937D01*
X151534768Y-95695939D01*
X151710651Y-95789951D01*
X151710654Y-95789951D01*
X151710658Y-95789954D01*
X151901515Y-95847850D01*
X152100000Y-95867399D01*
X152298485Y-95847850D01*
X152489342Y-95789954D01*
X152506562Y-95780750D01*
X152665231Y-95695939D01*
X152665229Y-95695939D01*
X152665237Y-95695936D01*
X152819410Y-95569410D01*
X152945936Y-95415237D01*
X153000574Y-95313017D01*
X153039951Y-95239348D01*
X153039951Y-95239347D01*
X153039954Y-95239342D01*
X153097850Y-95048485D01*
X153117399Y-94850000D01*
X153097850Y-94651515D01*
X153039954Y-94460658D01*
X153039951Y-94460654D01*
X153039951Y-94460651D01*
X152945939Y-94284768D01*
X152945937Y-94284766D01*
X152945936Y-94284763D01*
X152827133Y-94140000D01*
X152819410Y-94130589D01*
X152665238Y-94004065D01*
X152665231Y-94004060D01*
X152489348Y-93910048D01*
X152489342Y-93910046D01*
X152298485Y-93852150D01*
X152298483Y-93852149D01*
X152298481Y-93852149D01*
X152100000Y-93832601D01*
X151901518Y-93852149D01*
X151710651Y-93910048D01*
X151534768Y-94004060D01*
X151534761Y-94004065D01*
X151380589Y-94130589D01*
X151254065Y-94284761D01*
X151254060Y-94284768D01*
X151160048Y-94460651D01*
X151102149Y-94651518D01*
X151082601Y-94850000D01*
X131446393Y-94850000D01*
X131125913Y-94529520D01*
X131080250Y-94503156D01*
X131034589Y-94476793D01*
X130974344Y-94460651D01*
X130932727Y-94449500D01*
X130932726Y-94449500D01*
X130248313Y-94449500D01*
X130181274Y-94429815D01*
X130138955Y-94383953D01*
X130085939Y-94284768D01*
X130085937Y-94284766D01*
X130085936Y-94284763D01*
X129967133Y-94140000D01*
X129959410Y-94130589D01*
X129805238Y-94004065D01*
X129805231Y-94004060D01*
X129629348Y-93910048D01*
X129629342Y-93910046D01*
X129438485Y-93852150D01*
X129438483Y-93852149D01*
X129438481Y-93852149D01*
X129240000Y-93832601D01*
X129041518Y-93852149D01*
X128850651Y-93910048D01*
X128674768Y-94004060D01*
X128674761Y-94004065D01*
X128520589Y-94130589D01*
X128394065Y-94284761D01*
X128394060Y-94284768D01*
X128300048Y-94460651D01*
X128242149Y-94651518D01*
X128222601Y-94850000D01*
X113000500Y-94850000D01*
X113000500Y-92310000D01*
X128222601Y-92310000D01*
X128242149Y-92508481D01*
X128242149Y-92508483D01*
X128242150Y-92508485D01*
X128256110Y-92554505D01*
X128300048Y-92699348D01*
X128394060Y-92875231D01*
X128394065Y-92875238D01*
X128520589Y-93029410D01*
X128555645Y-93058179D01*
X128674763Y-93155936D01*
X128674766Y-93155937D01*
X128674768Y-93155939D01*
X128850651Y-93249951D01*
X128850654Y-93249951D01*
X128850658Y-93249954D01*
X129041515Y-93307850D01*
X129240000Y-93327399D01*
X129438485Y-93307850D01*
X129629342Y-93249954D01*
X129646562Y-93240750D01*
X129805231Y-93155939D01*
X129805229Y-93155939D01*
X129805237Y-93155936D01*
X129959410Y-93029410D01*
X130085936Y-92875237D01*
X130144661Y-92765371D01*
X130179951Y-92699348D01*
X130179951Y-92699347D01*
X130179954Y-92699342D01*
X130237850Y-92508485D01*
X130257399Y-92310000D01*
X151082601Y-92310000D01*
X151102149Y-92508481D01*
X151102149Y-92508483D01*
X151102150Y-92508485D01*
X151116110Y-92554505D01*
X151160048Y-92699348D01*
X151254060Y-92875231D01*
X151254065Y-92875238D01*
X151380589Y-93029410D01*
X151415645Y-93058179D01*
X151534763Y-93155936D01*
X151534766Y-93155937D01*
X151534768Y-93155939D01*
X151710651Y-93249951D01*
X151710654Y-93249951D01*
X151710658Y-93249954D01*
X151901515Y-93307850D01*
X152100000Y-93327399D01*
X152298485Y-93307850D01*
X152489342Y-93249954D01*
X152506562Y-93240750D01*
X152665231Y-93155939D01*
X152665229Y-93155939D01*
X152665237Y-93155936D01*
X152819410Y-93029410D01*
X152945936Y-92875237D01*
X152958088Y-92852501D01*
X152998955Y-92776047D01*
X153047917Y-92726203D01*
X153108313Y-92710500D01*
X153262745Y-92710500D01*
X153329784Y-92730185D01*
X153350426Y-92746819D01*
X155723181Y-95119574D01*
X155756666Y-95180897D01*
X155759500Y-95207255D01*
X155759500Y-112877771D01*
X155739815Y-112944810D01*
X155723181Y-112965452D01*
X155659523Y-113029109D01*
X155659518Y-113029115D01*
X155569547Y-113172302D01*
X155569545Y-113172305D01*
X155513685Y-113331943D01*
X155494751Y-113499997D01*
X155494751Y-113500002D01*
X155513685Y-113668056D01*
X155569545Y-113827694D01*
X155569547Y-113827697D01*
X155659518Y-113970884D01*
X155659523Y-113970890D01*
X155779109Y-114090476D01*
X155779115Y-114090481D01*
X155922302Y-114180452D01*
X155922305Y-114180454D01*
X155922309Y-114180455D01*
X155922310Y-114180456D01*
X155994913Y-114205860D01*
X156081943Y-114236314D01*
X156249997Y-114255249D01*
X156250000Y-114255249D01*
X156250003Y-114255249D01*
X156418056Y-114236314D01*
X156418059Y-114236313D01*
X156577690Y-114180456D01*
X156577692Y-114180454D01*
X156577694Y-114180454D01*
X156577697Y-114180452D01*
X156720884Y-114090481D01*
X156720885Y-114090480D01*
X156720890Y-114090477D01*
X156840477Y-113970890D01*
X156847320Y-113960000D01*
X156930452Y-113827697D01*
X156930454Y-113827694D01*
X156930454Y-113827692D01*
X156930456Y-113827690D01*
X156986313Y-113668059D01*
X156986313Y-113668058D01*
X156986314Y-113668056D01*
X157005249Y-113500002D01*
X157005249Y-113499997D01*
X156986314Y-113331943D01*
X156930454Y-113172305D01*
X156930452Y-113172302D01*
X156840481Y-113029115D01*
X156840476Y-113029109D01*
X156720888Y-112909521D01*
X156618527Y-112845203D01*
X156572237Y-112792869D01*
X156560500Y-112740210D01*
X156560500Y-99539997D01*
X158744751Y-99539997D01*
X158744751Y-99540002D01*
X158763685Y-99708056D01*
X158819545Y-99867694D01*
X158819547Y-99867697D01*
X158909518Y-100010884D01*
X158909523Y-100010890D01*
X159029109Y-100130476D01*
X159029115Y-100130481D01*
X159172302Y-100220452D01*
X159178583Y-100223477D01*
X159177273Y-100226195D01*
X159223146Y-100259020D01*
X159248965Y-100323944D01*
X159249500Y-100335448D01*
X159249500Y-115072726D01*
X159276793Y-115174589D01*
X159303156Y-115220250D01*
X159329520Y-115265913D01*
X159329522Y-115265915D01*
X159911649Y-115848042D01*
X159945134Y-115909365D01*
X159947188Y-115949606D01*
X159934751Y-116059995D01*
X159934751Y-116060002D01*
X159953685Y-116228056D01*
X160009545Y-116387694D01*
X160009547Y-116387697D01*
X160099518Y-116530884D01*
X160099523Y-116530890D01*
X160219109Y-116650476D01*
X160219115Y-116650481D01*
X160362302Y-116740452D01*
X160362305Y-116740454D01*
X160362309Y-116740455D01*
X160362310Y-116740456D01*
X160434913Y-116765860D01*
X160521943Y-116796314D01*
X160689997Y-116815249D01*
X160690000Y-116815249D01*
X160690003Y-116815249D01*
X160858056Y-116796314D01*
X160858059Y-116796313D01*
X161017690Y-116740456D01*
X161017692Y-116740454D01*
X161017694Y-116740454D01*
X161017697Y-116740452D01*
X161160884Y-116650481D01*
X161160885Y-116650480D01*
X161160890Y-116650477D01*
X161280477Y-116530890D01*
X161280481Y-116530884D01*
X161299887Y-116499999D01*
X162516785Y-116499999D01*
X162516785Y-116500000D01*
X162535602Y-116703082D01*
X162591417Y-116899247D01*
X162591422Y-116899260D01*
X162682327Y-117081821D01*
X162805237Y-117244581D01*
X162955958Y-117381980D01*
X162955960Y-117381982D01*
X163055141Y-117443392D01*
X163129363Y-117489348D01*
X163319544Y-117563024D01*
X163520024Y-117600500D01*
X163520026Y-117600500D01*
X163723974Y-117600500D01*
X163723976Y-117600500D01*
X163924456Y-117563024D01*
X164114637Y-117489348D01*
X164288041Y-117381981D01*
X164438764Y-117244579D01*
X164561673Y-117081821D01*
X164652582Y-116899250D01*
X164708397Y-116703083D01*
X164727215Y-116500000D01*
X164727215Y-116499999D01*
X165056785Y-116499999D01*
X165056785Y-116500000D01*
X165075602Y-116703082D01*
X165131417Y-116899247D01*
X165131422Y-116899260D01*
X165222327Y-117081821D01*
X165345237Y-117244581D01*
X165495958Y-117381980D01*
X165495960Y-117381982D01*
X165595141Y-117443392D01*
X165669363Y-117489348D01*
X165859544Y-117563024D01*
X166060024Y-117600500D01*
X166060026Y-117600500D01*
X166263974Y-117600500D01*
X166263976Y-117600500D01*
X166464456Y-117563024D01*
X166654637Y-117489348D01*
X166828041Y-117381981D01*
X166978764Y-117244579D01*
X167101673Y-117081821D01*
X167192582Y-116899250D01*
X167248397Y-116703083D01*
X167267215Y-116500000D01*
X167248397Y-116296917D01*
X167192582Y-116100750D01*
X167101673Y-115918179D01*
X166978764Y-115755421D01*
X166978762Y-115755418D01*
X166828041Y-115618019D01*
X166828039Y-115618017D01*
X166654642Y-115510655D01*
X166654635Y-115510651D01*
X166548457Y-115469518D01*
X166464456Y-115436976D01*
X166263976Y-115399500D01*
X166060024Y-115399500D01*
X165859544Y-115436976D01*
X165859541Y-115436976D01*
X165859541Y-115436977D01*
X165669364Y-115510651D01*
X165669357Y-115510655D01*
X165495960Y-115618017D01*
X165495958Y-115618019D01*
X165345237Y-115755418D01*
X165222327Y-115918178D01*
X165131422Y-116100739D01*
X165131417Y-116100752D01*
X165075602Y-116296917D01*
X165056785Y-116499999D01*
X164727215Y-116499999D01*
X164708397Y-116296917D01*
X164652582Y-116100750D01*
X164561673Y-115918179D01*
X164438764Y-115755421D01*
X164438762Y-115755418D01*
X164288041Y-115618019D01*
X164288039Y-115618017D01*
X164114642Y-115510655D01*
X164114635Y-115510651D01*
X164008457Y-115469518D01*
X163924456Y-115436976D01*
X163723976Y-115399500D01*
X163520024Y-115399500D01*
X163319544Y-115436976D01*
X163319541Y-115436976D01*
X163319541Y-115436977D01*
X163129364Y-115510651D01*
X163129357Y-115510655D01*
X162955960Y-115618017D01*
X162955958Y-115618019D01*
X162805237Y-115755418D01*
X162682327Y-115918178D01*
X162591422Y-116100739D01*
X162591417Y-116100752D01*
X162535602Y-116296917D01*
X162516785Y-116499999D01*
X161299887Y-116499999D01*
X161370452Y-116387697D01*
X161370454Y-116387694D01*
X161370454Y-116387692D01*
X161370456Y-116387690D01*
X161426313Y-116228059D01*
X161426313Y-116228058D01*
X161426314Y-116228056D01*
X161445249Y-116060002D01*
X161445249Y-116059997D01*
X161426314Y-115891943D01*
X161370454Y-115732305D01*
X161370452Y-115732302D01*
X161280481Y-115589115D01*
X161280476Y-115589109D01*
X161160890Y-115469523D01*
X161160884Y-115469518D01*
X161017697Y-115379547D01*
X161017694Y-115379545D01*
X160858056Y-115323685D01*
X160690003Y-115304751D01*
X160689996Y-115304751D01*
X160579606Y-115317188D01*
X160510784Y-115305133D01*
X160478042Y-115281649D01*
X160086819Y-114890426D01*
X160053334Y-114829103D01*
X160050500Y-114802745D01*
X160050500Y-113959999D01*
X162516785Y-113959999D01*
X162516785Y-113960000D01*
X162535602Y-114163082D01*
X162591417Y-114359247D01*
X162591422Y-114359260D01*
X162682327Y-114541821D01*
X162805237Y-114704581D01*
X162955958Y-114841980D01*
X162955960Y-114841982D01*
X163055141Y-114903392D01*
X163129363Y-114949348D01*
X163319544Y-115023024D01*
X163520024Y-115060500D01*
X163520026Y-115060500D01*
X163723974Y-115060500D01*
X163723976Y-115060500D01*
X163924456Y-115023024D01*
X164114637Y-114949348D01*
X164288041Y-114841981D01*
X164438764Y-114704579D01*
X164561673Y-114541821D01*
X164652582Y-114359250D01*
X164708397Y-114163083D01*
X164727215Y-113960000D01*
X164721115Y-113894174D01*
X164708397Y-113756917D01*
X164683114Y-113668059D01*
X164652582Y-113560750D01*
X164652159Y-113559901D01*
X164602415Y-113460000D01*
X164561673Y-113378179D01*
X164438764Y-113215421D01*
X164438762Y-113215418D01*
X164296106Y-113085371D01*
X165062000Y-113085371D01*
X165062000Y-113810000D01*
X165684555Y-113810000D01*
X165662000Y-113894174D01*
X165662000Y-114025826D01*
X165684555Y-114110000D01*
X165062000Y-114110000D01*
X165062000Y-114834628D01*
X165076503Y-114907540D01*
X165076505Y-114907544D01*
X165131760Y-114990239D01*
X165214455Y-115045494D01*
X165214459Y-115045496D01*
X165287371Y-115059999D01*
X165287374Y-115060000D01*
X166012000Y-115060000D01*
X166012000Y-114437445D01*
X166096174Y-114460000D01*
X166227826Y-114460000D01*
X166312000Y-114437445D01*
X166312000Y-115060000D01*
X167036626Y-115060000D01*
X167036628Y-115059999D01*
X167109540Y-115045496D01*
X167109544Y-115045494D01*
X167192239Y-114990239D01*
X167247494Y-114907544D01*
X167247496Y-114907540D01*
X167261999Y-114834628D01*
X167262000Y-114834626D01*
X167262000Y-114110000D01*
X166639445Y-114110000D01*
X166662000Y-114025826D01*
X166662000Y-113894174D01*
X166639445Y-113810000D01*
X167262000Y-113810000D01*
X167262000Y-113085373D01*
X167261999Y-113085371D01*
X167247496Y-113012459D01*
X167247494Y-113012455D01*
X167192239Y-112929760D01*
X167109544Y-112874505D01*
X167109540Y-112874503D01*
X167036627Y-112860000D01*
X166312000Y-112860000D01*
X166312000Y-113482554D01*
X166227826Y-113460000D01*
X166096174Y-113460000D01*
X166012000Y-113482554D01*
X166012000Y-112860000D01*
X165287373Y-112860000D01*
X165214459Y-112874503D01*
X165214455Y-112874505D01*
X165131760Y-112929760D01*
X165076505Y-113012455D01*
X165076503Y-113012459D01*
X165062000Y-113085371D01*
X164296106Y-113085371D01*
X164288041Y-113078019D01*
X164288039Y-113078017D01*
X164114642Y-112970655D01*
X164114635Y-112970651D01*
X164007463Y-112929133D01*
X163924456Y-112896976D01*
X163723976Y-112859500D01*
X163520024Y-112859500D01*
X163319544Y-112896976D01*
X163319541Y-112896976D01*
X163319541Y-112896977D01*
X163129364Y-112970651D01*
X163129357Y-112970655D01*
X162955960Y-113078017D01*
X162955958Y-113078019D01*
X162805237Y-113215418D01*
X162682327Y-113378178D01*
X162591422Y-113560739D01*
X162591417Y-113560752D01*
X162535602Y-113756917D01*
X162516785Y-113959999D01*
X160050500Y-113959999D01*
X160050500Y-111419999D01*
X162516785Y-111419999D01*
X162516785Y-111420000D01*
X162535602Y-111623082D01*
X162591417Y-111819247D01*
X162591422Y-111819260D01*
X162682327Y-112001821D01*
X162805237Y-112164581D01*
X162955958Y-112301980D01*
X162955960Y-112301982D01*
X163055141Y-112363392D01*
X163129363Y-112409348D01*
X163319544Y-112483024D01*
X163520024Y-112520500D01*
X163520026Y-112520500D01*
X163723974Y-112520500D01*
X163723976Y-112520500D01*
X163924456Y-112483024D01*
X164114637Y-112409348D01*
X164288041Y-112301981D01*
X164438764Y-112164579D01*
X164561673Y-112001821D01*
X164652582Y-111819250D01*
X164708397Y-111623083D01*
X164727215Y-111420000D01*
X164727215Y-111419999D01*
X165056785Y-111419999D01*
X165056785Y-111420000D01*
X165075602Y-111623082D01*
X165131417Y-111819247D01*
X165131422Y-111819260D01*
X165222327Y-112001821D01*
X165345237Y-112164581D01*
X165495958Y-112301980D01*
X165495960Y-112301982D01*
X165595141Y-112363392D01*
X165669363Y-112409348D01*
X165859544Y-112483024D01*
X166060024Y-112520500D01*
X166060026Y-112520500D01*
X166263974Y-112520500D01*
X166263976Y-112520500D01*
X166464456Y-112483024D01*
X166654637Y-112409348D01*
X166828041Y-112301981D01*
X166978764Y-112164579D01*
X167101673Y-112001821D01*
X167192582Y-111819250D01*
X167248397Y-111623083D01*
X167267215Y-111420000D01*
X167248397Y-111216917D01*
X167192582Y-111020750D01*
X167101673Y-110838179D01*
X166978764Y-110675421D01*
X166978762Y-110675418D01*
X166828041Y-110538019D01*
X166828039Y-110538017D01*
X166654642Y-110430655D01*
X166654635Y-110430651D01*
X166559546Y-110393814D01*
X166464456Y-110356976D01*
X166263976Y-110319500D01*
X166060024Y-110319500D01*
X165859544Y-110356976D01*
X165859541Y-110356976D01*
X165859541Y-110356977D01*
X165669364Y-110430651D01*
X165669357Y-110430655D01*
X165495960Y-110538017D01*
X165495958Y-110538019D01*
X165345237Y-110675418D01*
X165222327Y-110838178D01*
X165131422Y-111020739D01*
X165131417Y-111020752D01*
X165075602Y-111216917D01*
X165056785Y-111419999D01*
X164727215Y-111419999D01*
X164708397Y-111216917D01*
X164652582Y-111020750D01*
X164561673Y-110838179D01*
X164438764Y-110675421D01*
X164438762Y-110675418D01*
X164288041Y-110538019D01*
X164288039Y-110538017D01*
X164114642Y-110430655D01*
X164114635Y-110430651D01*
X164019546Y-110393814D01*
X163924456Y-110356976D01*
X163723976Y-110319500D01*
X163520024Y-110319500D01*
X163319544Y-110356976D01*
X163319541Y-110356976D01*
X163319541Y-110356977D01*
X163129364Y-110430651D01*
X163129357Y-110430655D01*
X162955960Y-110538017D01*
X162955958Y-110538019D01*
X162805237Y-110675418D01*
X162682327Y-110838178D01*
X162591422Y-111020739D01*
X162591417Y-111020752D01*
X162535602Y-111216917D01*
X162516785Y-111419999D01*
X160050500Y-111419999D01*
X160050500Y-108005371D01*
X162522000Y-108005371D01*
X162522000Y-108730000D01*
X163144555Y-108730000D01*
X163122000Y-108814174D01*
X163122000Y-108945826D01*
X163144555Y-109030000D01*
X162522000Y-109030000D01*
X162522000Y-109754628D01*
X162536503Y-109827540D01*
X162536505Y-109827544D01*
X162591760Y-109910239D01*
X162674455Y-109965494D01*
X162674459Y-109965496D01*
X162747371Y-109979999D01*
X162747374Y-109980000D01*
X163472000Y-109980000D01*
X163472000Y-109357445D01*
X163556174Y-109380000D01*
X163687826Y-109380000D01*
X163772000Y-109357445D01*
X163772000Y-109980000D01*
X164496626Y-109980000D01*
X164496628Y-109979999D01*
X164569540Y-109965496D01*
X164569544Y-109965494D01*
X164652239Y-109910239D01*
X164707494Y-109827544D01*
X164707496Y-109827540D01*
X164721999Y-109754628D01*
X164722000Y-109754626D01*
X164722000Y-109030000D01*
X164099445Y-109030000D01*
X164122000Y-108945826D01*
X164122000Y-108879999D01*
X165056785Y-108879999D01*
X165056785Y-108880000D01*
X165075602Y-109083082D01*
X165131417Y-109279247D01*
X165131422Y-109279260D01*
X165222327Y-109461821D01*
X165345237Y-109624581D01*
X165495958Y-109761980D01*
X165495960Y-109761982D01*
X165595141Y-109823392D01*
X165669363Y-109869348D01*
X165859544Y-109943024D01*
X166060024Y-109980500D01*
X166060026Y-109980500D01*
X166263974Y-109980500D01*
X166263976Y-109980500D01*
X166464456Y-109943024D01*
X166654637Y-109869348D01*
X166828041Y-109761981D01*
X166978764Y-109624579D01*
X167101673Y-109461821D01*
X167192582Y-109279250D01*
X167248397Y-109083083D01*
X167267215Y-108880000D01*
X167261115Y-108814174D01*
X167248397Y-108676917D01*
X167192582Y-108480750D01*
X167192159Y-108479901D01*
X167134783Y-108364673D01*
X167101673Y-108298179D01*
X167042704Y-108220091D01*
X166978762Y-108135418D01*
X166828041Y-107998019D01*
X166828039Y-107998017D01*
X166654642Y-107890655D01*
X166654635Y-107890651D01*
X166479825Y-107822930D01*
X166464456Y-107816976D01*
X166263976Y-107779500D01*
X166060024Y-107779500D01*
X165859544Y-107816976D01*
X165859541Y-107816976D01*
X165859541Y-107816977D01*
X165669364Y-107890651D01*
X165669357Y-107890655D01*
X165495960Y-107998017D01*
X165495958Y-107998019D01*
X165345237Y-108135418D01*
X165222327Y-108298178D01*
X165131422Y-108480739D01*
X165131417Y-108480752D01*
X165075602Y-108676917D01*
X165056785Y-108879999D01*
X164122000Y-108879999D01*
X164122000Y-108814174D01*
X164099445Y-108730000D01*
X164722000Y-108730000D01*
X164722000Y-108005373D01*
X164721999Y-108005371D01*
X164707496Y-107932459D01*
X164707494Y-107932455D01*
X164652239Y-107849760D01*
X164569544Y-107794505D01*
X164569540Y-107794503D01*
X164496627Y-107780000D01*
X163772000Y-107780000D01*
X163772000Y-108402554D01*
X163687826Y-108380000D01*
X163556174Y-108380000D01*
X163472000Y-108402554D01*
X163472000Y-107780000D01*
X162747373Y-107780000D01*
X162674459Y-107794503D01*
X162674455Y-107794505D01*
X162591760Y-107849760D01*
X162536505Y-107932455D01*
X162536503Y-107932459D01*
X162522000Y-108005371D01*
X160050500Y-108005371D01*
X160050500Y-106969997D01*
X160784751Y-106969997D01*
X160784751Y-106970002D01*
X160803685Y-107138056D01*
X160859545Y-107297694D01*
X160859547Y-107297697D01*
X160949518Y-107440884D01*
X160949523Y-107440890D01*
X161069109Y-107560476D01*
X161069115Y-107560481D01*
X161212302Y-107650452D01*
X161212305Y-107650454D01*
X161212309Y-107650455D01*
X161212310Y-107650456D01*
X161284913Y-107675860D01*
X161371943Y-107706314D01*
X161539997Y-107725249D01*
X161540000Y-107725249D01*
X161540003Y-107725249D01*
X161708056Y-107706314D01*
X161708059Y-107706313D01*
X161867690Y-107650456D01*
X161867692Y-107650454D01*
X161867694Y-107650454D01*
X161867697Y-107650452D01*
X162010884Y-107560481D01*
X162010885Y-107560480D01*
X162010890Y-107560477D01*
X162130477Y-107440890D01*
X162186576Y-107351610D01*
X162220452Y-107297697D01*
X162220454Y-107297694D01*
X162220454Y-107297692D01*
X162220456Y-107297690D01*
X162276313Y-107138059D01*
X162276313Y-107138058D01*
X162276314Y-107138056D01*
X162295249Y-106970002D01*
X162295249Y-106969997D01*
X162276314Y-106801943D01*
X162254380Y-106739260D01*
X162220456Y-106642310D01*
X162181855Y-106580877D01*
X162162855Y-106513641D01*
X162183222Y-106446805D01*
X162199158Y-106427233D01*
X162310470Y-106315921D01*
X162371788Y-106282440D01*
X162441480Y-106287424D01*
X162497414Y-106329295D01*
X162521618Y-106392164D01*
X162531380Y-106497513D01*
X162535603Y-106543083D01*
X162563835Y-106642307D01*
X162591417Y-106739247D01*
X162591422Y-106739260D01*
X162682327Y-106921821D01*
X162805237Y-107084581D01*
X162955958Y-107221980D01*
X162955960Y-107221982D01*
X163019482Y-107261313D01*
X163129363Y-107329348D01*
X163319544Y-107403024D01*
X163520024Y-107440500D01*
X163520026Y-107440500D01*
X163723974Y-107440500D01*
X163723976Y-107440500D01*
X163924456Y-107403024D01*
X164114637Y-107329348D01*
X164288041Y-107221981D01*
X164438764Y-107084579D01*
X164561673Y-106921821D01*
X164652582Y-106739250D01*
X164708397Y-106543083D01*
X164727215Y-106340000D01*
X164727215Y-106339999D01*
X165056785Y-106339999D01*
X165056785Y-106340000D01*
X165075602Y-106543082D01*
X165131417Y-106739247D01*
X165131422Y-106739260D01*
X165222327Y-106921821D01*
X165345237Y-107084581D01*
X165495958Y-107221980D01*
X165495960Y-107221982D01*
X165559482Y-107261313D01*
X165669363Y-107329348D01*
X165859544Y-107403024D01*
X166060024Y-107440500D01*
X166060026Y-107440500D01*
X166263974Y-107440500D01*
X166263976Y-107440500D01*
X166464456Y-107403024D01*
X166654637Y-107329348D01*
X166828041Y-107221981D01*
X166978764Y-107084579D01*
X167101673Y-106921821D01*
X167192582Y-106739250D01*
X167248397Y-106543083D01*
X167267215Y-106340000D01*
X167248397Y-106136917D01*
X167192582Y-105940750D01*
X167189481Y-105934523D01*
X167125864Y-105806761D01*
X167101673Y-105758179D01*
X166978764Y-105595421D01*
X166978762Y-105595418D01*
X166828041Y-105458019D01*
X166828039Y-105458017D01*
X166654642Y-105350655D01*
X166654635Y-105350651D01*
X166559546Y-105313814D01*
X166464456Y-105276976D01*
X166263976Y-105239500D01*
X166060024Y-105239500D01*
X165859544Y-105276976D01*
X165859541Y-105276976D01*
X165859541Y-105276977D01*
X165669364Y-105350651D01*
X165669357Y-105350655D01*
X165495960Y-105458017D01*
X165495958Y-105458019D01*
X165345237Y-105595418D01*
X165222327Y-105758178D01*
X165131422Y-105940739D01*
X165131417Y-105940752D01*
X165075602Y-106136917D01*
X165056785Y-106339999D01*
X164727215Y-106339999D01*
X164708397Y-106136917D01*
X164652582Y-105940750D01*
X164649481Y-105934523D01*
X164585864Y-105806761D01*
X164561673Y-105758179D01*
X164471845Y-105639227D01*
X164447153Y-105573865D01*
X164461718Y-105505531D01*
X164510916Y-105455918D01*
X164570799Y-105440500D01*
X164974725Y-105440500D01*
X164974727Y-105440500D01*
X165076588Y-105413207D01*
X165167913Y-105360480D01*
X165662455Y-104865936D01*
X165723776Y-104832453D01*
X165793467Y-104837437D01*
X165794927Y-104837992D01*
X165859538Y-104863022D01*
X165859539Y-104863022D01*
X165859544Y-104863024D01*
X166060024Y-104900500D01*
X166060026Y-104900500D01*
X166263974Y-104900500D01*
X166263976Y-104900500D01*
X166464456Y-104863024D01*
X166654637Y-104789348D01*
X166828041Y-104681981D01*
X166978764Y-104544579D01*
X167101673Y-104381821D01*
X167192582Y-104199250D01*
X167248397Y-104003083D01*
X167267215Y-103800000D01*
X167248397Y-103596917D01*
X167192582Y-103400750D01*
X167101673Y-103218179D01*
X166978764Y-103055421D01*
X166978762Y-103055418D01*
X166828041Y-102918019D01*
X166828039Y-102918017D01*
X166654642Y-102810655D01*
X166654635Y-102810651D01*
X166559546Y-102773814D01*
X166464456Y-102736976D01*
X166263976Y-102699500D01*
X166060024Y-102699500D01*
X165859544Y-102736976D01*
X165859541Y-102736976D01*
X165859541Y-102736977D01*
X165669364Y-102810651D01*
X165669357Y-102810655D01*
X165495960Y-102918017D01*
X165495958Y-102918019D01*
X165345237Y-103055418D01*
X165222327Y-103218178D01*
X165131422Y-103400739D01*
X165131417Y-103400752D01*
X165075602Y-103596917D01*
X165056785Y-103799999D01*
X165056785Y-103800000D01*
X165075602Y-104003082D01*
X165075603Y-104003085D01*
X165125859Y-104179716D01*
X165125272Y-104249583D01*
X165094274Y-104301331D01*
X164792424Y-104603182D01*
X164731103Y-104636666D01*
X164704745Y-104639500D01*
X164616109Y-104639500D01*
X164549070Y-104619815D01*
X164503315Y-104567011D01*
X164493371Y-104497853D01*
X164517155Y-104440774D01*
X164561671Y-104381824D01*
X164561671Y-104381822D01*
X164561673Y-104381821D01*
X164652582Y-104199250D01*
X164708397Y-104003083D01*
X164727215Y-103800000D01*
X164708397Y-103596917D01*
X164652582Y-103400750D01*
X164561673Y-103218179D01*
X164438764Y-103055421D01*
X164438762Y-103055418D01*
X164288041Y-102918019D01*
X164288039Y-102918017D01*
X164114642Y-102810655D01*
X164114635Y-102810651D01*
X164019546Y-102773814D01*
X163924456Y-102736976D01*
X163723976Y-102699500D01*
X163520024Y-102699500D01*
X163319544Y-102736976D01*
X163319541Y-102736976D01*
X163319541Y-102736977D01*
X163129364Y-102810651D01*
X163129357Y-102810655D01*
X162955960Y-102918017D01*
X162955958Y-102918019D01*
X162805237Y-103055418D01*
X162682327Y-103218178D01*
X162591422Y-103400739D01*
X162591417Y-103400752D01*
X162535602Y-103596917D01*
X162516785Y-103799999D01*
X162516785Y-103800000D01*
X162535602Y-104003082D01*
X162591417Y-104199247D01*
X162591422Y-104199260D01*
X162682328Y-104381824D01*
X162803296Y-104542012D01*
X162827988Y-104607373D01*
X162813423Y-104675708D01*
X162779834Y-104715110D01*
X162774085Y-104719521D01*
X161219514Y-106274092D01*
X161216874Y-106277533D01*
X161184480Y-106307029D01*
X161069113Y-106379520D01*
X161069111Y-106379521D01*
X160949523Y-106499109D01*
X160949518Y-106499115D01*
X160859547Y-106642302D01*
X160859545Y-106642305D01*
X160803685Y-106801943D01*
X160784751Y-106969997D01*
X160050500Y-106969997D01*
X160050500Y-101259999D01*
X162516785Y-101259999D01*
X162516785Y-101260000D01*
X162535602Y-101463082D01*
X162591417Y-101659247D01*
X162591422Y-101659260D01*
X162682327Y-101841821D01*
X162805237Y-102004581D01*
X162955958Y-102141980D01*
X162955960Y-102141982D01*
X163055141Y-102203392D01*
X163129363Y-102249348D01*
X163319544Y-102323024D01*
X163520024Y-102360500D01*
X163520026Y-102360500D01*
X163723974Y-102360500D01*
X163723976Y-102360500D01*
X163924456Y-102323024D01*
X164114637Y-102249348D01*
X164288041Y-102141981D01*
X164423774Y-102018244D01*
X164438762Y-102004581D01*
X164438764Y-102004579D01*
X164561673Y-101841821D01*
X164652582Y-101659250D01*
X164708397Y-101463083D01*
X164727215Y-101260000D01*
X164726468Y-101251943D01*
X164708397Y-101056917D01*
X164680389Y-100958482D01*
X164652582Y-100860750D01*
X164652159Y-100859901D01*
X164598308Y-100751752D01*
X164561673Y-100678179D01*
X164450451Y-100530897D01*
X164438762Y-100515418D01*
X164296106Y-100385371D01*
X165062000Y-100385371D01*
X165062000Y-101110000D01*
X165684555Y-101110000D01*
X165662000Y-101194174D01*
X165662000Y-101325826D01*
X165684555Y-101410000D01*
X165062000Y-101410000D01*
X165062000Y-102134628D01*
X165076503Y-102207540D01*
X165076505Y-102207544D01*
X165131760Y-102290239D01*
X165214455Y-102345494D01*
X165214459Y-102345496D01*
X165287371Y-102359999D01*
X165287374Y-102360000D01*
X166012000Y-102360000D01*
X166012000Y-101737445D01*
X166096174Y-101760000D01*
X166227826Y-101760000D01*
X166312000Y-101737445D01*
X166312000Y-102360000D01*
X167036626Y-102360000D01*
X167036628Y-102359999D01*
X167109540Y-102345496D01*
X167109544Y-102345494D01*
X167192239Y-102290239D01*
X167247494Y-102207544D01*
X167247496Y-102207540D01*
X167261999Y-102134628D01*
X167262000Y-102134626D01*
X167262000Y-101410000D01*
X166639445Y-101410000D01*
X166662000Y-101325826D01*
X166662000Y-101194174D01*
X166639445Y-101110000D01*
X167262000Y-101110000D01*
X167262000Y-100385373D01*
X167261999Y-100385371D01*
X167247496Y-100312459D01*
X167247494Y-100312455D01*
X167192239Y-100229760D01*
X167109544Y-100174505D01*
X167109540Y-100174503D01*
X167036627Y-100160000D01*
X166312000Y-100160000D01*
X166312000Y-100782554D01*
X166227826Y-100760000D01*
X166096174Y-100760000D01*
X166012000Y-100782554D01*
X166012000Y-100160000D01*
X165287373Y-100160000D01*
X165214459Y-100174503D01*
X165214455Y-100174505D01*
X165131760Y-100229760D01*
X165076505Y-100312455D01*
X165076503Y-100312459D01*
X165062000Y-100385371D01*
X164296106Y-100385371D01*
X164288041Y-100378019D01*
X164288039Y-100378017D01*
X164114642Y-100270655D01*
X164114635Y-100270651D01*
X163963178Y-100211977D01*
X163924456Y-100196976D01*
X163723976Y-100159500D01*
X163520024Y-100159500D01*
X163319544Y-100196976D01*
X163319541Y-100196976D01*
X163319541Y-100196977D01*
X163129364Y-100270651D01*
X163129357Y-100270655D01*
X162955960Y-100378017D01*
X162955958Y-100378019D01*
X162805237Y-100515418D01*
X162682327Y-100678178D01*
X162591422Y-100860739D01*
X162591417Y-100860752D01*
X162535602Y-101056917D01*
X162516785Y-101259999D01*
X160050500Y-101259999D01*
X160050500Y-100102229D01*
X160070185Y-100035190D01*
X160086819Y-100014548D01*
X160090477Y-100010890D01*
X160180452Y-99867697D01*
X160180454Y-99867694D01*
X160180454Y-99867692D01*
X160180456Y-99867690D01*
X160236313Y-99708059D01*
X160236313Y-99708058D01*
X160236314Y-99708056D01*
X160255249Y-99540002D01*
X160255249Y-99539997D01*
X160236314Y-99371943D01*
X160180454Y-99212305D01*
X160180452Y-99212302D01*
X160090481Y-99069115D01*
X160090476Y-99069109D01*
X159970890Y-98949523D01*
X159970884Y-98949518D01*
X159827697Y-98859547D01*
X159827694Y-98859545D01*
X159668056Y-98803685D01*
X159500003Y-98784751D01*
X159499997Y-98784751D01*
X159331943Y-98803685D01*
X159172305Y-98859545D01*
X159172302Y-98859547D01*
X159029115Y-98949518D01*
X159029109Y-98949523D01*
X158909523Y-99069109D01*
X158909518Y-99069115D01*
X158819547Y-99212302D01*
X158819545Y-99212305D01*
X158763685Y-99371943D01*
X158744751Y-99539997D01*
X156560500Y-99539997D01*
X156560500Y-98719999D01*
X162516785Y-98719999D01*
X162516785Y-98720000D01*
X162535602Y-98923082D01*
X162591417Y-99119247D01*
X162591422Y-99119260D01*
X162682327Y-99301821D01*
X162805237Y-99464581D01*
X162955958Y-99601980D01*
X162955960Y-99601982D01*
X162980186Y-99616982D01*
X163129363Y-99709348D01*
X163319544Y-99783024D01*
X163520024Y-99820500D01*
X163520026Y-99820500D01*
X163723974Y-99820500D01*
X163723976Y-99820500D01*
X163924456Y-99783024D01*
X164114637Y-99709348D01*
X164288041Y-99601981D01*
X164438764Y-99464579D01*
X164561673Y-99301821D01*
X164652582Y-99119250D01*
X164708397Y-98923083D01*
X164727215Y-98720000D01*
X164727215Y-98719999D01*
X165056785Y-98719999D01*
X165056785Y-98720000D01*
X165075602Y-98923082D01*
X165131417Y-99119247D01*
X165131422Y-99119260D01*
X165222327Y-99301821D01*
X165345237Y-99464581D01*
X165495958Y-99601980D01*
X165495960Y-99601982D01*
X165520186Y-99616982D01*
X165669363Y-99709348D01*
X165859544Y-99783024D01*
X166060024Y-99820500D01*
X166060026Y-99820500D01*
X166263974Y-99820500D01*
X166263976Y-99820500D01*
X166464456Y-99783024D01*
X166654637Y-99709348D01*
X166828041Y-99601981D01*
X166978764Y-99464579D01*
X167101673Y-99301821D01*
X167192582Y-99119250D01*
X167248397Y-98923083D01*
X167267215Y-98720000D01*
X167248397Y-98516917D01*
X167192582Y-98320750D01*
X167101673Y-98138179D01*
X167042704Y-98060091D01*
X166978762Y-97975418D01*
X166828041Y-97838019D01*
X166828039Y-97838017D01*
X166654642Y-97730655D01*
X166654635Y-97730651D01*
X166503178Y-97671977D01*
X166464456Y-97656976D01*
X166263976Y-97619500D01*
X166060024Y-97619500D01*
X165859544Y-97656976D01*
X165859541Y-97656976D01*
X165859541Y-97656977D01*
X165669364Y-97730651D01*
X165669357Y-97730655D01*
X165495960Y-97838017D01*
X165495958Y-97838019D01*
X165345237Y-97975418D01*
X165222327Y-98138178D01*
X165131422Y-98320739D01*
X165131417Y-98320752D01*
X165075602Y-98516917D01*
X165056785Y-98719999D01*
X164727215Y-98719999D01*
X164708397Y-98516917D01*
X164652582Y-98320750D01*
X164561673Y-98138179D01*
X164502704Y-98060091D01*
X164438762Y-97975418D01*
X164288041Y-97838019D01*
X164288039Y-97838017D01*
X164114642Y-97730655D01*
X164114635Y-97730651D01*
X163963178Y-97671977D01*
X163924456Y-97656976D01*
X163723976Y-97619500D01*
X163520024Y-97619500D01*
X163319544Y-97656976D01*
X163319541Y-97656976D01*
X163319541Y-97656977D01*
X163129364Y-97730651D01*
X163129357Y-97730655D01*
X162955960Y-97838017D01*
X162955958Y-97838019D01*
X162805237Y-97975418D01*
X162682327Y-98138178D01*
X162591422Y-98320739D01*
X162591417Y-98320752D01*
X162535602Y-98516917D01*
X162516785Y-98719999D01*
X156560500Y-98719999D01*
X156560500Y-96179999D01*
X162516785Y-96179999D01*
X162516785Y-96180000D01*
X162535602Y-96383082D01*
X162591417Y-96579247D01*
X162591422Y-96579260D01*
X162682327Y-96761821D01*
X162805237Y-96924581D01*
X162955958Y-97061980D01*
X162955960Y-97061982D01*
X162980186Y-97076982D01*
X163129363Y-97169348D01*
X163319544Y-97243024D01*
X163520024Y-97280500D01*
X163520026Y-97280500D01*
X163723974Y-97280500D01*
X163723976Y-97280500D01*
X163924456Y-97243024D01*
X164114637Y-97169348D01*
X164288041Y-97061981D01*
X164438764Y-96924579D01*
X164561673Y-96761821D01*
X164652582Y-96579250D01*
X164708397Y-96383083D01*
X164727215Y-96180000D01*
X164727215Y-96179999D01*
X165056785Y-96179999D01*
X165056785Y-96180000D01*
X165075602Y-96383082D01*
X165131417Y-96579247D01*
X165131422Y-96579260D01*
X165222327Y-96761821D01*
X165345237Y-96924581D01*
X165495958Y-97061980D01*
X165495960Y-97061982D01*
X165520186Y-97076982D01*
X165669363Y-97169348D01*
X165859544Y-97243024D01*
X166060024Y-97280500D01*
X166060026Y-97280500D01*
X166263974Y-97280500D01*
X166263976Y-97280500D01*
X166464456Y-97243024D01*
X166654637Y-97169348D01*
X166828041Y-97061981D01*
X166978764Y-96924579D01*
X167101673Y-96761821D01*
X167192582Y-96579250D01*
X167248397Y-96383083D01*
X167267215Y-96180000D01*
X167248397Y-95976917D01*
X167192582Y-95780750D01*
X167101673Y-95598179D01*
X167042704Y-95520091D01*
X166978762Y-95435418D01*
X166828041Y-95298019D01*
X166828039Y-95298017D01*
X166654642Y-95190655D01*
X166654635Y-95190651D01*
X166503178Y-95131977D01*
X166464456Y-95116976D01*
X166263976Y-95079500D01*
X166060024Y-95079500D01*
X165859544Y-95116976D01*
X165859541Y-95116976D01*
X165859541Y-95116977D01*
X165669364Y-95190651D01*
X165669357Y-95190655D01*
X165495960Y-95298017D01*
X165495958Y-95298019D01*
X165345237Y-95435418D01*
X165222327Y-95598178D01*
X165131422Y-95780739D01*
X165131417Y-95780752D01*
X165075602Y-95976917D01*
X165056785Y-96179999D01*
X164727215Y-96179999D01*
X164708397Y-95976917D01*
X164652582Y-95780750D01*
X164561673Y-95598179D01*
X164502704Y-95520091D01*
X164438762Y-95435418D01*
X164288041Y-95298019D01*
X164288039Y-95298017D01*
X164114642Y-95190655D01*
X164114635Y-95190651D01*
X163963178Y-95131977D01*
X163924456Y-95116976D01*
X163723976Y-95079500D01*
X163520024Y-95079500D01*
X163319544Y-95116976D01*
X163319541Y-95116976D01*
X163319541Y-95116977D01*
X163129364Y-95190651D01*
X163129357Y-95190655D01*
X162955960Y-95298017D01*
X162955958Y-95298019D01*
X162805237Y-95435418D01*
X162682327Y-95598178D01*
X162591422Y-95780739D01*
X162591417Y-95780752D01*
X162535602Y-95976917D01*
X162516785Y-96179999D01*
X156560500Y-96179999D01*
X156560500Y-94937275D01*
X156560500Y-94937273D01*
X156533207Y-94835413D01*
X156480480Y-94744087D01*
X156405913Y-94669520D01*
X155376392Y-93639999D01*
X162516785Y-93639999D01*
X162516785Y-93640000D01*
X162535602Y-93843082D01*
X162591417Y-94039247D01*
X162591422Y-94039260D01*
X162682327Y-94221821D01*
X162805237Y-94384581D01*
X162955958Y-94521980D01*
X162955960Y-94521982D01*
X162968138Y-94529522D01*
X163129363Y-94629348D01*
X163319544Y-94703024D01*
X163520024Y-94740500D01*
X163520026Y-94740500D01*
X163723974Y-94740500D01*
X163723976Y-94740500D01*
X163924456Y-94703024D01*
X164114637Y-94629348D01*
X164288041Y-94521981D01*
X164438764Y-94384579D01*
X164561673Y-94221821D01*
X164652582Y-94039250D01*
X164708397Y-93843083D01*
X164727215Y-93640000D01*
X164721115Y-93574174D01*
X164708397Y-93436917D01*
X164652582Y-93240750D01*
X164652159Y-93239901D01*
X164602415Y-93140000D01*
X164561673Y-93058179D01*
X164438764Y-92895421D01*
X164438762Y-92895418D01*
X164296106Y-92765371D01*
X165062000Y-92765371D01*
X165062000Y-93490000D01*
X165684555Y-93490000D01*
X165662000Y-93574174D01*
X165662000Y-93705826D01*
X165684555Y-93790000D01*
X165062000Y-93790000D01*
X165062000Y-94514628D01*
X165076503Y-94587540D01*
X165076505Y-94587544D01*
X165131760Y-94670239D01*
X165214455Y-94725494D01*
X165214459Y-94725496D01*
X165287371Y-94739999D01*
X165287374Y-94740000D01*
X166012000Y-94740000D01*
X166012000Y-94117445D01*
X166096174Y-94140000D01*
X166227826Y-94140000D01*
X166312000Y-94117445D01*
X166312000Y-94740000D01*
X167036626Y-94740000D01*
X167036628Y-94739999D01*
X167109540Y-94725496D01*
X167109544Y-94725494D01*
X167192239Y-94670239D01*
X167247494Y-94587544D01*
X167247496Y-94587540D01*
X167261999Y-94514628D01*
X167262000Y-94514626D01*
X167262000Y-93790000D01*
X166639445Y-93790000D01*
X166662000Y-93705826D01*
X166662000Y-93574174D01*
X166639445Y-93490000D01*
X167262000Y-93490000D01*
X167262000Y-92765373D01*
X167261999Y-92765371D01*
X167247496Y-92692459D01*
X167247494Y-92692455D01*
X167192239Y-92609760D01*
X167109544Y-92554505D01*
X167109540Y-92554503D01*
X167036627Y-92540000D01*
X166312000Y-92540000D01*
X166312000Y-93162554D01*
X166227826Y-93140000D01*
X166096174Y-93140000D01*
X166012000Y-93162554D01*
X166012000Y-92540000D01*
X165287373Y-92540000D01*
X165214459Y-92554503D01*
X165214455Y-92554505D01*
X165131760Y-92609760D01*
X165076505Y-92692455D01*
X165076503Y-92692459D01*
X165062000Y-92765371D01*
X164296106Y-92765371D01*
X164288041Y-92758019D01*
X164288039Y-92758017D01*
X164114642Y-92650655D01*
X164114635Y-92650651D01*
X164009082Y-92609760D01*
X163924456Y-92576976D01*
X163723976Y-92539500D01*
X163520024Y-92539500D01*
X163319544Y-92576976D01*
X163319541Y-92576976D01*
X163319541Y-92576977D01*
X163129364Y-92650651D01*
X163129357Y-92650655D01*
X162955960Y-92758017D01*
X162955958Y-92758019D01*
X162805237Y-92895418D01*
X162682327Y-93058178D01*
X162591422Y-93240739D01*
X162591417Y-93240752D01*
X162535602Y-93436917D01*
X162516785Y-93639999D01*
X155376392Y-93639999D01*
X153725913Y-91989520D01*
X153680250Y-91963156D01*
X153634589Y-91936793D01*
X153574344Y-91920651D01*
X153532727Y-91909500D01*
X153532726Y-91909500D01*
X153108313Y-91909500D01*
X153041274Y-91889815D01*
X152998955Y-91843953D01*
X152945939Y-91744768D01*
X152945937Y-91744766D01*
X152945936Y-91744763D01*
X152894281Y-91681821D01*
X152819410Y-91590589D01*
X152665238Y-91464065D01*
X152665231Y-91464060D01*
X152489348Y-91370048D01*
X152489342Y-91370046D01*
X152298485Y-91312150D01*
X152298483Y-91312149D01*
X152298481Y-91312149D01*
X152100000Y-91292601D01*
X151901518Y-91312149D01*
X151710651Y-91370048D01*
X151534768Y-91464060D01*
X151534761Y-91464065D01*
X151380589Y-91590589D01*
X151254065Y-91744761D01*
X151254060Y-91744768D01*
X151160048Y-91920651D01*
X151102149Y-92111518D01*
X151082601Y-92310000D01*
X130257399Y-92310000D01*
X130237850Y-92111515D01*
X130179954Y-91920658D01*
X130179951Y-91920654D01*
X130179951Y-91920651D01*
X130085939Y-91744768D01*
X130085937Y-91744766D01*
X130085936Y-91744763D01*
X130034281Y-91681821D01*
X129959410Y-91590589D01*
X129805238Y-91464065D01*
X129805231Y-91464060D01*
X129629348Y-91370048D01*
X129629342Y-91370046D01*
X129438485Y-91312150D01*
X129438483Y-91312149D01*
X129438481Y-91312149D01*
X129240000Y-91292601D01*
X129041518Y-91312149D01*
X128850651Y-91370048D01*
X128674768Y-91464060D01*
X128674761Y-91464065D01*
X128520589Y-91590589D01*
X128394065Y-91744761D01*
X128394060Y-91744768D01*
X128300048Y-91920651D01*
X128242149Y-92111518D01*
X128222601Y-92310000D01*
X113000500Y-92310000D01*
X113000500Y-91099999D01*
X162516785Y-91099999D01*
X162516785Y-91100000D01*
X162535602Y-91303082D01*
X162591417Y-91499247D01*
X162591422Y-91499260D01*
X162682327Y-91681821D01*
X162805237Y-91844581D01*
X162955958Y-91981980D01*
X162955960Y-91981982D01*
X162968138Y-91989522D01*
X163129363Y-92089348D01*
X163319544Y-92163024D01*
X163520024Y-92200500D01*
X163520026Y-92200500D01*
X163723974Y-92200500D01*
X163723976Y-92200500D01*
X163924456Y-92163024D01*
X164114637Y-92089348D01*
X164288041Y-91981981D01*
X164438764Y-91844579D01*
X164561673Y-91681821D01*
X164652582Y-91499250D01*
X164708397Y-91303083D01*
X164727215Y-91100000D01*
X164727215Y-91099999D01*
X165056785Y-91099999D01*
X165056785Y-91100000D01*
X165075602Y-91303082D01*
X165131417Y-91499247D01*
X165131422Y-91499260D01*
X165222327Y-91681821D01*
X165345237Y-91844581D01*
X165495958Y-91981980D01*
X165495960Y-91981982D01*
X165508138Y-91989522D01*
X165669363Y-92089348D01*
X165859544Y-92163024D01*
X166060024Y-92200500D01*
X166060026Y-92200500D01*
X166263974Y-92200500D01*
X166263976Y-92200500D01*
X166464456Y-92163024D01*
X166654637Y-92089348D01*
X166828041Y-91981981D01*
X166978764Y-91844579D01*
X167101673Y-91681821D01*
X167192582Y-91499250D01*
X167248397Y-91303083D01*
X167267215Y-91100000D01*
X167248397Y-90896917D01*
X167192582Y-90700750D01*
X167157223Y-90629740D01*
X167120841Y-90556674D01*
X167101673Y-90518179D01*
X166978764Y-90355421D01*
X166978762Y-90355418D01*
X166828041Y-90218019D01*
X166828039Y-90218017D01*
X166654642Y-90110655D01*
X166654635Y-90110651D01*
X166559546Y-90073814D01*
X166464456Y-90036976D01*
X166263976Y-89999500D01*
X166060024Y-89999500D01*
X165859544Y-90036976D01*
X165859541Y-90036976D01*
X165859541Y-90036977D01*
X165669364Y-90110651D01*
X165669357Y-90110655D01*
X165495960Y-90218017D01*
X165495958Y-90218019D01*
X165345237Y-90355418D01*
X165222327Y-90518178D01*
X165131422Y-90700739D01*
X165131417Y-90700752D01*
X165075602Y-90896917D01*
X165056785Y-91099999D01*
X164727215Y-91099999D01*
X164708397Y-90896917D01*
X164652582Y-90700750D01*
X164617223Y-90629740D01*
X164580841Y-90556674D01*
X164561673Y-90518179D01*
X164438764Y-90355421D01*
X164438762Y-90355418D01*
X164288041Y-90218019D01*
X164288039Y-90218017D01*
X164114642Y-90110655D01*
X164114635Y-90110651D01*
X164019546Y-90073814D01*
X163924456Y-90036976D01*
X163723976Y-89999500D01*
X163520024Y-89999500D01*
X163319544Y-90036976D01*
X163319541Y-90036976D01*
X163319541Y-90036977D01*
X163129364Y-90110651D01*
X163129357Y-90110655D01*
X162955960Y-90218017D01*
X162955958Y-90218019D01*
X162805237Y-90355418D01*
X162682327Y-90518178D01*
X162591422Y-90700739D01*
X162591417Y-90700752D01*
X162535602Y-90896917D01*
X162516785Y-91099999D01*
X113000500Y-91099999D01*
X113000500Y-88907121D01*
X128151300Y-88907121D01*
X128151300Y-90632878D01*
X128165832Y-90705935D01*
X128165833Y-90705939D01*
X128184205Y-90733435D01*
X128221199Y-90788801D01*
X128304060Y-90844166D01*
X128304064Y-90844167D01*
X128377121Y-90858699D01*
X128377124Y-90858700D01*
X128377126Y-90858700D01*
X130102876Y-90858700D01*
X130102877Y-90858699D01*
X130175940Y-90844166D01*
X130258801Y-90788801D01*
X130314166Y-90705940D01*
X130328700Y-90632874D01*
X130328700Y-88983321D01*
X151087500Y-88983321D01*
X151087500Y-90556678D01*
X151102032Y-90629735D01*
X151102033Y-90629739D01*
X151120405Y-90657235D01*
X151157399Y-90712601D01*
X151240260Y-90767966D01*
X151240264Y-90767967D01*
X151313321Y-90782499D01*
X151313324Y-90782500D01*
X151313326Y-90782500D01*
X152886676Y-90782500D01*
X152886677Y-90782499D01*
X152959740Y-90767966D01*
X153042601Y-90712601D01*
X153097966Y-90629740D01*
X153112500Y-90556674D01*
X153112500Y-88983326D01*
X153112500Y-88983323D01*
X153112499Y-88983321D01*
X153097967Y-88910264D01*
X153097966Y-88910260D01*
X153095869Y-88907121D01*
X153042601Y-88827399D01*
X152959740Y-88772034D01*
X152959739Y-88772033D01*
X152959735Y-88772032D01*
X152886677Y-88757500D01*
X152886674Y-88757500D01*
X151313326Y-88757500D01*
X151313323Y-88757500D01*
X151240264Y-88772032D01*
X151240260Y-88772033D01*
X151157399Y-88827399D01*
X151102033Y-88910260D01*
X151102032Y-88910264D01*
X151087500Y-88983321D01*
X130328700Y-88983321D01*
X130328700Y-88907126D01*
X130328700Y-88907123D01*
X130328699Y-88907121D01*
X130314167Y-88834064D01*
X130314166Y-88834060D01*
X130272722Y-88772034D01*
X130258801Y-88751199D01*
X130175940Y-88695834D01*
X130175939Y-88695833D01*
X130175935Y-88695832D01*
X130102877Y-88681300D01*
X130102874Y-88681300D01*
X128377126Y-88681300D01*
X128377123Y-88681300D01*
X128304064Y-88695832D01*
X128304060Y-88695833D01*
X128221199Y-88751199D01*
X128165833Y-88834060D01*
X128165832Y-88834064D01*
X128151300Y-88907121D01*
X113000500Y-88907121D01*
X113000500Y-87685371D01*
X162522000Y-87685371D01*
X162522000Y-88410000D01*
X163144555Y-88410000D01*
X163122000Y-88494174D01*
X163122000Y-88625826D01*
X163144555Y-88710000D01*
X162522000Y-88710000D01*
X162522000Y-89434628D01*
X162536503Y-89507540D01*
X162536505Y-89507544D01*
X162591760Y-89590239D01*
X162674455Y-89645494D01*
X162674459Y-89645496D01*
X162747371Y-89659999D01*
X162747374Y-89660000D01*
X163472000Y-89660000D01*
X163472000Y-89037445D01*
X163556174Y-89060000D01*
X163687826Y-89060000D01*
X163772000Y-89037445D01*
X163772000Y-89660000D01*
X164496626Y-89660000D01*
X164496628Y-89659999D01*
X164569540Y-89645496D01*
X164569544Y-89645494D01*
X164652239Y-89590239D01*
X164707494Y-89507544D01*
X164707496Y-89507540D01*
X164721999Y-89434628D01*
X164722000Y-89434626D01*
X164722000Y-88710000D01*
X164099445Y-88710000D01*
X164122000Y-88625826D01*
X164122000Y-88559999D01*
X165056785Y-88559999D01*
X165056785Y-88560000D01*
X165075602Y-88763082D01*
X165131417Y-88959247D01*
X165131422Y-88959260D01*
X165222327Y-89141821D01*
X165345237Y-89304581D01*
X165495958Y-89441980D01*
X165495960Y-89441982D01*
X165595141Y-89503392D01*
X165669363Y-89549348D01*
X165859544Y-89623024D01*
X166060024Y-89660500D01*
X166060026Y-89660500D01*
X166263974Y-89660500D01*
X166263976Y-89660500D01*
X166464456Y-89623024D01*
X166654637Y-89549348D01*
X166828041Y-89441981D01*
X166978764Y-89304579D01*
X167101673Y-89141821D01*
X167192582Y-88959250D01*
X167248397Y-88763083D01*
X167267215Y-88560000D01*
X167261115Y-88494174D01*
X167248397Y-88356917D01*
X167192582Y-88160750D01*
X167192159Y-88159901D01*
X167142415Y-88060000D01*
X167101673Y-87978179D01*
X166978764Y-87815421D01*
X166978762Y-87815418D01*
X166828041Y-87678019D01*
X166828039Y-87678017D01*
X166654642Y-87570655D01*
X166654635Y-87570651D01*
X166549082Y-87529760D01*
X166464456Y-87496976D01*
X166263976Y-87459500D01*
X166060024Y-87459500D01*
X165859544Y-87496976D01*
X165859541Y-87496976D01*
X165859541Y-87496977D01*
X165669364Y-87570651D01*
X165669357Y-87570655D01*
X165495960Y-87678017D01*
X165495958Y-87678019D01*
X165345237Y-87815418D01*
X165222327Y-87978178D01*
X165131422Y-88160739D01*
X165131417Y-88160752D01*
X165075602Y-88356917D01*
X165056785Y-88559999D01*
X164122000Y-88559999D01*
X164122000Y-88494174D01*
X164099445Y-88410000D01*
X164722000Y-88410000D01*
X164722000Y-87685373D01*
X164721999Y-87685371D01*
X164707496Y-87612459D01*
X164707494Y-87612455D01*
X164652239Y-87529760D01*
X164569544Y-87474505D01*
X164569540Y-87474503D01*
X164496627Y-87460000D01*
X163772000Y-87460000D01*
X163772000Y-88082554D01*
X163687826Y-88060000D01*
X163556174Y-88060000D01*
X163472000Y-88082554D01*
X163472000Y-87460000D01*
X162747373Y-87460000D01*
X162674459Y-87474503D01*
X162674455Y-87474505D01*
X162591760Y-87529760D01*
X162536505Y-87612455D01*
X162536503Y-87612459D01*
X162522000Y-87685371D01*
X113000500Y-87685371D01*
X113000500Y-86019999D01*
X162516785Y-86019999D01*
X162516785Y-86020000D01*
X162535602Y-86223082D01*
X162591417Y-86419247D01*
X162591422Y-86419260D01*
X162682327Y-86601821D01*
X162805237Y-86764581D01*
X162955958Y-86901980D01*
X162955960Y-86901982D01*
X163055141Y-86963392D01*
X163129363Y-87009348D01*
X163319544Y-87083024D01*
X163520024Y-87120500D01*
X163520026Y-87120500D01*
X163723974Y-87120500D01*
X163723976Y-87120500D01*
X163924456Y-87083024D01*
X164114637Y-87009348D01*
X164288041Y-86901981D01*
X164438764Y-86764579D01*
X164561673Y-86601821D01*
X164652582Y-86419250D01*
X164708397Y-86223083D01*
X164727215Y-86020000D01*
X164727215Y-86019999D01*
X165056785Y-86019999D01*
X165056785Y-86020000D01*
X165075602Y-86223082D01*
X165131417Y-86419247D01*
X165131422Y-86419260D01*
X165222327Y-86601821D01*
X165345237Y-86764581D01*
X165495958Y-86901980D01*
X165495960Y-86901982D01*
X165595141Y-86963392D01*
X165669363Y-87009348D01*
X165859544Y-87083024D01*
X166060024Y-87120500D01*
X166060026Y-87120500D01*
X166263974Y-87120500D01*
X166263976Y-87120500D01*
X166464456Y-87083024D01*
X166654637Y-87009348D01*
X166828041Y-86901981D01*
X166978764Y-86764579D01*
X167101673Y-86601821D01*
X167192582Y-86419250D01*
X167248397Y-86223083D01*
X167267215Y-86020000D01*
X167248397Y-85816917D01*
X167192582Y-85620750D01*
X167101673Y-85438179D01*
X166978764Y-85275421D01*
X166978762Y-85275418D01*
X166828041Y-85138019D01*
X166828039Y-85138017D01*
X166654642Y-85030655D01*
X166654635Y-85030651D01*
X166559546Y-84993814D01*
X166464456Y-84956976D01*
X166263976Y-84919500D01*
X166060024Y-84919500D01*
X165859544Y-84956976D01*
X165859541Y-84956976D01*
X165859541Y-84956977D01*
X165669364Y-85030651D01*
X165669357Y-85030655D01*
X165495960Y-85138017D01*
X165495958Y-85138019D01*
X165345237Y-85275418D01*
X165222327Y-85438178D01*
X165131422Y-85620739D01*
X165131417Y-85620752D01*
X165075602Y-85816917D01*
X165056785Y-86019999D01*
X164727215Y-86019999D01*
X164708397Y-85816917D01*
X164652582Y-85620750D01*
X164561673Y-85438179D01*
X164438764Y-85275421D01*
X164438762Y-85275418D01*
X164288041Y-85138019D01*
X164288039Y-85138017D01*
X164114642Y-85030655D01*
X164114635Y-85030651D01*
X164019546Y-84993814D01*
X163924456Y-84956976D01*
X163723976Y-84919500D01*
X163520024Y-84919500D01*
X163319544Y-84956976D01*
X163319541Y-84956976D01*
X163319541Y-84956977D01*
X163129364Y-85030651D01*
X163129357Y-85030655D01*
X162955960Y-85138017D01*
X162955958Y-85138019D01*
X162805237Y-85275418D01*
X162682327Y-85438178D01*
X162591422Y-85620739D01*
X162591417Y-85620752D01*
X162535602Y-85816917D01*
X162516785Y-86019999D01*
X113000500Y-86019999D01*
X113000500Y-83479999D01*
X162516785Y-83479999D01*
X162516785Y-83480000D01*
X162535602Y-83683082D01*
X162591417Y-83879247D01*
X162591422Y-83879260D01*
X162682327Y-84061821D01*
X162805237Y-84224581D01*
X162955958Y-84361980D01*
X162955960Y-84361982D01*
X163055141Y-84423392D01*
X163129363Y-84469348D01*
X163319544Y-84543024D01*
X163520024Y-84580500D01*
X163520026Y-84580500D01*
X163723974Y-84580500D01*
X163723976Y-84580500D01*
X163924456Y-84543024D01*
X164114637Y-84469348D01*
X164288041Y-84361981D01*
X164438764Y-84224579D01*
X164561673Y-84061821D01*
X164652582Y-83879250D01*
X164708397Y-83683083D01*
X164727215Y-83480000D01*
X164721115Y-83414174D01*
X164708397Y-83276917D01*
X164652582Y-83080750D01*
X164652159Y-83079901D01*
X164602415Y-82980000D01*
X164561673Y-82898179D01*
X164438764Y-82735421D01*
X164438762Y-82735418D01*
X164296106Y-82605371D01*
X165062000Y-82605371D01*
X165062000Y-83330000D01*
X165684555Y-83330000D01*
X165662000Y-83414174D01*
X165662000Y-83545826D01*
X165684555Y-83630000D01*
X165062000Y-83630000D01*
X165062000Y-84354628D01*
X165076503Y-84427540D01*
X165076505Y-84427544D01*
X165131760Y-84510239D01*
X165214455Y-84565494D01*
X165214459Y-84565496D01*
X165287371Y-84579999D01*
X165287374Y-84580000D01*
X166012000Y-84580000D01*
X166012000Y-83957445D01*
X166096174Y-83980000D01*
X166227826Y-83980000D01*
X166312000Y-83957445D01*
X166312000Y-84580000D01*
X167036626Y-84580000D01*
X167036628Y-84579999D01*
X167109540Y-84565496D01*
X167109544Y-84565494D01*
X167192239Y-84510239D01*
X167247494Y-84427544D01*
X167247496Y-84427540D01*
X167261999Y-84354628D01*
X167262000Y-84354626D01*
X167262000Y-83630000D01*
X166639445Y-83630000D01*
X166662000Y-83545826D01*
X166662000Y-83414174D01*
X166639445Y-83330000D01*
X167262000Y-83330000D01*
X167262000Y-82605373D01*
X167261999Y-82605371D01*
X167247496Y-82532459D01*
X167247494Y-82532455D01*
X167192239Y-82449760D01*
X167109544Y-82394505D01*
X167109540Y-82394503D01*
X167036627Y-82380000D01*
X166312000Y-82380000D01*
X166312000Y-83002554D01*
X166227826Y-82980000D01*
X166096174Y-82980000D01*
X166012000Y-83002554D01*
X166012000Y-82380000D01*
X165287373Y-82380000D01*
X165214459Y-82394503D01*
X165214455Y-82394505D01*
X165131760Y-82449760D01*
X165076505Y-82532455D01*
X165076503Y-82532459D01*
X165062000Y-82605371D01*
X164296106Y-82605371D01*
X164288041Y-82598019D01*
X164288039Y-82598017D01*
X164114642Y-82490655D01*
X164114635Y-82490651D01*
X164009082Y-82449760D01*
X163924456Y-82416976D01*
X163723976Y-82379500D01*
X163520024Y-82379500D01*
X163319544Y-82416976D01*
X163319541Y-82416976D01*
X163319541Y-82416977D01*
X163129364Y-82490651D01*
X163129357Y-82490655D01*
X162955960Y-82598017D01*
X162955958Y-82598019D01*
X162805237Y-82735418D01*
X162682327Y-82898178D01*
X162591422Y-83080739D01*
X162591417Y-83080752D01*
X162535602Y-83276917D01*
X162516785Y-83479999D01*
X113000500Y-83479999D01*
X113000500Y-80939999D01*
X162516785Y-80939999D01*
X162516785Y-80940000D01*
X162535602Y-81143082D01*
X162591417Y-81339247D01*
X162591422Y-81339260D01*
X162682327Y-81521821D01*
X162805237Y-81684581D01*
X162955958Y-81821980D01*
X162955960Y-81821982D01*
X163055141Y-81883392D01*
X163129363Y-81929348D01*
X163319544Y-82003024D01*
X163520024Y-82040500D01*
X163520026Y-82040500D01*
X163723974Y-82040500D01*
X163723976Y-82040500D01*
X163924456Y-82003024D01*
X164114637Y-81929348D01*
X164288041Y-81821981D01*
X164438764Y-81684579D01*
X164561673Y-81521821D01*
X164652582Y-81339250D01*
X164708397Y-81143083D01*
X164727215Y-80940000D01*
X164727215Y-80939999D01*
X165056785Y-80939999D01*
X165056785Y-80940000D01*
X165075602Y-81143082D01*
X165131417Y-81339247D01*
X165131422Y-81339260D01*
X165222327Y-81521821D01*
X165345237Y-81684581D01*
X165495958Y-81821980D01*
X165495960Y-81821982D01*
X165595141Y-81883392D01*
X165669363Y-81929348D01*
X165859544Y-82003024D01*
X166060024Y-82040500D01*
X166060026Y-82040500D01*
X166263974Y-82040500D01*
X166263976Y-82040500D01*
X166464456Y-82003024D01*
X166654637Y-81929348D01*
X166828041Y-81821981D01*
X166978764Y-81684579D01*
X167101673Y-81521821D01*
X167192582Y-81339250D01*
X167248397Y-81143083D01*
X167267215Y-80940000D01*
X167248397Y-80736917D01*
X167192582Y-80540750D01*
X167101673Y-80358179D01*
X166978764Y-80195421D01*
X166978762Y-80195418D01*
X166828041Y-80058019D01*
X166828039Y-80058017D01*
X166654642Y-79950655D01*
X166654635Y-79950651D01*
X166559546Y-79913814D01*
X166464456Y-79876976D01*
X166263976Y-79839500D01*
X166060024Y-79839500D01*
X165859544Y-79876976D01*
X165859541Y-79876976D01*
X165859541Y-79876977D01*
X165669364Y-79950651D01*
X165669357Y-79950655D01*
X165495960Y-80058017D01*
X165495958Y-80058019D01*
X165345237Y-80195418D01*
X165222327Y-80358178D01*
X165131422Y-80540739D01*
X165131417Y-80540752D01*
X165075602Y-80736917D01*
X165056785Y-80939999D01*
X164727215Y-80939999D01*
X164708397Y-80736917D01*
X164652582Y-80540750D01*
X164561673Y-80358179D01*
X164438764Y-80195421D01*
X164438762Y-80195418D01*
X164288041Y-80058019D01*
X164288039Y-80058017D01*
X164114642Y-79950655D01*
X164114635Y-79950651D01*
X164019546Y-79913814D01*
X163924456Y-79876976D01*
X163723976Y-79839500D01*
X163520024Y-79839500D01*
X163319544Y-79876976D01*
X163319541Y-79876976D01*
X163319541Y-79876977D01*
X163129364Y-79950651D01*
X163129357Y-79950655D01*
X162955960Y-80058017D01*
X162955958Y-80058019D01*
X162805237Y-80195418D01*
X162682327Y-80358178D01*
X162591422Y-80540739D01*
X162591417Y-80540752D01*
X162535602Y-80736917D01*
X162516785Y-80939999D01*
X113000500Y-80939999D01*
X113000500Y-78399999D01*
X162516785Y-78399999D01*
X162516785Y-78400000D01*
X162535602Y-78603082D01*
X162591417Y-78799247D01*
X162591422Y-78799260D01*
X162682327Y-78981821D01*
X162805237Y-79144581D01*
X162955958Y-79281980D01*
X162955960Y-79281982D01*
X163055141Y-79343392D01*
X163129363Y-79389348D01*
X163319544Y-79463024D01*
X163520024Y-79500500D01*
X163520026Y-79500500D01*
X163723974Y-79500500D01*
X163723976Y-79500500D01*
X163924456Y-79463024D01*
X164114637Y-79389348D01*
X164288041Y-79281981D01*
X164438764Y-79144579D01*
X164561673Y-78981821D01*
X164652582Y-78799250D01*
X164708397Y-78603083D01*
X164727215Y-78400000D01*
X164727215Y-78399999D01*
X165056785Y-78399999D01*
X165056785Y-78400000D01*
X165075602Y-78603082D01*
X165131417Y-78799247D01*
X165131422Y-78799260D01*
X165222327Y-78981821D01*
X165345237Y-79144581D01*
X165495958Y-79281980D01*
X165495960Y-79281982D01*
X165595141Y-79343392D01*
X165669363Y-79389348D01*
X165859544Y-79463024D01*
X166060024Y-79500500D01*
X166060026Y-79500500D01*
X166263974Y-79500500D01*
X166263976Y-79500500D01*
X166464456Y-79463024D01*
X166654637Y-79389348D01*
X166828041Y-79281981D01*
X166978764Y-79144579D01*
X167101673Y-78981821D01*
X167192582Y-78799250D01*
X167248397Y-78603083D01*
X167267215Y-78400000D01*
X167248397Y-78196917D01*
X167192582Y-78000750D01*
X167101673Y-77818179D01*
X166978764Y-77655421D01*
X166978762Y-77655418D01*
X166828041Y-77518019D01*
X166828039Y-77518017D01*
X166654642Y-77410655D01*
X166654635Y-77410651D01*
X166559546Y-77373814D01*
X166464456Y-77336976D01*
X166263976Y-77299500D01*
X166060024Y-77299500D01*
X165859544Y-77336976D01*
X165859541Y-77336976D01*
X165859541Y-77336977D01*
X165669364Y-77410651D01*
X165669357Y-77410655D01*
X165495960Y-77518017D01*
X165495958Y-77518019D01*
X165345237Y-77655418D01*
X165222327Y-77818178D01*
X165131422Y-78000739D01*
X165131417Y-78000752D01*
X165075602Y-78196917D01*
X165056785Y-78399999D01*
X164727215Y-78399999D01*
X164708397Y-78196917D01*
X164652582Y-78000750D01*
X164561673Y-77818179D01*
X164438764Y-77655421D01*
X164438762Y-77655418D01*
X164288041Y-77518019D01*
X164288039Y-77518017D01*
X164114642Y-77410655D01*
X164114635Y-77410651D01*
X164019546Y-77373814D01*
X163924456Y-77336976D01*
X163723976Y-77299500D01*
X163520024Y-77299500D01*
X163319544Y-77336976D01*
X163319541Y-77336976D01*
X163319541Y-77336977D01*
X163129364Y-77410651D01*
X163129357Y-77410655D01*
X162955960Y-77518017D01*
X162955958Y-77518019D01*
X162805237Y-77655418D01*
X162682327Y-77818178D01*
X162591422Y-78000739D01*
X162591417Y-78000752D01*
X162535602Y-78196917D01*
X162516785Y-78399999D01*
X113000500Y-78399999D01*
X113000500Y-73372070D01*
X114374500Y-73372070D01*
X114374500Y-73627929D01*
X114414526Y-73880640D01*
X114493588Y-74123972D01*
X114493589Y-74123975D01*
X114572533Y-74278910D01*
X114593352Y-74319769D01*
X114609750Y-74351950D01*
X114760132Y-74558935D01*
X114760136Y-74558940D01*
X114941059Y-74739863D01*
X114941064Y-74739867D01*
X115121607Y-74871038D01*
X115148053Y-74890252D01*
X115297080Y-74966185D01*
X115376024Y-75006410D01*
X115376027Y-75006411D01*
X115497693Y-75045942D01*
X115619361Y-75085474D01*
X115872070Y-75125500D01*
X115872071Y-75125500D01*
X116127929Y-75125500D01*
X116127930Y-75125500D01*
X116380639Y-75085474D01*
X116623975Y-75006410D01*
X116851947Y-74890252D01*
X117058942Y-74739862D01*
X117239862Y-74558942D01*
X117390252Y-74351947D01*
X117506410Y-74123975D01*
X117585474Y-73880639D01*
X117625500Y-73627930D01*
X117625500Y-73372070D01*
X117585474Y-73119361D01*
X117506410Y-72876025D01*
X117506410Y-72876024D01*
X117466185Y-72797080D01*
X117390252Y-72648053D01*
X117371038Y-72621607D01*
X117239867Y-72441064D01*
X117239863Y-72441059D01*
X117058940Y-72260136D01*
X117058935Y-72260132D01*
X116851950Y-72109750D01*
X116851949Y-72109749D01*
X116851947Y-72109748D01*
X116778910Y-72072533D01*
X116623975Y-71993589D01*
X116623972Y-71993588D01*
X116380640Y-71914526D01*
X116254284Y-71894513D01*
X116127930Y-71874500D01*
X115872070Y-71874500D01*
X115787833Y-71887842D01*
X115619359Y-71914526D01*
X115376027Y-71993588D01*
X115376024Y-71993589D01*
X115148049Y-72109750D01*
X114941064Y-72260132D01*
X114941059Y-72260136D01*
X114760136Y-72441059D01*
X114760132Y-72441064D01*
X114609750Y-72648049D01*
X114493589Y-72876024D01*
X114493588Y-72876027D01*
X114414526Y-73119359D01*
X114374500Y-73372070D01*
X113000500Y-73372070D01*
X113000500Y-73003749D01*
X113000726Y-72996262D01*
X113018271Y-72706205D01*
X113020076Y-72691340D01*
X113028010Y-72648049D01*
X113071780Y-72409197D01*
X113075364Y-72394663D01*
X113117284Y-72260138D01*
X113160696Y-72120822D01*
X113165998Y-72106841D01*
X113283731Y-71845249D01*
X113290676Y-71832016D01*
X113439080Y-71586526D01*
X113447567Y-71574230D01*
X113624480Y-71348417D01*
X113634395Y-71337226D01*
X113837226Y-71134395D01*
X113848417Y-71124480D01*
X114074230Y-70947567D01*
X114086526Y-70939080D01*
X114332016Y-70790676D01*
X114345249Y-70783731D01*
X114606841Y-70665998D01*
X114620822Y-70660696D01*
X114894668Y-70575362D01*
X114909197Y-70571780D01*
X115191344Y-70520075D01*
X115206201Y-70518271D01*
X115496264Y-70500726D01*
X115503751Y-70500500D01*
X115565892Y-70500500D01*
X130934108Y-70500500D01*
X130993038Y-70500500D01*
X131006922Y-70501280D01*
G37*
%TD.AperFunction*%
%TD*%
M02*
